<?xml version="1.0" encoding="utf-8"?>
<!-- Generator: Adobe Illustrator 22.0.0, SVG Export Plug-In . SVG Version: 6.00 Build 0)  -->
<svg version="1.1" id="Layer_1" xmlns="http://www.w3.org/2000/svg" xmlns:xlink="http://www.w3.org/1999/xlink" x="0px" y="0px"
	 viewBox="0 0 91 91" style="enable-background:new 0 0 91 91;" xml:space="preserve">
<style type="text/css">
	.st0{fill:#FFFFFF;}
</style>
<g>
	<path class="st0" d="M68.8,33.2l0-0.4c-0.2-4.1-1.7-7.1-4.8-9.2C61.5,21.9,58,21,54,21c-3,0-6.2,0.6-8.6,1.6
		c-1.8-0.8-4.2-1.4-6.7-1.6c-0.1,0-0.1,0-0.2,0l-4,0.1c-0.1,0-0.1,0-0.2,0c-2.9,0.3-5.4,1.2-7.4,2.5c-3.1,2.1-4.7,5.2-4.8,9.3
		c0,0.1,0,0.3,0,0.4c0,0.2,0,0.3,0,0.5c0,5.6,1.4,8,2.8,10.6l0.2,0.4c1.5,2.6,3,5.6,2.9,11.1c0,8.3,1.6,12.7,2.9,14.9
		c1.4,2.3,2.4,3.7,5.2,3.7c2.7,0,4.2-2.2,4.4-4.4c0.1-1,0.1-2.1,0.1-3.3c0-2.6,0.1-5.9,1.1-9.2l0-0.1c0.4-1.3,0.9-2.8,1.7-4.1
		c0.4-0.6,1.3-1.3,2.2-1.3c0.2,0,1,0,1.7,1.3c0.9,1.4,1.4,2.9,1.8,4.3c1,3.3,1.4,7.1,1.1,10.2c-0.2,2.3,0.3,4.1,1.4,5.3
		c1.2,1.3,2.7,1.4,3.1,1.4h0c2.5,0,3.7-1.2,5.2-3.7c1.3-2.2,2.9-6.6,2.9-14.9c0-5.5,1.4-8.4,3-11.2l0.2-0.4c1.4-2.5,2.7-5,2.8-10.6
		C68.8,33.5,68.8,33.4,68.8,33.2z M54.8,72.2V70c0,0,0,0,0,0L54.8,72.2z M62.2,42.2L62,42.5c-1.7,3-3.6,6.7-3.5,13.3
		c0,7.7-1.4,11.2-2.2,12.6c-0.7,1.2-1,1.5-1,1.5c0,0-0.1,0-0.2,0c-0.1-0.1-0.3-0.6-0.2-1.9c0.3-3.7-0.2-8-1.3-11.9
		c-0.5-1.6-1.1-3.5-2.3-5.3c-1.3-2.2-3.3-3.3-5.5-3.3c-2.3,0-4.6,1.3-5.9,3.3c-1.2,1.8-1.8,3.8-2.3,5.3l0,0.1
		c-1.2,3.9-1.2,7.5-1.3,10.4c0,1.1,0,2.1-0.1,3c0,0.1-0.1,0.3-0.1,0.4c-0.1,0-0.2,0-0.2,0c-0.1-0.1-0.4-0.5-1-1.5
		c-0.8-1.4-2.3-4.9-2.2-12.6c0-6.6-1.8-10.4-3.5-13.3l-0.2-0.4c-1.3-2.4-2.2-4-2.2-8.4l0-0.3c0-0.2,0-0.3,0-0.4
		c0.1-3.4,1.5-4.8,2.9-5.7c1.3-0.9,3.1-1.5,5.3-1.7l3.8,0c2,0.2,3.9,0.6,5.3,1.2l0.7,0.3l5.3,2.8c0.3,0.2,0.7,0.3,1,0.3
		c0.8,0,1.6-0.4,1.9-1.2c0.6-1.1,0.2-2.4-0.9-3l-0.7-0.3c0.9-0.1,1.9-0.2,2.9-0.2c2.9,0,5.6,0.7,7.4,1.9c2,1.4,2.8,3,2.9,5.7l0,0.4
		c0,0.1,0,0.3,0,0.4C64.4,38.2,63.5,39.8,62.2,42.2z"/>
	<g>
		<path class="st0" d="M45,1.2c-1.2,0-2.2,1-2.2,2.2v7c0,1.2,1,2.2,2.2,2.2s2.2-1,2.2-2.2v-7C47.2,2.1,46.2,1.2,45,1.2z"/>
		<path class="st0" d="M45,78.4c-1.2,0-2.2,1-2.2,2.2v7c0,1.2,1,2.2,2.2,2.2s2.2-1,2.2-2.2v-7C47.2,79.4,46.2,78.4,45,78.4z"/>
		<path class="st0" d="M87.6,43.8h-7c-1.2,0-2.2,1-2.2,2.2c0,1.2,1,2.2,2.2,2.2h7c1.2,0,2.2-1,2.2-2.2
			C89.8,44.8,88.9,43.8,87.6,43.8z"/>
		<path class="st0" d="M12.6,46c0-1.2-1-2.2-2.2-2.2h-7c-1.2,0-2.2,1-2.2,2.2c0,1.2,1,2.2,2.2,2.2h7C11.6,48.2,12.6,47.2,12.6,46z"
			/>
		<path class="st0" d="M61.4,16.9c0.3,0.2,0.7,0.3,1.1,0.3c0.8,0,1.5-0.4,1.9-1.1l3.5-6.1c0.6-1.1,0.2-2.4-0.8-3
			c-1.1-0.6-2.4-0.2-3,0.8l-3.5,6.1C59.9,14.9,60.3,16.3,61.4,16.9z"/>
		<path class="st0" d="M28.8,74.1c-1.1-0.6-2.4-0.2-3,0.8L22.3,81c-0.6,1.1-0.2,2.4,0.8,3c0.3,0.2,0.7,0.3,1.1,0.3
			c0.8,0,1.5-0.4,1.9-1.1l3.5-6.1C30.2,76,29.8,74.7,28.8,74.1z"/>
		<path class="st0" d="M83,65.1l-6.1-3.5c-1.1-0.6-2.4-0.2-3,0.8c-0.6,1.1-0.2,2.4,0.8,3l6.1,3.5c0.3,0.2,0.7,0.3,1.1,0.3
			c0.8,0,1.5-0.4,1.9-1.1C84.4,67.1,84,65.7,83,65.1z"/>
		<path class="st0" d="M7.5,27.2l6.1,3.5c0.3,0.2,0.7,0.3,1.1,0.3c0.8,0,1.5-0.4,1.9-1.1c0.6-1.1,0.2-2.4-0.8-3l-6.1-3.5
			c-1.1-0.6-2.4-0.2-3,0.8C6.1,25.3,6.5,26.6,7.5,27.2z"/>
		<path class="st0" d="M75.4,29.8c0.4,0,0.8-0.1,1.1-0.3l6-3.6c1-0.6,1.4-2,0.8-3c-0.6-1-2-1.4-3-0.8l-6,3.6c-1,0.6-1.4,2-0.8,3
			C73.9,29.4,74.6,29.8,75.4,29.8z"/>
		<path class="st0" d="M13.8,61.5l-6,3.6c-1,0.6-1.4,2-0.8,3c0.4,0.7,1.1,1.1,1.9,1.1c0.4,0,0.8-0.1,1.1-0.3l6-3.6
			c1-0.6,1.4-2,0.8-3C16.2,61.2,14.8,60.9,13.8,61.5z"/>
		<path class="st0" d="M64.8,75.3c-0.6-1-2-1.4-3-0.8c-1,0.6-1.4,2-0.8,3l3.6,6c0.4,0.7,1.1,1.1,1.9,1.1c0.4,0,0.8-0.1,1.1-0.3
			c1-0.6,1.4-2,0.8-3L64.8,75.3z"/>
		<path class="st0" d="M27,18.2c0.4,0,0.8-0.1,1.1-0.3c1-0.6,1.4-2,0.8-3l-3.6-6c-0.6-1-2-1.4-3-0.8c-1,0.6-1.4,2-0.8,3l3.6,6
			C25.5,17.8,26.3,18.2,27,18.2z"/>
	</g>
	<path class="st0" d="M33.2,39.8c-0.6,0-1.3-0.3-1.7-0.9c-1.1-1.7-1.1-3.9-0.2-6.1c1-2.3,2.9-4,5.1-4.4c1.1-0.2,2.1,0.5,2.3,1.5
		c0.2,1.1-0.5,2.1-1.5,2.3c-0.9,0.2-1.8,1-2.3,2.1c-0.4,0.9-0.4,1.9-0.1,2.4c0.6,0.9,0.3,2.1-0.6,2.7C33.9,39.7,33.5,39.8,33.2,39.8
		z"/>
</g>
</svg>
