<?xml version="1.0" encoding="utf-8"?>
<!-- Generator: Adobe Illustrator 22.0.0, SVG Export Plug-In . SVG Version: 6.00 Build 0)  -->
<svg version="1.1" id="Layer_1" xmlns="http://www.w3.org/2000/svg" xmlns:xlink="http://www.w3.org/1999/xlink" x="0px" y="0px"
	 viewBox="0 0 85 85" style="enable-background:new 0 0 85 85;" xml:space="preserve">
<style type="text/css">
	.st0{display:none;}
	.st1{display:inline;fill:none;stroke:#000000;stroke-miterlimit:10;}
	.st2{fill:url(#SVGID_1_);}
	.st3{fill:url(#SVGID_2_);}
	.st4{fill:#FFFFFF;}
	.st5{fill:url(#SVGID_3_);}
	.st6{fill:#E49D04;}
	.st7{fill:#020100;}
	.st8{fill:#D5202A;}
</style>
<g class="st0">
	<circle class="st1" cx="44.2" cy="1461.5" r="337.5"/>
	<circle class="st1" cx="44.2" cy="1399.6" r="275.6"/>
	<ellipse class="st1" cx="44.2" cy="1406.5" rx="190.1" ry="191.8"/>
	<ellipse class="st1" cx="44.2" cy="1371.3" rx="155.2" ry="156.7"/>
</g>
<g>
	<g>
		
			<linearGradient id="SVGID_1_" gradientUnits="userSpaceOnUse" x1="17.9719" y1="2795.364" x2="67.0675" y2="2795.364" gradientTransform="matrix(1 0 0 -1 0 2834.6455)">
			<stop  offset="0" style="stop-color:#D94048"/>
			<stop  offset="1" style="stop-color:#CD010B"/>
		</linearGradient>
		<path class="st2" d="M67.1,39.3c0,13.6-11,24.5-24.5,24.5S18,52.8,18,39.3C18,25.9,28.7,15,42,14.7c-10.8,0.3-19.5,9.1-19.5,20
			c0,11.1,9,20,20,20s20-9,20-20c0-10.9-8.7-19.8-19.5-20C56.4,15,67.1,25.9,67.1,39.3z"/>
		
			<linearGradient id="SVGID_2_" gradientUnits="userSpaceOnUse" x1="28.6951" y1="2799.3696" x2="56.3474" y2="2799.3696" gradientTransform="matrix(1 0 0 -1 0 2834.6455)">
			<stop  offset="0" style="stop-color:#4094D2"/>
			<stop  offset="1" style="stop-color:#0070C3"/>
		</linearGradient>
		<path class="st3" d="M56.3,35.3c0,7.7-6.2,14-13.8,14s-13.8-6.2-13.8-14c0-7.6,6-13.7,13.4-13.9c-6,0.2-10.9,5.2-10.9,11.4
			c0,6.3,5.1,11.4,11.3,11.4S53.8,39,53.8,32.7c0-6.1-4.8-11.2-10.9-11.4C50.4,21.6,56.3,27.7,56.3,35.3z"/>
		<g>
			<path class="st4" d="M26,51.2C26,51.3,26,51.3,26,51.2c0.1,0.1,0.1,0.1,0.2,0.1c0,0,0.1,0,0.1,0c0,0,0,0,0.1,0c0,0,0,0,0-0.1
				c0,0,0-0.1,0-0.1c0,0,0-0.1,0-0.1c0,0,0-0.1-0.1-0.1c0,0-0.1,0-0.1-0.1c0,0-0.1,0-0.1,0c0,0-0.1,0-0.1,0c0,0-0.1,0-0.1,0
				c0,0,0,0,0,0.1s0,0.1,0,0.1S25.9,51.1,26,51.2C25.9,51.2,26,51.2,26,51.2z"/>
			<path class="st4" d="M26.3,51.8c-0.4,0.4-0.6,0.6-0.9,1c0,0-0.1,0.1-0.1,0.1c0,0-0.1,0-0.2,0c-0.1,0-0.1,0-0.2-0.1
				c-0.1,0-0.1-0.1-0.1-0.1c0-0.1-0.1-0.1-0.1-0.2c0-0.1-0.1-0.1-0.1-0.2c0-0.1,0-0.1,0-0.2c0-0.1,0-0.1,0.1-0.1
				c0.2-0.2,0.3-0.3,0.5-0.5c-0.1-0.2-0.2-0.2-0.3-0.4c-0.2,0.2-0.3,0.3-0.5,0.5c-0.1,0.1-0.1,0.2-0.2,0.3c0,0.1,0,0.2,0,0.4
				c0,0.1,0.1,0.2,0.1,0.4s0.1,0.2,0.2,0.3c0.1,0.1,0.2,0.2,0.3,0.3c0.1,0.1,0.2,0.1,0.3,0.1c0.1,0,0.2,0,0.3,0s0.2-0.1,0.3-0.2
				c0.4-0.4,0.5-0.6,0.9-1.1C26.5,52,26.4,51.9,26.3,51.8z"/>
			<path class="st4" d="M28.1,53.1C28.2,53.2,28.2,53.2,28.1,53.1c0.1,0.1,0.1,0.1,0.2,0.1c0,0,0.1,0,0.1,0c0,0,0.1,0,0.1,0
				c0,0,0,0,0.1-0.1c0,0,0-0.1,0-0.1c0,0,0-0.1,0-0.1c0,0,0-0.1,0-0.1c0,0,0-0.1-0.1-0.1c0,0-0.1,0-0.1-0.1c0,0-0.1,0-0.1,0
				c0,0-0.1,0-0.1,0c0,0,0,0-0.1,0.1c0,0,0,0.1,0,0.1C28.1,53,28.1,53,28.1,53.1C28.1,53.1,28.1,53.1,28.1,53.1z"/>
			<path class="st4" d="M30.4,55.3c-0.2,0.4-0.3,0.6-0.6,1c-0.2-0.1-0.3-0.2-0.4-0.3c0.2-0.4,0.3-0.6,0.6-1
				c-0.2-0.1-0.2-0.2-0.4-0.3c-0.2,0.4-0.4,0.6-0.6,1c-0.2-0.1-0.3-0.2-0.4-0.3c0.2-0.4,0.4-0.6,0.6-1c-0.2-0.1-0.2-0.2-0.4-0.3
				c-0.3,0.4-0.4,0.6-0.6,1c-0.1-0.1-0.2-0.2-0.4-0.3c0,0,0,0,0,0c-0.1-0.1-0.2-0.2-0.3-0.3c0.3-0.4,0.4-0.6,0.7-0.9
				c-0.1-0.1-0.2-0.2-0.4-0.3c-0.3,0.4-0.4,0.6-0.7,0.9C27,54.1,27,54,26.9,53.9l0,0c0,0,0,0,0,0c0,0,0,0,0,0l0,0
				c-0.1-0.1-0.2-0.2-0.3-0.3c0.5-0.6,0.7-0.9,1.2-1.5c-0.1-0.1-0.2-0.2-0.3-0.3c-0.5,0.6-0.8,0.9-1.3,1.6c0,0,0,0,0,0
				c0,0,0,0,0,0.1c0,0,0,0.1,0,0.1c0,0,0,0.1,0,0.1c0,0,0,0.1,0.1,0.1c0.2,0.2,0.3,0.3,0.5,0.5l0,0c0.4,0.4,0.6,0.5,1,0.9
				c0,0,0,0,0,0c0.2,0.2,0.4,0.3,0.6,0.5c0,0,0.1,0.1,0.1,0.1c0,0,0.1,0,0.1,0c0,0,0,0.1-0.1,0.1c0.3,0.2,0.4,0.3,0.6,0.5
				c0,0,0.1,0,0.1,0.1c0,0,0.1,0,0.1,0c0,0,0,0.1-0.1,0.1c0.3,0.2,0.4,0.3,0.6,0.4c0,0,0.1,0,0.1,0c0,0,0.1,0,0.1,0c0,0,0.1,0,0.1,0
				c0,0,0,0,0.1-0.1c0.3-0.5,0.4-0.7,0.6-1.2C30.7,55.5,30.6,55.4,30.4,55.3z"/>
			<path class="st4" d="M32.6,55.7c-0.2,0.5-0.4,0.8-0.6,1.4c0,0.1-0.1,0.2-0.2,0.2c-0.1,0-0.1,0.1-0.2,0.1c0,0,0-0.1,0-0.1
				c0,0,0-0.1,0-0.1c0-0.1,0.1-0.3,0.1-0.4c0-0.2,0-0.3,0-0.5c0-0.2,0-0.3,0-0.5c0-0.2-0.1-0.3-0.1-0.5c-0.2,0-0.2,0.1-0.4,0.1
				c0,0.1,0.1,0.3,0.1,0.4c0,0.1,0,0.3,0,0.4s0,0.3,0,0.4s0,0.3-0.1,0.4c0,0.1,0,0.1-0.1,0.2c0,0.1,0,0.1-0.1,0.2
				c-0.1,0-0.2-0.1-0.2-0.1c-0.1,0-0.2-0.1-0.3-0.1c0,0.2-0.1,0.2-0.1,0.4c0.2,0.1,0.3,0.1,0.4,0.2c0.1,0.1,0.3,0.1,0.4,0.1
				c0.1,0,0.2,0,0.3,0c0.1,0,0.2,0,0.3,0c0.1,0,0.2-0.1,0.2-0.2c0.1-0.1,0.1-0.2,0.2-0.3c0.2-0.6,0.4-0.8,0.6-1.4
				C32.9,55.9,32.8,55.8,32.6,55.7z"/>
			<path class="st4" d="M32.4,55.2c-0.1-0.1-0.1-0.1-0.2-0.1c0,0,0,0,0-0.1c0,0,0,0,0-0.1c0,0,0,0,0,0c0,0,0,0,0.1,0
				c0.1,0,0.1,0.1,0.2,0.1c0-0.1,0-0.1,0.1-0.1c-0.1,0-0.1-0.1-0.2-0.1c0,0-0.1,0-0.1,0c0,0-0.1,0-0.1,0c0,0-0.1,0-0.1,0
				s0,0-0.1,0.1c0,0,0,0,0,0c0,0,0,0,0,0c0,0,0,0-0.1,0c0,0.1,0,0.1-0.1,0.1c0.2,0.1,0.3,0.2,0.5,0.3C32.4,55.3,32.4,55.3,32.4,55.2
				z"/>
			<path class="st4" d="M32.6,58.3c0.2,0.1,0.3,0.1,0.4,0.2c0.3-0.7,0.6-1.4,0.8-2.2c-0.2-0.1-0.2-0.1-0.4-0.2
				C33.1,56.9,32.8,57.6,32.6,58.3z"/>
			<path class="st4" d="M35.8,60C35.8,60,35.8,59.9,35.8,60c-0.1-0.1-0.1-0.1-0.2-0.1c0,0-0.1,0-0.1,0c0,0-0.1,0-0.1,0
				c0,0-0.1,0-0.1,0.1c0,0,0,0,0,0.1c0,0,0,0.1,0,0.1c0,0,0,0.1,0,0.1c0,0,0,0,0.1,0.1c0,0,0.1,0,0.1,0c0,0,0.1,0,0.1,0
				c0,0,0.1,0,0.1,0s0.1,0,0.1-0.1c0,0,0,0,0-0.1S35.9,60.1,35.8,60C35.8,60,35.8,60,35.8,60z"/>
			<path class="st4" d="M40.5,58.2c-0.1,0.8-0.1,1.2-0.2,1.9c-0.2,0-0.2,0-0.4,0l0,0c0,0,0,0,0,0c0,0,0,0,0,0l0,0
				c-0.1,0-0.2,0-0.3,0c0-0.4,0.1-0.6,0.1-1c0,0,0-0.1,0-0.1c0,0,0,0,0-0.1c0,0,0,0-0.1-0.1c0,0-0.1,0-0.1,0c-0.3,0-0.5-0.1-0.8-0.1
				c-0.1,0-0.2,0-0.2,0c-0.1,0-0.1,0-0.2,0c-0.1,0-0.1,0-0.2,0.1c0,0-0.1,0.1-0.1,0.1c0.1-0.4,0.1-0.6,0.2-1c-0.2,0-0.3-0.1-0.4-0.1
				c-0.1,0.8-0.2,1.1-0.4,1.9c-0.1,0-0.2,0-0.3-0.1l0,0c0,0,0,0,0,0c0,0,0,0,0,0l0,0c-0.1,0-0.2,0-0.3-0.1c0.1-0.5,0.2-0.7,0.3-1.2
				c-0.2,0-0.3-0.1-0.4-0.1c-0.1,0.5-0.2,0.7-0.3,1.1c-0.4-0.1-0.7-0.2-1.1-0.3c-0.1,0-0.1-0.1-0.2-0.1c0,0-0.1-0.1-0.1-0.1
				c0,0,0-0.1,0-0.1c0,0,0-0.1,0-0.1c0-0.1,0.1-0.1,0.1-0.2c0-0.1,0.1-0.1,0.1-0.1c-0.1-0.1-0.2-0.2-0.3-0.3c0,0-0.1,0.1-0.1,0.1
				c0,0-0.1,0.1-0.1,0.1c0,0-0.1,0.1-0.1,0.1c0,0,0,0.1-0.1,0.2c0,0.1,0,0.2,0,0.3s0,0.2,0.1,0.3c0,0.1,0.1,0.2,0.2,0.3
				s0.2,0.2,0.4,0.2c0.7,0.3,1.1,0.4,1.9,0.5l0,0l0,0c0,0,0,0,0.1,0l0,0c0.9,0.2,1.9,0.4,2.8,0.5l0,0c0.3,0,0.4,0,0.7,0.1
				c0,0,0.1,0,0.1,0c0,0,0.1,0,0.1,0c0,0,0,0,0.1-0.1c0,0,0-0.1,0-0.1c0,0,0,0,0,0c0.1-0.9,0.1-1.3,0.1-2.1
				C40.8,58.2,40.7,58.2,40.5,58.2z M39.2,60c-0.5-0.1-0.8-0.1-1.3-0.2c0-0.2,0-0.2,0.1-0.4c0-0.1,0-0.1,0.1-0.2
				c0,0,0.1-0.1,0.2-0.1c0.1,0,0.1,0,0.2,0c0.1,0,0.2,0,0.2,0c0,0,0.1,0,0.2,0s0.2,0,0.5,0.1C39.3,59.5,39.2,59.6,39.2,60z"/>
			<path class="st4" d="M42.6,58.7C42.6,58.7,42.6,58.7,42.6,58.7c0.1,0.1,0.1,0.1,0.2,0.1s0.1,0,0.1,0c0,0,0.1,0,0.1,0
				c0,0,0,0,0-0.1c0,0,0-0.1,0-0.1c0,0,0-0.1,0-0.1c0,0,0-0.1,0-0.1c0,0,0,0-0.1,0c0,0-0.1,0-0.1,0c0,0-0.1,0-0.1,0c0,0-0.1,0-0.1,0
				c0,0,0,0,0,0.1c0,0,0,0.1,0,0.1S42.5,58.6,42.6,58.7C42.6,58.6,42.6,58.7,42.6,58.7z"/>
			<path class="st4" d="M43.1,58.7C43.2,58.7,43.2,58.7,43.1,58.7c0.1,0.1,0.1,0.1,0.2,0.1s0.1,0,0.1,0c0,0,0.1,0,0.1-0.1
				c0,0,0,0,0-0.1c0,0,0-0.1,0-0.1s0-0.1,0-0.1c0,0,0-0.1-0.1-0.1c0,0,0,0-0.1,0c0,0-0.1,0-0.1,0s-0.1,0-0.1,0s-0.1,0-0.1,0
				c0,0,0,0,0,0.1c0,0,0,0.1,0,0.1C43.1,58.5,43.1,58.6,43.1,58.7C43.1,58.6,43.1,58.6,43.1,58.7z"/>
			<path class="st4" d="M46.1,58.9C46.1,58.9,46.1,58.8,46.1,58.9c0-0.1-0.1-0.1-0.1-0.1c0,0,0,0-0.1,0c0,0-0.1,0-0.1,0
				c-0.2,0-0.4,0.1-0.6,0.1c-0.1,0-0.2,0-0.2,0.1c-0.1,0-0.1,0.1-0.2,0.1c-0.1,0-0.1,0.1-0.2,0.1c0,0.1-0.1,0.1-0.1,0.2
				c0,0.1-0.1,0.1-0.1,0.2s0,0.1,0,0.2c0,0.2,0,0.3,0,0.5c-0.1,0-0.2,0-0.3,0l0,0c0,0,0,0,0,0c0,0,0,0,0,0l0,0c-0.1,0-0.2,0-0.3,0
				c0-0.4,0-0.6-0.1-1c0,0,0-0.1,0-0.1c0,0,0-0.1-0.1-0.1c0,0-0.1,0-0.1-0.1c0,0-0.1,0-0.1,0c-0.2,0-0.3,0-0.5,0
				c-0.1,0-0.2,0-0.3,0.1c-0.1,0-0.2,0.1-0.3,0.2c-0.1,0.1-0.1,0.2-0.2,0.2c0,0.1-0.1,0.2-0.1,0.3c0,0.2,0,0.4,0,0.6
				c0,0.1,0,0.1,0,0.1c0,0,0.1,0.1,0.1,0.1c0.1,0,0.2,0,0.3,0.1c0.1,0,0.2,0,0.4,0c0,0,0.1,0,0.1,0c0,0,0.1,0,0.1,0
				c0-0.2,0-0.3,0-0.4c-0.1,0-0.1,0-0.2,0c-0.1,0-0.1,0-0.2,0c-0.1,0-0.1,0-0.2,0c0-0.2,0-0.3,0-0.5c0,0,0-0.1,0-0.1
				c0,0,0-0.1,0.1-0.1s0.1-0.1,0.1-0.1c0,0,0.1,0,0.2,0c0.2,0,0.2,0,0.4,0c0,0.4,0,0.6,0,1c0,0,0,0.1,0,0.1c0,0,0,0,0,0.1
				c0,0,0,0,0.1,0c0,0,0.1,0,0.1,0c0.2,0,0.4,0,0.6,0l0,0c0.7-0.1,1.1-0.1,1.8-0.2c0,0,0.1,0,0.1,0c0,0,0,0,0.1-0.1c0,0,0,0,0-0.1
				s0-0.1,0-0.1C46.2,59.6,46.2,59.4,46.1,58.9z M44.9,60.1c0-0.2,0-0.3,0-0.5c0,0,0-0.1,0-0.1c0,0,0-0.1,0.1-0.1
				c0,0,0.1-0.1,0.1-0.1c0,0,0.1,0,0.1,0c0,0,0,0,0,0c0,0,0,0,0,0c0,0,0.1,0,0.1,0c0.1,0,0.1,0,0.2,0c0,0.3,0.1,0.5,0.1,0.8
				C45.4,60,45.3,60,44.9,60.1z"/>
			<path class="st4" d="M50.6,58.9c-0.3-0.8-0.4-1.2-0.6-2c-0.2,0.1-0.2,0.1-0.4,0.2c0.2,0.7,0.3,1.1,0.5,1.8
				C49.9,59,49.9,59,49.7,59l0,0c-0.2,0.1-0.4,0.1-0.6,0.2c0.1-0.2,0.1-0.2,0.2-0.4c0-0.1,0.1-0.3,0-0.4c0-0.1-0.1-0.1-0.1-0.2
				c-0.1-0.1-0.1-0.1-0.2-0.1c-0.1,0-0.2,0-0.2,0c-0.1,0-0.2,0-0.3,0c-0.2,0.1-0.3,0.1-0.4,0.1c-0.1,0-0.2,0.1-0.3,0.1
				c-0.1,0-0.1,0.1-0.2,0.2c0,0.1-0.1,0.1-0.1,0.2c0,0.1,0,0.1,0,0.2c0,0.1,0,0.1,0.1,0.2s0.1,0.1,0.1,0.2c0.1,0.1,0.2,0.2,0.3,0.3
				c-0.2,0.1-0.3,0.1-0.5,0.1l0,0c0,0,0,0,0,0c0,0,0,0,0,0l0,0c-0.1,0-0.2,0-0.4,0.1c-0.1-0.8-0.2-1.1-0.3-1.9
				c-0.2,0-0.3,0.1-0.4,0.1c0.1,0.8,0.2,1.3,0.3,2.1c0,0,0,0,0,0c0,0,0,0.1,0,0.1c0,0,0,0,0.1,0.1c0,0,0.1,0,0.1,0c0,0,0.1,0,0.1,0
				c0.3-0.1,0.4-0.1,0.7-0.1c0,0,0,0,0,0c0.8-0.2,1.5-0.4,2.2-0.6l0,0c0,0,0,0,0,0l0,0l0,0c0.2-0.1,0.4-0.1,0.6-0.2c0,0,0.1,0,0.1,0
				c0,0,0,0,0.1-0.1C50.6,59.1,50.6,59.1,50.6,58.9C50.6,59,50.6,59,50.6,58.9C50.6,58.9,50.6,58.9,50.6,58.9z M48.9,58.7
				c-0.1,0.3-0.2,0.4-0.3,0.7c0,0,0,0,0,0c-0.2-0.2-0.3-0.3-0.5-0.5c0,0-0.1-0.1-0.1-0.1c0,0,0,0,0-0.1c0,0,0,0,0-0.1s0,0,0.1,0
				c0,0,0.1,0,0.1,0c0.2,0,0.3-0.1,0.5-0.1c0,0,0.1,0,0.1,0c0,0,0.1,0,0.1,0c0,0,0,0,0.1,0c0,0,0,0,0,0.1
				C48.9,58.6,48.9,58.7,48.9,58.7z"/>
			<path class="st4" d="M50.4,56.7c0.2,0.7,0.5,1.5,0.7,2.2c0.2-0.1,0.3-0.1,0.4-0.2c-0.3-0.7-0.5-1.5-0.8-2.2
				C50.6,56.6,50.6,56.7,50.4,56.7z"/>
			<path class="st4" d="M53,55.8C53.1,55.9,53.1,55.9,53,55.8c0.1,0,0.1,0,0.2,0c0,0,0.1,0,0.1,0c0,0,0.1,0,0.1-0.1s0-0.1,0-0.1
				c0,0,0-0.1,0-0.1c0,0,0-0.1,0-0.1c0,0,0,0-0.1-0.1c0,0,0,0-0.1,0c0,0-0.1,0-0.1,0c0,0-0.1,0-0.1,0c0,0-0.1,0-0.1,0.1
				c0,0,0,0.1,0,0.1c0,0,0,0.1,0,0.1C53,55.7,53,55.7,53,55.8C53,55.8,53,55.8,53,55.8z"/>
			<path class="st4" d="M53.9,56C53.9,56,53.9,56,53.9,56c-0.1-0.1-0.1-0.1-0.2-0.1c0,0-0.1,0-0.1,0c0,0-0.1,0-0.1,0
				c-0.2,0.1-0.3,0.2-0.5,0.3c-0.1,0.1-0.2,0.1-0.3,0.2c-0.1,0.1-0.1,0.2-0.2,0.3c0,0.1-0.1,0.2-0.1,0.3c0,0.1,0,0.2,0.1,0.3
				c0.1,0.2,0.1,0.3,0.2,0.6c0,0,0.1,0.1,0.1,0.1c0,0,0.1,0,0.1,0c0.1,0,0.1,0,0.2,0s0.1,0,0.2-0.1c0.1,0,0.1,0,0.2-0.1
				c0.1,0,0.1-0.1,0.2-0.1c0.1-0.1,0.2-0.1,0.3-0.2s0.2-0.2,0.3-0.2c0,0,0.1-0.1,0.1-0.1c0-0.1,0-0.1,0-0.1
				C54.2,56.6,54.1,56.4,53.9,56z M53.8,57.2c-0.1,0-0.1,0.1-0.2,0.1c0,0-0.1,0-0.1,0.1c0,0-0.1,0-0.1,0c0,0-0.1,0-0.1,0
				c0,0-0.1,0-0.1,0c-0.1-0.2-0.1-0.2-0.2-0.4c0,0,0-0.1,0-0.1c0-0.1,0-0.1,0-0.1c0,0,0-0.1,0.1-0.1c0,0,0.1-0.1,0.1-0.1
				c0.1-0.1,0.2-0.1,0.4-0.2c0.1,0.3,0.2,0.4,0.3,0.7C53.9,57.2,53.8,57.2,53.8,57.2z"/>
			<path class="st4" d="M52.6,56.1C52.7,56.2,52.7,56.2,52.6,56.1c0.1,0,0.2,0,0.2,0c0,0,0.1,0,0.1-0.1s0-0.1,0-0.1c0,0,0-0.1,0-0.1
				s0-0.1,0-0.1c0,0,0-0.1-0.1-0.1c0,0,0,0-0.1,0c0,0-0.1,0-0.1,0c0,0-0.1,0-0.1,0s-0.1,0-0.1,0.1c0,0,0,0.1,0,0.1c0,0,0,0.1,0,0.1
				c0,0,0,0.1,0,0.1C52.5,56.1,52.5,56.1,52.6,56.1C52.6,56.1,52.6,56.1,52.6,56.1z"/>
			<path class="st4" d="M55.7,56.1c0-0.1-0.1-0.2-0.1-0.3c-0.1-0.1-0.1-0.2-0.2-0.3c-0.1-0.1-0.1-0.2-0.2-0.3
				c-0.2,0.1-0.2,0.2-0.4,0.3c0,0.1,0.1,0.2,0.2,0.3s0.1,0.2,0.2,0.3c0,0.1,0.1,0.2,0.1,0.3c0,0.1,0.1,0.2,0.1,0.3
				c0,0.1,0,0.2,0,0.3c0,0.1,0,0.2,0,0.3c0,0.1-0.1,0.2-0.1,0.3c-0.1,0.1-0.2,0.2-0.3,0.2c0.1,0.1,0.1,0.2,0.2,0.4
				c0.2-0.1,0.3-0.2,0.4-0.4c0.1-0.1,0.2-0.3,0.2-0.4c0-0.1,0.1-0.3,0.1-0.4s0-0.3-0.1-0.4C55.7,56.3,55.7,56.2,55.7,56.1z"/>
			<path class="st4" d="M55,54.2c0.4,0.7,0.8,1.3,1.2,2c0.2-0.1,0.2-0.2,0.4-0.3c-0.4-0.6-0.8-1.3-1.2-1.9
				C55.2,54,55.2,54.1,55,54.2z"/>
			<path class="st4" d="M58.4,54.1c-0.1-0.1-0.1-0.2-0.2-0.3c-0.1-0.1-0.1-0.1-0.2-0.2c-0.1-0.1-0.1-0.1-0.2-0.1
				c-0.1,0-0.2,0-0.2-0.1c-0.1,0-0.2,0-0.3,0c-0.1,0-0.2,0.1-0.3,0.1c-0.1,0-0.2,0.1-0.3,0.2c-0.1,0.1-0.2,0.2-0.3,0.3
				c0.1,0.1,0.1,0.2,0.2,0.3c0.2-0.2,0.3-0.3,0.5-0.3c0.1-0.1,0.3-0.1,0.3-0.1c0.1,0,0.2,0,0.3,0.1c0.1,0.1,0.2,0.1,0.3,0.3
				c-0.4,0.4-0.6,0.5-1,0.9c0.1,0.1,0.1,0.2,0.2,0.3c0.5-0.4,0.8-0.6,1.2-1c0,0,0,0,0.1-0.1c0,0,0-0.1,0-0.1S58.4,54.2,58.4,54.1
				C58.4,54.2,58.4,54.2,58.4,54.1z"/>
			<path class="st4" d="M59.7,51.9c-0.4-0.4-0.6-0.7-1-1.1c-0.1,0.1-0.2,0.2-0.3,0.4c0.4,0.4,0.6,0.7,1,1.1c0.1,0.1,0.1,0.2,0.1,0.2
				c0,0.1,0,0.2,0,0.2c0,0-0.1-0.1-0.1-0.1c0,0-0.1-0.1-0.1-0.1c-0.1-0.1-0.2-0.2-0.4-0.2c-0.1-0.1-0.3-0.1-0.4-0.2
				c-0.1,0-0.3-0.1-0.4-0.1c-0.2,0-0.3,0-0.5,0c0,0.2,0,0.3-0.1,0.5c0.1,0,0.3,0,0.4,0c0.1,0,0.3,0.1,0.4,0.1s0.2,0.1,0.3,0.2
				s0.2,0.1,0.3,0.2c0,0,0.1,0.1,0.1,0.1c0,0,0.1,0.1,0.1,0.1c0,0.1-0.1,0.1-0.2,0.2s-0.1,0.2-0.2,0.2c0.1,0.1,0.2,0.2,0.3,0.3
				c0.1-0.1,0.2-0.3,0.3-0.4c0.1-0.1,0.2-0.2,0.2-0.4c0.1-0.1,0.1-0.2,0.2-0.3c0-0.1,0.1-0.2,0.1-0.3s0-0.2-0.1-0.3
				C59.9,52.2,59.8,52.1,59.7,51.9z"/>
			<path class="st4" d="M59.5,54.4C59.4,54.4,59.4,54.4,59.5,54.4c-0.1,0-0.1,0-0.1,0c0,0,0,0,0-0.1c0,0,0-0.1,0.1-0.1
				c0.1-0.1,0.1-0.1,0.2-0.2c0,0-0.1-0.1-0.1-0.1c-0.1,0.1-0.1,0.1-0.2,0.2c0,0-0.1,0.1-0.1,0.1c0,0,0,0.1,0,0.1c0,0,0,0.1,0,0.1
				c0,0,0,0.1,0,0.1c0,0,0,0,0,0c0,0,0,0,0,0c0,0,0,0-0.1,0.1c0,0,0.1,0.1,0.1,0.1c0.2-0.2,0.3-0.3,0.5-0.5c0,0-0.1-0.1-0.1-0.1
				C59.6,54.2,59.6,54.3,59.5,54.4z"/>
			<path class="st4" d="M59.4,50.1c-0.1,0.2-0.2,0.2-0.3,0.4c0.5,0.5,1,1.1,1.6,1.6c0.1-0.2,0.2-0.2,0.3-0.4
				C60.4,51.2,59.9,50.6,59.4,50.1z"/>
		</g>
		<g>
			<path class="st4" d="M25.9,39.4c0.2-0.1,0.3-0.3,0.2-0.4c0-0.1-0.1-0.2-0.1-0.2c0,0.2-0.1,0.3-0.2,0.3c-0.2,0-0.4,0-0.5-0.5
				c-0.1-0.4,0.1-0.8,0.5-0.8c0.4-0.1,0.7,0.2,0.8,0.6c0,0.2,0,0.4-0.1,0.5c0,0.1,0.1,0.2,0.1,0.2c0.1,0,0.1-0.4,0-0.7
				c-0.1-0.5-0.4-1-0.9-0.9c-0.6,0.1-0.6,0.7-0.5,1.2C25.3,39,25.5,39.5,25.9,39.4z"/>
			<path class="st4" d="M26.2,41.2c-0.1,0-0.3-0.2-0.3-0.5c-0.1-0.3-0.1-0.6,0.2-0.7c0,0.1,0.1,0.3,0.1,0.4c0.1,0.3,0.3,0.7,0.6,0.7
				c0.2,0,0.2-0.4,0.1-0.7c-0.1-0.3-0.4-0.8-0.8-0.6c-0.4,0.1-0.4,0.7-0.3,1C25.9,41,26,41.2,26.2,41.2
				C26.2,41.3,26.2,41.2,26.2,41.2z M26.7,40.4c0.1,0.2,0.1,0.3-0.1,0.4c-0.2,0.1-0.3-0.2-0.4-0.5c0-0.1-0.1-0.2-0.1-0.3
				C26.4,39.9,26.6,40.1,26.7,40.4z"/>
			<path class="st4" d="M27.5,42.1c-0.1-0.2-0.3-0.4-0.5-0.4c0,0,0,0,0,0c0.1-0.1,0.2-0.2,0.1-0.3c0-0.1-0.1-0.2-0.2-0.2
				c0,0,0,0,0,0.1c0,0,0.1,0,0.1,0.1c0,0.1,0,0.1-0.1,0.1c-0.3,0.1-0.4,0.2-0.7,0.3c-0.1,0-0.1,0.1,0,0.2c0,0.1,0.1,0.1,0.1,0.1
				c0.1-0.1,0.1-0.1,0.4-0.2c0.3-0.1,0.5,0,0.6,0.2c0.1,0.2,0,0.4-0.2,0.5c-0.2,0.1-0.3,0.2-0.5,0.3c0,0,0,0.1,0,0.2
				c0,0.1,0.1,0.1,0.1,0.1c0-0.1,0.1-0.1,0.2-0.1c0.1-0.1,0.2-0.1,0.4-0.2C27.6,42.7,27.6,42.5,27.5,42.1z"/>
			<path class="st4" d="M27.5,43.5c0,0.1,0.1,0.2,0.2,0.3c0.1,0.2,0.4,0.6,0.7,0.5c0.1-0.1,0.1-0.4-0.1-0.7
				c-0.2-0.3-0.5-0.6-0.9-0.4c-0.3,0.2-0.3,0.7-0.1,1c0.2,0.2,0.3,0.4,0.5,0.4c0.1,0,0.1,0,0.1-0.1c-0.1,0-0.3-0.1-0.4-0.3
				C27.3,44,27.3,43.7,27.5,43.5z M28.2,43.7c0.1,0.1,0.1,0.3,0,0.4c-0.2,0.1-0.4-0.1-0.5-0.3c0-0.1-0.1-0.2-0.1-0.2
				C27.8,43.3,28.1,43.4,28.2,43.7z"/>
			<path class="st4" d="M29.1,45c0.1,0.1,0.1,0.2,0,0.2c0,0-0.1,0-0.1,0c0,0,0,0.1,0.1,0.1c0.1,0.1,0.2,0.1,0.2,0
				c0.1-0.1,0.1-0.3-0.1-0.4c-0.1-0.2-0.3-0.2-0.4-0.2c0,0,0,0,0,0c0.1-0.1,0.1-0.2,0-0.3c-0.1-0.1-0.1-0.1-0.2-0.1c0,0,0,0,0,0.1
				c0,0,0.1,0,0.1,0c0,0,0,0.1,0,0.1c-0.2,0.2-0.4,0.3-0.6,0.4c0,0,0,0.1,0,0.2c0,0.1,0.1,0.1,0.1,0.1c0-0.1,0.1-0.1,0.4-0.3
				C28.8,44.8,29,44.9,29.1,45z"/>
			<path class="st4" d="M30.1,46.7c0.3-0.2,0.1-0.6-0.1-0.8c-0.2-0.3-0.4-0.4-0.6-0.3c-0.1,0.1-0.1,0.2,0,0.3c0,0,0.1,0.1,0.1,0.1
				c0-0.1,0-0.2,0-0.2c0.1-0.1,0.2,0,0.3,0.1c0.2,0.2,0.2,0.4,0,0.5c0,0,0,0,0,0c-0.1-0.1-0.2-0.3-0.4-0.4C29.2,46,29,45.9,28.9,46
				c-0.1,0.1-0.1,0.3,0.1,0.5c0.2,0.2,0.5,0.3,0.7,0.3c0,0,0,0,0,0c-0.1,0.1-0.1,0.3,0,0.4c0.1,0.1,0.2,0.1,0.2,0.1c0,0,0,0,0-0.1
				c0,0-0.1,0-0.1,0c-0.1-0.1-0.1-0.1,0-0.2C29.9,46.9,29.9,46.8,30.1,46.7z M29.1,46.5c-0.1-0.1-0.1-0.2,0-0.3
				c0.1-0.1,0.2,0,0.4,0.1c0.1,0.1,0.3,0.2,0.4,0.3C29.6,46.8,29.3,46.7,29.1,46.5z"/>
			<path class="st4" d="M31,46.5c-0.3,0.3-0.6,0.6-0.8,0.9c-0.1,0.1-0.1,0.2,0.1,0.4c0.1,0.1,0.2,0.1,0.2,0.1c0,0,0,0,0-0.1
				c0,0-0.1,0-0.1,0c-0.1-0.1-0.1-0.1,0-0.2c0.2-0.2,0.4-0.4,0.6-0.6c0.1-0.2,0.2-0.2,0.3-0.3c0,0,0-0.1-0.1-0.1
				C31.1,46.5,31,46.5,31,46.5z"/>
			<path class="st4" d="M32.6,47.8c-0.1-0.1-0.4-0.3-0.5-0.4c0,0.1-0.1,0.2-0.1,0.2c-0.2,0.3-0.5,0.6-0.7,0.9c0,0,0,0.1,0.1,0.2
				c0.2,0.1,0.2,0.2,0.4,0.3c0.4,0.3,0.9,0.3,1.2-0.1C33.1,48.5,32.9,48.1,32.6,47.8z M32.6,48.8c-0.2,0.3-0.6,0.4-0.9,0.2
				c-0.1-0.1-0.2-0.1-0.3-0.2c0.3-0.3,0.5-0.7,0.8-1c0.1,0.1,0.2,0.1,0.3,0.2C32.8,48.1,32.8,48.5,32.6,48.8z"/>
			<path class="st4" d="M33.5,48.9c-0.1,0-0.1,0-0.1,0c0,0.1,0,0.1-0.1,0.2c-0.2,0.3-0.2,0.4-0.4,0.6c0,0,0,0.1,0.1,0.2
				c0.1,0,0.1,0,0.1,0c0-0.1,0-0.1,0.1-0.2c0.2-0.3,0.2-0.4,0.4-0.7C33.6,49,33.6,49,33.5,48.9z"/>
			<path class="st4" d="M33.6,48.8c0.1,0,0.2,0,0.2,0c0-0.1,0-0.1-0.1-0.2c-0.1,0-0.2,0-0.2,0C33.5,48.7,33.5,48.7,33.6,48.8z"/>
			<path class="st4" d="M34.9,49.9c0.1-0.1,0-0.3-0.2-0.3c-0.2-0.1-0.3-0.1-0.5,0c0,0,0,0,0,0c0.1-0.1,0-0.2-0.1-0.3
				c-0.1-0.1-0.2-0.1-0.2,0c0,0,0,0,0,0.1c0,0,0.1,0,0.1,0c0,0,0.1,0.1,0,0.1c-0.2,0.3-0.2,0.4-0.4,0.7c0,0.1,0,0.1,0.1,0.2
				c0.1,0,0.1,0,0.2,0c0-0.1,0-0.2,0.2-0.4c0.2-0.3,0.4-0.4,0.5-0.3c0.1,0,0.1,0.1,0.1,0.2c0,0,0,0.1-0.1,0.1c0,0,0,0,0.1,0.1
				C34.7,50,34.8,50,34.9,49.9z"/>
			<path class="st4" d="M35.7,50.1c-0.3-0.1-0.7-0.1-0.9,0.2c-0.2,0.4,0.1,0.7,0.4,0.8c0.2,0.1,0.5,0.1,0.6,0c0.1,0,0-0.1,0-0.1
				c-0.1,0.1-0.3,0.1-0.5,0c-0.3-0.1-0.4-0.3-0.3-0.6c0.1,0.1,0.2,0.1,0.3,0.1c0.4,0.2,0.7,0.2,0.8,0C36.2,50.4,36,50.2,35.7,50.1z
				 M35.9,50.4c-0.1,0.2-0.3,0.2-0.6,0c-0.1,0-0.1-0.1-0.2-0.1c0.1-0.3,0.4-0.3,0.6-0.2C35.8,50.2,36,50.3,35.9,50.4z"/>
			<path class="st4" d="M37.2,50.6c-0.3-0.1-0.7-0.1-0.9,0.3c-0.1,0.4,0.2,0.7,0.5,0.8c0.3,0.1,0.5,0.1,0.6-0.1c0.1-0.1,0-0.1,0-0.1
				c-0.1,0.1-0.3,0.1-0.5,0.1c-0.3-0.1-0.5-0.3-0.3-0.6C36.7,50.7,36.9,50.6,37.2,50.6c0.1,0.1,0.2,0.2,0.2,0.3
				c0,0.1-0.1,0.1-0.1,0.1c0,0,0.1,0.1,0.1,0.1c0.1,0,0.2,0,0.2-0.1C37.6,50.8,37.5,50.7,37.2,50.6z"/>
			<path class="st4" d="M38.3,50.9c0-0.1,0.1-0.2,0.1-0.2c0,0-0.1-0.1-0.1-0.1c-0.1,0-0.1,0-0.2,0.1c0,0.1,0,0.1,0,0.2
				c-0.1,0-0.1,0-0.1,0c0,0-0.1,0-0.1,0c0,0,0,0,0,0c0,0,0.1,0,0.2,0c0,0,0,0,0,0c-0.1,0.3-0.1,0.4-0.2,0.7c0,0.1,0.1,0.3,0.3,0.3
				c0.2,0,0.3,0,0.3,0c0,0,0,0,0-0.1c0,0-0.1,0-0.2,0c-0.1,0-0.1-0.1-0.1-0.1c0.1-0.3,0.1-0.4,0.2-0.7C38.3,51.1,38.3,51,38.3,50.9
				c0.1,0.1,0.2,0.1,0.3,0.2c0,0,0.1,0,0.1,0c0,0,0,0,0,0c0,0-0.2,0-0.2,0C38.4,50.9,38.3,50.9,38.3,50.9z"/>
			<path class="st4" d="M39.5,51.1c-0.3-0.1-0.7,0.1-0.8,0.4c-0.1,0.4,0.3,0.6,0.6,0.7c0.3,0,0.7-0.1,0.8-0.5
				C40.1,51.4,39.8,51.2,39.5,51.1z M39.8,51.8c0,0.3-0.2,0.5-0.5,0.4c-0.3,0-0.4-0.3-0.4-0.6c0.1-0.3,0.2-0.4,0.5-0.4
				C39.8,51.3,39.9,51.5,39.8,51.8z"/>
			<path class="st4" d="M41.2,51.3c-0.2,0-0.3,0.1-0.4,0.2c0,0,0,0,0,0c0-0.2-0.1-0.2-0.2-0.3c-0.1,0-0.2,0-0.2,0.1c0,0,0,0,0,0.1
				c0,0,0.1,0,0.1,0c0.1,0,0.1,0,0.1,0.1c0,0.3,0,0.5-0.1,0.8c0,0.1,0.1,0.1,0.1,0.1c0.1,0,0.1,0,0.2,0c0-0.1,0-0.2,0-0.5
				C40.8,51.5,40.9,51.4,41.2,51.3c0,0.1,0.1,0.1,0.1,0.2c0,0,0,0.1-0.1,0.1c0,0,0.1,0,0.1,0c0.1,0,0.2-0.1,0.2-0.2
				C41.5,51.4,41.4,51.4,41.2,51.3z"/>
			<path class="st4" d="M43,51.5c0-0.1-0.1-0.1-0.1-0.1c-0.1,0-0.1,0-0.1,0c0,0.1,0,0.2,0.1,0.5c0,0.4-0.2,0.5-0.4,0.5
				c-0.2,0-0.3-0.1-0.3-0.4c0-0.2,0-0.3,0-0.6c0-0.1-0.1-0.1-0.1-0.1c-0.1,0-0.1,0-0.1,0c0,0.1,0,0.2,0,0.2c0,0.2,0,0.2,0,0.4
				c0,0.3,0.2,0.5,0.5,0.5c0.3,0,0.5-0.1,0.5-0.3c0,0.1,0,0.1,0,0.2c0,0.3-0.1,0.5-0.5,0.5c-0.2,0-0.3-0.1-0.3-0.2
				c0,0,0-0.1,0.1-0.1c0,0-0.1,0-0.1,0c-0.1,0-0.2,0.1-0.2,0.1c0,0.2,0.3,0.2,0.5,0.2c0.4,0,0.8-0.2,0.7-0.6
				C43,52.1,43,51.8,43,51.5z"/>
			<path class="st4" d="M44.6,51.3c-0.3,0-0.7,0.3-0.6,0.6c0,0.4,0.4,0.5,0.8,0.5c0.3-0.1,0.7-0.3,0.6-0.7
				C45.3,51.4,45,51.2,44.6,51.3z M44.8,52.3c-0.3,0-0.5-0.1-0.5-0.4c0-0.3,0.1-0.5,0.4-0.5c0.3,0,0.5,0.1,0.5,0.4
				C45.2,52.1,45.1,52.3,44.8,52.3z"/>
			<path class="st4" d="M46.1,50.5c-0.4,0.1-0.4,0.3-0.4,0.5c0,0,0,0.1,0,0.1c-0.1,0-0.1,0-0.2,0c0,0-0.1,0-0.1,0.1c0,0,0,0,0,0
				c0,0,0.1,0,0.2,0c0,0,0,0,0,0c0.1,0.3,0.1,0.6,0.2,0.9c0,0.1,0.1,0.1,0.2,0.1c0.1,0,0.1,0,0.1-0.1c0-0.1-0.1-0.1-0.1-0.2
				c-0.1-0.3-0.1-0.4-0.2-0.7c0.1,0,0.2,0,0.3-0.1c0,0,0.1,0,0.1-0.1c0,0,0,0,0,0c0,0-0.2,0.1-0.2,0.1c-0.1,0-0.1,0-0.2,0
				c0,0,0,0,0-0.1C45.9,50.8,45.9,50.7,46.1,50.5c0.1,0.1,0.2,0.1,0.2,0.2c0,0,0,0.1,0,0.1c0,0,0.1,0,0.1,0c0.1,0,0.2-0.1,0.1-0.2
				C46.5,50.5,46.3,50.5,46.1,50.5z"/>
			<path class="st4" d="M47.9,50.1c-0.2,0.1-0.4,0.1-0.6,0.2c0,0.1,0.1,0.2,0.1,0.2c0.1,0.4,0.2,0.7,0.4,1.1c0,0.1,0.1,0.1,0.2,0
				c0.2-0.1,0.3-0.1,0.5-0.1c0.5-0.1,0.8-0.5,0.6-1C48.8,50.1,48.3,50,47.9,50.1z M48.4,51.5c-0.1,0-0.2,0.1-0.3,0.1
				c-0.1-0.4-0.3-0.8-0.4-1.3c0.1,0,0.2-0.1,0.3-0.1c0.4-0.1,0.7,0.1,0.8,0.4C48.9,51,48.7,51.4,48.4,51.5z"/>
			<path class="st4" d="M50.6,50.3c0,0.1-0.1,0.3-0.3,0.4c-0.3,0.1-0.5,0.1-0.7-0.2c0.1,0,0.2-0.1,0.3-0.1c0.4-0.2,0.6-0.4,0.5-0.6
				c-0.1-0.2-0.4-0.2-0.6,0c-0.3,0.1-0.6,0.5-0.4,0.8c0.2,0.4,0.6,0.4,0.9,0.2C50.5,50.7,50.7,50.6,50.6,50.3
				C50.7,50.3,50.6,50.3,50.6,50.3z M49.8,49.9c0.1-0.1,0.3-0.1,0.4,0.1c0.1,0.2-0.1,0.3-0.4,0.5c-0.1,0-0.2,0.1-0.2,0.1
				C49.4,50.2,49.5,50,49.8,49.9z"/>
			<path class="st4" d="M52.1,49.5c-0.1-0.1-0.1-0.2-0.2-0.4c-0.2-0.2-0.4-0.3-0.7-0.1c-0.2,0.1-0.3,0.3-0.3,0.5c0,0,0,0,0,0
				c-0.1-0.1-0.2-0.2-0.3-0.1c-0.1,0.1-0.1,0.1-0.1,0.2c0,0,0,0,0.1,0c0,0,0-0.1,0.1-0.1c0,0,0.1,0,0.1,0.1c0.2,0.3,0.2,0.4,0.4,0.7
				c0,0.1,0.1,0.1,0.2,0c0.1,0,0.1-0.1,0.1-0.1c-0.1,0-0.1-0.1-0.3-0.4c-0.2-0.3-0.1-0.5,0.1-0.6c0.2-0.1,0.3-0.1,0.5,0.1
				c0.1,0.2,0.2,0.3,0.3,0.5c0,0,0.1,0,0.2,0c0.1,0,0.1-0.1,0.1-0.1C52.2,49.6,52.2,49.6,52.1,49.5z"/>
			<path class="st4" d="M53.1,49c0,0,0,0.1-0.1,0.1c-0.1,0.1-0.2,0.1-0.2,0c-0.2-0.2-0.3-0.3-0.4-0.6c0,0,0,0,0-0.1
				c0.1-0.1,0.2-0.1,0.3-0.2c0,0,0-0.1,0-0.1c0,0,0,0,0,0c0,0-0.2,0.1-0.2,0.2c0,0-0.1,0-0.1,0.1c-0.1-0.1-0.1-0.2-0.1-0.2
				c0,0-0.1,0-0.1,0c-0.1,0-0.1,0.1-0.1,0.2c0,0.1,0.1,0.1,0.1,0.2c0,0-0.1,0.1-0.1,0.1c0,0,0,0,0,0.1c0,0,0,0,0,0
				c0,0,0.1-0.1,0.1-0.1c0,0,0,0,0,0c0.2,0.3,0.3,0.4,0.5,0.6c0.1,0.1,0.2,0.1,0.4,0C53.2,49.1,53.2,49,53.1,49
				C53.2,49,53.1,49,53.1,49z"/>
			<path class="st4" d="M54.5,47.8c0,0,0,0.1,0,0.1c-0.1,0-0.1,0-0.2,0c-0.1-0.1-0.2-0.2-0.3-0.3c-0.2-0.3-0.6-0.1-0.8,0.1
				C53,47.8,52.9,48,53,48.2c0.1,0.1,0.2,0.1,0.3,0c0,0,0.1-0.1,0.1-0.1c-0.1,0-0.2,0-0.2,0c-0.1-0.1,0-0.2,0.1-0.3
				c0.2-0.2,0.4-0.2,0.5,0c0,0,0,0,0,0c-0.1,0.1-0.3,0.2-0.4,0.4c-0.2,0.2-0.3,0.5-0.2,0.6c0.1,0.1,0.3,0.1,0.5-0.1
				c0.2-0.2,0.3-0.5,0.3-0.7c0,0,0,0,0,0c0.1,0.1,0.3,0.1,0.4,0C54.6,47.9,54.7,47.8,54.5,47.8C54.6,47.8,54.6,47.8,54.5,47.8z
				 M53.8,48.5c-0.1,0.1-0.2,0.1-0.3,0c-0.1-0.1,0-0.2,0.1-0.4c0.1-0.1,0.2-0.3,0.3-0.3C54.1,48,54,48.3,53.8,48.5z"/>
			<path class="st4" d="M55.1,47.2c0,0,0,0.1-0.1,0.1c-0.1,0.1-0.1,0.1-0.2,0c-0.2-0.2-0.4-0.4-0.6-0.6c-0.2-0.2-0.2-0.2-0.3-0.3
				c0,0-0.1,0-0.1,0.1c-0.1,0.1-0.1,0.1,0,0.2c0.3,0.3,0.6,0.6,0.9,0.9c0.1,0.1,0.3,0.1,0.4,0C55.2,47.4,55.3,47.3,55.1,47.2
				C55.2,47.2,55.2,47.2,55.1,47.2z"/>
			<path class="st4" d="M55.8,44.3c0,0-0.1,0-0.2,0.1c0,0.1,0,0.1-0.1,0.1c0.1,0,0.1,0.1,0.2,0.1c0.1,0.1,0.2,0.1,0.3,0.2
				c-0.2,0.3-0.4,0.6-0.6,0.8c-0.2-0.1-0.3-0.2-0.5-0.4c0,0-0.1,0-0.2,0c0,0.1-0.1,0.1-0.1,0.1c0.1,0,0.1,0.1,0.2,0.1
				c0.3,0.3,0.6,0.5,0.9,0.8c0,0,0.1,0,0.2-0.1c0-0.1,0.1-0.1,0.1-0.1c-0.1,0-0.1-0.1-0.2-0.1c-0.2-0.1-0.2-0.2-0.4-0.3
				c0.2-0.3,0.4-0.5,0.6-0.8c0.2,0.2,0.3,0.2,0.5,0.4c0,0,0.1,0,0.2-0.1c0-0.1,0.1-0.1,0.1-0.2c-0.1,0-0.1,0-0.2-0.1
				C56.5,44.8,56.2,44.6,55.8,44.3z"/>
			<path class="st4" d="M57.7,43.5c0.1,0.1,0,0.3-0.1,0.5c-0.2,0.3-0.4,0.4-0.6,0.3c0.1-0.1,0.1-0.2,0.2-0.3
				c0.2-0.2,0.3-0.7,0.1-0.8c-0.1-0.1-0.4,0.1-0.6,0.4c-0.2,0.3-0.2,0.8,0.1,1c0.3,0.2,0.7,0,0.9-0.4c0.1-0.2,0.2-0.5,0.1-0.6
				C57.8,43.4,57.8,43.4,57.7,43.5z M56.8,43.6c0.1-0.1,0.2-0.3,0.3-0.2c0.2,0.1,0.1,0.4-0.1,0.6c0,0.1-0.1,0.1-0.1,0.2
				C56.7,44.1,56.6,43.8,56.8,43.6z"/>
			<path class="st4" d="M58.8,41.6C58.8,41.6,58.8,41.6,58.8,41.6c-0.1,0-0.1,0.1-0.1,0.1c0,0.1-0.1,0.1-0.2,0.1
				c-0.2-0.1-0.2-0.1-0.4-0.2c-0.3-0.2-0.6,0.2-0.7,0.4c-0.1,0.3-0.2,0.6,0,0.7c0.1,0,0.2,0,0.3-0.1c0,0,0-0.1,0-0.2
				c-0.1,0.1-0.2,0.1-0.2,0.1c-0.1-0.1-0.1-0.2,0-0.4c0.1-0.3,0.3-0.3,0.5-0.2c0,0,0,0,0.1,0c-0.1,0.2-0.2,0.4-0.2,0.5
				c-0.1,0.3-0.1,0.6,0.1,0.7c0.1,0.1,0.3,0,0.4-0.3c0.1-0.2,0.1-0.6,0-0.8c0,0,0,0,0.1,0c0.2,0.1,0.3,0,0.4-0.2
				C58.9,41.8,58.9,41.7,58.8,41.6z M58.3,42.7c-0.1,0.2-0.2,0.2-0.3,0.2c-0.1-0.1-0.1-0.2-0.1-0.4c0-0.1,0.1-0.4,0.2-0.5
				C58.4,42.1,58.4,42.5,58.3,42.7z"/>
			<path class="st4" d="M59.1,40.8C59.1,40.7,59.1,40.7,59.1,40.8c-0.1,0-0.1,0.1-0.1,0.2C59,41,59,41,58.9,41
				c-0.3-0.1-0.6-0.2-0.8-0.3c-0.2-0.1-0.3-0.1-0.4-0.2c0,0-0.1,0.1-0.1,0.1c0,0.1,0,0.2,0,0.2c0.4,0.2,0.8,0.3,1.2,0.5
				c0.1,0.1,0.3,0,0.3-0.2C59.2,40.9,59.2,40.8,59.1,40.8z"/>
			<path class="st4" d="M59.4,39.7C59.4,39.7,59.4,39.7,59.4,39.7c-0.1,0.1-0.1,0.1-0.1,0.2c0,0.1-0.1,0.2-0.2,0.1
				c-0.3-0.1-0.4-0.1-0.7-0.2c0,0,0,0-0.1,0c0-0.1,0.1-0.2,0.1-0.4c0,0,0-0.1,0-0.1c0,0,0,0,0,0c0,0-0.1,0.3-0.1,0.3
				c0,0.1,0,0.1,0,0.1c-0.1,0-0.2-0.1-0.2-0.1c0,0-0.1,0.1-0.1,0.1c0,0.1,0,0.2,0,0.2c0.1,0,0.1,0,0.2,0.1c0,0.1,0,0.1-0.1,0.2
				c0,0,0,0.1,0,0.1c0,0,0,0,0,0c0,0,0-0.2,0.1-0.2c0,0,0,0,0,0c0.3,0.1,0.5,0.2,0.8,0.2c0.1,0,0.3-0.1,0.3-0.3
				C59.5,39.8,59.5,39.7,59.4,39.7z"/>
			<path class="st4" d="M60,37.6c-0.1,0-0.2,0-0.2,0c-0.2,0-0.3,0-0.4-0.1c-0.3,0-0.5,0.1-0.6,0.5c-0.1,0.3,0,0.5,0.1,0.6
				c-0.1,0-0.2,0-0.3-0.1c-0.2,0-0.3-0.1-0.3-0.1c0,0-0.1,0.1-0.1,0.2c0,0.1,0,0.1,0.1,0.2c0.5,0.1,0.9,0.2,1.4,0.3
				c0.1,0,0.1,0,0.1-0.1c0-0.1,0-0.2,0-0.2c-0.1,0-0.2,0-0.5-0.1c-0.4-0.1-0.4-0.4-0.4-0.6c0.1-0.3,0.2-0.4,0.4-0.3
				c0.2,0,0.3,0.1,0.6,0.1c0.1,0,0.1-0.1,0.1-0.2C60,37.7,60,37.6,60,37.6z"/>
		</g>
	</g>
	<g>
		<path class="st4" d="M19.5,76c-0.1,0-0.2,0-0.2,0.1c0.2,0,0.2,0.2,0.2,0.4c0,0.2-0.1,0.6-0.5,0.6c-0.4,0-0.6-0.3-0.6-1
			c0-0.7,0.2-1,0.6-1c0.2,0,0.4,0.1,0.4,0.3c0.1,0,0.2-0.1,0.2-0.1c0-0.2-0.3-0.3-0.6-0.3c-0.6,0-0.9,0.4-0.9,1.2
			c0,0.7,0.3,1.2,0.9,1.2c0.5,0,0.7-0.4,0.7-0.8C19.8,76.1,19.7,76,19.5,76z"/>
		<path class="st4" d="M21.5,76c0-0.3-0.2-0.5-0.6-0.5c-0.5,0-0.8,0.3-0.8,0.9c0,0.6,0.3,0.8,0.8,0.8c0.3,0,0.5-0.1,0.6-0.3
			c0-0.1,0-0.1,0-0.2c-0.1,0.2-0.3,0.3-0.5,0.3c-0.3,0-0.5-0.2-0.5-0.6c0.1,0,0.2,0,0.3,0C21.2,76.5,21.5,76.3,21.5,76z M20.4,76.3
			c0-0.5,0.2-0.7,0.5-0.7c0.2,0,0.3,0.1,0.3,0.3c0,0.3-0.3,0.4-0.6,0.4C20.6,76.4,20.5,76.4,20.4,76.3z"/>
		<path class="st4" d="M23.2,76.2c0-0.4-0.2-0.7-0.5-0.7c-0.3,0-0.5,0.1-0.6,0.4v-0.1c0-0.2-0.1-0.3-0.3-0.3c-0.1,0-0.2,0.1-0.2,0.1
			c0,0,0,0.1,0,0.1c0,0,0.1-0.1,0.1-0.1c0.1,0,0.1,0,0.1,0.2v1.2c0,0.1,0.1,0.2,0.2,0.2c0.1,0,0.1,0,0.1-0.1c0-0.1,0-0.2,0-0.8
			c0-0.5,0.2-0.7,0.5-0.7c0.2,0,0.3,0.2,0.3,0.5v0.9c0,0.1,0.1,0.1,0.2,0.1c0.1,0,0.1,0,0.1-0.1c0-0.1,0-0.2,0-0.3L23.2,76.2
			L23.2,76.2z"/>
		<path class="st4" d="M25,76c0-0.3-0.2-0.5-0.6-0.5c-0.5,0-0.8,0.3-0.8,0.9c0,0.6,0.3,0.8,0.8,0.8c0.3,0,0.5-0.1,0.6-0.3
			c0-0.1,0-0.1,0-0.2c-0.1,0.2-0.3,0.3-0.5,0.3c-0.3,0-0.5-0.2-0.5-0.6c0.1,0,0.2,0,0.3,0C24.7,76.5,25,76.3,25,76z M23.9,76.3
			c0-0.5,0.2-0.7,0.5-0.7c0.2,0,0.3,0.1,0.3,0.3c0,0.3-0.3,0.4-0.6,0.4C24,76.4,24,76.4,23.9,76.3z"/>
		<path class="st4" d="M26.1,75.5c-0.2,0-0.4,0.1-0.4,0.4v0c0-0.2-0.1-0.3-0.2-0.3c-0.1,0-0.2,0.1-0.2,0.1c0,0,0,0.1,0,0.1
			c0,0,0.1-0.1,0.1-0.1c0.1,0,0.1,0,0.1,0.2v1.2c0,0.1,0.1,0.2,0.1,0.2c0.1,0,0.1,0,0.2-0.1c0-0.1,0-0.2,0-0.7
			c0-0.6,0.2-0.8,0.3-0.8c0.1,0,0.2,0.1,0.2,0.2c0,0.1,0,0.1-0.1,0.2c0,0,0.1,0,0.1,0c0.1,0,0.2-0.1,0.2-0.2
			C26.4,75.7,26.3,75.5,26.1,75.5z"/>
		<path class="st4" d="M28,77c-0.1,0-0.1-0.1-0.1-0.2v-0.6c0-0.5-0.2-0.7-0.6-0.7c-0.4,0-0.6,0.1-0.6,0.4c0,0.1,0.1,0.3,0.2,0.3
			c0.1,0,0.1,0,0.2-0.1c-0.1,0-0.1-0.1-0.1-0.2c0-0.2,0.2-0.3,0.3-0.3c0.3,0,0.4,0.2,0.4,0.6v0.1c-0.2,0-0.4,0-0.5,0.1
			c-0.3,0.1-0.5,0.3-0.5,0.5c0,0.2,0.2,0.4,0.4,0.4c0.3,0,0.5-0.2,0.7-0.5v0.1c0,0.3,0.1,0.4,0.3,0.4c0.1,0,0.2-0.1,0.2-0.2
			c0,0,0-0.1,0-0.1C28.1,77,28.1,77,28,77z M27.1,77.1c-0.2,0-0.2-0.1-0.2-0.2c0-0.2,0.1-0.3,0.3-0.4c0.1-0.1,0.3-0.1,0.5-0.1
			C27.7,76.7,27.4,77.1,27.1,77.1z"/>
		<path class="st4" d="M28.9,77c-0.1,0-0.1-0.1-0.1-0.2v-1.3c0-0.3,0-0.5,0-0.6c0,0-0.1-0.1-0.1-0.1c-0.1,0-0.2,0.1-0.2,0.1v1.9
			c0,0.2,0.1,0.4,0.3,0.4c0.1,0,0.2-0.1,0.2-0.2c0,0,0-0.1,0-0.1C28.9,77,28.9,77,28.9,77z"/>
		<path class="st4" d="M30.7,74.9c-0.2,0-0.5,0-0.7,0c0,0.1,0,0.3,0,0.4l0,1.7c0,0.1,0.1,0.1,0.1,0.1h0.5c0.6,0,0.9-0.3,0.9-1.1
			C31.6,75.3,31.3,74.9,30.7,74.9z M30.7,77.1h-0.4l0-2h0.4c0.4,0,0.6,0.3,0.6,1C31.4,76.8,31.1,77.1,30.7,77.1z"/>
		<circle class="st4" cx="32.2" cy="75.1" r="0.2"/>
		<path class="st4" d="M32.4,75.7c0-0.1-0.1-0.1-0.1-0.1c-0.1,0-0.1,0-0.1,0.1c0,0.1,0,0.2,0,0.3l0,1.2c0,0.1,0.1,0.1,0.1,0.1
			c0.1,0,0.1,0,0.1-0.1c0-0.1,0-0.2,0-0.3L32.4,75.7z"/>
		<path class="st4" d="M33.6,75.5c-0.2,0-0.4,0.1-0.4,0.4v0c0-0.2-0.1-0.3-0.2-0.3c-0.1,0-0.2,0.1-0.2,0.1c0,0,0,0.1,0,0.1
			c0,0,0.1-0.1,0.1-0.1c0.1,0,0.1,0,0.1,0.2v1.2c0,0.1,0.1,0.2,0.1,0.2c0.1,0,0.1,0,0.2-0.1c0-0.1,0-0.2,0-0.7
			c0-0.6,0.2-0.8,0.3-0.8c0.1,0,0.2,0.1,0.2,0.2c0,0.1,0,0.1-0.1,0.2c0,0,0.1,0,0.1,0c0.1,0,0.2-0.1,0.2-0.2
			C34,75.7,33.8,75.5,33.6,75.5z"/>
		<path class="st4" d="M35.5,76c0-0.3-0.2-0.5-0.6-0.5c-0.5,0-0.8,0.3-0.8,0.9c0,0.6,0.3,0.8,0.8,0.8c0.3,0,0.5-0.1,0.6-0.3
			c0-0.1,0-0.1,0-0.2c-0.1,0.2-0.3,0.3-0.5,0.3c-0.3,0-0.5-0.2-0.5-0.6c0.1,0,0.2,0,0.3,0C35.2,76.5,35.5,76.3,35.5,76z M34.4,76.3
			c0-0.5,0.2-0.7,0.5-0.7c0.2,0,0.3,0.1,0.3,0.3c0,0.3-0.3,0.4-0.6,0.4C34.6,76.4,34.5,76.4,34.4,76.3z"/>
		<path class="st4" d="M37.1,76.7c-0.1,0.2-0.2,0.3-0.5,0.3c-0.3,0-0.5-0.2-0.5-0.7c0-0.5,0.2-0.7,0.5-0.7c0.2,0,0.3,0.1,0.3,0.3
			c0,0.1,0,0.2-0.1,0.2c0,0,0.1,0.1,0.2,0.1c0.1,0,0.2-0.1,0.2-0.2c0-0.2-0.2-0.4-0.5-0.4c-0.5,0-0.8,0.3-0.8,0.9
			c0,0.6,0.3,0.8,0.7,0.8c0.3,0,0.5-0.1,0.6-0.3C37.2,76.8,37.1,76.7,37.1,76.7z"/>
		<path class="st4" d="M37.8,75.6c0-0.2,0-0.3,0-0.4c0,0-0.1-0.1-0.1-0.1c-0.1,0-0.2,0.1-0.2,0.1v0.3h-0.2c0,0-0.1,0-0.1,0.1l0,0.1
			c0,0,0.2,0,0.2,0h0v1.2c0,0.2,0.1,0.4,0.3,0.4c0.2,0,0.3-0.1,0.3-0.2c0,0,0-0.1,0-0.1c0,0-0.1,0.1-0.2,0.1c-0.1,0-0.2-0.1-0.2-0.2
			v-1v-0.1h0.3c0,0,0.1,0,0.1-0.1l0-0.1c0,0-0.2,0-0.3,0L37.8,75.6L37.8,75.6z"/>
		<path class="st4" d="M39.2,75.5c-0.5,0-0.7,0.3-0.7,0.9s0.3,0.9,0.7,0.9c0.5,0,0.7-0.3,0.7-0.9S39.6,75.5,39.2,75.5z M39.2,77.1
			c-0.3,0-0.5-0.3-0.5-0.7c0-0.5,0.2-0.7,0.5-0.7c0.3,0,0.5,0.3,0.5,0.7S39.5,77.1,39.2,77.1z"/>
		<path class="st4" d="M41,75.5c-0.2,0-0.4,0.1-0.4,0.4v0c0-0.2-0.1-0.3-0.2-0.3c-0.1,0-0.2,0.1-0.2,0.1c0,0,0,0.1,0,0.1
			c0,0,0.1-0.1,0.1-0.1c0.1,0,0.1,0,0.1,0.2v1.2c0,0.1,0.1,0.2,0.1,0.2c0.1,0,0.1,0,0.2-0.1c0-0.1,0-0.2,0-0.7
			c0-0.6,0.2-0.8,0.3-0.8c0.1,0,0.2,0.1,0.2,0.2c0,0.1,0,0.1-0.1,0.2c0,0,0.1,0,0.1,0c0.1,0,0.2-0.1,0.2-0.2
			C41.4,75.7,41.2,75.5,41,75.5z"/>
		<path class="st4" d="M42.8,75.5c-0.1,0-0.1,0-0.1,0.1c0,0.1,0,0.2,0,0.7c0,0.6-0.2,0.8-0.5,0.8c-0.2,0-0.3-0.2-0.3-0.6l0-0.8
			c0-0.1-0.1-0.1-0.1-0.1c-0.1,0-0.1,0-0.2,0.1c0,0.1,0,0.2,0,0.3v0.6c0,0.5,0.2,0.7,0.5,0.7c0.3,0,0.5-0.2,0.6-0.4
			c0,0.1,0,0.2,0,0.2c0,0.5-0.2,0.8-0.5,0.8c-0.2,0-0.3-0.1-0.3-0.3c0,0,0-0.1,0.1-0.2c0,0-0.1,0-0.1,0c-0.1,0-0.2,0.1-0.2,0.2
			c0,0.3,0.3,0.3,0.5,0.3c0.4,0,0.8-0.2,0.8-0.9l0-1.4C42.9,75.6,42.9,75.5,42.8,75.5z"/>
		<path class="st4" d="M44.7,75.5c-0.5,0-0.7,0.3-0.7,0.9s0.3,0.9,0.7,0.9c0.5,0,0.7-0.3,0.7-0.9S45.2,75.5,44.7,75.5z M44.7,77.1
			c-0.3,0-0.5-0.3-0.5-0.7c0-0.5,0.2-0.7,0.5-0.7c0.3,0,0.5,0.3,0.5,0.7S45,77.1,44.7,77.1z"/>
		<path class="st4" d="M46.5,74.8c-0.4,0-0.5,0.3-0.5,0.6v0.2h-0.2c0,0-0.1,0-0.1,0.1l0,0.1c0,0,0.2,0,0.2,0h0l0,1.4
			c0,0.1,0.1,0.1,0.1,0.1c0.1,0,0.1,0,0.1-0.1c0-0.1,0-0.2,0-0.3v-1.1h0.4c0,0,0.1,0,0.1-0.1l0-0.1c0,0-0.2,0-0.3,0h-0.2v-0.1
			c0-0.3,0-0.5,0.3-0.5c0.1,0,0.2,0,0.2,0.2c0,0,0,0.1-0.1,0.2c0,0,0.1,0,0.1,0c0.1,0,0.2-0.1,0.2-0.2
			C46.9,74.9,46.7,74.8,46.5,74.8z"/>
		<path class="st4" d="M48.5,74.9c-0.2,0-0.5,0-0.7,0c0,0.1,0,0.3,0,0.4l0,1.7c0,0.1,0.1,0.1,0.1,0.1h0.5c0.6,0,0.9-0.3,0.9-1.1
			C49.4,75.3,49.1,74.9,48.5,74.9z M48.5,77.1h-0.4l0-2h0.4c0.4,0,0.6,0.3,0.6,1C49.1,76.8,48.9,77.1,48.5,77.1z"/>
		<path class="st4" d="M51.1,76c0-0.3-0.2-0.5-0.6-0.5c-0.5,0-0.8,0.3-0.8,0.9c0,0.6,0.3,0.8,0.8,0.8c0.3,0,0.5-0.1,0.6-0.3
			c0-0.1,0-0.1,0-0.2c-0.1,0.2-0.3,0.3-0.5,0.3c-0.3,0-0.5-0.2-0.5-0.6c0.1,0,0.2,0,0.3,0C50.8,76.5,51.1,76.3,51.1,76z M50,76.3
			c0-0.5,0.2-0.7,0.5-0.7c0.2,0,0.3,0.1,0.3,0.3c0,0.3-0.3,0.4-0.6,0.4C50.2,76.4,50.1,76.4,50,76.3z"/>
		<path class="st4" d="M52.9,76.2c0-0.4-0.2-0.7-0.5-0.7c-0.3,0-0.5,0.1-0.6,0.4v-0.1c0-0.2-0.1-0.3-0.3-0.3c-0.1,0-0.2,0.1-0.2,0.1
			c0,0,0,0.1,0,0.1c0,0,0.1-0.1,0.1-0.1c0.1,0,0.1,0,0.1,0.2v1.2c0,0.1,0.1,0.2,0.2,0.2c0.1,0,0.1,0,0.1-0.1c0-0.1,0-0.2,0-0.8
			c0-0.5,0.2-0.7,0.5-0.7c0.2,0,0.3,0.2,0.3,0.5v0.9c0,0.1,0.1,0.1,0.2,0.1c0.1,0,0.1,0,0.1-0.1c0-0.1,0-0.2,0-0.3L52.9,76.2
			L52.9,76.2z"/>
		<path class="st4" d="M53.7,75.6c0-0.2,0-0.3,0-0.4c0,0-0.1-0.1-0.1-0.1c-0.1,0-0.2,0.1-0.2,0.1v0.3h-0.2c0,0-0.1,0-0.1,0.1l0,0.1
			c0,0,0.2,0,0.2,0h0v1.2c0,0.2,0.1,0.4,0.3,0.4c0.2,0,0.3-0.1,0.3-0.2c0,0,0-0.1,0-0.1c0,0-0.1,0.1-0.2,0.1c-0.1,0-0.2-0.1-0.2-0.2
			v-1v-0.1H54c0,0,0.1,0,0.1-0.1l0-0.1c0,0-0.2,0-0.3,0L53.7,75.6L53.7,75.6z"/>
		<path class="st4" d="M55.7,77c-0.1,0-0.1-0.1-0.1-0.2v-0.6c0-0.5-0.2-0.7-0.6-0.7c-0.4,0-0.6,0.1-0.6,0.4c0,0.1,0.1,0.3,0.2,0.3
			c0.1,0,0.1,0,0.2-0.1c-0.1,0-0.1-0.1-0.1-0.2c0-0.2,0.2-0.3,0.3-0.3c0.3,0,0.4,0.2,0.4,0.6v0.1c-0.2,0-0.4,0-0.5,0.1
			c-0.3,0.1-0.5,0.3-0.5,0.5c0,0.2,0.2,0.4,0.4,0.4c0.3,0,0.5-0.2,0.7-0.5v0.1c0,0.3,0.1,0.4,0.3,0.4c0.1,0,0.2-0.1,0.2-0.2
			c0,0,0-0.1,0-0.1C55.8,77,55.8,77,55.7,77z M54.8,77.1c-0.2,0-0.2-0.1-0.2-0.2c0-0.2,0.1-0.3,0.3-0.4c0.1-0.1,0.3-0.1,0.5-0.1
			C55.4,76.7,55.1,77.1,54.8,77.1z"/>
		<path class="st4" d="M56.6,77c-0.1,0-0.1-0.1-0.1-0.2v-1.3c0-0.3,0-0.5,0-0.6c0,0-0.1-0.1-0.1-0.1c-0.1,0-0.2,0.1-0.2,0.1v1.9
			c0,0.2,0.1,0.4,0.3,0.4c0.1,0,0.2-0.1,0.2-0.2c0,0,0-0.1,0-0.1C56.6,77,56.6,77,56.6,77z"/>
		<path class="st4" d="M59.4,75.1c0-0.1-0.1-0.1-0.2-0.1c-0.1,0-0.1,0-0.2,0.1c0,0.1,0,0.2,0,0.3V76h-1v-0.9c0-0.1-0.1-0.1-0.2-0.1
			c-0.1,0-0.1,0-0.2,0.1c0,0.1,0,0.2,0,0.3l0,1.7c0,0.1,0.1,0.1,0.1,0.1c0.1,0,0.1,0,0.2-0.1c0-0.1,0-0.2,0-0.3v-0.7h1l0,1
			c0,0.1,0.1,0.1,0.1,0.1c0.1,0,0.1,0,0.2-0.1c0-0.1,0-0.2,0-0.3V75.1z"/>
		<path class="st4" d="M61.1,76c0-0.3-0.2-0.5-0.6-0.5c-0.5,0-0.8,0.3-0.8,0.9c0,0.6,0.3,0.8,0.8,0.8c0.3,0,0.5-0.1,0.6-0.3
			c0-0.1,0-0.1,0-0.2c-0.1,0.2-0.3,0.3-0.5,0.3c-0.3,0-0.5-0.2-0.5-0.6c0.1,0,0.2,0,0.3,0C60.9,76.5,61.1,76.3,61.1,76z M60.1,76.3
			c0-0.5,0.2-0.7,0.5-0.7c0.2,0,0.3,0.1,0.3,0.3c0,0.3-0.3,0.4-0.6,0.4C60.2,76.4,60.1,76.4,60.1,76.3z"/>
		<path class="st4" d="M62.9,77c-0.1,0-0.1-0.1-0.1-0.2v-0.6c0-0.5-0.2-0.7-0.6-0.7c-0.4,0-0.6,0.1-0.6,0.4c0,0.1,0.1,0.3,0.2,0.3
			c0.1,0,0.1,0,0.2-0.1c-0.1,0-0.1-0.1-0.1-0.2c0-0.2,0.2-0.3,0.3-0.3c0.3,0,0.4,0.2,0.4,0.6v0.1c-0.2,0-0.4,0-0.5,0.1
			c-0.3,0.1-0.5,0.3-0.5,0.5c0,0.2,0.2,0.4,0.4,0.4c0.3,0,0.5-0.2,0.7-0.5v0.1c0,0.3,0.1,0.4,0.3,0.4c0.1,0,0.2-0.1,0.2-0.2
			c0,0,0-0.1,0-0.1C63,77,62.9,77,62.9,77z M62,77.1c-0.2,0-0.2-0.1-0.2-0.2c0-0.2,0.1-0.3,0.3-0.4c0.1-0.1,0.3-0.1,0.5-0.1
			C62.5,76.7,62.2,77.1,62,77.1z"/>
		<path class="st4" d="M63.7,77c-0.1,0-0.1-0.1-0.1-0.2v-1.3c0-0.3,0-0.5,0-0.6c0,0-0.1-0.1-0.1-0.1c-0.1,0-0.2,0.1-0.2,0.1v1.9
			c0,0.2,0.1,0.4,0.3,0.4c0.1,0,0.2-0.1,0.2-0.2c0,0,0-0.1,0-0.1C63.8,77,63.7,77,63.7,77z"/>
		<path class="st4" d="M64.5,75.6c0-0.2,0-0.3,0-0.4c0,0-0.1-0.1-0.1-0.1c-0.1,0-0.2,0.1-0.2,0.1v0.3h-0.2c0,0-0.1,0-0.1,0.1l0,0.1
			c0,0,0.2,0,0.2,0h0v1.2c0,0.2,0.1,0.4,0.3,0.4c0.2,0,0.3-0.1,0.3-0.2c0,0,0-0.1,0-0.1c0,0-0.1,0.1-0.2,0.1c-0.1,0-0.2-0.1-0.2-0.2
			v-1v-0.1h0.3c0,0,0.1,0,0.1-0.1l0-0.1c0,0-0.2,0-0.3,0L64.5,75.6L64.5,75.6z"/>
		<path class="st4" d="M66.6,76.8l0-0.6c0-0.4-0.2-0.7-0.5-0.7c-0.2,0-0.4,0.1-0.5,0.4l0-0.5c0-0.2,0-0.4,0-0.5c0,0-0.1-0.1-0.2-0.1
			c-0.1,0-0.1,0.1-0.1,0.1l0,2.1c0,0.1,0.1,0.2,0.1,0.2c0.1,0,0.1,0,0.1-0.1c0-0.1,0-0.2,0-0.8c0-0.6,0.2-0.8,0.5-0.8
			c0.3,0,0.3,0.2,0.3,0.6l0,0.9c0,0.1,0.1,0.1,0.1,0.1c0.1,0,0.1,0,0.1-0.1C66.6,77.1,66.6,77,66.6,76.8z"/>
	</g>
	<g>
		<path class="st4" d="M18.5,68.8C18.5,68.8,18.5,68.9,18.5,68.8c0.1,0.1,0.1,0.1,0.1,0.1c0,0,0.1,0,0.1,0c0,0,0,0,0.1,0s0,0,0-0.1
			c0,0,0-0.1,0-0.1c0,0,0-0.1,0-0.1c0,0,0,0,0-0.1c0,0,0,0-0.1,0c0,0-0.1,0-0.1,0c0,0-0.1,0-0.1,0c0,0,0,0-0.1,0c0,0,0,0,0,0.1
			c0,0,0,0.1,0,0.1C18.4,68.7,18.5,68.7,18.5,68.8C18.5,68.8,18.5,68.8,18.5,68.8z"/>
		<path class="st4" d="M19,68.8C19,68.8,19,68.9,19,68.8c0.1,0.1,0.1,0.1,0.1,0.1c0,0,0.1,0,0.1,0c0,0,0,0,0.1,0s0,0,0-0.1
			c0,0,0-0.1,0-0.1c0,0,0-0.1,0-0.1c0,0,0,0,0-0.1c0,0,0,0-0.1,0c0,0-0.1,0-0.1,0s-0.1,0-0.1,0c0,0,0,0-0.1,0s0,0,0,0.1
			c0,0,0,0.1,0,0.1C18.9,68.7,18.9,68.7,19,68.8C18.9,68.8,19,68.8,19,68.8z"/>
		<path class="st4" d="M20.1,70.9C20.1,70.9,20.1,70.9,20.1,70.9c-0.1-0.1-0.1-0.1-0.1-0.1s-0.1,0-0.1,0s0,0-0.1,0c0,0,0,0,0,0.1
			c0,0,0,0.1,0,0.1c0,0,0,0.1,0,0.1s0,0,0,0.1c0,0,0,0,0.1,0c0,0,0.1,0,0.1,0c0,0,0.1,0,0.1,0s0,0,0.1,0c0,0,0,0,0-0.1
			c0,0,0-0.1,0-0.1S20.2,71,20.1,70.9C20.2,71,20.2,70.9,20.1,70.9z"/>
		<path class="st4" d="M20.8,69.1h-0.4v1.1h-0.6h0h-0.3l0-0.9c0,0,0-0.1,0-0.1c0,0,0-0.1-0.1-0.1c0,0,0,0-0.1,0c0,0-0.1,0-0.1,0
			h-0.5c-0.1,0-0.2,0-0.3,0.1s-0.2,0.1-0.2,0.2c-0.1,0.1-0.1,0.1-0.2,0.2c0,0.1-0.1,0.2-0.1,0.3v0.6c0,0,0,0.1,0,0.1
			c0,0,0.1,0.1,0.1,0.1c0.1,0,0.2,0,0.3,0.1c0.1,0,0.2,0,0.3,0c0,0,0.1,0,0.1,0c0,0,0.1,0,0.1,0l0-0.4c0,0-0.1,0-0.1,0
			c-0.1,0-0.1,0-0.2,0c-0.1,0-0.1,0-0.2,0l0-0.4c0,0,0-0.1,0-0.1c0,0,0-0.1,0.1-0.1c0,0,0.1-0.1,0.1-0.1c0,0,0.1,0,0.1,0l0.3,0
			l0,0.9c0,0,0,0.1,0,0.1s0,0,0,0.1c0,0,0,0,0.1,0c0,0,0,0,0.1,0h0.4h0h0.8c0,0,0.1,0,0.1,0c0,0,0,0,0.1,0c0,0,0,0,0-0.1s0,0,0-0.1
			c0,0,0,0,0,0L20.8,69.1L20.8,69.1z"/>
		<path class="st4" d="M20.6,70.9C20.6,70.9,20.6,70.9,20.6,70.9c-0.1-0.1-0.1-0.1-0.1-0.1c0,0-0.1,0-0.1,0s0,0-0.1,0c0,0,0,0,0,0.1
			c0,0,0,0.1,0,0.1c0,0,0,0.1,0,0.1s0,0,0,0.1c0,0,0,0,0.1,0c0,0,0.1,0,0.1,0s0.1,0,0.1,0s0,0,0.1,0c0,0,0,0,0-0.1c0,0,0-0.1,0-0.1
			S20.7,71,20.6,70.9C20.7,71,20.6,70.9,20.6,70.9z"/>
		<path class="st4" d="M21.9,69.3h-0.4c0,0.1,0,0.2,0,0.3c0,0.1,0,0.2,0,0.3c0,0.1,0,0.2,0,0.3c0,0.1,0,0.2,0,0.3
			c0,0.1,0,0.2-0.1,0.2c0,0.1-0.1,0.1-0.1,0.2c0,0.1-0.1,0.1-0.2,0.1c-0.1,0-0.2,0-0.3,0v0.4c0.2,0,0.3,0,0.4-0.1s0.2-0.1,0.3-0.2
			c0.1-0.1,0.1-0.2,0.2-0.3c0-0.1,0.1-0.2,0.1-0.3c0-0.1,0-0.2,0-0.3c0-0.1,0-0.2,0-0.3c0-0.1,0-0.2,0-0.4
			C21.9,69.5,21.9,69.4,21.9,69.3z"/>
		<path class="st4" d="M24.2,68.8C24.2,68.8,24.2,68.9,24.2,68.8c0.1,0.1,0.1,0.1,0.1,0.1c0,0,0.1,0,0.1,0c0,0,0,0,0.1,0s0,0,0-0.1
			c0,0,0-0.1,0-0.1c0,0,0-0.1,0-0.1c0,0,0,0,0-0.1c0,0,0,0-0.1,0c0,0-0.1,0-0.1,0s-0.1,0-0.1,0c0,0,0,0-0.1,0c0,0,0,0,0,0.1
			c0,0,0,0.1,0,0.1C24.1,68.7,24.1,68.7,24.2,68.8C24.1,68.8,24.2,68.8,24.2,68.8z"/>
		<path class="st4" d="M29.1,70.2h-0.4v-1.1h-0.4v1.1h-0.4v-1.1h-0.4v1.1h-0.3h0h-0.2V70c0-0.1,0-0.2,0-0.2c0-0.1,0-0.1,0-0.2
			c0,0-0.1-0.1-0.1-0.1s-0.1,0-0.1-0.1c-0.1,0-0.1,0-0.2,0c-0.1,0-0.2,0-0.3,0h-0.7c0-0.1,0.1-0.2,0.2-0.2c0.1-0.1,0.2-0.1,0.3-0.2
			c0.1,0,0.2-0.1,0.3-0.1c0.1,0,0.2,0,0.3,0l0-0.4c-0.1,0-0.3,0-0.4,0c-0.1,0-0.3,0.1-0.4,0.1s-0.2,0.1-0.3,0.2s-0.2,0.2-0.3,0.3
			c0,0.1,0,0.1-0.1,0.2c0,0.1,0,0.1,0,0.2c0,0,0,0.1,0.1,0.1c0,0,0.1,0,0.2,0l0.9,0c0.1,0,0.1,0,0.1,0c0,0,0.1,0,0.1,0
			c0,0,0,0,0,0.1c0,0,0,0.1,0,0.2v0.2h-1.7v0h-0.3v-1.1h-0.4v1.1h-0.3h0h-0.2c0-0.2,0-0.3-0.1-0.5s-0.1-0.2-0.2-0.3
			c0-0.1-0.1-0.1-0.2-0.1c-0.1,0-0.1-0.1-0.2-0.1c-0.1,0-0.2,0-0.3-0.1s-0.2,0-0.3,0l0,0.4c0.2,0,0.3,0,0.5,0c0.1,0,0.2,0.1,0.3,0.1
			c0.1,0.1,0.1,0.1,0.1,0.2c0,0.1,0,0.2,0,0.3h-1v0.4l1.6,0l0,0h0h0l0,0l1,0v0h2.3h0h0.5c0,0,0.1,0,0.1,0c0,0,0.1-0.1,0.1-0.1v0.1
			h0.6c0,0,0.1,0,0.1,0c0,0,0.1-0.1,0.1-0.1v0.1h0.6c0,0,0,0,0.1,0c0,0,0,0,0.1,0c0,0,0,0,0-0.1c0,0,0,0,0-0.1v-1.3h-0.4L29.1,70.2
			L29.1,70.2z"/>
		<path class="st4" d="M30.8,69.8c0,0.1,0,0.2-0.1,0.2c0,0.1-0.1,0.1-0.1,0.2c0,0,0-0.1,0-0.1c0,0,0-0.1,0-0.1c0-0.1,0-0.3-0.1-0.4
			c0-0.1-0.1-0.3-0.1-0.4c-0.1-0.1-0.1-0.3-0.2-0.4c-0.1-0.1-0.2-0.2-0.3-0.3l-0.3,0.3c0.1,0.1,0.2,0.2,0.2,0.3
			c0.1,0.1,0.1,0.2,0.2,0.3c0,0.1,0.1,0.2,0.1,0.3c0,0.1,0.1,0.2,0.1,0.3c0,0.1,0,0.1,0,0.2c0,0.1,0,0.1,0,0.2c-0.1,0-0.1,0-0.2,0
			c-0.1,0-0.1,0-0.2,0l0.1,0.4c0.1,0,0.2,0,0.4-0.1c0.1,0,0.2,0,0.3-0.1c0.1,0,0.2-0.1,0.2-0.1c0.1,0,0.1-0.1,0.2-0.2
			s0.1-0.1,0.1-0.2c0-0.1,0.1-0.2,0.1-0.3v-1.4h-0.4L30.8,69.8L30.8,69.8z"/>
		<path class="st4" d="M29.9,71.3C29.9,71.3,29.9,71.2,29.9,71.3c0-0.1,0-0.1,0-0.1c0,0,0,0,0.1,0l0.2,0V71h-0.2c0,0-0.1,0-0.1,0
			c0,0-0.1,0-0.1,0.1c0,0,0,0,0,0.1c0,0,0,0.1,0,0.1c0,0,0,0,0,0c0,0,0,0,0,0h-0.1v0.1h0.5v-0.1L29.9,71.3
			C29.9,71.3,29.9,71.3,29.9,71.3z"/>
		<path class="st4" d="M33.1,69.1h-0.4v1.1h-0.5h0h-0.3v-1.8h-0.4v1.9c0,0,0,0,0,0c0,0,0,0,0,0.1c0,0,0,0,0,0.1c0,0,0,0,0.1,0
			c0,0,0,0,0.1,0h0.5h0h0.6c0,0,0.1,0,0.1,0c0,0,0,0,0.1,0c0,0,0,0,0-0.1c0,0,0,0,0-0.1c0,0,0,0,0,0L33.1,69.1L33.1,69.1z"/>
		<path class="st4" d="M32.8,70.9C32.8,70.9,32.8,70.9,32.8,70.9c-0.1-0.1-0.1-0.1-0.1-0.1c0,0-0.1,0-0.1,0s0,0-0.1,0c0,0,0,0,0,0.1
			c0,0,0,0.1,0,0.1s0,0.1,0,0.1c0,0,0,0,0,0.1c0,0,0,0,0.1,0c0,0,0.1,0,0.1,0c0,0,0.1,0,0.1,0c0,0,0,0,0.1,0c0,0,0,0,0-0.1
			c0,0,0-0.1,0-0.1C32.9,71,32.9,71,32.8,70.9C32.8,71,32.8,70.9,32.8,70.9z"/>
		<path class="st4" d="M35.3,70.5c0,0.1,0,0.1,0,0.1c0,0,0,0.1-0.1,0.1c0,0-0.1,0-0.1,0.1c0,0-0.1,0-0.1,0c0,0-0.1,0-0.1,0
			c0,0-0.1,0-0.1-0.1c0,0-0.1-0.1-0.1-0.1c0,0,0-0.1,0-0.1v-0.7h-0.4v0.7c0,0.1,0,0.2,0.1,0.3c0,0.1,0.1,0.2,0.2,0.2
			c0.1,0.1,0.2,0.1,0.2,0.1c0.1,0,0.2,0,0.3,0c0.1,0,0.2,0,0.3,0c0.1,0,0.2-0.1,0.2-0.1c0.1-0.1,0.1-0.1,0.2-0.2
			c0-0.1,0.1-0.2,0.1-0.3v-1.3h-0.4V70.5z"/>
		<path class="st4" d="M34.7,69C34.7,69,34.7,69,34.7,69c0.1,0.1,0.1,0.1,0.1,0.1c0,0,0.1,0,0.1,0c0,0,0,0,0.1,0s0,0,0-0.1
			c0,0,0-0.1,0-0.1s0-0.1,0-0.1c0,0,0,0,0-0.1c0,0,0,0-0.1,0c0,0-0.1,0-0.1,0c0,0-0.1,0-0.1,0c0,0,0,0-0.1,0s0,0,0,0.1
			c0,0,0,0.1,0,0.1S34.6,68.9,34.7,69C34.7,68.9,34.7,68.9,34.7,69z"/>
		<path class="st4" d="M37,68.8C37,68.8,37,68.9,37,68.8c0.1,0.1,0.1,0.1,0.1,0.1c0,0,0.1,0,0.1,0c0,0,0,0,0.1,0s0,0,0-0.1
			c0,0,0-0.1,0-0.1c0,0,0-0.1,0-0.1c0,0,0,0,0-0.1c0,0,0,0-0.1,0c0,0-0.1,0-0.1,0c0,0-0.1,0-0.1,0c0,0,0,0-0.1,0c0,0,0,0,0,0.1
			c0,0,0,0.1,0,0.1C36.9,68.7,37,68.7,37,68.8C37,68.8,37,68.8,37,68.8z"/>
		<path class="st4" d="M39.6,70.2h-0.4v-1.1h-0.4v1.1h-0.4v-1.1H38v1.1h-0.3v0h-0.3v-1.1H37v1.1h-0.3h0h-0.3v-1.8h-0.4v1.9
			c0,0,0,0,0,0c0,0,0,0,0,0.1c0,0,0,0,0,0.1c0,0,0,0,0.1,0c0,0,0,0,0.1,0h0.5l0,0l1,0v0h0.6c0,0,0.1,0,0.1,0c0,0,0.1-0.1,0.1-0.1
			v0.1H39c0,0,0.1,0,0.1,0c0,0,0.1-0.1,0.1-0.1v0.1h0.6c0,0,0,0,0.1,0c0,0,0,0,0.1,0c0,0,0,0,0-0.1c0,0,0,0,0-0.1v-1.3h-0.4V70.2z"
			/>
		<path class="st4" d="M41.3,69.8c0,0.1,0,0.2-0.1,0.2c0,0.1-0.1,0.1-0.1,0.2c0,0,0-0.1,0-0.1c0,0,0-0.1,0-0.1c0-0.1,0-0.3-0.1-0.4
			c0-0.1-0.1-0.3-0.1-0.4c-0.1-0.1-0.1-0.3-0.2-0.4c-0.1-0.1-0.2-0.2-0.3-0.3l-0.3,0.3c0.1,0.1,0.2,0.2,0.2,0.3
			c0.1,0.1,0.1,0.2,0.2,0.3c0,0.1,0.1,0.2,0.1,0.3c0,0.1,0.1,0.2,0.1,0.3c0,0.1,0,0.1,0,0.2c0,0.1,0,0.1,0,0.2c-0.1,0-0.1,0-0.2,0
			c-0.1,0-0.1,0-0.2,0l0.1,0.4c0.1,0,0.2,0,0.4-0.1c0.1,0,0.2,0,0.3-0.1c0.1,0,0.2-0.1,0.2-0.1c0.1,0,0.1-0.1,0.2-0.2
			s0.1-0.1,0.1-0.2s0.1-0.2,0.1-0.3v-1.4h-0.4L41.3,69.8L41.3,69.8z"/>
		<path class="st4" d="M41,68.1h-0.2c0,0,0,0-0.1,0c0,0,0,0,0-0.1c0,0,0,0,0-0.1c0,0,0,0,0.1,0l0.2,0v-0.1h-0.2c0,0-0.1,0-0.1,0
			s-0.1,0-0.1,0.1c0,0,0,0,0,0.1c0,0,0,0.1,0,0.1c0,0,0,0,0,0c0,0,0,0,0,0h-0.1v0.1H41L41,68.1L41,68.1z"/>
		<rect x="42.1" y="68.5" class="st4" width="0.4" height="2.1"/>
		<path class="st4" d="M44.9,70.9C44.9,70.9,44.9,70.9,44.9,70.9c-0.1-0.1-0.1-0.1-0.1-0.1s-0.1,0-0.1,0s0,0-0.1,0c0,0,0,0,0,0.1
			c0,0,0,0.1,0,0.1s0,0.1,0,0.1c0,0,0,0,0,0.1c0,0,0,0,0.1,0c0,0,0.1,0,0.1,0s0.1,0,0.1,0s0,0,0.1,0c0,0,0,0,0-0.1c0,0,0-0.1,0-0.1
			C45,71,45,71,44.9,70.9C45,71,44.9,70.9,44.9,70.9z"/>
		<path class="st4" d="M48.9,68.5h-0.4v1.8h-0.3h0H48v-0.9c0,0,0,0,0-0.1c0,0,0,0,0-0.1c0,0,0,0-0.1,0c0,0,0,0-0.1,0l-0.7,0
			c-0.1,0-0.1,0-0.2,0c-0.1,0-0.1,0-0.2,0.1c0,0-0.1,0.1-0.1,0.1s-0.1,0.1-0.1,0.1v-1h-0.4v1.8h-0.3h0h-0.3v-1.1h-0.4v1.1l-0.9,0
			c-0.1,0-0.1,0-0.2,0c0,0-0.1,0-0.1-0.1c0,0,0-0.1,0-0.1c0,0,0-0.1,0-0.1c0-0.1,0-0.1,0-0.2c0-0.1,0-0.1,0.1-0.2l-0.3-0.2
			c0,0,0,0.1,0,0.1s0,0.1,0,0.1s0,0.1,0,0.1c0,0,0,0.1,0,0.1c0,0.1,0,0.2,0,0.3c0,0.1,0.1,0.2,0.1,0.2c0.1,0.1,0.1,0.1,0.2,0.2
			s0.2,0.1,0.3,0.1h1.5h0h2.3h0h0.5c0,0,0,0,0.1,0c0,0,0,0,0.1,0c0,0,0,0,0-0.1c0,0,0,0,0-0.1c0,0,0,0,0,0L48.9,68.5L48.9,68.5z
			 M47.6,70.2h-1v-0.3c0-0.1,0-0.1,0-0.2c0-0.1,0.1-0.1,0.1-0.1c0,0,0.1-0.1,0.2-0.1c0.1,0,0.1,0,0.2,0c0,0,0,0,0.1,0
			c0.1,0,0.2,0,0.4,0V70.2z"/>
		<path class="st4" d="M50.8,68.8C50.9,68.8,50.9,68.9,50.8,68.8c0.1,0.1,0.1,0.1,0.1,0.1c0,0,0.1,0,0.1,0c0,0,0,0,0.1,0
			c0,0,0,0,0-0.1c0,0,0-0.1,0-0.1c0,0,0-0.1,0-0.1c0,0,0,0,0-0.1c0,0,0,0-0.1,0c0,0-0.1,0-0.1,0c0,0-0.1,0-0.1,0c0,0,0,0-0.1,0
			c0,0,0,0,0,0.1c0,0,0,0.1,0,0.1C50.8,68.7,50.8,68.7,50.8,68.8C50.8,68.8,50.8,68.8,50.8,68.8z"/>
		<path class="st4" d="M50.4,68.8C50.4,68.8,50.4,68.9,50.4,68.8c0.1,0.1,0.1,0.1,0.1,0.1c0,0,0.1,0,0.1,0c0,0,0,0,0.1,0
			c0,0,0,0,0-0.1c0,0,0-0.1,0-0.1c0,0,0-0.1,0-0.1c0,0,0,0,0-0.1c0,0,0,0-0.1,0c0,0-0.1,0-0.1,0c0,0-0.1,0-0.1,0c0,0,0,0-0.1,0
			c0,0,0,0,0,0.1c0,0,0,0.1,0,0.1C50.3,68.7,50.3,68.7,50.4,68.8C50.3,68.8,50.3,68.8,50.4,68.8z"/>
		<path class="st4" d="M53.3,69.1C53.3,69.1,53.2,69.1,53.3,69.1c-0.1,0-0.1-0.1-0.1-0.1l-0.5,0c-0.1,0-0.1,0-0.2,0
			c-0.1,0-0.1,0-0.2,0.1s-0.1,0.1-0.1,0.1c0,0-0.1,0.1-0.1,0.1c0,0.1-0.1,0.1-0.1,0.2c0,0.1,0,0.1,0,0.2v0.4h-0.3h0h-0.3l0-0.9
			c0,0,0-0.1,0-0.1c0,0,0-0.1-0.1-0.1c0,0,0,0-0.1,0c0,0-0.1,0-0.1,0h-0.5c-0.1,0-0.2,0-0.3,0.1c-0.1,0-0.2,0.1-0.2,0.2
			c-0.1,0.1-0.1,0.1-0.2,0.2c0,0.1-0.1,0.2-0.1,0.3v0.6c0,0,0,0.1,0,0.1c0,0,0.1,0.1,0.1,0.1c0.1,0,0.2,0,0.3,0.1c0.1,0,0.2,0,0.3,0
			c0,0,0.1,0,0.1,0c0,0,0.1,0,0.1,0l0-0.4c0,0-0.1,0-0.1,0c-0.1,0-0.1,0-0.2,0c-0.1,0-0.1,0-0.2,0l0-0.4c0,0,0-0.1,0-0.1
			s0-0.1,0.1-0.1c0,0,0.1-0.1,0.1-0.1c0,0,0.1,0,0.1,0l0.3,0l0,0.9c0,0,0,0.1,0,0.1c0,0,0,0,0,0.1c0,0,0,0,0.1,0s0,0,0.1,0h0.4h0
			h1.5c0,0,0.1,0,0.1,0c0,0,0,0,0.1,0c0,0,0,0,0-0.1c0,0,0-0.1,0-0.1v-1.1C53.3,69.3,53.3,69.2,53.3,69.1
			C53.3,69.2,53.3,69.2,53.3,69.1z M53,70.2h-0.7v-0.4c0,0,0-0.1,0-0.1s0-0.1,0.1-0.1c0,0,0.1-0.1,0.1-0.1c0,0,0.1,0,0.1,0
			c0,0,0,0,0,0c0,0,0,0,0,0c0,0,0.1,0,0.1,0c0,0,0.1,0,0.2,0L53,70.2L53,70.2z"/>
		<path class="st4" d="M56.9,68.5h-0.4v1.8h-0.3h0h-0.5l0.2-0.3c0.1-0.1,0.1-0.2,0.1-0.3c0-0.1,0-0.1,0-0.2c0-0.1-0.1-0.1-0.1-0.2
			c-0.1,0-0.1-0.1-0.2-0.1c-0.1,0-0.1,0-0.2,0h-0.4c-0.1,0-0.2,0-0.2,0s-0.1,0.1-0.2,0.1c0,0-0.1,0.1-0.1,0.2c0,0.1,0,0.1,0,0.2
			c0,0,0,0.1,0,0.2c0,0.1,0,0.1,0.1,0.2l0.2,0.3h-0.5h-0.1H54v-1.8h-0.4v1.9c0,0,0,0,0,0c0,0,0,0,0,0.1c0,0,0,0,0,0.1c0,0,0,0,0.1,0
			c0,0,0,0,0.1,0h0.5h0.1h1.8h0h0.5c0,0,0,0,0.1,0c0,0,0,0,0.1,0c0,0,0,0,0-0.1c0,0,0,0,0-0.1c0,0,0,0,0,0L56.9,68.5L56.9,68.5z
			 M55.6,69.7l-0.3,0.5h0l-0.3-0.5c0,0,0-0.1,0-0.1c0,0,0,0,0,0c0,0,0,0,0,0s0,0,0.1,0c0,0,0,0,0.1,0h0.4c0,0,0,0,0.1,0
			c0,0,0,0,0.1,0c0,0,0,0,0,0c0,0,0,0,0,0.1C55.7,69.6,55.7,69.7,55.6,69.7z"/>
		<rect x="57.4" y="68.5" class="st4" width="0.4" height="2.1"/>
		<path class="st4" d="M59.3,68.8C59.3,68.8,59.3,68.9,59.3,68.8c0.1,0.1,0.1,0.1,0.1,0.1c0,0,0.1,0,0.1,0c0,0,0,0,0.1,0
			c0,0,0,0,0-0.1c0,0,0-0.1,0-0.1c0,0,0-0.1,0-0.1c0,0,0,0,0-0.1c0,0,0,0-0.1,0c0,0-0.1,0-0.1,0c0,0-0.1,0-0.1,0c0,0,0,0-0.1,0
			c0,0,0,0,0,0.1c0,0,0,0.1,0,0.1C59.2,68.7,59.2,68.7,59.3,68.8C59.3,68.8,59.3,68.8,59.3,68.8z"/>
		<path class="st4" d="M59.8,68.8C59.8,68.8,59.8,68.9,59.8,68.8c0.1,0.1,0.1,0.1,0.1,0.1c0,0,0.1,0,0.1,0c0,0,0,0,0.1,0
			c0,0,0,0,0-0.1c0,0,0-0.1,0-0.1c0,0,0-0.1,0-0.1c0,0,0,0,0-0.1c0,0,0,0-0.1,0c0,0-0.1,0-0.1,0c0,0-0.1,0-0.1,0c0,0,0,0-0.1,0
			c0,0,0,0,0,0.1c0,0,0,0.1,0,0.1C59.7,68.7,59.7,68.7,59.8,68.8C59.7,68.8,59.7,68.8,59.8,68.8z"/>
		<path class="st4" d="M60.3,69.2C60.3,69.2,60.3,69.2,60.3,69.2c-0.1-0.1-0.1-0.1-0.1-0.1c0,0-0.1,0-0.1,0h-0.5
			c-0.1,0-0.2,0-0.3,0.1s-0.2,0.1-0.2,0.2C59,69.4,59,69.4,59,69.5c0,0.1-0.1,0.2-0.1,0.3v0.6c0,0,0,0.1,0,0.1c0,0,0.1,0,0.1,0.1
			c0,0,0.1,0,0.1,0c0,0,0.1,0,0.1,0c0,0,0.1,0,0.1,0c0,0,0.1,0,0.1,0c0.1,0,0.2,0,0.3,0c0.1,0,0.2,0,0.3-0.1c0,0,0.1,0,0.1-0.1
			c0,0,0-0.1,0-0.1L60.3,69.2C60.3,69.3,60.3,69.3,60.3,69.2z M59.9,70.2c-0.1,0-0.1,0-0.2,0s-0.1,0-0.2,0c0,0-0.1,0-0.1,0
			c0,0,0,0-0.1,0c0,0-0.1,0-0.1,0s-0.1,0-0.1,0l0-0.4c0,0,0-0.1,0-0.1s0-0.1,0.1-0.1c0,0,0.1-0.1,0.1-0.1c0,0,0.1,0,0.1,0l0.3,0
			L59.9,70.2L59.9,70.2z"/>
		<path class="st4" d="M61.5,69.3h-0.4c0,0.1,0,0.2,0,0.3c0,0.1,0,0.2,0,0.3c0,0.1,0,0.2,0,0.3c0,0.1,0,0.2,0,0.3
			c0,0.1,0,0.2-0.1,0.2c0,0.1-0.1,0.1-0.1,0.2c0,0.1-0.1,0.1-0.2,0.1c-0.1,0-0.2,0-0.3,0v0.4c0.2,0,0.3,0,0.4-0.1
			c0.1,0,0.2-0.1,0.3-0.2c0.1-0.1,0.1-0.2,0.2-0.3c0-0.1,0.1-0.2,0.1-0.3c0-0.1,0-0.2,0-0.3c0-0.1,0-0.2,0-0.3c0-0.1,0-0.2,0-0.4
			C61.5,69.5,61.5,69.4,61.5,69.3z"/>
		<rect x="61.8" y="68.5" class="st4" width="0.4" height="2.1"/>
		<path class="st4" d="M64,69.8c0-0.1,0-0.2-0.1-0.2c0-0.1-0.1-0.1-0.1-0.2c0-0.1-0.1-0.1-0.2-0.1c-0.1,0-0.1-0.1-0.2-0.1
			c-0.1,0-0.2,0-0.3-0.1c-0.1,0-0.2,0-0.3,0l0,0.4c0.2,0,0.3,0,0.5,0s0.2,0.1,0.3,0.1c0.1,0.1,0.1,0.1,0.1,0.2s0,0.2,0,0.3h-1v0.4
			h1.2c0,0,0,0,0.1,0c0,0,0,0,0.1,0c0,0,0,0,0-0.1c0,0,0,0,0-0.1c0-0.1,0-0.2,0-0.3C64,70,64,69.9,64,69.8z"/>
		<path class="st4" d="M64.5,71.3C64.5,71.3,64.5,71.2,64.5,71.3c0-0.1,0-0.1,0-0.1c0,0,0,0,0.1,0l0.2,0V71h-0.2c0,0-0.1,0-0.1,0
			c0,0-0.1,0-0.1,0.1c0,0,0,0,0,0.1c0,0,0,0.1,0,0.1c0,0,0,0,0,0c0,0,0,0,0,0h-0.1v0.1h0.5v-0.1L64.5,71.3
			C64.5,71.3,64.5,71.3,64.5,71.3z"/>
		<path class="st4" d="M65.4,69.8c0,0.1,0,0.2-0.1,0.2c0,0.1-0.1,0.1-0.1,0.2c0,0,0-0.1,0-0.1c0,0,0-0.1,0-0.1c0-0.1,0-0.3-0.1-0.4
			c0-0.1-0.1-0.3-0.1-0.4c-0.1-0.1-0.1-0.3-0.2-0.4c-0.1-0.1-0.2-0.2-0.3-0.3l-0.3,0.3c0.1,0.1,0.2,0.2,0.2,0.3
			c0.1,0.1,0.1,0.2,0.2,0.3c0,0.1,0.1,0.2,0.1,0.3c0,0.1,0.1,0.2,0.1,0.3c0,0.1,0,0.1,0,0.2c0,0.1,0,0.1,0,0.2c-0.1,0-0.1,0-0.2,0
			c-0.1,0-0.1,0-0.2,0l0.1,0.4c0.1,0,0.2,0,0.4-0.1c0.1,0,0.2,0,0.3-0.1c0.1,0,0.2-0.1,0.2-0.1c0.1,0,0.1-0.1,0.2-0.2
			c0.1-0.1,0.1-0.1,0.1-0.2c0-0.1,0.1-0.2,0.1-0.3v-1.4h-0.4L65.4,69.8L65.4,69.8z"/>
		<rect x="66.2" y="68.5" class="st4" width="0.4" height="2.1"/>
	</g>
	<g>
		<rect x="18.2" y="73.2" class="st4" width="48.8" height="0.1"/>
	</g>
	
		<linearGradient id="SVGID_3_" gradientUnits="userSpaceOnUse" x1="36.6165" y1="2801.3879" x2="48.4364" y2="2801.3879" gradientTransform="matrix(1 0 0 -1 0 2834.6455)">
		<stop  offset="0" style="stop-color:#CD010B"/>
		<stop  offset="1" style="stop-color:#D94048"/>
	</linearGradient>
	<path class="st5" d="M46.9,33.7c0,0-0.1-0.1-0.2-0.1c-0.2-0.1-0.7-0.5-1.5-0.8c-0.1,0-0.1-0.1-0.3-0.1c0.8,0.6,1.4,1.4,1.8,2.2
		c1,2.1,0.1,4.6-2,5.6c-0.2,0.1-0.3,0.1-0.3-0.2c0-0.2,0.1-0.5,0.1-0.7c0.1-0.4,0.3-0.8,0.4-1.2c0.2-0.9-0.3-1.7-0.4-1.8
		c-0.1-0.2-0.5-0.7-1.1-0.9c-0.6-0.2-1.1-0.1-1.2-0.1c-0.4,0.1-0.7,0.3-0.8,0.4c-0.1,0.1-0.3,0.2-0.4,0.3c-0.4,0.5-0.5,1-0.5,1.6
		c0,0.5,0.1,1.1,0.1,1.6c0,0.1,0,0.2-0.1,0.4c-0.1,0-0.2-0.1-0.3-0.1c-0.6-0.4-1.1-0.9-1.5-1.4c-0.7-0.9-0.9-2-0.7-3.1
		c0.1-0.5,0.3-0.7,0.5-1.4c0.1-0.3,0.1-0.5,0.1-0.7c0,0-0.1-0.1-0.1-0.2c-0.5-0.6-1.7-2-1.9-3.9c-0.1-1.1,0.3-2,1.3-2.6
		c0.9-0.5,1.7-0.6,2.7-0.6c0.6,0,1.5,0,2.5,0.2c0,0.2,0,0.3-0.2,0.4c-0.2,0.2-0.4,0.5-0.6,0.7c0,0.1-0.1,0.1-0.1,0.2
		c0,0,0.1,0,0.1,0c0,0,0.1-0.1,0.1-0.1c0.3-0.3,0.7-0.5,1.2-0.7c1.1-0.4,2.2-0.2,3.2,0.2c0.9,0.4,1.4,1.1,1.6,2.1
		c0.1,0.8,0,1.4-0.1,1.9c0,0.2-0.2,0.7-0.5,1.3C47.5,32.9,47.2,33.3,46.9,33.7z"/>
	<g>
		<path class="st4" d="M48,22.2c-0.2-0.4-0.4-0.4-0.5-0.3c0,0-0.1,0-0.1,0c0,0,0-0.1,0-0.1c0-0.1,0-0.2,0-0.2
			c-0.1-0.2-0.7-0.1-0.9-0.1v0c-1.8,0.2-3.2,0.2-4.4,0.2c-2.1,0-3.3-0.2-3.5-0.2l0,0c-0.2,0-0.7-0.1-0.9,0.1c0,0,0,0.1,0,0.2
			c0,0,0,0.1,0,0.1c0,0-0.1,0-0.1,0c-0.1,0-0.3-0.1-0.5,0.3c0,0,0,0,0,0c0,0-0.1,0-0.1,0.1l0,0c0,0,0.1,0,0.1,0.1c0,0,0,0.3,0.4,0.5
			c0,0,0,0.1,0,0.1c0,0-0.1,0.1,0,0.2c0,0.1,0.1,0.1,0.2,0.2c0,0,0,0,0,0c0,0,0.1,0,0.1,0c0.5,0.1,1.5,0.4,4.8,0.4
			c3.2,0,4.2-0.3,4.8-0.4c0,0,0.1,0,0.1,0c0,0,0,0,0,0c0.1,0,0.2-0.1,0.2-0.2c0-0.1,0-0.2,0-0.2c0,0,0-0.1,0-0.1
			c0.4-0.2,0.4-0.4,0.4-0.5c0,0,0-0.1,0.1-0.1l0,0C48.1,22.3,48,22.3,48,22.2C48,22.2,48,22.2,48,22.2"/>
		<path class="st6" d="M48.1,22.3C48.1,22.3,48,22.4,48.1,22.3c-0.1,0.1-0.1,0.3-0.4,0.6c0,0,0,0.1,0,0.1c0,0,0.1,0.1,0,0.2
			c0,0.1-0.1,0.1-0.2,0.2c0,0,0,0,0,0c0,0-0.1,0-0.1,0c-0.5,0.1-1.5,0.4-4.8,0.4c-3.3,0-4.2-0.3-4.8-0.4c0,0-0.1,0-0.1,0
			c0,0,0,0,0,0c-0.1,0-0.2-0.1-0.2-0.2c0-0.1,0-0.2,0-0.2c0,0,0-0.1,0-0.1C37,22.7,37,22.4,37,22.4c0,0,0-0.1-0.1-0.1l0,0
			c0.1,0,0.1,0,0.1-0.1c0,0,0,0,0,0c0.2-0.4,0.4-0.4,0.5-0.3c0,0,0.1,0,0.1,0c0,0,0-0.1,0-0.1c0-0.1,0-0.2,0-0.2
			c0.2-0.2,0.7-0.1,0.9-0.1l0,0c0.2,0,1.4,0.2,3.5,0.2c1.2,0,2.6-0.1,4.4-0.2v0c0.2,0,0.7,0,0.9,0.1c0,0,0,0.1,0,0.2
			c0,0,0,0.1,0,0.1c0,0,0.1,0,0.1,0c0.1,0,0.3-0.1,0.5,0.3C48,22.2,48,22.2,48.1,22.3C48,22.3,48.1,22.3,48.1,22.3L48.1,22.3z
			 M48.3,22.2c-0.1,0-0.2,0-0.2-0.1c-0.2-0.4-0.4-0.4-0.6-0.4c0-0.1,0-0.2-0.1-0.2c-0.2-0.3-0.9-0.2-1-0.2v0c-5.3,0.5-7.9,0-7.9,0v0
			c-0.2,0-0.8-0.1-1,0.2c-0.1,0.1-0.1,0.2-0.1,0.2c-0.1,0-0.4,0-0.6,0.4c0,0-0.1,0-0.2,0.1c0,0-0.1,0-0.1,0.1c0,0,0,0.1,0.1,0.1
			l0.1,0c0,0.1,0.1,0.3,0.4,0.5c0,0.1,0,0.2,0,0.3c0.1,0.1,0.2,0.2,0.3,0.2c0,0,0,0,0,0c0,0,0.1,0,0.1,0c0.5,0.1,1.5,0.4,4.8,0.4
			v-0.1V24c3.3,0,4.3-0.3,4.8-0.4c0,0,0.1,0,0.1,0c0,0,0,0,0,0c0.2,0,0.3-0.1,0.3-0.2c0.1-0.1,0-0.2,0-0.3c0.3-0.2,0.4-0.4,0.4-0.5
			l0.1,0C48.3,22.4,48.4,22.3,48.3,22.2C48.4,22.2,48.3,22.2,48.3,22.2"/>
		<path class="st6" d="M42.4,9.5v0.9H42l-0.1,0.2c0,0-0.9,0.7-2.2,0.2c0,0-0.3-0.1-0.6-0.3c0,0-1.2-0.7-2.1-0.4c0,0-0.4,0.2-0.6,0.8
			c0,0,0,0.4-0.1,0.8l-0.4,9.5l0,0.3c0,0,0,0.1,0.2-0.1l3.3-2.8l-0.7,2.3l-0.2,0.6l3.5,0.4h0.4H43l3.5-0.4l-0.2-0.6l-0.7-2.3
			l3.3,2.8c0.2,0.2,0.2,0.1,0.2,0.1l0-0.3l-0.4-9.5c0-0.5-0.1-0.8-0.1-0.8c-0.1-0.6-0.6-0.8-0.6-0.8c-0.9-0.3-2.1,0.4-2.1,0.4
			c-0.4,0.2-0.6,0.3-0.6,0.3c-1.4,0.5-2.2-0.2-2.2-0.2l-0.1-0.2h-0.4V9.5"/>
		<path class="st4" d="M42,17.6c0,0-0.1-0.1-0.3-0.3l-0.3,0.3l0.3,1"/>
		<path class="st4" d="M40.9,16.9l0.3-0.2c-0.1-0.1-0.2-0.3-0.3-0.4"/>
		<path class="st4" d="M40.9,17.1l0.1,1l0.6-0.8c-0.1-0.1-0.3-0.3-0.4-0.5"/>
		<path class="st4" d="M40.8,17l-0.1-0.9c-0.1-0.2-0.2-0.3-0.3-0.5l-0.5,1.6l0.2,0.4"/>
		<polyline class="st4" points="41.4,20.4 41.7,18.8 41.2,19.6 		"/>
		<polyline class="st4" points="39.7,20.2 40.3,19.4 40.6,20.3 41.1,19.6 40.8,18.6 40.3,19.2 40.1,18.4 39.4,19.1 		"/>
		<polyline class="st4" points="39.4,18.9 40.1,18.2 40.3,19 40.9,18.4 41.1,19.5 41.7,18.7 41.4,17.7 40.9,18.3 40.8,17.1 
			40.1,17.8 39.9,17.3 		"/>
		<path class="st4" d="M43,17.6l0.2,1l0.3-1l-0.3-0.3C43.2,17.5,43,17.6,43,17.6"/>
		<path class="st4" d="M44.2,16.9l0.1-0.7c-0.1,0.2-0.2,0.3-0.3,0.4"/>
		<path class="st4" d="M43.4,17.3l0.6,0.8l0.1-1l-0.3-0.3C43.7,17,43.6,17.1,43.4,17.3"/>
		<path class="st4" d="M44.6,15.6c-0.1,0.2-0.2,0.3-0.3,0.5L44.3,17l0.7,0.6l0.2-0.4"/>
		<polyline class="st4" points="43.7,20.4 43.9,19.6 43.3,18.8 		"/>
		<polyline class="st4" points="44.2,18.6 44,19.6 44.5,20.3 44.7,19.4 45.3,20.2 45.7,19.1 45,18.4 44.8,19.2 		"/>
		<polyline class="st4" points="45.7,19.2 45.4,20.3 45.9,21.1 45.8,21.1 45.3,20.4 45.1,21.2 45,21.5 44.6,20.8 44.3,21.4 
			44.2,21.3 44.5,20.6 45,21.3 45,21.2 45.3,20.3 44.8,19.6 44.5,20.5 43.9,19.7 43.7,20.7 43.9,21.2 43.9,21.4 43.8,21.4 
			43.8,21.3 43.7,20.9 43.4,21.1 43.1,20.9 42.8,18.6 42.8,20.9 42.5,21.3 42.2,20.9 42.3,18.6 42,20.9 41.6,21.1 41.4,20.9 
			41.3,21.3 41.3,21.4 41.2,21.4 41.2,21.2 41.3,20.7 41.1,19.7 40.5,20.5 40.3,19.6 39.8,20.3 40,21.2 40,21.3 40.5,20.6 
			40.8,21.3 40.7,21.4 40.5,20.8 40,21.5 39.9,21.2 39.7,20.4 39.2,21.1 39.1,21.1 39.7,20.3 39.3,19.2 38.8,20.9 38.8,21.3 
			41.9,21.7 42.1,21.7 42.3,21.7 42.5,21.7 42.7,21.7 42.9,21.7 43.1,21.7 46.2,21.3 46.2,20.9 		"/>
		<polyline class="st4" points="44.1,18.3 43.7,17.7 43.3,18.7 43.9,19.5 44.1,18.4 44.7,19 44.9,18.2 45.6,18.9 45.2,17.3 45,17.8 
			44.3,17.1 		"/>
		<path class="st4" d="M39.5,18.1l0.3-1l0.1-2.7c-0.1-0.3-0.2-0.6-0.2-0.9"/>
		<path class="st4" d="M45.2,17.1l0.3,1l-0.2-4.6c0,0.3-0.1,0.6-0.2,0.9"/>
		<path class="st4" d="M48.6,11.1c-0.1-0.7-0.5-0.9-0.5-0.9c0,0,0,0,0,0c-0.8-0.2-1.9,0.5-1.9,0.5c-0.4,0.2-0.6,0.3-0.6,0.3
			c-1.3,0.5-2.2-0.2-2.2-0.2l-0.1-0.2h-0.3h-0.2h-0.2h-0.2h-0.2h-0.3l-0.1,0.2c0,0-0.8,0.7-2.2,0.2c0,0-0.3-0.1-0.6-0.3
			c0,0-1.1-0.6-1.9-0.5c0,0,0,0,0,0c-0.1,0-0.5,0.2-0.5,0.9l0.7-0.3l-0.4,9.9l0.2-0.2l0.4-9.5l0.7,0.6l-0.3,8.3l0.3-0.3l0.4-7.8
			l0.5,0.4L38.6,19l0.3-0.3l0.2-6.5l0.4,0.2c0-0.1,0-0.1,0-0.1c2.2,0.1,2.9-0.8,2.9-0.8s0.7,0.8,2.9,0.8c0,0,0,0,0,0.1l0.4-0.2
			l0.2,6.5l0.3,0.3l-0.3-6.9l0.5-0.4l0.4,7.8l0.3,0.3L47,11.5l0.7-0.6l0.4,9.5l0.2,0.2l-0.4-9.9"/>
		<path class="st4" d="M45.2,12.5c-2,0.1-2.7-0.7-2.7-0.7s-0.7,0.8-2.7,0.7c0,0-0.2,3.3,2.7,5.3C45.4,15.8,45.2,12.5,45.2,12.5"/>
		<path class="st6" d="M45.1,12.6c-2,0.1-2.6-0.7-2.6-0.7s-0.6,0.8-2.6,0.7c0,0-0.2,3.2,2.6,5C45.3,15.8,45.1,12.6,45.1,12.6"/>
		<path class="st7" d="M45,12.7c-1.8,0.1-2.5-0.6-2.5-0.6s-0.6,0.7-2.5,0.6c0,0-0.2,3,2.5,4.8C45.2,15.7,45,12.7,45,12.7"/>
		<path class="st8" d="M40.1,12.7c0,0-0.1,2.1,1.4,3.9v-4C41.1,12.7,40.7,12.8,40.1,12.7"/>
		<path class="st4" d="M42.5,17.5c0.4-0.3,0.8-0.6,1-0.9v-4c-0.8-0.2-1-0.5-1-0.5s-0.3,0.3-1,0.5v4C41.8,16.9,42.1,17.2,42.5,17.5"
			/>
		<path class="st6" d="M38,20.8c0,0-0.7,0-0.5,0.8c0,0,0.2-0.1,0.5-0.2c0,0,0.8,0.2,1.6,0.3c0,0,0,0.1,0.1,0.2c0,0,0.2,0.1,0.2,0.3
			c0,0,0-0.2,0.2-0.3c0,0,0.1,0,0.1-0.1c0,0,0.5,0.1,1.6,0c0,0,0,0.1,0.1,0.1c0,0,0.3,0.1,0.3,0.3c0,0,0.2-0.1,0.2-0.5
			c0,0,0-0.3-0.4-0.4c0,0-0.1-0.1-0.3-0.2c0,0-0.3,0.1-1.9-0.1c0,0-0.5-0.1-1.6-0.3C38.3,20.8,38.2,20.7,38,20.8"/>
		<path class="st4" d="M39.9,22c0,0,0-0.1,0.1-0.2c0,0,0.1-0.1,0.1-0.3c0,0,0-0.2-0.2-0.3c0,0-0.2,0-0.3,0.2c0,0,0,0.1,0,0.2
			c0,0,0,0.1,0.1,0.2C39.8,21.9,39.9,22,39.9,22"/>
		<path class="st4" d="M42.1,21.5c0,0,0,0.1-0.1,0.2c0,0-0.2,0.1,0,0.2c0,0,0.2,0.1,0.3,0.3c0,0,0.3-0.3,0-0.6
			C42.3,21.6,42.1,21.4,42.1,21.5"/>
		<path class="st4" d="M38,21c0,0,0,0,0,0.1c0,0,0,0.1,0,0.2c0,0,0,0.1-0.1,0.1c0,0-0.2,0.1-0.3,0.2c0,0-0.1-0.4,0.3-0.6
			C37.8,21,37.9,20.9,38,21"/>
		<path class="st4" d="M41.6,21.6c0,0-0.3,0-0.4,0c0,0-0.1,0-0.1,0c0,0,0.1-0.1,0.2-0.1C41.4,21.5,41.6,21.5,41.6,21.6
			C41.7,21.5,41.8,21.6,41.6,21.6 M40.9,21.6h-0.6c0,0,0,0,0,0c0-0.1,0.3-0.1,0.3-0.1C40.8,21.4,40.9,21.5,40.9,21.6
			C40.9,21.6,40.9,21.6,40.9,21.6 M39.5,21.4c0,0-0.1,0-0.1,0c-0.1,0-0.3-0.1-0.3-0.1c0,0-0.1,0-0.1,0c-0.1,0-0.1-0.1-0.1-0.1
			c0.2,0,0.4,0,0.4,0C39.6,21.4,39.5,21.4,39.5,21.4 M38.6,21.2c-0.1,0-0.3-0.1-0.3-0.1l-0.1,0c-0.1,0,0-0.1,0-0.1
			c0.4,0,0.5,0.2,0.5,0.2C38.7,21.2,38.6,21.2,38.6,21.2 M42,21.4c0,0-0.1,0-0.1-0.1c0,0,0,0-0.2,0c0,0-1.8,0.1-3.3-0.4
			c0,0-0.2-0.1-0.3,0.1c0,0-0.1,0.2,0,0.4c0,0,0,0,0.1,0.1c0,0,0.3,0.1,1.4,0.3c0,0,0-0.4,0.4-0.4c0,0,0.3,0,0.3,0.5
			c0,0,0.6,0,1.5,0c0,0,0.1,0,0.1-0.1C41.8,21.7,41.9,21.6,42,21.4C42,21.5,42.1,21.5,42,21.4"/>
		<path class="st6" d="M47,20.8c0,0,0.7,0,0.5,0.8c0,0-0.2-0.1-0.5-0.2c0,0-0.8,0.2-1.6,0.3c0,0,0,0.1-0.1,0.2c0,0-0.2,0.1-0.2,0.3
			c0,0,0-0.2-0.2-0.3c0,0-0.1,0-0.1-0.1c0,0-0.5,0.1-1.6,0c0,0,0,0.1-0.1,0.1c0,0-0.3,0.1-0.3,0.3c0,0-0.2-0.1-0.2-0.5
			c0,0,0-0.3,0.4-0.4c0,0,0.1-0.1,0.3-0.2c0,0,0.3,0.1,1.9-0.1c0,0,0.5-0.1,1.6-0.3C46.7,20.8,46.9,20.7,47,20.8"/>
		<path class="st4" d="M45.1,22c0,0,0-0.1-0.1-0.2c0,0-0.1-0.1-0.1-0.3c0,0,0-0.2,0.2-0.3c0,0,0.2,0,0.3,0.2c0,0,0,0.1,0,0.2
			c0,0,0,0.1-0.1,0.2C45.3,21.9,45.2,22,45.1,22"/>
		<path class="st4" d="M42.9,21.5c0,0,0,0.1,0.1,0.2c0,0,0.2,0.1,0,0.2c0,0-0.2,0.1-0.3,0.3c0,0-0.3-0.3,0-0.6
			C42.8,21.6,42.9,21.4,42.9,21.5"/>
		<path class="st4" d="M47.1,21c0,0,0,0,0,0.1c0,0,0,0.1,0,0.2c0,0,0,0.1,0.1,0.1c0,0,0.2,0.1,0.3,0.2c0,0,0.1-0.4-0.3-0.6
			C47.2,21,47.1,20.9,47.1,21"/>
		<path class="st4" d="M43.3,21.5c0.1,0,0.4,0,0.4,0c0.2,0,0.2,0.1,0.2,0.1c0,0.1-0.1,0-0.1,0C43.7,21.6,43.4,21.6,43.3,21.5
			C43.2,21.6,43.3,21.5,43.3,21.5 M44.1,21.6c0,0,0.1-0.1,0.3-0.1c0,0,0.3,0,0.3,0.1c0,0,0,0,0,0L44.1,21.6
			C44.1,21.6,44.1,21.6,44.1,21.6 M45.7,21.3c0,0,0.2-0.1,0.4,0c0,0,0,0-0.1,0.1c0,0-0.1,0-0.1,0C45.9,21.3,45.7,21.4,45.7,21.3
			c0,0.1-0.1,0.1-0.2,0.1C45.5,21.4,45.4,21.4,45.7,21.3 M46.3,21.2c0,0,0.1-0.1,0.5-0.2c0,0,0.1,0,0,0.1l-0.1,0c0,0-0.2,0-0.3,0.1
			C46.5,21.2,46.3,21.2,46.3,21.2 M43,21.5c0.1,0,0.2,0.2,0.2,0.2c0.1,0.1,0.1,0.1,0.1,0.1c0.8,0,1.5,0,1.5,0c0-0.5,0.3-0.5,0.3-0.5
			c0.3,0,0.4,0.4,0.4,0.4c1.1-0.2,1.4-0.3,1.4-0.3c0.1,0,0.1-0.1,0.1-0.1c0.1-0.2,0-0.4,0-0.4c-0.1-0.1-0.3-0.1-0.3-0.1
			c-1.5,0.5-3.3,0.4-3.3,0.4c-0.2,0-0.2,0-0.2,0C43.1,21.4,43.1,21.4,43,21.5C43,21.5,43,21.5,43,21.5"/>
		<path class="st6" d="M41.6,8.1c0,0,0.4,0.6-0.3,2.1c0,0-0.1,0.3-0.7,1.1c0,0,0.4,0,0.9-0.3l-0.1,0.5c0,0,0.2,0,0.8-0.5l0.4,0.4
			l0.4-0.4c0,0,0.3,0.3,0.8,0.4c0,0,0-0.1,0-0.3c0,0,0.3,0.2,0.8,0.1c0,0-0.3-0.1-0.5-0.8c0,0-0.1-0.3-0.2-0.8c0,0,0-0.4,0-0.9
			c0,0,0.1-1.1-0.5-1.3c0,0-0.4-0.2-1-0.3c0,0-0.3,0-0.3,0.2c0,0-0.4-0.1-0.7-0.1c0,0-0.5,0-0.5,0.5c0,0,0,0.2,0.1,0.2
			c0,0,0,0,0.2-0.1c0,0,0-0.1,0.2-0.1C41.2,7.8,41.4,7.8,41.6,8.1"/>
		<path class="st4" d="M42.5,7.6c0,0.1-0.1,0.1-0.1,0.1c-0.1,0-0.1,0-0.1-0.1c0-0.1,0.1-0.1,0.1-0.1C42.5,7.5,42.5,7.5,42.5,7.6"/>
		<path class="st4" d="M43.5,11C43.5,11,43.5,11,43.5,11L43.5,11c-0.1-0.2-0.2-0.5-0.3-0.9l-0.1-0.9l0.1,0l0.1,0.9
			c0.1,0.5,0.2,0.8,0.3,0.9c0.1,0.1,0.2,0.2,0.6,0.2c0,0-0.4-0.4-0.5-1.3c0,0-0.1-0.3-0.1-0.8c0,0,0.1-0.8-0.1-1.2
			c0,0-0.1-0.3-0.3-0.3c0,0-0.1,0-0.2,0c-0.1,0-0.2,0-0.3,0.1c0,0-0.1,0-0.1,0.1c0,0,0,0,0,0.1c0,0,0,0-0.1,0c0,0-0.1,0-0.1,0
			c0,0,0-0.1-0.2-0.1c0,0-0.1,0-0.3-0.1c0,0-0.3-0.3-0.5-0.3c0,0-0.2,0-0.4,0c0,0-0.1,0-0.2,0.2c0,0,0,0.1,0,0.2c0,0,0,0.1,0,0
			c0,0,0.1-0.2,0.2-0.2c0,0,0.2,0,0.3,0c0,0,0.1,0,0.5,0.4c0,0,0.1,0,0.2,0.2c0,0,0.1,0.1,0,0.1c0,0-0.3-0.1-0.3,0
			c0,0,0.2,0.6-0.2,1.6c0,0-0.1,0.6-0.8,1.4c0,0,0.2,0,0.7-0.3l0,0c0,0,0.2-0.1,0.3-0.6c0,0,0.2-0.5,0.3-1.2l0.1,0
			c-0.1,0.8-0.3,1.3-0.3,1.3c-0.2,0.4-0.3,0.6-0.4,0.6l-0.1,0.4c0,0,0.4-0.1,0.7-0.4c0.1-0.1,0.1-0.3,0.2-0.7l0.1-1.2l0.1,0
			l-0.1,1.2c-0.1,0.5-0.2,0.7-0.2,0.8l0,0l0.3,0.3l0.3-0.3l0,0l-0.1-1.9l0.1,0l0.1,1.9c0,0,0.2,0.2,0.7,0.4
			C43.6,11.3,43.7,11.3,43.5,11C43.5,11,43.5,11,43.5,11"/>
		<path class="st6" d="M38.2,22.5l-0.1,0c0,0,0,0,0,0H38.2C38.2,22.4,38.2,22.4,38.2,22.5C38.2,22.4,38.3,22.5,38.2,22.5 M39.2,22.3
			c0,0,0,0.1-0.2,0.1c0,0-0.1,0,0,0.1c0,0,0.1,0,0.1,0.1c0,0,0,0.1,0,0.1c0,0,0,0-0.1,0l-0.2-0.1c0,0-0.1,0,0-0.1l0.1-0.3
			c0,0,0-0.1-0.1,0c0,0-0.1,0-0.1,0c0,0-0.1,0,0,0.1c0,0,0.1,0,0,0l-0.1,0.2c0,0,0,0-0.1,0l-0.1,0c0,0,0,0,0,0c0,0,0-0.1,0-0.2
			l0.2-0.5c0,0,0-0.1-0.1-0.1c0,0,0,0-0.1,0c0,0,0,0-0.1,0h-0.1c0,0-0.1-0.1-0.2,0.1c0,0,0,0.1,0.1,0.1c0,0,0,0,0.1-0.1c0,0,0,0,0,0
			c0,0,0.1,0,0.1,0c0,0,0,0.1-0.1,0.3c0,0,0,0.1-0.1,0.1c0,0-0.1,0-0.2,0.1c0,0-0.1,0.1-0.1,0.2c0,0,0,0,0.1,0.1l0.9,0.2
			c0,0,0.2,0.1,0.2-0.1l0.1-0.4C39.3,22.4,39.3,22.3,39.2,22.3"/>
		<path class="st6" d="M38.2,22.1C38.2,22.1,38.2,22.2,38.2,22.1c-0.1,0.1-0.2,0-0.2,0S38.1,22,38.2,22.1C38.2,22,38.2,22,38.2,22.1
			"/>
		<path class="st6" d="M38.3,22.8C38.3,22.9,38.2,22.9,38.3,22.8c-0.1,0.1-0.2,0-0.2,0S38.1,22.7,38.3,22.8
			C38.2,22.7,38.3,22.8,38.3,22.8"/>
		<path class="st6" d="M38.5,22.9C38.5,22.9,38.4,23,38.5,22.9c-0.1,0.1-0.2,0-0.2,0C38.3,22.8,38.3,22.8,38.5,22.9
			C38.4,22.8,38.5,22.8,38.5,22.9"/>
		<path class="st6" d="M38.9,23C38.9,23,38.8,23.1,38.9,23c-0.1,0.1-0.2,0-0.2,0S38.7,22.9,38.9,23C38.8,22.9,38.9,22.9,38.9,23"/>
		<path class="st6" d="M40.2,22.7c0,0-0.2,0-0.2,0c-0.1,0,0-0.1,0-0.1c0,0,0,0,0,0c0,0,0.1-0.1,0.1-0.1c0-0.1,0.1,0,0.1,0
			C40.1,22.6,40.2,22.6,40.2,22.7C40.2,22.7,40.2,22.7,40.2,22.7 M40.8,22.2C40.7,22.2,40.7,22.2,40.8,22.2
			c-0.1,0.1-0.2,0.1-0.2,0.1c-0.1,0,0,0.1,0,0.1l0,0c0,0,0,0.1,0,0.1l-0.1,0.8c0,0,0,0,0,0h-0.1c0,0,0,0,0,0V23c0-0.1,0-0.1,0-0.1
			l-0.1,0l-0.1,0c0,0,0,0,0,0l0-0.1c0,0,0,0,0,0h0.1c0,0,0,0,0,0c0,0,0,0,0,0c0-0.1,0-0.1,0-0.1c0,0,0,0,0,0
			c-0.1-0.1-0.1-0.1-0.1-0.1c0-0.2-0.1-0.2-0.1-0.2c-0.1,0-0.1,0.1-0.1,0.1c-0.1,0.1-0.2,0.1-0.2,0.1c-0.1,0-0.1,0.1-0.1,0.1
			c0,0.1,0.1,0.1,0.1,0.1c0.1,0,0.1,0.1,0.1,0.1c-0.1,0.1-0.3,0.1-0.3,0.1c-0.1,0-0.1-0.1-0.1-0.1c0-0.1,0-0.2,0-0.2
			c0-0.1-0.1,0-0.1,0c0,0,0,0.1,0,0.1c-0.1,0,0,0.1,0,0.1c0,0,0.1,0.1,0.1,0.1l0,0.2c0,0.1-0.2,0.2-0.2,0.2l-0.1,0
			c-0.1,0,0,0.1,0,0.1l0.2,0c0.1,0,0.1-0.1,0.1-0.1c0.1-0.1,0.1-0.1,0.1-0.1c0.1,0,0.1,0,0.1,0c0.1,0.1,0.2,0,0.2,0
			c0.1-0.1,0.1,0,0.1,0c0,0.1,0.1,0.1,0.1,0.1c0.1,0,0.1,0,0.1,0.1c0,0.2,0.3,0.1,0.3,0.1c0.2,0,0.2-0.3,0.2-0.3L40.8,22.2
			C40.8,22.2,40.8,22.2,40.8,22.2"/>
		<path class="st6" d="M40.9,22.3l-0.1,0.8c0,0,0,0.1,0,0.1c0,0,0.1,0,0.1,0c0,0,0,0,0-0.1c0-0.1,0-0.3,0-0.6c0,0,0-0.1,0.1,0
			c0,0,0,0,0,0c0,0,0,0,0,0C41.1,22.3,41,22.3,40.9,22.3C41,22.2,41,22.2,40.9,22.3C41,22.2,40.9,22.2,40.9,22.3"/>
		<path class="st6" d="M43,23.1L43,23.1c-0.1,0-0.1,0-0.1,0l0.1-0.1c0,0,0,0,0,0C43,23,43,23.1,43,23.1C43,23.1,43,23.1,43,23.1
			 M42.4,23.3C42.4,23.3,42.4,23.3,42.4,23.3l-0.1-0.2c0,0,0,0-0.1,0l-0.4,0c0,0-0.1,0-0.1-0.1c0,0,0-0.1,0.1-0.1h0.5
			c0,0,0.1,0,0.1,0.1L42.4,23.3C42.4,23.2,42.4,23.3,42.4,23.3 M43.1,22.8C43.1,22.8,43.1,22.8,43.1,22.8c-0.1,0-0.1-0.1-0.2,0
			l-0.2,0.1c0,0-0.1,0.1-0.1,0.1c0,0,0,0.1,0,0.1c0,0-0.1,0-0.1-0.1c0,0,0-0.2-0.1-0.2l-0.6,0c0,0-0.1,0-0.1-0.1l0-0.1
			c0,0,0,0-0.1,0c0,0-0.1,0-0.1,0.1c0,0,0,0,0,0.1c0,0,0,0,0,0.1l0,0.1c0,0,0,0,0,0c0,0-0.1,0-0.1,0c0,0,0-0.2-0.1-0.2
			c0,0,0,0-0.1,0c0,0-0.1,0.1,0,0.2c0,0,0.1,0.1,0.1,0.3c0,0,0,0.1-0.2,0.1h-0.1c0,0,0,0,0,0.1c0,0,0.3,0,0.4,0c0,0,0.1-0.1,0.1-0.2
			c0,0,0,0,0.1,0l0.6,0c0,0,0,0,0,0c0,0,0.1,0.2,0.2,0.2c0,0,0.2,0,0.2-0.1c0,0,0-0.1,0-0.1c0,0,0,0,0,0h0.5c0,0,0,0,0-0.1
			C43.2,23.2,43.2,22.9,43.1,22.8"/>
		<path class="st6" d="M43.4,22.5C43.4,22.5,43.4,22.5,43.4,22.5c-0.1,0.1-0.2,0-0.2,0S43.3,22.4,43.4,22.5
			C43.4,22.4,43.4,22.4,43.4,22.5"/>
		<path class="st6" d="M43.5,22.7C43.5,22.7,43.4,22.7,43.5,22.7c-0.1,0.1-0.2,0-0.2,0S43.3,22.6,43.5,22.7
			C43.4,22.6,43.5,22.6,43.5,22.7"/>
		<path class="st6" d="M43.8,23.4c0,0,0,0.1-0.1,0.1s-0.1,0-0.1-0.1s0-0.1,0.1-0.1S43.8,23.3,43.8,23.4"/>
		<path class="st6" d="M44,23.4C44,23.4,43.9,23.4,44,23.4c-0.1,0.1-0.2,0-0.2,0S43.8,23.3,44,23.4C43.9,23.3,44,23.3,44,23.4"/>
		<path class="st6" d="M44.3,22.9C44.3,22.9,44.3,22.9,44.3,22.9c0.1,0.1,0.1,0.1,0.2,0.2c0,0,0,0.1-0.1,0.2c0,0-0.1,0.1-0.1,0.1
			c0,0,0,0-0.1,0.1c0,0,0,0,0.1,0c0,0,0.1,0,0.3-0.2c0,0,0.1-0.1,0-0.3c0,0-0.1-0.2-0.1-0.2c0,0,0,0-0.1,0
			C44.4,22.7,44.3,22.8,44.3,22.9"/>
		<path class="st6" d="M43.6,23C43.6,23.1,43.6,23.1,43.6,23L43.6,23c-0.2,0-0.1,0-0.1,0C43.5,23,43.6,23,43.6,23
			C43.7,23,43.6,23,43.6,23 M44.2,22.9l0-0.2c0,0,0,0-0.1,0c0,0-0.1,0.1-0.1,0.1c0,0,0,0,0,0c0,0,0.1,0,0.1,0.2c0,0-0.1,0-0.1,0
			c0,0-0.2,0-0.2-0.1l0-0.7c0,0,0-0.1-0.1-0.1c0,0,0,0-0.1,0l-0.1,0.1c0,0,0,0,0,0c0,0,0,0,0,0c0,0,0,0,0,0l0,0.3c0,0,0,0,0,0
			c0,0-0.2,0.1-0.2,0.3c0,0-0.1,0.1,0,0.2c0,0,0.1,0,0.2,0c0,0,0.1,0,0.2,0c0,0,0.3,0,0.4,0C44.2,23.2,44.2,23,44.2,22.9"/>
		<path class="st6" d="M47,22.9c0,0-0.1,0.1-0.1,0.1c-0.1,0-0.1,0-0.1-0.1C46.8,22.8,46.8,22.8,47,22.9C47,22.8,47,22.9,47,22.9"/>
		<path class="st6" d="M46.4,22.8C46.4,22.8,46.4,22.8,46.4,22.8c-0.1,0.1-0.1,0.1-0.1,0.1C46.2,22.8,46.3,22.7,46.4,22.8
			C46.4,22.7,46.4,22.8,46.4,22.8 M45.9,23C45.9,23.1,45.8,23,45.9,23c-0.1,0-0.1,0-0.1,0c0,0,0,0,0,0C45.9,22.9,45.9,23,45.9,23
			C45.9,23,45.9,23,45.9,23 M45.7,22.7c0-0.1,0.1,0,0.1,0c0.1,0.1,0,0.1,0,0.1C45.8,22.8,45.7,22.8,45.7,22.7
			C45.6,22.8,45.7,22.7,45.7,22.7 M45.5,22.9C45.5,22.9,45.4,22.9,45.5,22.9c-0.1,0-0.1-0.1-0.1-0.1c0-0.1,0.1-0.1,0.1-0.1
			c0,0,0.1,0,0.1,0C45.6,22.8,45.5,22.9,45.5,22.9 M45,22.9L45,22.9c0,0.1,0,0.1,0,0.1h-0.1c-0.1,0,0,0,0,0
			C44.9,22.9,44.9,22.8,45,22.9C45,22.8,45,22.9,45,22.9 M47.2,22.6L47.2,22.6c-0.1-0.1-0.1-0.2-0.2-0.1c0,0,0,0,0,0
			c0,0-0.1,0.1-0.2,0c0,0-0.1-0.1-0.1-0.1c0,0,0-0.1,0-0.2c0,0,0-0.1,0-0.2c0,0,0-0.1-0.1-0.2c0,0-0.1-0.1-0.3,0c0,0-0.1,0-0.2,0.1
			c0,0,0,0.1,0.1,0.2c0,0,0,0,0.1,0c0,0,0,0,0,0l0.1,0c0,0,0.1,0,0.1,0.1l0,0.1c0,0,0,0.1,0,0.2c0,0,0,0.1,0.1,0.1
			c0,0,0.1,0.1,0,0.1c0,0-0.1,0-0.1,0c0,0-0.1-0.2-0.2-0.1c0,0-0.1,0.1-0.1,0.1c0,0,0,0.1-0.1,0.1c0,0-0.1,0-0.1-0.1
			c0,0-0.1-0.1-0.2-0.2c0,0-0.1,0-0.1-0.1l0-0.1c0,0,0-0.1-0.1-0.1c0,0,0,0-0.1,0l-0.1,0.1c0,0,0,0.1,0,0.1c0,0,0.1,0,0,0.1
			c0,0-0.1,0.1-0.2,0.2c0,0,0,0,0,0.1v0.1c0,0,0,0,0,0l-0.1,0c0,0,0,0,0,0l-0.1-0.2c0,0,0,0,0,0c0,0-0.1,0-0.1,0
			c0,0-0.2,0.1-0.2,0.3c0,0,0,0.1,0.1,0.2c0,0,0.1,0,0.1,0c0,0,0,0.1,0,0.1c0,0-0.1,0-0.1,0c0,0,0,0,0,0c0,0,0,0,0.1,0
			c0,0,0.2,0,0.3-0.1c0,0,0,0,0-0.1c0,0,0,0,0.1-0.1c0,0,0.1,0,0.2,0c0,0,0.1,0,0.2,0c0,0,0,0,0,0.1c0,0,0,0.1,0.2,0.1
			c0,0,0.2,0,0.2-0.2c0,0,0-0.1,0.1-0.1c0,0,0,0,0.1,0c0,0,0,0.1,0.1,0.1c0,0,0.2,0,0.2-0.2c0,0,0-0.1,0.1-0.1
			C46.6,22.8,46.9,22.8,47.2,22.6C47.2,22.7,47.2,22.6,47.2,22.6"/>
	</g>
</g>
</svg>
