<?xml version="1.0" encoding="utf-8"?>
<!-- Generator: Adobe Illustrator 22.0.0, SVG Export Plug-In . SVG Version: 6.00 Build 0)  -->
<svg version="1.1" id="Layer_1" xmlns="http://www.w3.org/2000/svg" xmlns:xlink="http://www.w3.org/1999/xlink" x="0px" y="0px"
	 viewBox="0 0 113.4 52.1" style="enable-background:new 0 0 113.4 52.1;" xml:space="preserve">
<style type="text/css">
	.st0{display:none;}
	.st1{display:inline;fill:none;stroke:#000000;stroke-miterlimit:10;}
	.st2{fill:#FFFFFF;}
	.st3{fill:url(#SVGID_1_);}
	.st4{fill:url(#SVGID_2_);}
	.st5{fill:url(#SVGID_3_);}
	.st6{fill:#E49D04;}
	.st7{fill:#020100;}
	.st8{fill:#D5202A;}
</style>
<g class="st0">
	<circle class="st1" cx="-568.5" cy="82.9" r="337.5"/>
	<circle class="st1" cx="-568.5" cy="21" r="275.6"/>
	<ellipse class="st1" cx="-568.5" cy="27.9" rx="190.1" ry="191.8"/>
	<ellipse class="st1" cx="-568.5" cy="-7.3" rx="155.2" ry="156.7"/>
</g>
<g>
	<g>
		<g>
			<path class="st2" d="M43.2,32.9c-0.1,0-0.2,0-0.2,0.1c0.2,0.1,0.3,0.3,0.3,0.6c0,0.3-0.1,0.9-0.7,0.9c-0.6,0-0.9-0.5-0.9-1.5
				c0-1,0.3-1.5,0.9-1.5c0.3,0,0.5,0.2,0.6,0.5c0.2,0,0.3-0.1,0.3-0.2c0-0.2-0.4-0.5-0.9-0.5c-0.8,0-1.3,0.6-1.3,1.6
				c0,1.1,0.5,1.6,1.3,1.6c0.8,0,1.1-0.6,1.1-1.1C43.6,33.1,43.4,32.9,43.2,32.9z"/>
			<path class="st2" d="M46,33c0-0.4-0.3-0.7-0.8-0.7c-0.7,0-1.1,0.5-1.1,1.2c0,0.8,0.4,1.2,1.1,1.2c0.4,0,0.7-0.1,0.8-0.4
				c0.1-0.2,0-0.2,0-0.2c-0.1,0.3-0.4,0.4-0.7,0.4c-0.4,0-0.7-0.2-0.8-0.9c0.2,0,0.3,0,0.5,0C45.6,33.7,46,33.4,46,33z M44.5,33.5
				c0-0.7,0.3-1,0.7-1c0.2,0,0.5,0.1,0.5,0.4c0,0.5-0.4,0.6-0.8,0.6C44.7,33.5,44.6,33.5,44.5,33.5z"/>
			<path class="st2" d="M48.5,33.3c0-0.6-0.2-0.9-0.7-0.9c-0.4,0-0.7,0.2-0.8,0.6v-0.1c0-0.3-0.1-0.5-0.4-0.5
				c-0.2,0-0.3,0.1-0.3,0.2c0,0.1,0,0.1,0.1,0.1c0-0.1,0.1-0.1,0.1-0.1c0.1,0,0.1,0.1,0.1,0.2v1.7c0,0.1,0.1,0.2,0.2,0.2
				c0.1,0,0.2-0.1,0.2-0.1C47,34.5,47,34.3,47,33.6c0-0.8,0.4-1.1,0.6-1.1c0.4,0,0.5,0.3,0.5,0.8v1.2c0,0.1,0.1,0.2,0.2,0.2
				c0.1,0,0.2,0,0.2-0.1c0-0.1-0.1-0.3-0.1-0.5L48.5,33.3L48.5,33.3z"/>
			<path class="st2" d="M50.9,33c0-0.4-0.3-0.7-0.8-0.7c-0.7,0-1.1,0.5-1.1,1.2c0,0.8,0.4,1.2,1.1,1.2c0.4,0,0.7-0.1,0.8-0.4
				c0.1-0.2,0-0.2,0-0.2c-0.1,0.3-0.4,0.4-0.7,0.4c-0.4,0-0.7-0.2-0.8-0.9c0.2,0,0.3,0,0.5,0C50.5,33.7,50.9,33.4,50.9,33z
				 M49.4,33.5c0-0.7,0.3-1,0.7-1c0.2,0,0.5,0.1,0.5,0.4c0,0.5-0.4,0.6-0.8,0.6C49.6,33.5,49.5,33.5,49.4,33.5z"/>
			<path class="st2" d="M52.5,32.3c-0.3,0-0.5,0.2-0.6,0.5v0c0-0.3-0.1-0.5-0.4-0.5c-0.2,0-0.3,0.1-0.3,0.2c0,0.1,0,0.1,0.1,0.1
				c0-0.1,0.1-0.1,0.1-0.1c0.1,0,0.1,0.1,0.1,0.2v1.7c0,0.1,0.1,0.2,0.2,0.2c0.1,0,0.2-0.1,0.2-0.1c-0.1-0.2-0.1-0.3-0.1-1.1
				c0-0.8,0.2-1.1,0.5-1.1c0.2,0,0.3,0.1,0.3,0.3c0,0.1,0,0.2-0.1,0.3c0,0,0.1,0.1,0.2,0c0.1,0,0.3-0.1,0.3-0.3
				C53,32.5,52.8,32.3,52.5,32.3z"/>
			<path class="st2" d="M55.3,34.5c-0.1,0-0.2-0.1-0.2-0.2v-0.9c0-0.7-0.3-1-0.9-1c-0.5,0-0.9,0.2-0.9,0.5c0,0.2,0.1,0.4,0.3,0.4
				c0.1,0,0.2,0,0.2-0.1c-0.1-0.1-0.2-0.2-0.2-0.3c0-0.3,0.2-0.4,0.5-0.4c0.4,0,0.6,0.3,0.6,0.8v0.1c-0.2,0-0.5,0-0.8,0.1
				c-0.4,0.1-0.8,0.4-0.8,0.7c0,0.3,0.2,0.5,0.6,0.5c0.4,0,0.8-0.3,1-0.7v0.1c0,0.4,0.1,0.6,0.4,0.6c0.2,0,0.3-0.1,0.3-0.2
				c0,0,0-0.1-0.1-0.1C55.4,34.4,55.4,34.5,55.3,34.5z M54,34.5c-0.2,0-0.3-0.2-0.3-0.4c0-0.2,0.2-0.4,0.4-0.5
				c0.2-0.1,0.5-0.1,0.7-0.1C54.8,34,54.3,34.5,54,34.5z"/>
			<path class="st2" d="M56.5,34.5c-0.1,0-0.2-0.1-0.2-0.2v-1.9c0-0.5,0-0.7,0.1-0.9c0,0-0.1-0.1-0.2-0.1c-0.1,0-0.2,0.1-0.2,0.2
				v2.7c0,0.3,0.2,0.5,0.4,0.5c0.2,0,0.3-0.1,0.3-0.2c0,0,0-0.1-0.1-0.1C56.6,34.4,56.5,34.5,56.5,34.5z"/>
			<path class="st2" d="M59.1,31.5c-0.3,0-0.7,0-0.9,0c0,0.1,0,0.4,0,0.5l0,2.4c0,0.1,0.1,0.2,0.2,0.2h0.7c0.8,0,1.3-0.5,1.3-1.6
				C60.4,32,60,31.5,59.1,31.5z M59.1,34.5h-0.5l0-2.9h0.5c0.6,0,0.9,0.4,0.9,1.5C60,34.1,59.7,34.5,59.1,34.5z"/>
			<circle class="st2" cx="61.3" cy="31.7" r="0.2"/>
			<path class="st2" d="M61.5,32.5c0-0.1-0.1-0.2-0.2-0.2c-0.1,0-0.2,0.1-0.2,0.1c0,0.1,0.1,0.3,0.1,0.5l0,1.7
				c0,0.1,0.1,0.2,0.2,0.2c0.1,0,0.2-0.1,0.2-0.1c-0.1-0.1-0.1-0.3-0.1-0.5L61.5,32.5z"/>
			<path class="st2" d="M63.2,32.3c-0.3,0-0.5,0.2-0.6,0.5v0c0-0.3-0.1-0.5-0.4-0.5c-0.2,0-0.3,0.1-0.3,0.2c0,0.1,0,0.1,0.1,0.1
				c0-0.1,0.1-0.1,0.1-0.1c0.1,0,0.1,0.1,0.1,0.2v1.7c0,0.1,0.1,0.2,0.2,0.2c0.1,0,0.2-0.1,0.2-0.1c-0.1-0.2-0.1-0.3-0.1-1.1
				c0-0.8,0.2-1.1,0.5-1.1c0.2,0,0.3,0.1,0.3,0.3c0,0.1,0,0.2-0.1,0.3c0,0,0.1,0.1,0.2,0c0.1,0,0.3-0.1,0.3-0.3
				C63.7,32.5,63.5,32.3,63.2,32.3z"/>
			<path class="st2" d="M65.9,33c0-0.4-0.3-0.7-0.8-0.7c-0.7,0-1.1,0.5-1.1,1.2c0,0.8,0.4,1.2,1.1,1.2c0.4,0,0.7-0.1,0.8-0.4
				c0.1-0.2,0-0.2,0-0.2c-0.1,0.3-0.4,0.4-0.7,0.4c-0.4,0-0.7-0.2-0.8-0.9c0.2,0,0.3,0,0.5,0C65.5,33.7,65.9,33.4,65.9,33z
				 M64.4,33.5c0-0.7,0.3-1,0.7-1c0.2,0,0.5,0.1,0.5,0.4c0,0.5-0.4,0.6-0.8,0.6C64.6,33.5,64.5,33.5,64.4,33.5z"/>
			<path class="st2" d="M68.1,34c-0.1,0.3-0.3,0.5-0.7,0.5c-0.4,0-0.8-0.3-0.8-1c0-0.7,0.3-1,0.7-1c0.2,0,0.4,0.1,0.4,0.4
				c0,0.1,0,0.3-0.2,0.3c0.1,0.1,0.1,0.1,0.2,0.1c0.2,0,0.3-0.1,0.3-0.4c0-0.3-0.3-0.6-0.8-0.6c-0.7,0-1.1,0.5-1.1,1.2
				c0,0.8,0.4,1.2,1.1,1.2c0.4,0,0.7-0.2,0.8-0.5C68.2,34.1,68.2,34.1,68.1,34z"/>
			<path class="st2" d="M69.2,32.4c0-0.2,0-0.4,0.1-0.5c0,0-0.1-0.1-0.2-0.1c-0.1,0-0.2,0.1-0.2,0.2v0.4h-0.2c-0.1,0-0.1,0-0.1,0.1
				l0,0.1c0.1,0,0.2,0,0.3,0h0.1v1.7c0,0.3,0.2,0.5,0.5,0.5c0.2,0,0.4-0.1,0.4-0.2c0,0,0-0.1-0.1-0.1c0,0.1-0.1,0.1-0.2,0.1
				c-0.1,0-0.2-0.1-0.2-0.2v-1.5v-0.2h0.5c0.1,0,0.1,0,0.1-0.1l0-0.1c0,0-0.3,0-0.4,0H69.2z"/>
			<path class="st2" d="M71.1,32.3c-0.7,0-1,0.5-1,1.2s0.4,1.2,1,1.2c0.7,0,1-0.5,1-1.2S71.7,32.3,71.1,32.3z M71.1,34.6
				c-0.4,0-0.7-0.4-0.7-1.1s0.2-1,0.7-1c0.4,0,0.7,0.4,0.7,1C71.7,34.2,71.5,34.6,71.1,34.6z"/>
			<path class="st2" d="M73.7,32.3c-0.3,0-0.5,0.2-0.6,0.5v0c0-0.3-0.1-0.5-0.4-0.5c-0.2,0-0.3,0.1-0.3,0.2c0,0.1,0,0.1,0.1,0.1
				c0-0.1,0.1-0.1,0.1-0.1c0.1,0,0.1,0.1,0.1,0.2v1.7c0,0.1,0.1,0.2,0.2,0.2c0.1,0,0.2-0.1,0.2-0.1c-0.1-0.2-0.1-0.3-0.1-1.1
				c0-0.8,0.2-1.1,0.5-1.1c0.2,0,0.3,0.1,0.3,0.3c0,0.1,0,0.2-0.1,0.3c0,0,0.1,0.1,0.2,0c0.1,0,0.3-0.1,0.3-0.3
				C74.2,32.5,74,32.3,73.7,32.3z"/>
			<path class="st2" d="M76.2,32.3c-0.1,0-0.2,0.1-0.2,0.1c0.1,0.2,0.1,0.3,0.1,1c0,0.8-0.3,1.1-0.7,1.1c-0.3,0-0.4-0.2-0.4-0.8
				l0-1.2c0-0.1-0.1-0.2-0.2-0.2c-0.1,0-0.2,0-0.2,0.1c0,0.1,0.1,0.3,0.1,0.5v0.9c0,0.7,0.2,1,0.7,1c0.4,0,0.7-0.2,0.8-0.6
				c0,0.1,0,0.2,0,0.3c0,0.7-0.2,1.1-0.7,1.1c-0.2,0-0.4-0.1-0.4-0.4c0-0.1,0-0.2,0.1-0.2c0,0-0.1-0.1-0.2-0.1
				c-0.2,0-0.3,0.1-0.3,0.3c0,0.4,0.4,0.5,0.8,0.5c0.6,0,1.1-0.3,1.1-1.3l0-1.9C76.4,32.4,76.4,32.3,76.2,32.3z"/>
			<path class="st2" d="M79,32.3c-0.7,0-1,0.5-1,1.2s0.4,1.2,1,1.2c0.7,0,1-0.5,1-1.2S79.7,32.3,79,32.3z M79,34.6
				c-0.4,0-0.7-0.4-0.7-1.1s0.2-1,0.7-1c0.4,0,0.7,0.4,0.7,1C79.7,34.2,79.4,34.6,79,34.6z"/>
			<path class="st2" d="M81.5,31.3c-0.6,0-0.8,0.4-0.8,0.8v0.2h-0.2c-0.1,0-0.1,0-0.1,0.1l0,0.1c0.1,0,0.2,0,0.3,0h0.1l0,2
				c0,0.1,0.1,0.2,0.2,0.2c0.1,0,0.2,0,0.2-0.1c0-0.1-0.1-0.3-0.1-0.5v-1.6h0.5c0.1,0,0.1,0,0.1-0.1l0-0.1c0,0-0.3,0-0.4,0h-0.3
				v-0.2c0-0.4,0-0.7,0.4-0.7c0.2,0,0.3,0.1,0.3,0.2c0,0.1,0,0.2-0.1,0.2c0,0,0.1,0,0.1,0c0.1,0,0.3-0.1,0.3-0.3
				C82.1,31.5,81.8,31.3,81.5,31.3z"/>
			<path class="st2" d="M84.4,31.5c-0.3,0-0.7,0-0.9,0c0,0.1,0,0.4,0,0.5l0,2.4c0,0.1,0.1,0.2,0.2,0.2h0.7c0.8,0,1.3-0.5,1.3-1.6
				C85.7,32,85.2,31.5,84.4,31.5z M84.4,34.5h-0.5l0-2.9h0.5c0.6,0,0.9,0.4,0.9,1.5C85.3,34.1,85,34.5,84.4,34.5z"/>
			<path class="st2" d="M88.1,33c0-0.4-0.3-0.7-0.8-0.7c-0.7,0-1.1,0.5-1.1,1.2c0,0.8,0.4,1.2,1.1,1.2c0.4,0,0.7-0.1,0.8-0.4
				c0.1-0.2,0-0.2,0-0.2c-0.1,0.3-0.4,0.4-0.7,0.4c-0.4,0-0.7-0.2-0.8-0.9c0.2,0,0.3,0,0.5,0C87.7,33.7,88.1,33.4,88.1,33z
				 M86.5,33.5c0-0.7,0.3-1,0.7-1c0.2,0,0.5,0.1,0.5,0.4c0,0.5-0.4,0.6-0.8,0.6C86.8,33.5,86.6,33.5,86.5,33.5z"/>
			<path class="st2" d="M90.5,33.3c0-0.6-0.2-0.9-0.7-0.9c-0.4,0-0.7,0.2-0.8,0.6v-0.1c0-0.3-0.1-0.5-0.4-0.5
				c-0.2,0-0.3,0.1-0.3,0.2c0,0.1,0,0.1,0.1,0.1c0-0.1,0.1-0.1,0.1-0.1c0.1,0,0.1,0.1,0.1,0.2v1.7c0,0.1,0.1,0.2,0.2,0.2
				c0.1,0,0.2-0.1,0.2-0.1c-0.1-0.2-0.1-0.3-0.1-1.1c0-0.8,0.4-1.1,0.6-1.1c0.4,0,0.5,0.3,0.5,0.8v1.2c0,0.1,0.1,0.2,0.2,0.2
				c0.1,0,0.2,0,0.2-0.1c0-0.1-0.1-0.3-0.1-0.5V33.3z"/>
			<path class="st2" d="M91.7,32.4c0-0.2,0-0.4,0.1-0.5c0,0-0.1-0.1-0.2-0.1c-0.1,0-0.2,0.1-0.2,0.2v0.4h-0.2c-0.1,0-0.1,0-0.1,0.1
				l0,0.1c0.1,0,0.2,0,0.3,0h0.1v1.7c0,0.3,0.2,0.5,0.5,0.5c0.2,0,0.4-0.1,0.4-0.2c0,0,0-0.1-0.1-0.1c0,0.1-0.1,0.1-0.2,0.1
				c-0.1,0-0.2-0.1-0.2-0.2v-1.5v-0.2h0.5c0.1,0,0.1,0,0.1-0.1l0-0.1c0,0-0.3,0-0.4,0H91.7z"/>
			<path class="st2" d="M94.6,34.5c-0.1,0-0.2-0.1-0.2-0.2v-0.9c0-0.7-0.3-1-0.9-1c-0.5,0-0.9,0.2-0.9,0.5c0,0.2,0.1,0.4,0.3,0.4
				c0.1,0,0.2,0,0.2-0.1c-0.1-0.1-0.2-0.2-0.2-0.3c0-0.3,0.2-0.4,0.5-0.4c0.4,0,0.6,0.3,0.6,0.8v0.1c-0.2,0-0.5,0-0.8,0.1
				c-0.4,0.1-0.8,0.4-0.8,0.7c0,0.3,0.2,0.5,0.6,0.5c0.4,0,0.8-0.3,1-0.7v0.1c0,0.4,0.1,0.6,0.4,0.6c0.2,0,0.3-0.1,0.3-0.2
				c0,0,0-0.1-0.1-0.1C94.8,34.4,94.7,34.5,94.6,34.5z M93.3,34.5c-0.2,0-0.3-0.2-0.3-0.4c0-0.2,0.2-0.4,0.4-0.5
				c0.2-0.1,0.5-0.1,0.7-0.1C94.1,34,93.7,34.5,93.3,34.5z"/>
			<path class="st2" d="M95.8,34.5c-0.1,0-0.2-0.1-0.2-0.2v-1.9c0-0.5,0-0.7,0.1-0.9c0,0-0.1-0.1-0.2-0.1c-0.1,0-0.2,0.1-0.2,0.2
				v2.7c0,0.3,0.2,0.5,0.4,0.5c0.2,0,0.3-0.1,0.3-0.2c0,0,0-0.1-0.1-0.1C95.9,34.4,95.8,34.5,95.8,34.5z"/>
			<path class="st2" d="M99.8,31.7c0-0.1-0.1-0.2-0.2-0.2c-0.1,0-0.2,0.1-0.2,0.1c0,0.1,0.1,0.3,0.1,0.5v0.9h-1.5v-1.2
				c0-0.1-0.1-0.2-0.2-0.2c-0.1,0-0.2,0.1-0.2,0.1c0,0.1,0.1,0.3,0.1,0.5l0,2.5c0,0.1,0.1,0.2,0.2,0.2c0.1,0,0.2-0.1,0.2-0.1
				c-0.1-0.1-0.1-0.3-0.1-0.5v-1h1.5l0,1.4c0,0.1,0.1,0.2,0.2,0.2c0.1,0,0.2-0.1,0.2-0.1c-0.1-0.1-0.1-0.3-0.1-0.5L99.8,31.7
				L99.8,31.7z"/>
			<path class="st2" d="M102.3,33c0-0.4-0.3-0.7-0.8-0.7c-0.7,0-1.1,0.5-1.1,1.2c0,0.8,0.4,1.2,1.1,1.2c0.4,0,0.7-0.1,0.8-0.4
				c0.1-0.2,0-0.2,0-0.2c-0.1,0.3-0.4,0.4-0.7,0.4c-0.4,0-0.7-0.2-0.8-0.9c0.2,0,0.3,0,0.5,0C101.9,33.7,102.3,33.4,102.3,33z
				 M100.8,33.5c0-0.7,0.3-1,0.7-1c0.2,0,0.5,0.1,0.5,0.4c0,0.5-0.4,0.6-0.8,0.6C101,33.5,100.9,33.5,100.8,33.5z"/>
			<path class="st2" d="M104.8,34.5c-0.1,0-0.2-0.1-0.2-0.2v-0.9c0-0.7-0.3-1-0.9-1c-0.5,0-0.9,0.2-0.9,0.5c0,0.2,0.1,0.4,0.3,0.4
				c0.1,0,0.2,0,0.2-0.1c-0.1-0.1-0.2-0.2-0.2-0.3c0-0.3,0.2-0.4,0.5-0.4c0.4,0,0.6,0.3,0.6,0.8v0.1c-0.2,0-0.5,0-0.8,0.1
				c-0.4,0.1-0.8,0.4-0.8,0.7c0,0.3,0.2,0.5,0.6,0.5c0.4,0,0.8-0.3,1-0.7v0.1c0,0.4,0.1,0.6,0.4,0.6c0.2,0,0.3-0.1,0.3-0.2
				c0,0,0-0.1-0.1-0.1C104.9,34.4,104.8,34.5,104.8,34.5z M103.5,34.5c-0.2,0-0.3-0.2-0.3-0.4c0-0.2,0.2-0.4,0.4-0.5
				c0.2-0.1,0.5-0.1,0.7-0.1C104.2,34,103.8,34.5,103.5,34.5z"/>
			<path class="st2" d="M105.9,34.5c-0.1,0-0.2-0.1-0.2-0.2v-1.9c0-0.5,0-0.7,0.1-0.9c0,0-0.1-0.1-0.2-0.1c-0.1,0-0.2,0.1-0.2,0.2
				v2.7c0,0.3,0.2,0.5,0.4,0.5c0.2,0,0.3-0.1,0.3-0.2c0,0,0-0.1-0.1-0.1C106.1,34.4,106,34.5,105.9,34.5z"/>
			<path class="st2" d="M107.1,32.4c0-0.2,0-0.4,0.1-0.5c0,0-0.1-0.1-0.2-0.1c-0.1,0-0.2,0.1-0.2,0.2v0.4h-0.2c-0.1,0-0.1,0-0.1,0.1
				l0,0.1c0.1,0,0.2,0,0.3,0h0.1v1.7c0,0.3,0.2,0.5,0.5,0.5c0.2,0,0.4-0.1,0.4-0.2c0,0,0-0.1-0.1-0.1c0,0.1-0.1,0.1-0.2,0.1
				c-0.1,0-0.2-0.1-0.2-0.2v-1.5v-0.2h0.5c0.1,0,0.1,0,0.1-0.1l0-0.1c0,0-0.3,0-0.4,0H107.1z"/>
			<path class="st2" d="M110,34.2l0-0.9c0-0.6-0.2-0.9-0.7-0.9c-0.3,0-0.6,0.2-0.8,0.5l0-0.7c0-0.3,0-0.5,0.1-0.7
				c0,0-0.1-0.1-0.2-0.1c-0.1,0-0.2,0.1-0.2,0.2l0,3c0,0.1,0.1,0.2,0.2,0.2c0.1,0,0.2-0.1,0.2-0.1c-0.1-0.2-0.1-0.3-0.1-1.1
				c0-0.8,0.3-1.1,0.6-1.1c0.4,0,0.5,0.3,0.5,0.8l0,1.2c0,0.1,0.1,0.2,0.2,0.2c0.1,0,0.2,0,0.2-0.1C110,34.5,110,34.3,110,34.2z"/>
		</g>
		<g>
			<path class="st2" d="M41.8,22.8C41.8,22.8,41.8,22.8,41.8,22.8c0.1,0.1,0.2,0.1,0.2,0.1c0,0,0.1,0,0.1,0c0,0,0.1,0,0.1-0.1
				c0,0,0-0.1,0.1-0.1c0,0,0-0.1,0-0.1s0-0.1,0-0.1c0,0,0-0.1-0.1-0.1c0,0-0.1,0-0.1-0.1c0,0-0.1,0-0.1,0c0,0-0.1,0-0.1,0
				c0,0-0.1,0-0.1,0.1c0,0,0,0.1-0.1,0.1c0,0,0,0.1,0,0.1S41.7,22.7,41.8,22.8C41.7,22.7,41.7,22.8,41.8,22.8z"/>
			<path class="st2" d="M42.4,22.8C42.5,22.8,42.5,22.8,42.4,22.8c0.1,0.1,0.2,0.1,0.2,0.1c0,0,0.1,0,0.1,0c0,0,0.1,0,0.1-0.1
				c0,0,0-0.1,0.1-0.1c0,0,0-0.1,0-0.1s0-0.1,0-0.1c0,0,0-0.1-0.1-0.1s-0.1,0-0.1-0.1c0,0-0.1,0-0.1,0c0,0-0.1,0-0.1,0
				c0,0-0.1,0-0.1,0.1c0,0,0,0.1-0.1,0.1c0,0,0,0.1,0,0.1S42.4,22.7,42.4,22.8C42.4,22.7,42.4,22.8,42.4,22.8z"/>
			<path class="st2" d="M44.1,25.8C44.1,25.8,44,25.7,44.1,25.8c-0.1-0.1-0.2-0.1-0.2-0.1c0,0-0.1,0-0.1,0c0,0-0.1,0-0.1,0.1
				c0,0,0,0.1-0.1,0.1c0,0,0,0.1,0,0.1s0,0.1,0,0.1c0,0,0,0.1,0.1,0.1c0,0,0.1,0,0.1,0.1c0,0,0.1,0,0.1,0c0,0,0.1,0,0.1,0
				c0,0,0.1,0,0.1-0.1c0,0,0-0.1,0.1-0.1c0,0,0-0.1,0-0.1S44.2,25.9,44.1,25.8C44.1,25.8,44.1,25.8,44.1,25.8z"/>
			<path class="st2" d="M45,23.3h-0.5v1.5h-0.8h-0.1h-0.4l0-1.3c0,0,0-0.1,0-0.1c0,0,0-0.1-0.1-0.1c0,0-0.1-0.1-0.1-0.1
				c0,0-0.1,0-0.1,0h-0.7c-0.1,0-0.3,0-0.4,0.1c-0.1,0.1-0.2,0.1-0.3,0.2s-0.2,0.2-0.2,0.3s-0.1,0.3-0.1,0.4V25c0,0.1,0,0.1,0.1,0.2
				c0,0,0.1,0.1,0.2,0.1c0.1,0,0.2,0.1,0.4,0.1c0.1,0,0.3,0,0.4,0c0,0,0.1,0,0.1,0c0,0,0.1,0,0.1,0l0-0.5c-0.1,0-0.1,0-0.2,0
				c-0.1,0-0.2,0-0.2,0c-0.1,0-0.2,0-0.2,0l0-0.6c0-0.1,0-0.1,0-0.2c0-0.1,0.1-0.1,0.1-0.2c0,0,0.1-0.1,0.2-0.1c0.1,0,0.1,0,0.2,0
				l0.5,0l0,1.3c0,0,0,0.1,0,0.1c0,0,0,0.1,0.1,0.1c0,0,0.1,0,0.1,0.1c0,0,0.1,0,0.1,0h0.6h0.1h1.1c0,0,0.1,0,0.1,0
				c0,0,0.1,0,0.1-0.1c0,0,0-0.1,0.1-0.1c0,0,0-0.1,0-0.1c0,0,0,0,0,0L45,23.3L45,23.3z"/>
			<path class="st2" d="M44.8,25.8C44.7,25.8,44.7,25.7,44.8,25.8c-0.1-0.1-0.2-0.1-0.2-0.1c0,0-0.1,0-0.1,0c0,0-0.1,0-0.1,0.1
				c0,0,0,0.1-0.1,0.1c0,0,0,0.1,0,0.1s0,0.1,0,0.1c0,0,0,0.1,0.1,0.1s0.1,0,0.1,0.1c0,0,0.1,0,0.1,0c0,0,0.1,0,0.1,0
				c0,0,0.1,0,0.1-0.1c0,0,0-0.1,0.1-0.1c0,0,0-0.1,0-0.1S44.8,25.9,44.8,25.8C44.8,25.8,44.8,25.8,44.8,25.8z"/>
			<path class="st2" d="M46.6,23.5h-0.5c0,0.1,0,0.3,0,0.4c0,0.2,0,0.3,0,0.5c0,0.1,0,0.2,0,0.4c0,0.1,0,0.2,0,0.4
				c0,0.1-0.1,0.2-0.1,0.3c0,0.1-0.1,0.2-0.2,0.3c-0.1,0.1-0.2,0.1-0.3,0.2c-0.1,0-0.2,0.1-0.4,0.1v0.5c0.2,0,0.4,0,0.6-0.1
				c0.2-0.1,0.3-0.2,0.4-0.3c0.1-0.1,0.2-0.2,0.3-0.4s0.1-0.3,0.2-0.5c0-0.1,0-0.3,0.1-0.4c0-0.1,0-0.3,0-0.4c0-0.2,0-0.3,0-0.5
				C46.6,23.8,46.6,23.6,46.6,23.5z"/>
			<path class="st2" d="M49.8,22.8C49.8,22.8,49.9,22.8,49.8,22.8c0.1,0.1,0.2,0.1,0.2,0.1c0,0,0.1,0,0.1,0c0,0,0.1,0,0.1-0.1
				c0,0,0-0.1,0.1-0.1c0,0,0-0.1,0-0.1s0-0.1,0-0.1c0,0,0-0.1-0.1-0.1c0,0-0.1,0-0.1-0.1c0,0-0.1,0-0.1,0c0,0-0.1,0-0.1,0
				c0,0-0.1,0-0.1,0.1c0,0,0,0.1-0.1,0.1c0,0,0,0.1,0,0.1S49.7,22.7,49.8,22.8C49.8,22.7,49.8,22.8,49.8,22.8z"/>
			<path class="st2" d="M56.7,24.8h-0.6v-1.5h-0.5v1.5h-0.6v-1.5h-0.5v1.5h-0.5H54h-0.3v-0.3c0-0.1,0-0.2,0-0.3c0-0.1,0-0.2-0.1-0.2
				c0-0.1-0.1-0.1-0.1-0.1c-0.1,0-0.1-0.1-0.2-0.1c-0.1,0-0.2,0-0.3,0c-0.1,0-0.2,0-0.4,0h-1c0.1-0.1,0.2-0.2,0.3-0.3
				c0.1-0.1,0.2-0.2,0.4-0.2c0.1-0.1,0.3-0.1,0.4-0.1c0.1,0,0.3,0,0.4,0l0-0.5c-0.2,0-0.4,0-0.6,0.1c-0.2,0-0.4,0.1-0.6,0.2
				c-0.2,0.1-0.3,0.2-0.5,0.3c-0.1,0.1-0.3,0.3-0.4,0.5c0,0.1-0.1,0.2-0.1,0.3c0,0.1,0,0.2,0,0.2c0,0.1,0.1,0.1,0.1,0.2
				c0.1,0,0.1,0.1,0.2,0.1l1.3,0c0.1,0,0.1,0,0.2,0c0,0,0.1,0,0.1,0c0,0,0,0.1,0,0.1c0,0.1,0,0.1,0,0.2v0.3h-2.4v0h-0.5v-1.5h-0.5
				v1.5h-0.5h0H49c0-0.3,0-0.5-0.1-0.7s-0.1-0.3-0.3-0.5c-0.1-0.1-0.2-0.1-0.2-0.2c-0.1-0.1-0.2-0.1-0.3-0.1c-0.1,0-0.2-0.1-0.4-0.1
				c-0.1,0-0.3,0-0.5,0l0,0.5c0.3,0,0.5,0,0.7,0.1c0.2,0,0.3,0.1,0.4,0.2c0.1,0.1,0.1,0.2,0.2,0.3c0,0.1,0.1,0.3,0.1,0.5H47v0.5
				l2.2,0l0,0h0h0l0,0l1.4,0v0H54h0.1h0.7c0.1,0,0.1,0,0.2-0.1c0,0,0.1-0.1,0.1-0.1v0.2h0.8c0.1,0,0.1,0,0.2-0.1
				c0,0,0.1-0.1,0.1-0.1v0.2H57c0,0,0.1,0,0.1,0c0,0,0.1,0,0.1-0.1c0,0,0-0.1,0.1-0.1c0,0,0-0.1,0-0.1v-1.8h-0.5L56.7,24.8
				L56.7,24.8z"/>
			<path class="st2" d="M59.3,24.2c0,0.1,0,0.2-0.1,0.3c0,0.1-0.1,0.2-0.2,0.2c0-0.1,0-0.1,0-0.2c0-0.1,0-0.1,0-0.2
				c0-0.2-0.1-0.4-0.1-0.6c-0.1-0.2-0.1-0.4-0.2-0.6c-0.1-0.2-0.2-0.4-0.3-0.5s-0.2-0.3-0.4-0.5l-0.4,0.4c0.1,0.1,0.2,0.3,0.3,0.4
				c0.1,0.1,0.2,0.3,0.3,0.5c0.1,0.2,0.1,0.3,0.2,0.5c0,0.2,0.1,0.3,0.1,0.5c0,0.1,0,0.2,0,0.2c0,0.1,0,0.2,0,0.2
				c-0.1,0-0.2,0-0.3,0.1c-0.1,0-0.2,0-0.3,0l0.1,0.5c0.2,0,0.3-0.1,0.5-0.1c0.2,0,0.3-0.1,0.4-0.1c0.1,0,0.2-0.1,0.3-0.1
				c0.1-0.1,0.2-0.1,0.3-0.2s0.1-0.2,0.2-0.3c0-0.1,0.1-0.3,0.1-0.5v-2h-0.5V24.2z"/>
			<path class="st2" d="M57.9,26.3C57.9,26.2,57.9,26.2,57.9,26.3c0-0.1,0-0.1,0-0.2c0,0,0.1,0,0.1,0l0.3,0v-0.2H58
				c-0.1,0-0.1,0-0.1,0c0,0-0.1,0-0.1,0.1c0,0,0,0.1-0.1,0.1c0,0,0,0.1,0,0.1c0,0,0,0,0,0.1c0,0,0,0,0,0.1h-0.1v0.2h0.7v-0.2
				L57.9,26.3C58,26.3,57.9,26.3,57.9,26.3z"/>
			<path class="st2" d="M62.4,23.3h-0.5v1.5h-0.6h-0.1h-0.4v-2.5h-0.5V25c0,0,0,0,0,0c0,0,0,0.1,0,0.1c0,0,0,0.1,0.1,0.1
				s0.1,0,0.1,0.1c0,0,0.1,0,0.1,0h0.7h0.1h0.9c0,0,0.1,0,0.1,0c0,0,0.1,0,0.1-0.1c0,0,0-0.1,0.1-0.1c0,0,0-0.1,0-0.1c0,0,0,0,0,0
				V23.3z"/>
			<path class="st2" d="M62.1,25.8C62,25.8,62,25.7,62.1,25.8c-0.1-0.1-0.2-0.1-0.2-0.1c0,0-0.1,0-0.1,0c0,0-0.1,0-0.1,0.1
				c0,0,0,0.1-0.1,0.1c0,0,0,0.1,0,0.1s0,0.1,0,0.1c0,0,0,0.1,0.1,0.1s0.1,0,0.1,0.1c0,0,0.1,0,0.1,0c0,0,0.1,0,0.1,0
				c0,0,0.1,0,0.1-0.1c0,0,0-0.1,0.1-0.1c0,0,0-0.1,0-0.1S62.1,25.9,62.1,25.8C62.1,25.8,62.1,25.8,62.1,25.8z"/>
			<path class="st2" d="M65.5,25.1c0,0.1,0,0.1,0,0.2c0,0.1-0.1,0.1-0.1,0.1s-0.1,0.1-0.2,0.1c-0.1,0-0.1,0-0.2,0
				c-0.1,0-0.1,0-0.2,0s-0.1,0-0.2-0.1s-0.1-0.1-0.1-0.1s0-0.1,0-0.2v-0.9h-0.5v0.9c0,0.2,0,0.3,0.1,0.4c0.1,0.1,0.1,0.2,0.2,0.3
				c0.1,0.1,0.2,0.1,0.3,0.2c0.1,0,0.3,0.1,0.4,0.1c0.1,0,0.3,0,0.4-0.1c0.1,0,0.2-0.1,0.3-0.2c0.1-0.1,0.2-0.2,0.2-0.3
				c0.1-0.1,0.1-0.3,0.1-0.4v-1.9h-0.5L65.5,25.1L65.5,25.1z"/>
			<path class="st2" d="M64.7,23C64.8,23,64.8,23,64.7,23c0.1,0.1,0.2,0.1,0.2,0.1c0,0,0.1,0,0.1,0s0.1,0,0.1-0.1c0,0,0-0.1,0.1-0.1
				c0,0,0-0.1,0-0.1c0,0,0-0.1,0-0.1c0,0,0-0.1-0.1-0.1c0,0-0.1,0-0.1-0.1c0,0-0.1,0-0.1,0c0,0-0.1,0-0.1,0c0,0-0.1,0-0.1,0.1
				c0,0,0,0.1-0.1,0.1c0,0,0,0.1,0,0.1C64.7,22.8,64.7,22.9,64.7,23C64.7,22.9,64.7,23,64.7,23z"/>
			<path class="st2" d="M68,22.8C68.1,22.8,68.1,22.8,68,22.8c0.1,0.1,0.2,0.1,0.2,0.1s0.1,0,0.1,0c0,0,0.1,0,0.1-0.1
				c0,0,0-0.1,0.1-0.1c0,0,0-0.1,0-0.1s0-0.1,0-0.1c0,0,0-0.1-0.1-0.1s-0.1,0-0.1-0.1c0,0-0.1,0-0.1,0s-0.1,0-0.1,0
				c0,0-0.1,0-0.1,0.1c0,0,0,0.1-0.1,0.1c0,0,0,0.1,0,0.1S68,22.7,68,22.8C68,22.7,68,22.8,68,22.8z"/>
			<path class="st2" d="M71.6,24.8h-0.6v-1.5h-0.5v1.5H70v-1.5h-0.5v1.5H69v0h-0.5v-1.5H68v1.5h-0.4h-0.1H67v-2.5h-0.5V25
				c0,0,0,0,0,0c0,0,0,0.1,0,0.1c0,0,0,0.1,0.1,0.1c0,0,0.1,0,0.1,0.1c0,0,0.1,0,0.1,0h0.8l0,0l1.4,0v0h0.8c0.1,0,0.1,0,0.2-0.1
				c0,0,0.1-0.1,0.1-0.1v0.2h0.8c0.1,0,0.1,0,0.2-0.1s0.1-0.1,0.1-0.1v0.2h0.8c0,0,0.1,0,0.1,0c0,0,0.1,0,0.1-0.1c0,0,0-0.1,0.1-0.1
				s0-0.1,0-0.1v-1.8h-0.5L71.6,24.8L71.6,24.8z"/>
			<path class="st2" d="M74.2,24.2c0,0.1,0,0.2-0.1,0.3c0,0.1-0.1,0.2-0.2,0.2c0-0.1,0-0.1,0-0.2c0-0.1,0-0.1,0-0.2
				c0-0.2-0.1-0.4-0.1-0.6s-0.1-0.4-0.2-0.6c-0.1-0.2-0.2-0.4-0.3-0.5s-0.2-0.3-0.4-0.5l-0.4,0.4c0.1,0.1,0.2,0.3,0.3,0.4
				c0.1,0.1,0.2,0.3,0.3,0.5c0.1,0.2,0.1,0.3,0.2,0.5c0,0.2,0.1,0.3,0.1,0.5c0,0.1,0,0.2,0,0.2c0,0.1,0,0.2,0,0.2
				c-0.1,0-0.2,0-0.3,0.1c-0.1,0-0.2,0-0.3,0l0.1,0.5c0.2,0,0.3-0.1,0.5-0.1c0.2,0,0.3-0.1,0.4-0.1c0.1,0,0.2-0.1,0.3-0.1
				c0.1-0.1,0.2-0.1,0.3-0.2c0.1-0.1,0.1-0.2,0.2-0.3c0-0.1,0.1-0.3,0.1-0.5v-2h-0.5V24.2z"/>
			<path class="st2" d="M73.7,21.8h-0.3c0,0-0.1,0-0.1,0c0,0,0-0.1,0-0.1c0,0,0-0.1,0-0.1s0.1,0,0.1,0l0.3,0v-0.2h-0.3
				c-0.1,0-0.1,0-0.1,0c0,0-0.1,0-0.1,0.1c0,0,0,0.1-0.1,0.1c0,0,0,0.1,0,0.1c0,0,0,0,0,0.1c0,0,0,0,0,0.1H73V22h0.7V21.8L73.7,21.8
				z"/>
			<rect x="75.3" y="22.3" class="st2" width="0.5" height="3"/>
			<path class="st2" d="M79.3,25.8C79.3,25.8,79.2,25.7,79.3,25.8c-0.1-0.1-0.2-0.1-0.2-0.1s-0.1,0-0.1,0c0,0-0.1,0-0.1,0.1
				c0,0,0,0.1-0.1,0.1c0,0,0,0.1,0,0.1s0,0.1,0,0.1c0,0,0,0.1,0.1,0.1c0,0,0.1,0,0.1,0.1c0,0,0.1,0,0.1,0s0.1,0,0.1,0
				c0,0,0.1,0,0.1-0.1c0,0,0-0.1,0.1-0.1c0,0,0-0.1,0-0.1S79.4,25.9,79.3,25.8C79.3,25.8,79.3,25.8,79.3,25.8z"/>
			<path class="st2" d="M84.9,22.3h-0.5v2.5H84h-0.1h-0.3v-1.3c0,0,0-0.1,0-0.1c0,0,0-0.1-0.1-0.1c0,0-0.1,0-0.1-0.1
				c0,0-0.1,0-0.1,0l-1,0c-0.1,0-0.2,0-0.3,0c-0.1,0-0.2,0.1-0.2,0.1c-0.1,0-0.1,0.1-0.2,0.1c0,0.1-0.1,0.1-0.1,0.2v-1.3h-0.5v2.5
				h-0.4h-0.1h-0.4v-1.5h-0.5v1.5l-1.3,0c-0.1,0-0.2,0-0.2,0c-0.1,0-0.1-0.1-0.1-0.1c0,0-0.1-0.1-0.1-0.1c0-0.1,0-0.1,0-0.2
				c0-0.1,0-0.2,0-0.3c0-0.1,0.1-0.2,0.1-0.2l-0.5-0.2c0,0,0,0.1-0.1,0.2c0,0.1,0,0.1-0.1,0.2c0,0.1,0,0.1,0,0.2c0,0.1,0,0.1,0,0.2
				c0,0.1,0,0.2,0.1,0.4c0,0.1,0.1,0.2,0.2,0.3c0.1,0.1,0.2,0.2,0.3,0.2c0.1,0.1,0.3,0.1,0.5,0.1h2.2h0.1h3.2H84h0.7
				c0,0,0.1,0,0.1,0c0,0,0.1,0,0.1-0.1c0,0,0-0.1,0.1-0.1c0,0,0-0.1,0-0.1c0,0,0,0,0,0L84.9,22.3L84.9,22.3z M83.1,24.8h-1.5v-0.5
				c0-0.1,0-0.2,0.1-0.3c0-0.1,0.1-0.1,0.2-0.2c0.1,0,0.1-0.1,0.2-0.1c0.1,0,0.2,0,0.3,0c0,0,0.1,0,0.2,0c0.1,0,0.3,0,0.5,0
				L83.1,24.8L83.1,24.8z"/>
			<path class="st2" d="M87.7,22.8C87.7,22.8,87.7,22.8,87.7,22.8c0.1,0.1,0.2,0.1,0.2,0.1c0,0,0.1,0,0.1,0c0,0,0.1,0,0.1-0.1
				c0,0,0-0.1,0.1-0.1c0,0,0-0.1,0-0.1s0-0.1,0-0.1s0-0.1-0.1-0.1c0,0-0.1,0-0.1-0.1c0,0-0.1,0-0.1,0c0,0-0.1,0-0.1,0
				c0,0-0.1,0-0.1,0.1c0,0,0,0.1-0.1,0.1c0,0,0,0.1,0,0.1S87.6,22.7,87.7,22.8C87.6,22.7,87.6,22.8,87.7,22.8z"/>
			<path class="st2" d="M87,22.8C87,22.8,87.1,22.8,87,22.8c0.1,0.1,0.2,0.1,0.2,0.1s0.1,0,0.1,0c0,0,0.1,0,0.1-0.1
				c0,0,0-0.1,0.1-0.1c0,0,0-0.1,0-0.1s0-0.1,0-0.1c0,0,0-0.1-0.1-0.1c0,0-0.1,0-0.1-0.1c0,0-0.1,0-0.1,0s-0.1,0-0.1,0
				c0,0-0.1,0-0.1,0.1c0,0,0,0.1-0.1,0.1c0,0,0,0.1,0,0.1S86.9,22.7,87,22.8C86.9,22.7,87,22.8,87,22.8z"/>
			<path class="st2" d="M91.1,23.3C91.1,23.2,91.1,23.2,91.1,23.3C91,23.2,91,23.2,91,23.2l-0.8,0c-0.1,0-0.2,0-0.3,0
				c-0.1,0-0.2,0.1-0.2,0.1c-0.1,0-0.1,0.1-0.2,0.2c-0.1,0.1-0.1,0.1-0.2,0.2c0,0.1-0.1,0.2-0.1,0.2c0,0.1,0,0.2,0,0.2v0.6h-0.4
				h-0.1h-0.4l0-1.3c0,0,0-0.1,0-0.1c0,0,0-0.1-0.1-0.1c0,0-0.1-0.1-0.1-0.1c0,0-0.1,0-0.1,0h-0.7c-0.1,0-0.3,0-0.4,0.1
				s-0.2,0.1-0.3,0.2c-0.1,0.1-0.2,0.2-0.2,0.3c-0.1,0.1-0.1,0.3-0.1,0.4V25c0,0.1,0,0.1,0.1,0.2c0,0,0.1,0.1,0.2,0.1
				c0.1,0,0.2,0.1,0.4,0.1c0.1,0,0.3,0,0.4,0c0,0,0.1,0,0.1,0s0.1,0,0.1,0l0-0.5c-0.1,0-0.1,0-0.2,0c-0.1,0-0.2,0-0.2,0
				c-0.1,0-0.2,0-0.2,0l0-0.6c0-0.1,0-0.1,0-0.2c0-0.1,0.1-0.1,0.1-0.2c0,0,0.1-0.1,0.2-0.1c0.1,0,0.1,0,0.2,0l0.5,0l0,1.3
				c0,0,0,0.1,0,0.1c0,0,0,0.1,0.1,0.1c0,0,0.1,0,0.1,0.1c0,0,0.1,0,0.1,0h0.6h0.1H91c0,0,0.1,0,0.1,0c0,0,0.1,0,0.1-0.1
				s0-0.1,0.1-0.1c0,0,0-0.1,0-0.1v-1.6C91.2,23.4,91.2,23.4,91.1,23.3C91.2,23.3,91.2,23.3,91.1,23.3z M90.7,24.8h-1v-0.6
				c0-0.1,0-0.1,0-0.2c0-0.1,0.1-0.1,0.1-0.1c0,0,0.1-0.1,0.1-0.1c0.1,0,0.1,0,0.2,0c0,0,0,0,0,0c0,0,0,0,0.1,0c0,0,0.1,0,0.1,0
				c0.1,0,0.2,0,0.3,0V24.8z"/>
			<path class="st2" d="M96.3,22.3h-0.5v2.5h-0.4h0h-0.7l0.3-0.4c0.1-0.1,0.1-0.3,0.1-0.4c0-0.1,0-0.2-0.1-0.3
				c0-0.1-0.1-0.2-0.2-0.2s-0.2-0.1-0.3-0.1c-0.1,0-0.2-0.1-0.3-0.1h-0.6c-0.1,0-0.2,0-0.3,0.1c-0.1,0-0.2,0.1-0.3,0.2
				c-0.1,0.1-0.1,0.1-0.2,0.2c0,0.1-0.1,0.2-0.1,0.3c0,0.1,0,0.1,0,0.2c0,0.1,0.1,0.1,0.1,0.2l0.3,0.4h-0.6h-0.1h-0.4v-2.5h-0.5V25
				c0,0,0,0,0,0c0,0,0,0.1,0,0.1c0,0,0,0.1,0.1,0.1c0,0,0.1,0,0.1,0.1c0,0,0.1,0,0.1,0h0.7h0.1h2.6h0h0.7c0,0,0.1,0,0.1,0
				c0,0,0.1,0,0.1-0.1c0,0,0-0.1,0.1-0.1c0,0,0-0.1,0-0.1c0,0,0,0,0,0L96.3,22.3L96.3,22.3z M94.5,24L94,24.8h0L93.5,24
				c0-0.1-0.1-0.1-0.1-0.1c0,0,0,0,0-0.1c0,0,0,0,0.1-0.1c0,0,0.1,0,0.1,0c0,0,0.1,0,0.1,0h0.6c0,0,0.1,0,0.1,0c0,0,0.1,0,0.1,0
				c0,0,0,0,0.1,0.1c0,0,0,0,0,0.1C94.6,23.9,94.5,24,94.5,24z"/>
			<rect x="96.9" y="22.3" class="st2" width="0.5" height="3"/>
			<path class="st2" d="M99.7,22.8C99.7,22.8,99.7,22.8,99.7,22.8c0.1,0.1,0.2,0.1,0.2,0.1c0,0,0.1,0,0.1,0c0,0,0.1,0,0.1-0.1
				c0,0,0-0.1,0.1-0.1c0,0,0-0.1,0-0.1s0-0.1,0-0.1c0,0,0-0.1-0.1-0.1c0,0-0.1,0-0.1-0.1c0,0-0.1,0-0.1,0c0,0-0.1,0-0.1,0
				c0,0-0.1,0-0.1,0.1c0,0,0,0.1-0.1,0.1c0,0,0,0.1,0,0.1S99.6,22.7,99.7,22.8C99.6,22.7,99.7,22.8,99.7,22.8z"/>
			<path class="st2" d="M100.4,22.8C100.4,22.8,100.4,22.8,100.4,22.8c0.1,0.1,0.2,0.1,0.2,0.1c0,0,0.1,0,0.1,0c0,0,0.1,0,0.1-0.1
				c0,0,0-0.1,0.1-0.1c0,0,0-0.1,0-0.1s0-0.1,0-0.1c0,0,0-0.1-0.1-0.1c0,0-0.1,0-0.1-0.1c0,0-0.1,0-0.1,0c0,0-0.1,0-0.1,0
				c0,0-0.1,0-0.1,0.1c0,0,0,0.1-0.1,0.1c0,0,0,0.1,0,0.1S100.3,22.7,100.4,22.8C100.3,22.7,100.3,22.8,100.4,22.8z"/>
			<path class="st2" d="M101.1,23.4c0,0,0-0.1-0.1-0.1c0,0-0.1-0.1-0.1-0.1s-0.1,0-0.1,0h-0.7c-0.1,0-0.3,0-0.4,0.1
				c-0.1,0.1-0.2,0.1-0.3,0.2c-0.1,0.1-0.2,0.2-0.2,0.3c-0.1,0.1-0.1,0.3-0.1,0.4V25c0,0.1,0,0.1,0.1,0.2s0.1,0.1,0.1,0.1
				c0.1,0,0.1,0,0.2,0c0.1,0,0.1,0,0.2,0c0.1,0,0.1,0,0.2,0c0.1,0,0.1,0,0.2,0c0.1,0,0.3,0,0.4,0c0.1,0,0.3,0,0.4-0.1
				c0.1,0,0.1,0,0.2-0.1c0,0,0.1-0.1,0.1-0.2l0-1.5C101.1,23.5,101.1,23.4,101.1,23.4z M100.6,24.8c-0.1,0-0.2,0-0.2,0
				c-0.1,0-0.2,0-0.2,0c0,0-0.1,0-0.1,0c0,0-0.1,0-0.1,0c0,0-0.1,0-0.1,0c0,0-0.1,0-0.1,0l0-0.6c0-0.1,0-0.1,0-0.2
				c0-0.1,0.1-0.1,0.1-0.2c0,0,0.1-0.1,0.2-0.1s0.1,0,0.2,0l0.5,0L100.6,24.8L100.6,24.8z"/>
			<path class="st2" d="M102.8,23.5h-0.5c0,0.1,0,0.3,0,0.4c0,0.2,0,0.3,0,0.5c0,0.1,0,0.2,0,0.4c0,0.1,0,0.2,0,0.4
				c0,0.1-0.1,0.2-0.1,0.3c0,0.1-0.1,0.2-0.2,0.3c-0.1,0.1-0.2,0.1-0.3,0.2c-0.1,0-0.2,0.1-0.4,0.1v0.5c0.2,0,0.4,0,0.6-0.1
				c0.2-0.1,0.3-0.2,0.4-0.3s0.2-0.2,0.3-0.4s0.1-0.3,0.2-0.5c0-0.1,0-0.3,0.1-0.4c0-0.1,0-0.3,0-0.4c0-0.2,0-0.3,0-0.5
				C102.8,23.8,102.8,23.6,102.8,23.5z"/>
			<rect x="103.3" y="22.3" class="st2" width="0.5" height="3"/>
			<path class="st2" d="M106.3,24.2c0-0.1-0.1-0.2-0.1-0.3c0-0.1-0.1-0.2-0.2-0.3c-0.1-0.1-0.2-0.1-0.2-0.2
				c-0.1-0.1-0.2-0.1-0.3-0.1c-0.1,0-0.2-0.1-0.4-0.1c-0.1,0-0.3,0-0.5,0l0,0.5c0.3,0,0.5,0,0.7,0.1s0.3,0.1,0.4,0.2
				c0.1,0.1,0.1,0.2,0.2,0.3c0,0.1,0.1,0.3,0.1,0.5h-1.4v0.5h1.7c0,0,0.1,0,0.1,0c0,0,0.1,0,0.1-0.1c0,0,0-0.1,0.1-0.1
				c0,0,0-0.1,0-0.1c0-0.2,0-0.3,0-0.5C106.3,24.5,106.3,24.3,106.3,24.2z"/>
			<path class="st2" d="M107,26.3C107,26.2,107,26.2,107,26.3c0-0.1,0-0.1,0-0.2s0.1,0,0.1,0l0.3,0v-0.2h-0.3c-0.1,0-0.1,0-0.1,0
				c0,0-0.1,0-0.1,0.1c0,0,0,0.1-0.1,0.1c0,0,0,0.1,0,0.1c0,0,0,0,0,0.1c0,0,0,0,0,0.1h-0.1v0.2h0.7v-0.2L107,26.3
				C107.1,26.3,107,26.3,107,26.3z"/>
			<path class="st2" d="M108.4,24.2c0,0.1,0,0.2-0.1,0.3c0,0.1-0.1,0.2-0.2,0.2c0-0.1,0-0.1,0-0.2c0-0.1,0-0.1,0-0.2
				c0-0.2-0.1-0.4-0.1-0.6s-0.1-0.4-0.2-0.6c-0.1-0.2-0.2-0.4-0.3-0.5s-0.2-0.3-0.4-0.5l-0.4,0.4c0.1,0.1,0.2,0.3,0.3,0.4
				s0.2,0.3,0.3,0.5c0.1,0.2,0.1,0.3,0.2,0.5c0,0.2,0.1,0.3,0.1,0.5c0,0.1,0,0.2,0,0.2s0,0.2,0,0.2c-0.1,0-0.2,0-0.3,0.1
				c-0.1,0-0.2,0-0.3,0l0.1,0.5c0.2,0,0.3-0.1,0.5-0.1c0.2,0,0.3-0.1,0.4-0.1c0.1,0,0.2-0.1,0.3-0.1c0.1-0.1,0.2-0.1,0.3-0.2
				c0.1-0.1,0.1-0.2,0.2-0.3c0-0.1,0.1-0.3,0.1-0.5v-2h-0.5V24.2z"/>
			<rect x="109.5" y="22.3" class="st2" width="0.5" height="3"/>
		</g>
		<g>
			<rect x="41.3" y="29.1" class="st2" width="69.3" height="0.1"/>
		</g>
	</g>
	<g>
		<g>
			
				<linearGradient id="SVGID_1_" gradientUnits="userSpaceOnUse" x1="2.8346" y1="48.7719" x2="35.0266" y2="48.7719" gradientTransform="matrix(1 0 0 -1 0 77.3542)">
				<stop  offset="0" style="stop-color:#D94048"/>
				<stop  offset="1" style="stop-color:#CD010B"/>
			</linearGradient>
			<path class="st3" d="M35,28.6c0,8.9-7.2,16.1-16.1,16.1S2.8,37.5,2.8,28.6c0-8.8,7-15.9,15.7-16.1c-7.1,0.2-12.8,6-12.8,13.1
				c0,7.3,5.9,13.1,13.1,13.1s13.1-5.9,13.1-13.1c0-7.1-5.7-13-12.8-13.1C28,12.7,35,19.8,35,28.6z"/>
			
				<linearGradient id="SVGID_2_" gradientUnits="userSpaceOnUse" x1="9.8658" y1="51.3983" x2="27.9974" y2="51.3983" gradientTransform="matrix(1 0 0 -1 0 77.3542)">
				<stop  offset="0" style="stop-color:#4094D2"/>
				<stop  offset="1" style="stop-color:#0070C3"/>
			</linearGradient>
			<path class="st4" d="M28,26c0,5.1-4.1,9.1-9.1,9.1S9.9,31,9.9,26c0-5,3.9-9,8.8-9.1c-4,0.2-7.1,3.4-7.1,7.5
				c0,4.1,3.3,7.5,7.4,7.5s7.4-3.3,7.4-7.5c0-4-3.2-7.3-7.1-7.5C24.1,17,28,21,28,26z"/>
			<g>
				<path class="st2" d="M8.1,36.4C8.1,36.4,8.1,36.5,8.1,36.4c0.1,0.1,0.1,0.1,0.1,0.1c0,0,0,0,0.1,0c0,0,0,0,0,0s0,0,0-0.1
					c0,0,0,0,0-0.1c0,0,0,0,0-0.1c0,0,0,0,0-0.1c0,0,0,0-0.1,0s0,0-0.1,0c0,0,0,0-0.1,0c0,0,0,0,0,0c0,0,0,0,0,0.1c0,0,0,0,0,0.1
					C8,36.3,8,36.3,8.1,36.4C8.1,36.4,8.1,36.4,8.1,36.4z"/>
				<path class="st2" d="M8.3,36.8C8,37,7.9,37.2,7.7,37.4c0,0-0.1,0-0.1,0.1c0,0-0.1,0-0.1,0c0,0-0.1,0-0.1-0.1
					c0,0-0.1-0.1-0.1-0.1s-0.1-0.1-0.1-0.1c0,0,0-0.1,0-0.1c0,0,0-0.1,0-0.1c0,0,0-0.1,0.1-0.1c0.1-0.1,0.2-0.2,0.3-0.3
					c-0.1-0.1-0.1-0.2-0.2-0.3c-0.1,0.1-0.2,0.2-0.3,0.3c-0.1,0.1-0.1,0.1-0.1,0.2c0,0.1,0,0.2,0,0.2s0,0.2,0.1,0.2
					c0,0.1,0.1,0.2,0.2,0.2c0.1,0.1,0.1,0.1,0.2,0.2c0.1,0,0.1,0.1,0.2,0.1c0.1,0,0.1,0,0.2,0c0.1,0,0.1-0.1,0.2-0.1
					c0.2-0.3,0.4-0.4,0.6-0.7C8.4,36.9,8.4,36.9,8.3,36.8z"/>
				<path class="st2" d="M9.5,37.7C9.5,37.7,9.5,37.7,9.5,37.7C9.6,37.7,9.6,37.7,9.5,37.7c0.1,0.1,0.1,0.1,0.2,0.1c0,0,0,0,0.1,0
					c0,0,0,0,0,0c0,0,0,0,0-0.1c0,0,0,0,0-0.1c0,0,0,0,0-0.1c0,0,0,0,0-0.1c0,0,0,0-0.1,0c0,0,0,0-0.1,0c0,0,0,0-0.1,0c0,0,0,0,0,0
					c0,0,0,0,0,0.1C9.5,37.6,9.5,37.6,9.5,37.7C9.5,37.6,9.5,37.7,9.5,37.7z"/>
				<path class="st2" d="M11,39.1c-0.1,0.3-0.2,0.4-0.4,0.7c-0.1-0.1-0.2-0.1-0.3-0.2c0.2-0.3,0.2-0.4,0.4-0.7
					c-0.1-0.1-0.2-0.1-0.3-0.2c-0.2,0.3-0.2,0.4-0.4,0.6c-0.1-0.1-0.2-0.1-0.3-0.2c0.2-0.3,0.2-0.4,0.4-0.6
					c-0.1-0.1-0.1-0.1-0.2-0.2c-0.2,0.3-0.2,0.4-0.4,0.6c-0.1-0.1-0.1-0.1-0.2-0.2c0,0,0,0,0,0c-0.1-0.1-0.1-0.1-0.2-0.2
					c0.2-0.2,0.3-0.4,0.4-0.6c-0.1-0.1-0.1-0.1-0.2-0.2C9.1,38,9,38.1,8.9,38.4c-0.1-0.1-0.1-0.1-0.2-0.2l0,0c0,0,0,0,0,0
					c0,0,0,0,0,0l0,0c-0.1-0.1-0.1-0.1-0.2-0.2c0.3-0.4,0.5-0.6,0.8-1c-0.1-0.1-0.1-0.1-0.2-0.2c-0.3,0.4-0.5,0.6-0.9,1c0,0,0,0,0,0
					c0,0,0,0,0,0c0,0,0,0,0,0.1c0,0,0,0,0,0.1c0,0,0,0,0,0.1c0.1,0.1,0.2,0.2,0.4,0.3l0,0c0.3,0.2,0.4,0.4,0.7,0.6c0,0,0,0,0,0
					c0.2,0.1,0.2,0.2,0.4,0.3c0,0,0.1,0,0.1,0s0.1,0,0.1,0c0,0,0,0,0,0.1c0.2,0.1,0.2,0.2,0.4,0.3c0,0,0.1,0,0.1,0c0,0,0.1,0,0.1,0
					c0,0,0,0,0,0.1c0.2,0.1,0.3,0.2,0.4,0.3c0,0,0,0,0.1,0s0,0,0.1,0c0,0,0,0,0.1,0c0,0,0,0,0,0c0.2-0.3,0.3-0.5,0.4-0.8
					C11.2,39.2,11.1,39.2,11,39.1z"/>
				<path class="st2" d="M12.4,39.4c-0.2,0.4-0.2,0.5-0.4,0.9c0,0.1-0.1,0.1-0.1,0.1c0,0-0.1,0-0.1,0.1c0,0,0-0.1,0-0.1
					c0,0,0-0.1,0-0.1c0-0.1,0-0.2,0.1-0.3c0-0.1,0-0.2,0-0.3c0-0.1,0-0.2,0-0.3c0-0.1,0-0.2-0.1-0.3c-0.1,0-0.2,0-0.3,0.1
					c0,0.1,0.1,0.2,0.1,0.3c0,0.1,0,0.2,0,0.3s0,0.2,0,0.3c0,0.1,0,0.2-0.1,0.2c0,0,0,0.1,0,0.1s0,0.1,0,0.1c0,0-0.1,0-0.2-0.1
					c-0.1,0-0.1,0-0.2-0.1c0,0.1,0,0.2-0.1,0.3c0.1,0,0.2,0.1,0.3,0.1c0.1,0,0.2,0.1,0.2,0.1c0.1,0,0.1,0,0.2,0s0.1,0,0.2,0
					c0.1,0,0.1-0.1,0.2-0.1c0,0,0.1-0.1,0.1-0.2c0.2-0.4,0.2-0.6,0.4-0.9C12.6,39.5,12.5,39.4,12.4,39.4z"/>
				<path class="st2" d="M12.3,39c-0.1,0-0.1-0.1-0.1-0.1c0,0,0,0,0,0c0,0,0,0,0,0c0,0,0,0,0,0c0,0,0,0,0.1,0c0.1,0,0.1,0,0.1,0.1
					c0,0,0-0.1,0-0.1c-0.1,0-0.1,0-0.1-0.1c0,0,0,0-0.1,0c0,0,0,0-0.1,0c0,0,0,0-0.1,0s0,0,0,0c0,0,0,0,0,0c0,0,0,0,0,0c0,0,0,0,0,0
					c0,0,0,0.1,0,0.1C12.1,39,12.1,39.1,12.3,39C12.3,39.1,12.3,39.1,12.3,39z"/>
				<path class="st2" d="M12.4,41.1c0.1,0.1,0.2,0.1,0.3,0.1c0.2-0.5,0.4-1,0.5-1.4c-0.1,0-0.2-0.1-0.3-0.1
					C12.8,40.1,12.6,40.6,12.4,41.1z"/>
				<path class="st2" d="M14.5,42.2C14.5,42.1,14.5,42.1,14.5,42.2c-0.1-0.1-0.1-0.1-0.1-0.1c0,0,0,0-0.1,0c0,0,0,0-0.1,0
					c0,0,0,0,0,0c0,0,0,0,0,0.1c0,0,0,0,0,0.1c0,0,0,0,0,0.1c0,0,0,0,0,0c0,0,0,0,0.1,0c0,0,0,0,0.1,0c0,0,0,0,0.1,0c0,0,0,0,0,0
					s0,0,0-0.1C14.6,42.3,14.6,42.2,14.5,42.2C14.6,42.2,14.5,42.2,14.5,42.2z"/>
				<path class="st2" d="M17.6,41c0,0.5-0.1,0.8-0.1,1.3c-0.1,0-0.2,0-0.2,0l0,0c0,0,0,0,0,0c0,0,0,0,0,0l0,0c-0.1,0-0.1,0-0.2,0
					c0-0.3,0-0.4,0.1-0.7c0,0,0,0,0-0.1c0,0,0,0,0,0c0,0,0,0,0,0c0,0,0,0-0.1,0c-0.2,0-0.3-0.1-0.5-0.1c-0.1,0-0.1,0-0.1,0
					c0,0-0.1,0-0.1,0c0,0-0.1,0-0.1,0.1c0,0-0.1,0-0.1,0.1c0-0.3,0.1-0.4,0.1-0.7c-0.1,0-0.2,0-0.3-0.1c-0.1,0.5-0.1,0.7-0.2,1.2
					c-0.1,0-0.1,0-0.2,0l0,0c0,0,0,0,0,0c0,0,0,0,0,0l0,0c-0.1,0-0.1,0-0.2-0.1c0.1-0.3,0.1-0.5,0.2-0.8c-0.1,0-0.2,0-0.3-0.1
					c-0.1,0.3-0.1,0.5-0.2,0.8c-0.3-0.1-0.4-0.1-0.7-0.2c-0.1,0-0.1,0-0.1-0.1c0,0-0.1,0-0.1-0.1c0,0,0-0.1,0-0.1c0,0,0-0.1,0-0.1
					c0,0,0-0.1,0.1-0.1c0,0,0.1-0.1,0.1-0.1c-0.1-0.1-0.1-0.1-0.2-0.2c0,0,0,0-0.1,0.1c0,0,0,0-0.1,0.1c0,0,0,0.1-0.1,0.1
					c0,0,0,0.1,0,0.1c0,0.1,0,0.1,0,0.2c0,0.1,0,0.1,0,0.2c0,0.1,0.1,0.1,0.1,0.2c0.1,0.1,0.1,0.1,0.3,0.1c0.5,0.2,0.7,0.2,1.2,0.4
					l0,0l0,0c0,0,0,0,0,0l0,0c0.6,0.1,1.2,0.3,1.8,0.3l0,0c0.2,0,0.3,0,0.4,0c0,0,0,0,0.1,0c0,0,0,0,0.1,0c0,0,0,0,0,0
					c0,0,0,0,0-0.1c0,0,0,0,0,0c0-0.6,0.1-0.8,0.1-1.4C17.8,41,17.7,41,17.6,41z M16.8,42.1c-0.3-0.1-0.5-0.1-0.8-0.1
					c0-0.1,0-0.1,0-0.2c0,0,0-0.1,0.1-0.1c0,0,0.1-0.1,0.1-0.1c0,0,0.1,0,0.1,0c0,0,0.1,0,0.1,0c0,0,0,0,0.1,0c0.1,0,0.2,0,0.3,0.1
					C16.8,41.8,16.8,41.9,16.8,42.1z"/>
				<path class="st2" d="M19,41.3C19,41.3,19,41.3,19,41.3c0.1,0,0.1,0,0.1,0s0,0,0.1,0c0,0,0,0,0,0c0,0,0,0,0,0c0,0,0,0,0-0.1
					c0,0,0,0,0-0.1c0,0,0,0,0,0c0,0,0,0,0,0c0,0,0,0-0.1,0c0,0,0,0-0.1,0s0,0,0,0s0,0,0,0c0,0,0,0,0,0.1
					C18.9,41.2,18.9,41.2,19,41.3C19,41.3,19,41.3,19,41.3z"/>
				<path class="st2" d="M19.3,41.3C19.3,41.3,19.4,41.3,19.3,41.3c0.1,0,0.1,0,0.1,0c0,0,0,0,0.1,0s0,0,0,0s0,0,0,0c0,0,0,0,0-0.1
					s0,0,0-0.1c0,0,0,0,0,0c0,0,0,0-0.1,0c0,0,0,0-0.1,0c0,0,0,0-0.1,0c0,0,0,0,0,0c0,0,0,0,0,0c0,0,0,0,0,0.1
					C19.3,41.2,19.3,41.2,19.3,41.3C19.3,41.3,19.3,41.3,19.3,41.3z"/>
				<path class="st2" d="M21.3,41.4C21.3,41.4,21.3,41.4,21.3,41.4C21.2,41.4,21.2,41.4,21.3,41.4c-0.1-0.1-0.1-0.1-0.1-0.1
					c0,0,0,0-0.1,0c-0.2,0-0.2,0-0.4,0.1c-0.1,0-0.1,0-0.1,0c0,0-0.1,0-0.1,0.1c0,0-0.1,0.1-0.1,0.1c0,0-0.1,0.1-0.1,0.1
					c0,0,0,0.1,0,0.1c0,0,0,0.1,0,0.1c0,0.1,0,0.2,0,0.3c-0.1,0-0.1,0-0.2,0l0,0c0,0,0,0,0,0c0,0,0,0,0,0l0,0c-0.1,0-0.1,0-0.2,0
					c0-0.3,0-0.4,0-0.6c0,0,0,0,0-0.1c0,0,0,0,0-0.1c0,0,0,0-0.1,0c0,0,0,0-0.1,0c-0.1,0-0.2,0-0.4,0c-0.1,0-0.1,0-0.2,0
					c-0.1,0-0.1,0.1-0.2,0.1c-0.1,0-0.1,0.1-0.1,0.2c0,0.1,0,0.1,0,0.2c0,0.2,0,0.2,0,0.4c0,0,0,0.1,0,0.1c0,0,0.1,0,0.1,0
					c0.1,0,0.1,0,0.2,0c0.1,0,0.2,0,0.2,0c0,0,0,0,0.1,0c0,0,0,0,0.1,0c0-0.1,0-0.2,0-0.3c0,0-0.1,0-0.1,0c0,0-0.1,0-0.1,0
					c0,0-0.1,0-0.1,0c0-0.1,0-0.2,0-0.3c0,0,0-0.1,0-0.1c0,0,0-0.1,0.1-0.1s0.1,0,0.1-0.1c0,0,0.1,0,0.1,0c0.1,0,0.2,0,0.3,0
					c0,0.3,0,0.4,0,0.7c0,0,0,0,0,0.1c0,0,0,0,0,0c0,0,0,0,0.1,0c0,0,0,0,0.1,0c0.2,0,0.2,0,0.4,0l0,0c0.5,0,0.7-0.1,1.2-0.1
					c0,0,0,0,0.1,0c0,0,0,0,0,0c0,0,0,0,0-0.1c0,0,0,0,0-0.1C21.3,41.9,21.3,41.8,21.3,41.4z M20.5,42.2c0-0.1,0-0.2,0-0.3
					c0,0,0-0.1,0-0.1c0,0,0-0.1,0-0.1c0,0,0,0,0.1-0.1c0,0,0.1,0,0.1,0c0,0,0,0,0,0c0,0,0,0,0,0c0,0,0,0,0.1,0c0,0,0.1,0,0.2,0
					c0,0.2,0,0.3,0.1,0.5C20.8,42.2,20.7,42.2,20.5,42.2z"/>
				<path class="st2" d="M24.2,41.5c-0.2-0.5-0.2-0.8-0.4-1.3c-0.1,0-0.2,0.1-0.3,0.1c0.1,0.5,0.2,0.7,0.4,1.2
					c-0.1,0-0.1,0.1-0.2,0.1l0,0c-0.2,0.1-0.2,0.1-0.4,0.1c0-0.1,0.1-0.2,0.1-0.3c0-0.1,0-0.2,0-0.2c0-0.1,0-0.1-0.1-0.1
					s-0.1-0.1-0.1-0.1c0,0-0.1,0-0.2,0c-0.1,0-0.1,0-0.2,0c-0.1,0-0.2,0.1-0.3,0.1c-0.1,0-0.1,0-0.2,0.1c0,0-0.1,0.1-0.1,0.1
					c0,0-0.1,0.1-0.1,0.1s0,0.1,0,0.1c0,0,0,0.1,0,0.1c0,0,0,0.1,0.1,0.1c0.1,0.1,0.1,0.1,0.2,0.2c-0.1,0-0.2,0.1-0.4,0.1l0,0
					c0,0,0,0,0,0c0,0,0,0,0,0l0,0c-0.1,0-0.1,0-0.2,0.1c-0.1-0.5-0.1-0.7-0.2-1.2c-0.1,0-0.2,0-0.3,0.1c0.1,0.6,0.1,0.8,0.2,1.4
					c0,0,0,0,0,0c0,0,0,0,0,0.1s0,0,0,0c0,0,0,0,0.1,0c0,0,0,0,0.1,0c0.2,0,0.3-0.1,0.4-0.1c0,0,0,0,0,0c0.5-0.1,1-0.3,1.5-0.4l0,0
					c0,0,0,0,0,0l0,0l0,0c0.1-0.1,0.2-0.1,0.4-0.1c0,0,0,0,0.1,0c0,0,0,0,0,0C24.2,41.6,24.2,41.6,24.2,41.5
					C24.2,41.5,24.2,41.5,24.2,41.5C24.2,41.5,24.2,41.5,24.2,41.5z M23.1,41.3c-0.1,0.2-0.1,0.3-0.2,0.4c0,0,0,0,0,0
					c-0.1-0.1-0.2-0.2-0.3-0.3c0,0,0,0,0-0.1c0,0,0,0,0,0c0,0,0,0,0,0s0,0,0,0c0,0,0,0,0.1,0c0.1,0,0.2,0,0.3-0.1c0,0,0,0,0.1,0
					c0,0,0,0,0.1,0s0,0,0,0C23.1,41.2,23.1,41.2,23.1,41.3C23.1,41.3,23.1,41.3,23.1,41.3z"/>
				<path class="st2" d="M24.1,40c0.2,0.5,0.3,1,0.5,1.5c0.1,0,0.2-0.1,0.3-0.1c-0.2-0.5-0.3-1-0.5-1.4C24.3,40,24.2,40,24.1,40z"/>
				<path class="st2" d="M25.8,39.4C25.8,39.4,25.9,39.5,25.8,39.4c0.1,0,0.1,0,0.1,0c0,0,0,0,0.1,0c0,0,0,0,0.1,0c0,0,0,0,0-0.1
					c0,0,0,0,0-0.1s0,0,0-0.1c0,0,0,0,0,0c0,0,0,0-0.1,0c0,0,0,0-0.1,0c0,0,0,0-0.1,0c0,0,0,0,0,0c0,0,0,0,0,0.1c0,0,0,0,0,0.1
					S25.8,39.4,25.8,39.4C25.8,39.4,25.8,39.4,25.8,39.4z"/>
				<path class="st2" d="M26.4,39.6C26.4,39.5,26.4,39.5,26.4,39.6c-0.1-0.1-0.1-0.1-0.1-0.1c0,0,0,0-0.1,0c0,0,0,0-0.1,0
					c-0.1,0.1-0.2,0.1-0.3,0.2c-0.1,0-0.1,0.1-0.2,0.1c-0.1,0.1-0.1,0.1-0.1,0.2s0,0.1,0,0.2c0,0.1,0,0.1,0,0.2
					c0.1,0.1,0.1,0.2,0.2,0.4c0,0,0,0.1,0.1,0.1c0,0,0.1,0,0.1,0c0,0,0.1,0,0.1,0c0,0,0.1,0,0.1,0c0,0,0.1,0,0.1,0
					c0,0,0.1,0,0.1-0.1c0.1,0,0.1-0.1,0.2-0.1c0.1,0,0.1-0.1,0.2-0.2c0,0,0-0.1,0.1-0.1c0,0,0-0.1,0-0.1
					C26.6,40,26.5,39.8,26.4,39.6z M26.3,40.4c0,0-0.1,0.1-0.1,0.1c0,0,0,0-0.1,0s0,0-0.1,0c0,0,0,0-0.1,0c0,0,0,0-0.1,0
					c0-0.1-0.1-0.2-0.1-0.3c0,0,0-0.1,0-0.1c0,0,0-0.1,0-0.1c0,0,0-0.1,0.1-0.1c0,0,0.1-0.1,0.1-0.1c0.1-0.1,0.1-0.1,0.2-0.1
					c0.1,0.2,0.1,0.3,0.2,0.5C26.4,40.3,26.3,40.3,26.3,40.4z"/>
				<path class="st2" d="M25.6,39.6C25.6,39.6,25.6,39.6,25.6,39.6c0.1,0,0.1,0,0.1,0c0,0,0,0,0.1,0c0,0,0,0,0-0.1c0,0,0,0,0-0.1
					c0,0,0,0,0-0.1c0,0,0,0,0,0s0,0,0,0c0,0,0,0-0.1,0c0,0,0,0-0.1,0c0,0,0,0-0.1,0c0,0,0,0,0,0.1c0,0,0,0,0,0.1
					C25.5,39.5,25.5,39.5,25.6,39.6C25.5,39.6,25.5,39.6,25.6,39.6C25.5,39.6,25.5,39.6,25.6,39.6z"/>
				<path class="st2" d="M27.5,39.6c0-0.1-0.1-0.1-0.1-0.2c0-0.1-0.1-0.1-0.1-0.2c0-0.1-0.1-0.1-0.1-0.2c-0.1,0.1-0.2,0.1-0.3,0.2
					c0,0.1,0.1,0.1,0.1,0.2c0,0.1,0.1,0.1,0.1,0.2c0,0.1,0.1,0.1,0.1,0.2c0,0.1,0,0.1,0.1,0.2c0,0.1,0,0.1,0,0.2s0,0.1,0,0.2
					c0,0.1,0,0.1-0.1,0.2c0,0.1-0.1,0.1-0.2,0.1c0,0.1,0.1,0.1,0.1,0.2c0.1-0.1,0.2-0.2,0.3-0.2c0.1-0.1,0.1-0.2,0.2-0.3
					c0-0.1,0-0.2,0-0.3c0-0.1,0-0.2,0-0.3C27.6,39.8,27.6,39.7,27.5,39.6z"/>
				<path class="st2" d="M27.1,38.4c0.3,0.4,0.5,0.9,0.8,1.3c0.1-0.1,0.2-0.1,0.3-0.2c-0.3-0.4-0.5-0.9-0.8-1.3
					C27.3,38.2,27.2,38.3,27.1,38.4z"/>
				<path class="st2" d="M29.3,38.3c0-0.1-0.1-0.1-0.1-0.2c0-0.1-0.1-0.1-0.1-0.1c0,0-0.1-0.1-0.1-0.1c0,0-0.1,0-0.2,0
					c-0.1,0-0.1,0-0.2,0c-0.1,0-0.1,0-0.2,0.1c-0.1,0-0.1,0.1-0.2,0.1S28,38.2,28,38.3c0.1,0.1,0.1,0.1,0.1,0.2
					c0.1-0.1,0.2-0.2,0.3-0.2c0.1,0,0.2-0.1,0.2-0.1c0.1,0,0.1,0,0.2,0.1c0.1,0,0.1,0.1,0.2,0.2c-0.3,0.2-0.4,0.3-0.7,0.6
					c0.1,0.1,0.1,0.1,0.1,0.2c0.3-0.3,0.5-0.4,0.8-0.7c0,0,0,0,0-0.1c0,0,0,0,0-0.1C29.3,38.4,29.3,38.4,29.3,38.3
					C29.3,38.4,29.3,38.3,29.3,38.3z"/>
				<path class="st2" d="M30.2,36.9c-0.3-0.3-0.4-0.4-0.7-0.7c-0.1,0.1-0.1,0.1-0.2,0.2c0.3,0.3,0.4,0.4,0.6,0.7
					c0,0.1,0.1,0.1,0.1,0.2c0,0.1,0,0.1,0,0.2c0,0,0,0-0.1-0.1c0,0,0,0-0.1-0.1c-0.1-0.1-0.1-0.1-0.2-0.2c-0.1,0-0.2-0.1-0.3-0.1
					c-0.1,0-0.2-0.1-0.3-0.1c-0.1,0-0.2,0-0.3,0c0,0.1,0,0.2,0,0.3c0.1,0,0.2,0,0.3,0c0.1,0,0.2,0,0.2,0.1c0.1,0,0.2,0.1,0.2,0.1
					c0.1,0,0.1,0.1,0.2,0.1c0,0,0.1,0.1,0.1,0.1c0,0,0.1,0.1,0.1,0.1c0,0-0.1,0.1-0.1,0.1c0,0.1-0.1,0.1-0.1,0.2
					c0.1,0.1,0.1,0.1,0.2,0.2C29.9,38.1,30,38,30,38c0.1-0.1,0.1-0.2,0.2-0.2c0-0.1,0.1-0.1,0.1-0.2c0-0.1,0-0.1,0-0.2
					c0-0.1,0-0.1,0-0.2C30.3,37,30.3,37,30.2,36.9z"/>
				<path class="st2" d="M30,38.5C30,38.5,30,38.5,30,38.5C30,38.5,30,38.5,30,38.5c-0.1,0-0.1,0-0.1,0c0,0,0,0,0-0.1
					c0.1-0.1,0.1-0.1,0.1-0.1c0,0,0,0-0.1-0.1c-0.1,0.1-0.1,0.1-0.1,0.1c0,0,0,0-0.1,0.1s0,0,0,0.1c0,0,0,0,0,0.1c0,0,0,0,0,0.1
					c0,0,0,0,0,0c0,0,0,0,0,0c0,0,0,0,0,0c0,0,0,0,0.1,0.1c0.1-0.1,0.2-0.2,0.3-0.3c0,0,0,0-0.1-0.1C30.1,38.4,30.1,38.4,30,38.5z"
					/>
				<path class="st2" d="M30,35.7c-0.1,0.1-0.1,0.1-0.2,0.2c0.3,0.4,0.7,0.7,1,1.1c0.1-0.1,0.1-0.2,0.2-0.3
					C30.7,36.4,30.3,36,30,35.7z"/>
			</g>
			<g>
				<path class="st2" d="M8,28.6c0.1,0,0.2-0.2,0.1-0.3c0-0.1,0-0.1-0.1-0.1c0,0.1,0,0.2-0.1,0.2c-0.1,0-0.3,0-0.3-0.3
					c-0.1-0.3,0.1-0.5,0.3-0.6c0.3,0,0.5,0.1,0.5,0.4c0,0.2,0,0.3-0.1,0.3c0,0.1,0.1,0.1,0.1,0.1c0.1,0,0.1-0.2,0-0.5
					c-0.1-0.3-0.3-0.6-0.6-0.6c-0.4,0.1-0.4,0.5-0.3,0.8C7.6,28.4,7.8,28.7,8,28.6z"/>
				<path class="st2" d="M8.2,29.8c-0.1,0-0.2-0.1-0.2-0.3C8,29.3,8,29.2,8.1,29.1c0,0.1,0,0.2,0.1,0.2c0.1,0.2,0.2,0.5,0.4,0.4
					c0.1,0,0.1-0.2,0-0.5c-0.1-0.2-0.3-0.5-0.5-0.4c-0.3,0.1-0.2,0.4-0.2,0.7C8,29.7,8.1,29.9,8.2,29.8C8.2,29.9,8.3,29.9,8.2,29.8z
					 M8.6,29.3c0,0.1,0,0.2,0,0.3c-0.1,0-0.2-0.1-0.3-0.3c0-0.1,0-0.1,0-0.2C8.4,29,8.5,29.1,8.6,29.3z"/>
				<path class="st2" d="M9.1,30.5c-0.1-0.2-0.2-0.3-0.3-0.3c0,0,0,0,0,0c0.1,0,0.1-0.1,0.1-0.2c0-0.1-0.1-0.1-0.1-0.1c0,0,0,0,0,0
					c0,0,0,0,0,0c0,0,0,0.1,0,0.1c-0.2,0.1-0.3,0.1-0.5,0.2c0,0,0,0.1,0,0.1c0,0,0,0.1,0.1,0.1c0-0.1,0.1-0.1,0.3-0.2
					C8.8,30.2,8.9,30.3,9.1,30.5c0,0.1-0.1,0.2-0.2,0.3c-0.1,0.1-0.2,0.1-0.3,0.2c0,0,0,0.1,0,0.1c0,0,0,0.1,0.1,0.1
					c0,0,0.1-0.1,0.1-0.1C8.8,31,8.9,31,9,30.9C9.1,30.8,9.2,30.7,9.1,30.5z"/>
				<path class="st2" d="M9.1,31.4c0,0.1,0.1,0.1,0.1,0.2c0.1,0.2,0.3,0.4,0.4,0.3c0.1,0,0.1-0.2,0-0.4c-0.1-0.2-0.3-0.4-0.6-0.3
					c-0.2,0.1-0.2,0.4,0,0.6c0.1,0.2,0.2,0.3,0.3,0.3c0.1,0,0.1,0,0-0.1c-0.1,0-0.2-0.1-0.3-0.2C9,31.7,8.9,31.5,9.1,31.4z
					 M9.5,31.5c0.1,0.1,0.1,0.2,0,0.3c-0.1,0.1-0.2-0.1-0.3-0.2c0,0-0.1-0.1-0.1-0.2C9.3,31.2,9.4,31.3,9.5,31.5z"/>
				<path class="st2" d="M10.1,32.4c0,0.1,0.1,0.1,0,0.1c0,0,0,0-0.1,0c0,0,0,0,0,0.1c0,0.1,0.1,0.1,0.2,0
					C10.3,32.6,10.3,32.5,10.1,32.4c0-0.1-0.1-0.2-0.2-0.1c0,0,0,0,0,0c0.1-0.1,0.1-0.1,0-0.2c0-0.1-0.1-0.1-0.1-0.1c0,0,0,0,0,0
					c0,0,0,0,0,0c0,0,0,0.1,0,0.1c-0.2,0.1-0.2,0.2-0.4,0.3c0,0,0,0.1,0,0.1c0,0,0.1,0.1,0.1,0.1c0-0.1,0.1-0.1,0.2-0.2
					C9.9,32.2,10.1,32.3,10.1,32.4z"/>
				<path class="st2" d="M10.8,33.5c0.2-0.2,0.1-0.4-0.1-0.5c-0.2-0.2-0.3-0.3-0.4-0.2c0,0-0.1,0.1,0,0.2c0,0,0.1,0.1,0.1,0.1
					c0-0.1,0-0.1,0-0.1c0.1-0.1,0.2,0,0.2,0.1c0.1,0.1,0.1,0.2,0,0.4c0,0,0,0,0,0c-0.1-0.1-0.2-0.2-0.3-0.2C10.2,33,10.1,32.9,10,33
					C9.9,33,9.9,33.2,10,33.3c0.1,0.2,0.3,0.2,0.5,0.2c0,0,0,0,0,0c-0.1,0.1-0.1,0.2,0,0.3c0.1,0.1,0.1,0.1,0.2,0.1c0,0,0,0,0,0
					c0,0-0.1,0-0.1,0c0,0,0-0.1,0-0.1C10.6,33.6,10.7,33.5,10.8,33.5z M10.1,33.3c-0.1-0.1-0.1-0.2,0-0.2c0.1,0,0.1,0,0.2,0.1
					c0.1,0.1,0.2,0.1,0.2,0.2C10.5,33.5,10.3,33.4,10.1,33.3z"/>
				<path class="st2" d="M11.4,33.3c-0.2,0.2-0.4,0.4-0.6,0.6c-0.1,0.1-0.1,0.2,0,0.2c0.1,0.1,0.1,0.1,0.2,0.1c0,0,0,0,0,0
					c0,0-0.1,0-0.1,0c0,0,0-0.1,0-0.1c0.1-0.1,0.3-0.3,0.4-0.4c0.1-0.1,0.1-0.2,0.2-0.2c0,0,0,0,0-0.1
					C11.4,33.3,11.4,33.3,11.4,33.3z"/>
				<path class="st2" d="M12.4,34.2c-0.1-0.1-0.2-0.2-0.3-0.2c0,0-0.1,0.1-0.1,0.1c-0.2,0.2-0.3,0.4-0.5,0.6c0,0,0,0.1,0,0.1
					c0.1,0.1,0.2,0.1,0.3,0.2c0.2,0.2,0.6,0.2,0.8-0.1C12.8,34.7,12.6,34.4,12.4,34.2z M12.5,34.8c-0.1,0.2-0.4,0.3-0.6,0.1
					c-0.1-0.1-0.1-0.1-0.2-0.1c0.2-0.2,0.3-0.5,0.5-0.7c0.1,0.1,0.1,0.1,0.2,0.1C12.6,34.4,12.6,34.6,12.5,34.8z"/>
				<path class="st2" d="M13,34.9C13,34.9,13,34.9,13,34.9c-0.1,0-0.1,0.1-0.1,0.1c-0.1,0.2-0.2,0.3-0.3,0.4c0,0,0,0.1,0,0.1
					c0,0,0.1,0,0.1,0c0,0,0-0.1,0.1-0.1C12.9,35.3,13,35.2,13,34.9C13.1,35,13.1,34.9,13,34.9z"/>
				<path class="st2" d="M13.1,34.8c0.1,0,0.1,0,0.1,0c0,0,0-0.1-0.1-0.1c0,0-0.1,0-0.1,0C13,34.7,13,34.8,13.1,34.8z"/>
				<path class="st2" d="M13.9,35.6c0-0.1,0-0.2-0.1-0.2c-0.1-0.1-0.2-0.1-0.3,0c0,0,0,0,0,0c0.1-0.1,0-0.2-0.1-0.2
					c-0.1,0-0.1,0-0.1,0c0,0,0,0,0,0.1c0,0,0,0,0.1,0c0,0,0,0,0,0.1c-0.1,0.2-0.1,0.3-0.2,0.4c0,0,0,0.1,0.1,0.1c0,0,0.1,0,0.1,0
					c0-0.1,0-0.1,0.1-0.3c0.1-0.2,0.2-0.2,0.3-0.2c0.1,0,0.1,0.1,0.1,0.1c0,0,0,0-0.1,0.1c0,0,0,0,0.1,0
					C13.8,35.6,13.9,35.6,13.9,35.6z"/>
				<path class="st2" d="M14.5,35.7c-0.2-0.1-0.5-0.1-0.6,0.1c-0.1,0.2,0.1,0.4,0.3,0.5c0.2,0.1,0.3,0.1,0.4,0c0,0,0-0.1,0-0.1
					c-0.1,0.1-0.2,0.1-0.3,0c-0.2-0.1-0.3-0.2-0.2-0.4c0.1,0,0.1,0.1,0.2,0.1c0.3,0.1,0.5,0.1,0.5,0C14.8,35.8,14.7,35.7,14.5,35.7z
					 M14.6,35.9c-0.1,0.1-0.2,0.1-0.4,0c0,0-0.1,0-0.1-0.1c0.1-0.2,0.2-0.2,0.4-0.2C14.5,35.7,14.6,35.8,14.6,35.9z"/>
				<path class="st2" d="M15.4,36c-0.2-0.1-0.5,0-0.6,0.2c-0.1,0.2,0.1,0.4,0.3,0.5c0.2,0,0.3,0,0.4,0c0,0,0-0.1,0-0.1
					c-0.1,0.1-0.2,0.1-0.3,0.1c-0.2-0.1-0.3-0.2-0.2-0.4C15.1,36,15.2,36,15.4,36c0.1,0.1,0.1,0.1,0.1,0.2c0,0,0,0.1-0.1,0.1
					c0,0,0.1,0,0.1,0.1c0.1,0,0.1,0,0.2-0.1C15.7,36.2,15.6,36.1,15.4,36z"/>
				<path class="st2" d="M16.2,36.2c0-0.1,0-0.1,0.1-0.1c0,0,0,0-0.1,0c-0.1,0-0.1,0-0.1,0c0,0,0,0.1,0,0.1c0,0-0.1,0-0.1,0
					c0,0,0,0-0.1,0c0,0,0,0,0,0c0,0,0.1,0,0.1,0c0,0,0,0,0,0c-0.1,0.2-0.1,0.3-0.1,0.5c0,0.1,0,0.2,0.2,0.2c0.1,0,0.2,0,0.2,0
					c0,0,0,0,0,0c0,0-0.1,0-0.1,0c-0.1,0-0.1-0.1-0.1-0.1c0-0.2,0.1-0.3,0.1-0.4C16.1,36.3,16.1,36.3,16.2,36.2
					c0.1,0.1,0.1,0.1,0.2,0.1c0,0,0,0,0,0c0,0,0,0,0,0C16.4,36.3,16.3,36.2,16.2,36.2C16.2,36.2,16.2,36.2,16.2,36.2z"/>
				<path class="st2" d="M16.9,36.4c-0.2,0-0.5,0-0.5,0.3c0,0.2,0.2,0.4,0.4,0.4c0.2,0,0.5,0,0.5-0.3C17.4,36.5,17.2,36.4,16.9,36.4
					z M17.2,36.8c0,0.2-0.1,0.3-0.3,0.3s-0.3-0.2-0.2-0.4c0-0.2,0.2-0.3,0.3-0.3C17.1,36.4,17.2,36.6,17.2,36.8z"/>
				<path class="st2" d="M18,36.5c-0.1,0-0.2,0-0.3,0.1c0,0,0,0,0,0c0-0.1,0-0.2-0.1-0.2c-0.1,0-0.1,0-0.1,0.1c0,0,0,0,0,0
					c0,0,0,0,0.1,0c0,0,0.1,0,0,0.1c0,0.2,0,0.3,0,0.5c0,0,0,0.1,0.1,0.1c0,0,0.1,0,0.1,0c0-0.1,0-0.1,0-0.3
					C17.8,36.6,17.9,36.5,18,36.5c0,0.1,0.1,0.1,0.1,0.2c0,0,0,0.1,0,0.1c0,0,0,0,0.1,0c0.1,0,0.1,0,0.1-0.1
					C18.3,36.6,18.2,36.5,18,36.5z"/>
				<path class="st2" d="M19.2,36.6C19.2,36.5,19.2,36.5,19.2,36.6c-0.1-0.1-0.2,0-0.2,0c0,0.1,0,0.1,0,0.3c0,0.2-0.1,0.3-0.3,0.3
					c-0.1,0-0.2-0.1-0.2-0.2c0-0.1,0-0.2,0-0.4c0,0,0-0.1-0.1-0.1c0,0-0.1,0-0.1,0c0,0,0,0.1,0,0.2c0,0.1,0,0.2,0,0.3
					c0,0.2,0.1,0.3,0.3,0.3c0.2,0,0.3-0.1,0.4-0.2c0,0,0,0.1,0,0.1c0,0.2-0.1,0.3-0.3,0.3c-0.1,0-0.2,0-0.2-0.1c0,0,0,0,0.1-0.1
					c0,0,0,0-0.1,0c-0.1,0-0.1,0-0.1,0.1c0,0.1,0.2,0.2,0.4,0.2c0.3,0,0.5-0.1,0.5-0.4C19.2,37,19.2,36.8,19.2,36.6z"/>
				<path class="st2" d="M20.3,36.4c-0.2,0-0.4,0.2-0.4,0.4c0,0.2,0.3,0.4,0.5,0.3c0.2,0,0.4-0.2,0.4-0.4
					C20.8,36.5,20.5,36.4,20.3,36.4z M20.4,37.1c-0.2,0-0.3-0.1-0.3-0.3s0.1-0.3,0.2-0.3c0.2,0,0.3,0.1,0.3,0.3
					C20.7,37,20.6,37.1,20.4,37.1z"/>
				<path class="st2" d="M21.3,36C21,36,21,36.2,21,36.3c0,0,0,0,0,0.1c0,0-0.1,0-0.1,0c0,0,0,0,0,0c0,0,0,0,0,0c0,0,0.1,0,0.1,0
					c0,0,0,0,0,0c0,0.2,0.1,0.4,0.1,0.6c0,0,0.1,0.1,0.1,0c0,0,0.1,0,0.1,0c0,0,0-0.1-0.1-0.1c0-0.2-0.1-0.3-0.1-0.5
					c0.1,0,0.1,0,0.2,0c0,0,0,0,0,0c0,0,0,0,0,0c0,0-0.1,0-0.2,0c0,0-0.1,0-0.1,0c0,0,0,0,0,0C21.1,36.2,21.1,36,21.3,36
					c0.1,0,0.1,0,0.1,0.1c0,0,0,0,0,0.1c0,0,0,0,0.1,0c0.1,0,0.1-0.1,0.1-0.1C21.5,36,21.4,35.9,21.3,36z"/>
				<path class="st2" d="M22.4,35.7c-0.1,0-0.3,0.1-0.4,0.1c0,0,0.1,0.1,0.1,0.2c0.1,0.2,0.2,0.5,0.2,0.7c0,0,0.1,0,0.1,0
					c0.1,0,0.2-0.1,0.3-0.1c0.3-0.1,0.5-0.4,0.4-0.7C23,35.7,22.7,35.6,22.4,35.7z M22.8,36.6c-0.1,0-0.1,0-0.2,0.1
					c-0.1-0.3-0.2-0.6-0.3-0.8c0.1,0,0.1,0,0.2-0.1c0.2-0.1,0.4,0.1,0.5,0.3C23.1,36.3,23,36.5,22.8,36.6z"/>
				<path class="st2" d="M24.2,35.8c0,0.1-0.1,0.2-0.2,0.2c-0.2,0.1-0.3,0.1-0.4-0.1c0.1,0,0.1,0,0.2-0.1c0.3-0.1,0.4-0.3,0.3-0.4
					c-0.1-0.1-0.2-0.1-0.4,0c-0.2,0.1-0.4,0.3-0.3,0.5c0.1,0.2,0.4,0.2,0.6,0.1C24.2,36.1,24.3,36,24.2,35.8
					C24.3,35.8,24.3,35.8,24.2,35.8z M23.7,35.5c0.1,0,0.2-0.1,0.2,0c0.1,0.1-0.1,0.2-0.2,0.3c0,0-0.1,0-0.1,0.1
					C23.5,35.7,23.5,35.6,23.7,35.5z"/>
				<path class="st2" d="M25.2,35.3c-0.1-0.1-0.1-0.1-0.2-0.2c-0.1-0.2-0.2-0.2-0.4-0.1c-0.1,0.1-0.2,0.2-0.2,0.3c0,0,0,0,0,0
					c-0.1-0.1-0.1-0.1-0.2-0.1c-0.1,0-0.1,0.1-0.1,0.1c0,0,0,0,0,0c0,0,0,0,0,0c0,0,0.1,0,0.1,0c0.1,0.2,0.2,0.3,0.3,0.5
					c0,0,0.1,0,0.1,0c0,0,0.1-0.1,0.1-0.1c-0.1,0-0.1-0.1-0.2-0.3c-0.1-0.2,0-0.4,0.1-0.4c0.1-0.1,0.2,0,0.3,0.1
					c0.1,0.1,0.1,0.2,0.2,0.3c0,0,0.1,0,0.1,0c0,0,0.1,0,0.1-0.1C25.3,35.4,25.3,35.3,25.2,35.3z"/>
				<path class="st2" d="M25.9,34.9C25.9,35,25.8,35,25.9,34.9C25.8,35,25.7,35,25.7,35c-0.1-0.1-0.2-0.2-0.3-0.4c0,0,0,0,0,0
					c0.1,0,0.1-0.1,0.2-0.1c0,0,0,0,0-0.1c0,0,0,0,0,0c0,0-0.1,0.1-0.1,0.1c0,0,0,0-0.1,0c0-0.1-0.1-0.1-0.1-0.1c0,0-0.1,0-0.1,0
					c0,0-0.1,0.1,0,0.1c0,0,0,0.1,0.1,0.1c0,0-0.1,0-0.1,0.1c0,0,0,0,0,0.1c0,0,0,0,0,0c0,0,0.1-0.1,0.1-0.1c0,0,0,0,0,0
					c0.1,0.2,0.2,0.3,0.3,0.4c0.1,0.1,0.2,0.1,0.3,0C25.9,35.1,25.9,35,25.9,34.9C25.9,34.9,25.9,34.9,25.9,34.9z"/>
				<path class="st2" d="M26.8,34.2C26.8,34.2,26.8,34.2,26.8,34.2c-0.1,0.1-0.1,0.1-0.1,0.1c-0.1-0.1-0.1-0.1-0.2-0.2
					c-0.1-0.2-0.4-0.1-0.5,0c-0.2,0.1-0.3,0.3-0.2,0.4c0,0.1,0.1,0.1,0.2,0c0,0,0.1-0.1,0.1-0.1c-0.1,0-0.1,0-0.1,0
					c-0.1-0.1,0-0.2,0.1-0.2c0.1-0.1,0.2-0.1,0.4,0c0,0,0,0,0,0c-0.1,0.1-0.2,0.2-0.2,0.2c-0.1,0.2-0.2,0.3-0.1,0.4
					c0.1,0.1,0.2,0.1,0.3,0c0.2-0.1,0.2-0.3,0.2-0.5c0,0,0,0,0,0c0.1,0.1,0.2,0.1,0.3,0C26.9,34.3,26.9,34.2,26.8,34.2
					C26.9,34.2,26.8,34.2,26.8,34.2z M26.3,34.6c-0.1,0.1-0.2,0.1-0.2,0c0-0.1,0-0.1,0.1-0.2c0.1-0.1,0.1-0.2,0.2-0.2
					C26.5,34.3,26.5,34.5,26.3,34.6z"/>
				<path class="st2" d="M27.2,33.8C27.2,33.8,27.2,33.8,27.2,33.8c-0.1,0.1-0.1,0.1-0.1,0.1c-0.1-0.1-0.3-0.3-0.4-0.4
					c-0.1-0.1-0.2-0.2-0.2-0.2c0,0-0.1,0-0.1,0c0,0-0.1,0.1,0,0.1c0.2,0.2,0.4,0.4,0.6,0.6c0.1,0.1,0.2,0.1,0.3,0
					C27.3,33.9,27.3,33.8,27.2,33.8C27.2,33.8,27.2,33.8,27.2,33.8z"/>
				<path class="st2" d="M27.7,31.9c0,0-0.1,0-0.1,0c0,0,0,0.1,0,0.1c0,0,0.1,0,0.1,0.1c0.1,0.1,0.1,0.1,0.2,0.2
					c-0.1,0.2-0.3,0.4-0.4,0.5c-0.1-0.1-0.2-0.1-0.3-0.2c0,0-0.1,0-0.1,0c0,0,0,0.1,0,0.1c0,0,0.1,0,0.1,0.1
					c0.2,0.2,0.4,0.3,0.6,0.5c0,0,0.1,0,0.1,0c0,0,0-0.1,0-0.1c0,0-0.1,0-0.1-0.1c-0.1-0.1-0.2-0.1-0.3-0.2c0.1-0.2,0.3-0.4,0.4-0.5
					c0.1,0.1,0.2,0.2,0.4,0.3c0,0,0.1,0,0.1,0c0,0,0-0.1,0-0.1c0,0-0.1,0-0.1-0.1C28.1,32.2,27.9,32.1,27.7,31.9z"/>
				<path class="st2" d="M28.9,31.3c0.1,0.1,0,0.2-0.1,0.4c-0.1,0.2-0.2,0.3-0.4,0.2c0-0.1,0.1-0.1,0.1-0.2c0.1-0.2,0.2-0.4,0.1-0.5
					c-0.1-0.1-0.3,0.1-0.4,0.2c-0.1,0.2-0.2,0.5,0.1,0.6c0.2,0.1,0.5,0,0.6-0.2C29,31.6,29,31.4,28.9,31.3
					C28.9,31.3,28.9,31.3,28.9,31.3z M28.3,31.4c0.1-0.1,0.1-0.2,0.2-0.1c0.1,0.1,0.1,0.2,0,0.4c0,0-0.1,0.1-0.1,0.1
					C28.2,31.7,28.2,31.6,28.3,31.4z"/>
				<path class="st2" d="M29.6,30.1C29.6,30.1,29.6,30.1,29.6,30.1C29.6,30.2,29.6,30.2,29.6,30.1c-0.1,0.1-0.1,0.2-0.2,0.1
					c-0.1,0-0.2-0.1-0.3-0.1c-0.2-0.1-0.4,0.1-0.5,0.3c-0.1,0.2-0.1,0.4,0,0.5c0.1,0,0.1,0,0.2-0.1c0,0,0-0.1,0-0.1
					c0,0.1-0.1,0.1-0.1,0c-0.1,0-0.1-0.2,0-0.3c0.1-0.2,0.2-0.2,0.3-0.2c0,0,0,0,0,0c-0.1,0.1-0.1,0.2-0.1,0.4
					c-0.1,0.2-0.1,0.4,0,0.4c0.1,0,0.2,0,0.3-0.2c0.1-0.1,0.1-0.4,0-0.5c0,0,0,0,0,0c0.1,0.1,0.2,0,0.2-0.1
					C29.6,30.2,29.6,30.1,29.6,30.1z M29.3,30.8c-0.1,0.1-0.1,0.1-0.2,0.1c-0.1,0-0.1-0.1-0.1-0.3c0-0.1,0.1-0.2,0.1-0.3
					C29.3,30.4,29.4,30.7,29.3,30.8z"/>
				<path class="st2" d="M29.8,29.5C29.8,29.5,29.8,29.5,29.8,29.5c0,0,0,0.1-0.1,0.1c0,0.1-0.1,0.1-0.1,0.1
					c-0.2-0.1-0.4-0.1-0.6-0.2c-0.1-0.1-0.2-0.1-0.3-0.1c0,0,0,0-0.1,0.1c0,0.1,0,0.1,0,0.1c0.3,0.1,0.5,0.2,0.8,0.3
					c0.1,0,0.2,0,0.2-0.2C29.9,29.6,29.9,29.6,29.8,29.5z"/>
				<path class="st2" d="M30,28.8C30,28.8,30,28.8,30,28.8c0,0,0,0.1-0.1,0.1c0,0.1-0.1,0.1-0.1,0.1c-0.2-0.1-0.3-0.1-0.4-0.1
					c0,0,0,0-0.1,0c0-0.1,0-0.1,0.1-0.2c0,0,0-0.1,0-0.1c0,0,0,0,0,0c0,0,0,0.2,0,0.2c0,0,0,0.1,0,0.1c-0.1,0-0.1,0-0.2-0.1
					c0,0,0,0-0.1,0.1c0,0.1,0,0.1,0,0.1c0,0,0.1,0,0.1,0c0,0,0,0.1,0,0.1c0,0,0,0,0,0.1c0,0,0,0,0,0c0,0,0-0.1,0-0.1c0,0,0,0,0,0
					c0.2,0.1,0.3,0.1,0.5,0.2c0.1,0,0.2,0,0.2-0.2C30.1,28.9,30.1,28.8,30,28.8z"/>
				<path class="st2" d="M30.4,27.5c0,0-0.1,0-0.2,0c-0.1,0-0.2,0-0.3,0c-0.2,0-0.3,0.1-0.4,0.3c0,0.2,0,0.3,0.1,0.4
					c-0.1,0-0.1,0-0.2-0.1c-0.1,0-0.2,0-0.2-0.1c0,0,0,0.1-0.1,0.1c0,0.1,0,0.1,0,0.1c0.3,0.1,0.6,0.2,0.9,0.2c0,0,0.1,0,0.1-0.1
					c0-0.1,0-0.1,0-0.1c-0.1,0-0.1,0-0.3,0c-0.2-0.1-0.3-0.3-0.3-0.4c0-0.2,0.1-0.2,0.3-0.2c0.2,0,0.2,0,0.4,0.1c0,0,0.1,0,0.1-0.1
					C30.4,27.5,30.4,27.5,30.4,27.5z"/>
			</g>
		</g>
		
			<linearGradient id="SVGID_3_" gradientUnits="userSpaceOnUse" x1="15.0599" y1="52.7216" x2="22.8102" y2="52.7216" gradientTransform="matrix(1 0 0 -1 0 77.3542)">
			<stop  offset="0" style="stop-color:#CD010B"/>
			<stop  offset="1" style="stop-color:#D94048"/>
		</linearGradient>
		<path class="st5" d="M21.8,24.9c0,0-0.1-0.1-0.1-0.1c-0.1-0.1-0.5-0.3-1-0.5c0,0-0.1,0-0.2-0.1c0.5,0.4,0.9,0.9,1.2,1.5
			c0.7,1.4,0.1,3-1.3,3.7c-0.2,0.1-0.2,0-0.2-0.1c0-0.2,0-0.3,0.1-0.5c0.1-0.3,0.2-0.5,0.3-0.8c0.1-0.6-0.2-1.1-0.3-1.2
			c-0.1-0.1-0.3-0.4-0.7-0.6c-0.4-0.1-0.7-0.1-0.8-0.1c-0.3,0.1-0.5,0.2-0.5,0.2c-0.1,0.1-0.2,0.1-0.2,0.2c-0.2,0.3-0.4,0.7-0.4,1.1
			c0,0.3,0,0.7,0.1,1c0,0.1,0,0.2,0,0.2c-0.1,0-0.2,0-0.2-0.1c-0.4-0.3-0.7-0.6-1-0.9c-0.4-0.6-0.6-1.3-0.5-2
			c0.1-0.3,0.2-0.4,0.3-0.9c0-0.2,0.1-0.3,0.1-0.4c0,0-0.1-0.1-0.1-0.1c-0.3-0.4-1.1-1.3-1.2-2.5c-0.1-0.7,0.2-1.3,0.9-1.7
			c0.6-0.3,1.1-0.4,1.8-0.4c0.4,0,1,0,1.7,0.1c0,0.1,0,0.2-0.1,0.3c-0.1,0.2-0.3,0.3-0.4,0.5c0,0,0,0.1-0.1,0.1c0,0,0,0,0,0
			c0,0,0,0,0.1-0.1c0.2-0.2,0.5-0.3,0.8-0.4c0.7-0.3,1.4-0.2,2.1,0.1c0.6,0.3,0.9,0.7,1,1.4c0.1,0.5,0,0.9-0.1,1.3
			c0,0.1-0.1,0.4-0.3,0.8C22.2,24.4,22,24.7,21.8,24.9z"/>
		<g>
			<path class="st2" d="M22.5,17.4c-0.1-0.3-0.3-0.2-0.3-0.2c0,0,0,0-0.1,0c0,0,0,0,0-0.1c0-0.1,0-0.1,0-0.1
				c-0.1-0.1-0.4-0.1-0.6-0.1v0C20.4,17,19.4,17,18.6,17c-1.4,0-2.2-0.1-2.3-0.1l0,0c-0.1,0-0.5,0-0.6,0.1c0,0,0,0.1,0,0.1
				c0,0,0,0,0,0.1c0,0,0,0-0.1,0c-0.1,0-0.2,0-0.3,0.2c0,0,0,0,0,0c0,0,0,0-0.1,0l0,0c0,0,0,0,0,0.1c0,0,0,0.2,0.2,0.3
				c0,0,0,0,0,0.1c0,0,0,0.1,0,0.1c0,0,0.1,0.1,0.2,0.1c0,0,0,0,0,0c0,0,0,0,0.1,0c0.3,0.1,1,0.3,3.1,0.3c2.1,0,2.8-0.2,3.1-0.3
				c0,0,0.1,0,0.1,0c0,0,0,0,0,0c0.1,0,0.1-0.1,0.2-0.1c0-0.1,0-0.1,0-0.1c0,0,0-0.1,0-0.1c0.2-0.1,0.2-0.3,0.2-0.3
				C22.5,17.5,22.6,17.5,22.5,17.4L22.5,17.4C22.6,17.4,22.6,17.4,22.5,17.4C22.5,17.4,22.5,17.4,22.5,17.4"/>
			<path class="st6" d="M22.6,17.5C22.6,17.5,22.5,17.5,22.6,17.5c0,0.1,0,0.2-0.3,0.4c0,0,0,0,0,0.1c0,0,0,0.1,0,0.1
				c0,0-0.1,0.1-0.2,0.1c0,0,0,0,0,0c0,0,0,0-0.1,0c-0.3,0.1-1,0.3-3.1,0.3c-2.1,0-2.8-0.2-3.1-0.3c0,0,0,0-0.1,0c0,0,0,0,0,0
				c-0.1,0-0.1-0.1-0.2-0.1c0-0.1,0-0.1,0-0.1c0,0,0-0.1,0-0.1c-0.2-0.1-0.2-0.3-0.2-0.3c0,0,0,0,0-0.1l0,0c0,0,0.1,0,0.1,0
				c0,0,0,0,0,0c0.1-0.3,0.3-0.2,0.3-0.2c0,0,0,0,0.1,0c0,0,0,0,0-0.1c0-0.1,0-0.1,0-0.1c0.1-0.1,0.4-0.1,0.6-0.1l0,0
				c0.1,0,0.9,0.1,2.3,0.1c0.8,0,1.7,0,2.9-0.1v0c0.1,0,0.5,0,0.6,0.1c0,0,0,0.1,0,0.1c0,0,0,0,0,0.1c0,0,0,0,0.1,0
				C22.2,17.1,22.4,17.1,22.6,17.5C22.5,17.4,22.5,17.4,22.6,17.5C22.5,17.4,22.6,17.4,22.6,17.5L22.6,17.5z M22.7,17.4
				c-0.1,0-0.1,0-0.1,0c-0.1-0.3-0.3-0.3-0.4-0.3c0-0.1,0-0.1,0-0.2c-0.2-0.2-0.6-0.1-0.7-0.1v0c-3.5,0.3-5.2,0-5.2,0v0
				c-0.1,0-0.5,0-0.6,0.1c0,0-0.1,0.1,0,0.2c-0.1,0-0.3,0-0.4,0.3c0,0,0,0-0.1,0c0,0,0,0,0,0.1c0,0,0,0.1,0,0.1l0.1,0
				c0,0.1,0,0.2,0.2,0.4c0,0,0,0.1,0,0.2c0,0.1,0.1,0.1,0.2,0.2c0,0,0,0,0,0c0,0,0,0,0.1,0c0.4,0.1,1,0.3,3.2,0.3v0v0
				c2.1,0,2.8-0.2,3.2-0.3c0,0,0,0,0.1,0c0,0,0,0,0,0c0.1,0,0.2-0.1,0.2-0.2c0-0.1,0-0.2,0-0.2c0.2-0.1,0.2-0.3,0.2-0.4l0.1,0
				C22.8,17.5,22.8,17.5,22.7,17.4C22.8,17.4,22.7,17.4,22.7,17.4"/>
			<path class="st6" d="M18.9,9v0.6h-0.3l-0.1,0.1c0,0-0.6,0.5-1.5,0.1c0,0-0.2-0.1-0.4-0.2c0,0-0.8-0.5-1.3-0.3
				c0,0-0.3,0.1-0.4,0.5c0,0,0,0.2,0,0.5l-0.3,6.2l0,0.2c0,0,0,0.1,0.1,0l2.2-1.9l-0.4,1.5l-0.1,0.4l2.3,0.3h0.3h0.3l2.3-0.3
				l-0.1-0.4L21,15l2.2,1.9c0.1,0.1,0.1,0,0.1,0l0-0.2L23,10.4c0-0.3,0-0.5,0-0.5c-0.1-0.4-0.4-0.5-0.4-0.5
				c-0.6-0.2-1.3,0.3-1.3,0.3c-0.2,0.1-0.4,0.2-0.4,0.2c-0.9,0.3-1.5-0.1-1.5-0.1l-0.1-0.1H19V9"/>
			<path class="st2" d="M18.6,14.4c0,0-0.1-0.1-0.2-0.2l-0.2,0.2l0.2,0.6"/>
			<path class="st2" d="M17.8,13.9l0.2-0.1c-0.1-0.1-0.1-0.2-0.2-0.3"/>
			<path class="st2" d="M17.9,14l0.1,0.6l0.4-0.5c-0.1-0.1-0.2-0.2-0.3-0.3"/>
			<path class="st2" d="M17.8,14l-0.1-0.6c-0.1-0.1-0.1-0.2-0.2-0.3l-0.3,1l0.1,0.3"/>
			<polyline class="st2" points="18.2,16.2 18.4,15.2 18.1,15.7 			"/>
			<polyline class="st2" points="17.1,16.1 17.5,15.6 17.7,16.1 18,15.7 17.8,15 17.5,15.4 17.3,14.9 16.9,15.3 			"/>
			<polyline class="st2" points="16.9,15.2 17.4,14.8 17.5,15.3 17.9,14.9 18,15.6 18.4,15.1 18.2,14.4 17.9,14.8 17.8,14.1 
				17.3,14.5 17.2,14.2 			"/>
			<path class="st2" d="M19.3,14.4l0.1,0.7l0.2-0.6l-0.2-0.2C19.4,14.3,19.3,14.4,19.3,14.4"/>
			<path class="st2" d="M20,13.9l0-0.4c-0.1,0.1-0.1,0.2-0.2,0.3"/>
			<path class="st2" d="M19.5,14.1l0.4,0.5L20,14l-0.2-0.2C19.7,14,19.6,14.1,19.5,14.1"/>
			<path class="st2" d="M20.3,13.1c-0.1,0.1-0.1,0.2-0.2,0.3L20.1,14l0.4,0.4l0.1-0.3"/>
			<polyline class="st2" points="19.7,16.2 19.8,15.7 19.4,15.2 			"/>
			<polyline class="st2" points="20,15 19.9,15.7 20.2,16.1 20.4,15.6 20.8,16.1 21,15.3 20.5,14.9 20.4,15.4 			"/>
			<polyline class="st2" points="21,15.4 20.8,16.2 21.2,16.6 21.1,16.7 20.8,16.2 20.6,16.7 20.6,16.9 20.3,16.5 20.1,16.8 
				20.1,16.8 20.3,16.3 20.6,16.8 20.6,16.7 20.7,16.2 20.4,15.7 20.2,16.3 19.9,15.7 19.7,16.4 19.8,16.8 19.8,16.9 19.8,16.9 
				19.7,16.8 19.7,16.5 19.5,16.7 19.3,16.5 19.1,15 19.1,16.5 18.9,16.8 18.7,16.5 18.8,15 18.6,16.5 18.3,16.7 18.2,16.5 
				18.1,16.8 18.1,16.9 18,16.9 18.1,16.8 18.1,16.4 18,15.7 17.6,16.3 17.5,15.7 17.1,16.2 17.3,16.7 17.3,16.8 17.6,16.3 
				17.8,16.8 17.7,16.8 17.6,16.5 17.3,16.9 17.2,16.7 17.1,16.2 16.8,16.7 16.7,16.6 17.1,16.2 16.8,15.4 16.5,16.5 16.5,16.8 
				18.5,17 18.7,17 18.8,17 18.9,17 19,17 19.2,17 19.3,17 21.4,16.8 21.4,16.5 			"/>
			<polyline class="st2" points="20,14.8 19.7,14.4 19.5,15.1 19.8,15.6 20,14.9 20.4,15.3 20.5,14.8 21,15.2 20.7,14.2 20.5,14.5 
				20.1,14.1 			"/>
			<path class="st2" d="M17,14.7l0.2-0.7l0.1-1.8c-0.1-0.2-0.1-0.4-0.1-0.6"/>
			<path class="st2" d="M20.7,14.1l0.2,0.7l-0.1-3c0,0.2-0.1,0.4-0.1,0.6"/>
			<path class="st2" d="M22.9,10.1c0-0.5-0.3-0.6-0.4-0.6c0,0,0,0,0,0c-0.5-0.1-1.2,0.3-1.2,0.3c-0.2,0.1-0.4,0.2-0.4,0.2
				c-0.9,0.3-1.4-0.1-1.4-0.1l-0.1-0.1h-0.2H19h-0.1h-0.1h-0.1h-0.2l-0.1,0.1c0,0-0.5,0.5-1.4,0.1c0,0-0.2-0.1-0.4-0.2
				c0,0-0.7-0.4-1.2-0.3c0,0,0,0,0,0c-0.1,0-0.3,0.1-0.4,0.6l0.4-0.2l-0.3,6.5l0.2-0.1l0.3-6.2l0.4,0.4l-0.2,5.4l0.2-0.2l0.2-5.1
				l0.3,0.3l-0.2,4.5l0.2-0.2l0.2-4.3L17,11c0,0,0-0.1,0-0.1c1.4,0.1,1.9-0.5,1.9-0.5s0.5,0.5,1.9,0.5c0,0,0,0,0,0.1l0.3-0.1
				l0.2,4.3l0.2,0.2l-0.2-4.5l0.3-0.3l0.2,5.1l0.2,0.2l-0.2-5.4l0.4-0.4l0.3,6.2l0.2,0.1l-0.3-6.5"/>
			<path class="st2" d="M20.7,11c-1.3,0-1.8-0.5-1.8-0.5s-0.4,0.5-1.8,0.5c0,0-0.1,2.2,1.8,3.4C20.8,13.2,20.7,11,20.7,11"/>
			<path class="st6" d="M20.6,11.1c-1.3,0-1.7-0.4-1.7-0.4s-0.4,0.5-1.7,0.4c0,0-0.1,2.1,1.7,3.3C20.8,13.2,20.6,11.1,20.6,11.1"/>
			<path class="st7" d="M20.5,11.2c-1.2,0-1.6-0.4-1.6-0.4s-0.4,0.5-1.6,0.4c0,0-0.1,2,1.6,3.1C20.7,13.1,20.5,11.2,20.5,11.2"/>
			<path class="st8" d="M17.3,11.2c0,0-0.1,1.4,0.9,2.5v-2.6C18,11.2,17.7,11.2,17.3,11.2"/>
			<path class="st2" d="M18.9,14.3c0.3-0.2,0.5-0.4,0.7-0.6v-2.6c-0.5-0.1-0.7-0.3-0.7-0.3s-0.2,0.2-0.7,0.3v2.6
				C18.4,13.9,18.7,14.1,18.9,14.3"/>
			<path class="st6" d="M16,16.5c0,0-0.5,0-0.3,0.5c0,0,0.1-0.1,0.3-0.1c0,0,0.6,0.1,1,0.2c0,0,0,0.1,0.1,0.1c0,0,0.1,0.1,0.1,0.2
				c0,0,0-0.1,0.1-0.2c0,0,0,0,0.1-0.1c0,0,0.4,0.1,1.1,0c0,0,0,0,0.1,0.1c0,0,0.2,0.1,0.2,0.2c0,0,0.2-0.1,0.2-0.3
				c0,0,0-0.2-0.2-0.2c0,0-0.1-0.1-0.2-0.1c0,0-0.2,0.1-1.2-0.1c0,0-0.3,0-1.1-0.2C16.2,16.5,16.1,16.4,16,16.5"/>
			<path class="st2" d="M17.2,17.3C17.2,17.3,17.2,17.2,17.2,17.3c0.1-0.1,0.2-0.2,0.2-0.3c0,0,0-0.2-0.1-0.2c0,0-0.1,0-0.2,0.1
				c0,0,0,0.1,0,0.1c0,0,0,0.1,0.1,0.1C17.1,17.2,17.2,17.2,17.2,17.3"/>
			<path class="st2" d="M18.7,16.9c0,0,0,0.1-0.1,0.1c0,0-0.1,0.1,0,0.1c0,0,0.1,0.1,0.2,0.2C18.7,17.4,18.9,17.1,18.7,16.9
				C18.8,17,18.7,16.9,18.7,16.9"/>
			<path class="st2" d="M15.9,16.6C15.9,16.6,15.9,16.6,15.9,16.6c0,0.1,0,0.2,0,0.2c0,0,0,0.1-0.1,0.1c0,0-0.1,0-0.2,0.1
				C15.7,16.9,15.6,16.7,15.9,16.6C15.8,16.6,15.9,16.5,15.9,16.6"/>
			<path class="st2" d="M18.4,17c0,0-0.2,0-0.3,0c0,0-0.1,0-0.1,0c0,0,0,0,0.1,0C18.2,16.9,18.3,16.9,18.4,17
				C18.4,16.9,18.5,17,18.4,17 M17.9,17h-0.4c0,0,0,0,0,0c0-0.1,0.2-0.1,0.2-0.1C17.8,16.9,17.9,16.9,17.9,17
				C17.9,17,17.9,17,17.9,17 M17,16.9C16.9,16.9,16.9,16.9,17,16.9c-0.2,0-0.3-0.1-0.3-0.1c0,0-0.1,0-0.1,0c0,0,0,0,0,0
				c0.1,0,0.3,0,0.3,0C17,16.8,17,16.9,17,16.9 M16.3,16.7c-0.1,0-0.2-0.1-0.2-0.1l-0.1,0c0,0,0,0,0,0
				C16.4,16.6,16.4,16.7,16.3,16.7C16.4,16.8,16.3,16.7,16.3,16.7 M18.6,16.9C18.6,16.9,18.5,16.8,18.6,16.9
				c-0.1-0.1-0.1-0.1-0.2-0.1c0,0-1.2,0.1-2.2-0.3c0,0-0.1-0.1-0.2,0c0,0-0.1,0.1,0,0.2c0,0,0,0,0.1,0c0,0,0.2,0.1,0.9,0.2
				c0,0,0-0.3,0.2-0.3c0,0,0.2,0,0.2,0.3c0,0,0.4,0,1,0c0,0,0,0,0.1-0.1C18.5,17,18.5,17,18.6,16.9C18.6,16.9,18.6,16.9,18.6,16.9"
				/>
			<path class="st6" d="M21.9,16.5c0,0,0.5,0,0.3,0.5c0,0-0.1-0.1-0.3-0.1c0,0-0.6,0.1-1,0.2c0,0,0,0.1-0.1,0.1c0,0-0.1,0.1-0.1,0.2
				c0,0,0-0.1-0.1-0.2c0,0,0,0-0.1-0.1c0,0-0.4,0.1-1.1,0c0,0,0,0-0.1,0.1c0,0-0.2,0.1-0.2,0.2c0,0-0.2-0.1-0.2-0.3
				c0,0,0-0.2,0.2-0.2c0,0,0.1-0.1,0.2-0.1c0,0,0.2,0.1,1.2-0.1c0,0,0.3,0,1.1-0.2C21.7,16.5,21.8,16.4,21.9,16.5"/>
			<path class="st2" d="M20.7,17.3C20.7,17.3,20.6,17.2,20.7,17.3c-0.1-0.1-0.2-0.2-0.2-0.3c0,0,0-0.2,0.1-0.2c0,0,0.1,0,0.2,0.1
				c0,0,0,0.1,0,0.1c0,0,0,0.1-0.1,0.1C20.7,17.2,20.7,17.2,20.7,17.3"/>
			<path class="st2" d="M19.2,16.9c0,0,0,0.1,0.1,0.1c0,0,0.1,0.1,0,0.1c0,0-0.1,0.1-0.2,0.2C19.1,17.4,19,17.1,19.2,16.9
				C19.1,17,19.2,16.9,19.2,16.9"/>
			<path class="st2" d="M21.9,16.6C21.9,16.6,21.9,16.6,21.9,16.6c0,0.1,0,0.2,0,0.2c0,0,0,0.1,0.1,0.1c0,0,0.1,0,0.2,0.1
				C22.2,16.9,22.2,16.7,21.9,16.6C22,16.6,21.9,16.5,21.9,16.6"/>
			<path class="st2" d="M19.5,16.9c0.1,0,0.2,0,0.2,0c0.1,0,0.1,0,0.1,0c0,0.1-0.1,0-0.1,0C19.7,17,19.5,17,19.5,16.9
				C19.4,17,19.5,16.9,19.5,16.9 M20,17c0,0,0.1-0.1,0.2-0.1c0,0,0.2,0,0.2,0.1c0,0,0,0,0,0L20,17C20,17,20,17,20,17 M21,16.8
				c0,0,0.2-0.1,0.3,0c0,0,0,0,0,0c0,0-0.1,0-0.1,0C21.1,16.8,21,16.8,21,16.8c0,0.1-0.1,0.1-0.1,0.1C20.9,16.9,20.9,16.8,21,16.8
				 M21.4,16.7c0,0,0.1-0.1,0.3-0.1c0,0,0,0,0,0l-0.1,0C21.7,16.7,21.6,16.7,21.4,16.7C21.5,16.7,21.4,16.8,21.4,16.7 M19.3,16.9
				c0.1,0,0.1,0.1,0.1,0.1c0,0.1,0.1,0.1,0.1,0.1c0.6,0,1,0,1,0c0-0.3,0.2-0.3,0.2-0.3c0.2,0,0.2,0.3,0.2,0.3
				c0.7-0.1,0.9-0.2,0.9-0.2c0.1,0,0.1,0,0.1,0c0.1-0.1,0-0.2,0-0.2c-0.1-0.1-0.2,0-0.2,0c-1,0.3-2.2,0.3-2.2,0.3
				c-0.1,0-0.1,0-0.1,0C19.3,16.8,19.3,16.9,19.3,16.9C19.2,16.9,19.3,16.9,19.3,16.9"/>
			<path class="st6" d="M18.3,8.2c0,0,0.3,0.4-0.2,1.4c0,0-0.1,0.2-0.5,0.7c0,0,0.3,0,0.6-0.2l-0.1,0.3c0,0,0.1,0,0.5-0.3l0.3,0.3
				l0.2-0.3c0,0,0.2,0.2,0.6,0.2c0,0,0-0.1,0-0.2c0,0,0.2,0.1,0.5,0.1c0,0-0.2-0.1-0.4-0.5c0,0-0.1-0.2-0.1-0.5c0,0,0-0.3,0-0.6
				c0,0,0-0.7-0.3-0.9c0,0-0.2-0.1-0.7-0.2c0,0-0.2,0-0.2,0.1c0,0-0.3-0.1-0.5-0.1c0,0-0.3,0-0.3,0.3c0,0,0,0.1,0.1,0.2
				c0,0,0,0,0.1,0c0,0,0,0,0.1,0C18.1,7.9,18.2,7.9,18.3,8.2"/>
			<path class="st2" d="M18.9,7.8C18.9,7.8,18.9,7.9,18.9,7.8c-0.1,0.1-0.2,0-0.2,0S18.8,7.7,18.9,7.8C18.9,7.7,18.9,7.8,18.9,7.8"
				/>
			<path class="st2" d="M19.6,10C19.6,10,19.6,10,19.6,10L19.6,10c-0.1-0.1-0.1-0.3-0.2-0.6l-0.1-0.6l0.1,0l0.1,0.6
				C19.5,9.8,19.6,10,19.6,10c0.1,0.1,0.2,0.1,0.5,0.1c0,0-0.2-0.3-0.4-0.8c0,0,0-0.2,0-0.5c0,0,0.1-0.5,0-0.8c0,0-0.1-0.2-0.2-0.2
				c0,0-0.1,0-0.2,0c-0.1,0-0.1,0-0.2,0.1c0,0,0,0-0.1,0.1c0,0,0,0,0,0.1c0,0,0,0-0.1,0c0,0-0.1,0-0.1,0c0,0,0-0.1-0.1-0.1
				c0,0,0,0-0.2-0.1c0,0-0.2-0.2-0.3-0.2c0,0-0.1,0-0.2,0c0,0-0.1,0-0.1,0.1c0,0,0,0.1,0,0.1c0,0,0,0,0,0c0,0,0.1-0.2,0.1-0.2
				c0,0,0.1,0,0.2,0c0,0,0,0,0.3,0.2c0,0,0,0,0.1,0.2c0,0,0,0,0,0c0,0-0.2,0-0.2,0c0,0,0.1,0.4-0.1,1c0,0-0.1,0.4-0.5,0.9
				c0,0,0.2,0,0.5-0.2l0,0c0,0,0.1,0,0.2-0.4c0,0,0.1-0.3,0.2-0.8l0.1,0c-0.1,0.5-0.2,0.8-0.2,0.8c-0.1,0.3-0.2,0.4-0.2,0.4
				l-0.1,0.3c0,0,0.2-0.1,0.4-0.3c0-0.1,0.1-0.2,0.1-0.5l0.1-0.8l0.1,0l-0.1,0.8c0,0.3-0.1,0.4-0.1,0.5l0,0l0.2,0.2l0.2-0.2l0,0
				l-0.1-1.2l0.1,0l0.1,1.2c0,0,0.2,0.2,0.5,0.2C19.7,10.3,19.7,10.2,19.6,10C19.6,10,19.6,10,19.6,10"/>
			<path class="st6" d="M16.1,17.6L16.1,17.6c-0.1,0-0.1,0-0.1,0H16.1C16.1,17.5,16.1,17.5,16.1,17.6C16.1,17.5,16.1,17.6,16.1,17.6
				 M16.7,17.5c0,0,0,0-0.1,0.1c0,0,0,0,0,0c0,0,0,0,0,0c0,0,0,0,0,0.1c0,0,0,0,0,0l-0.1,0c0,0,0,0,0,0l0.1-0.2c0,0,0-0.1-0.1,0
				c0,0,0,0-0.1,0c0,0-0.1,0,0,0c0,0,0,0,0,0l0,0.1c0,0,0,0-0.1,0l-0.1,0c0,0,0,0,0,0c0,0,0-0.1,0-0.1l0.1-0.3c0,0,0-0.1,0-0.1
				c0,0,0,0,0,0c0,0,0,0,0,0h-0.1c0,0-0.1,0-0.1,0c0,0,0,0.1,0.1,0.1c0,0,0,0,0,0c0,0,0,0,0,0c0,0,0,0,0,0c0,0,0,0.1-0.1,0.2
				c0,0,0,0-0.1,0c0,0-0.1,0-0.1,0.1c0,0-0.1,0.1,0,0.1c0,0,0,0,0.1,0l0.6,0.2c0,0,0.1,0,0.2-0.1L16.7,17.5
				C16.8,17.5,16.8,17.4,16.7,17.5"/>
			<path class="st6" d="M16.1,17.3C16.1,17.3,16.1,17.4,16.1,17.3c-0.1,0.1-0.1,0-0.1,0S16,17.3,16.1,17.3
				C16.1,17.3,16.1,17.3,16.1,17.3"/>
			<path class="st6" d="M16.1,17.8C16.1,17.8,16.1,17.8,16.1,17.8c-0.1,0.1-0.1,0-0.1,0S16,17.7,16.1,17.8
				C16.1,17.7,16.1,17.8,16.1,17.8"/>
			<path class="st6" d="M16.3,17.8C16.3,17.9,16.3,17.9,16.3,17.8c-0.1,0.1-0.1,0-0.1,0C16.2,17.8,16.2,17.8,16.3,17.8
				C16.3,17.8,16.3,17.8,16.3,17.8"/>
			<path class="st6" d="M16.5,17.9C16.5,17.9,16.5,17.9,16.5,17.9c-0.1,0.1-0.1,0-0.1,0C16.4,17.9,16.5,17.8,16.5,17.9
				C16.5,17.8,16.5,17.9,16.5,17.9"/>
			<path class="st6" d="M17.4,17.7c0,0-0.1,0-0.1,0c0,0,0,0,0,0c0,0,0,0,0,0C17.3,17.6,17.3,17.6,17.4,17.7
				C17.3,17.6,17.4,17.6,17.4,17.7C17.4,17.7,17.4,17.7,17.4,17.7C17.4,17.7,17.4,17.7,17.4,17.7 M17.8,17.4
				C17.8,17.4,17.8,17.4,17.8,17.4c-0.1,0-0.1,0.1-0.1,0.1c0,0,0,0,0,0l0,0c0,0,0,0,0,0L17.6,18c0,0,0,0,0,0h-0.1c0,0,0,0,0,0v-0.1
				c0,0,0,0,0,0l0,0l0,0c0,0,0,0,0,0l0,0c0,0,0,0,0,0h0.1c0,0,0,0,0,0c0,0,0,0,0,0c0,0,0-0.1,0-0.1c0,0,0,0,0,0c0,0-0.1-0.1-0.1-0.1
				c0-0.1-0.1-0.1-0.1-0.1c-0.1,0-0.1,0.1-0.1,0.1c0,0.1-0.1,0.1-0.1,0.1c-0.1,0-0.1,0.1-0.1,0.1c0,0.1,0.1,0.1,0.1,0.1
				c0.1,0,0,0,0,0c-0.1,0.1-0.2,0-0.2,0c-0.1,0-0.1-0.1-0.1-0.1c0-0.1,0-0.1,0-0.1c0,0,0,0,0,0c0,0,0,0,0,0c0,0,0,0.1,0,0.1
				c0,0,0,0,0,0l0,0.1c0,0.1-0.1,0.1-0.1,0.1l-0.1,0c0,0,0,0.1,0,0.1l0.2,0c0.1,0,0.1-0.1,0.1-0.1c0,0,0.1,0,0.1,0
				c0.1,0,0.1,0,0.1,0c0.1,0,0.1,0,0.1,0c0.1-0.1,0.1,0,0.1,0c0,0.1,0.1,0.1,0.1,0.1c0.1,0,0.1,0,0.1,0.1c0,0.1,0.2,0.1,0.2,0.1
				c0.1,0,0.1-0.2,0.1-0.2L17.8,17.4C17.8,17.4,17.8,17.4,17.8,17.4"/>
			<path class="st6" d="M17.9,17.4l-0.1,0.5c0,0,0,0.1,0,0.1c0,0,0.1,0,0.1,0c0,0,0,0,0-0.1c0,0,0-0.2,0-0.4c0,0,0,0,0,0
				c0,0,0,0,0,0c0,0,0,0,0,0C18,17.5,18,17.4,17.9,17.4C17.9,17.4,17.9,17.4,17.9,17.4C17.9,17.4,17.9,17.4,17.9,17.4"/>
			<path class="st6" d="M19.2,18L19.2,18C19.1,18,19.1,17.9,19.2,18L19.2,18C19.2,17.9,19.2,17.9,19.2,18
				C19.2,17.9,19.2,17.9,19.2,18C19.2,18,19.2,18,19.2,18 M18.9,18.1C18.9,18.1,18.8,18.1,18.9,18.1L18.9,18.1c0-0.1,0-0.1-0.1-0.1
				l-0.3,0c0,0-0.1,0-0.1,0c0,0,0,0,0.1,0h0.3c0,0,0,0,0,0L18.9,18.1C18.9,18.1,18.9,18.1,18.9,18.1 M19.3,17.8
				C19.3,17.8,19.3,17.8,19.3,17.8c0,0-0.1,0-0.1,0l-0.1,0.1c0,0,0,0,0,0.1c0,0,0,0,0,0c0,0,0,0-0.1,0c0,0,0-0.1-0.1-0.1l-0.4,0
				c0,0-0.1,0-0.1,0l0-0.1c0,0,0,0,0,0c0,0-0.1,0-0.1,0.1c0,0,0,0,0,0.1c0,0,0,0,0,0.1l0,0c0,0,0,0,0,0c0,0,0,0-0.1,0
				c0,0,0-0.1-0.1-0.2c0,0,0,0-0.1,0c0,0-0.1,0.1,0,0.1c0,0,0.1,0.1,0,0.2c0,0,0,0.1-0.1,0.1h-0.1c0,0,0,0,0,0c0,0,0.2,0,0.2,0
				c0,0,0.1,0,0.1-0.1c0,0,0,0,0.1,0l0.4,0c0,0,0,0,0,0c0,0,0,0.1,0.1,0.1c0,0,0.1,0,0.1-0.1c0,0,0,0,0-0.1c0,0,0,0,0,0h0.3
				c0,0,0,0,0,0C19.3,18,19.4,17.9,19.3,17.8"/>
			<path class="st6" d="M19.5,17.5C19.5,17.6,19.5,17.6,19.5,17.5c-0.1,0.1-0.1,0-0.1,0C19.4,17.5,19.4,17.5,19.5,17.5
				C19.5,17.5,19.5,17.5,19.5,17.5"/>
			<path class="st6" d="M19.5,17.7C19.5,17.7,19.5,17.7,19.5,17.7c-0.1,0.1-0.1,0-0.1,0S19.5,17.6,19.5,17.7
				C19.5,17.6,19.5,17.7,19.5,17.7"/>
			<path class="st6" d="M19.7,18.2C19.7,18.2,19.7,18.2,19.7,18.2c-0.1,0.1-0.1,0-0.1,0S19.6,18.1,19.7,18.2
				C19.7,18.1,19.7,18.1,19.7,18.2"/>
			<path class="st6" d="M19.9,18.1C19.9,18.2,19.8,18.2,19.9,18.1c-0.1,0.1-0.1,0-0.1,0S19.8,18.1,19.9,18.1
				C19.8,18.1,19.9,18.1,19.9,18.1"/>
			<path class="st6" d="M20.1,17.8C20.1,17.8,20.1,17.8,20.1,17.8c0.1,0,0.1,0.1,0.1,0.1c0,0,0,0.1,0,0.1c0,0,0,0-0.1,0.1
				c0,0,0,0,0,0c0,0,0,0,0,0c0,0,0.1,0,0.2-0.1c0,0,0.1-0.1,0-0.2c0,0,0-0.1-0.1-0.1c0,0,0,0,0,0C20.1,17.7,20.1,17.8,20.1,17.8"/>
			<path class="st6" d="M19.7,17.9C19.7,17.9,19.6,17.9,19.7,17.9L19.7,17.9C19.6,18,19.6,17.9,19.7,17.9
				C19.6,17.9,19.6,17.9,19.7,17.9C19.7,17.9,19.7,17.9,19.7,17.9 M20,17.9l0-0.2c0,0,0,0,0,0c0,0,0,0-0.1,0.1c0,0,0,0,0,0
				C19.9,17.8,19.9,17.8,20,17.9c-0.1,0.1-0.1,0.1-0.2,0.1c0,0-0.1,0-0.1-0.1l0-0.4c0,0,0,0,0,0c0,0,0,0,0,0l0,0.1c0,0,0,0,0,0
				c0,0,0,0,0,0c0,0,0,0,0,0l0,0.2c0,0,0,0,0,0c0,0-0.1,0.1-0.2,0.2c0,0,0,0.1,0,0.1c0,0,0.1,0,0.1,0c0,0,0.1,0,0.1,0
				c0,0,0.2,0,0.2,0C20,18,20,17.9,20,17.9"/>
			<path class="st6" d="M21.9,17.8C21.9,17.9,21.8,17.9,21.9,17.8c-0.1,0-0.1,0-0.1,0C21.7,17.8,21.8,17.8,21.9,17.8
				C21.8,17.8,21.9,17.8,21.9,17.8"/>
			<path class="st6" d="M21.5,17.8C21.5,17.8,21.5,17.8,21.5,17.8C21.4,17.8,21.4,17.8,21.5,17.8C21.3,17.7,21.4,17.7,21.5,17.8
				C21.5,17.7,21.5,17.8,21.5,17.8 M21.1,17.9C21.1,17.9,21.1,17.9,21.1,17.9C21.1,17.9,21.1,17.9,21.1,17.9
				C21,17.9,21.1,17.9,21.1,17.9C21.1,17.9,21.1,17.9,21.1,17.9C21.1,17.9,21.1,17.9,21.1,17.9 M21,17.7C21,17.7,21.1,17.7,21,17.7
				c0.1,0,0.1,0.1,0.1,0.1C21.1,17.8,21,17.8,21,17.7C21,17.8,21,17.7,21,17.7 M20.9,17.8C20.9,17.8,20.8,17.8,20.9,17.8
				C20.8,17.8,20.8,17.8,20.9,17.8C20.8,17.7,20.9,17.7,20.9,17.8C20.9,17.7,20.9,17.8,20.9,17.8C20.9,17.8,20.9,17.8,20.9,17.8
				 M20.6,17.8L20.6,17.8C20.5,17.9,20.5,17.9,20.6,17.8L20.6,17.8c-0.1,0.1-0.1,0-0.1,0C20.5,17.8,20.5,17.8,20.6,17.8
				C20.6,17.8,20.6,17.8,20.6,17.8 M22,17.6L22,17.6c-0.1-0.1-0.1-0.1-0.1-0.1c0,0,0,0,0,0c0,0,0,0.1-0.1,0c0,0,0,0,0-0.1
				c0,0,0-0.1,0-0.1c0,0,0-0.1,0-0.1c0,0,0-0.1-0.1-0.1c0,0-0.1,0-0.2,0c0,0-0.1,0-0.1,0c0,0,0,0,0.1,0.1c0,0,0,0,0,0c0,0,0,0,0,0
				l0.1,0c0,0,0.1,0,0.1,0.1l0,0.1c0,0,0,0.1,0,0.1c0,0,0,0,0,0.1c0,0,0,0.1,0,0.1c0,0-0.1,0-0.1,0c0,0-0.1-0.1-0.2,0
				c0,0-0.1,0-0.1,0.1c0,0,0,0.1,0,0.1c0,0,0,0-0.1-0.1c0,0-0.1-0.1-0.1-0.1c0,0,0,0-0.1-0.1l0-0.1c0,0,0-0.1,0-0.1c0,0,0,0,0,0
				l0,0.1c0,0,0,0,0,0.1c0,0,0.1,0,0,0c0,0-0.1,0.1-0.1,0.1c0,0,0,0,0,0v0.1c0,0,0,0,0,0l0,0c0,0,0,0,0,0l0-0.1c0,0,0,0,0,0
				c0,0,0,0-0.1,0c0,0-0.1,0.1-0.1,0.2c0,0,0,0.1,0.1,0.1c0,0,0.1,0,0.1,0c0,0,0,0.1,0,0.1c0,0,0,0-0.1,0c0,0,0,0,0,0c0,0,0,0,0,0
				c0,0,0.1,0,0.2-0.1c0,0,0,0,0-0.1c0,0,0,0,0,0c0,0,0.1,0,0.1,0c0,0,0.1,0,0.1,0c0,0,0,0,0,0c0,0,0,0.1,0.1,0.1c0,0,0.1,0,0.1-0.1
				c0,0,0-0.1,0.1-0.1c0,0,0,0,0.1,0c0,0,0,0.1,0.1,0c0,0,0.1,0,0.1-0.1c0,0,0,0,0.1,0C21.6,17.8,21.8,17.7,22,17.6
				C22,17.7,22,17.7,22,17.6"/>
		</g>
	</g>
</g>
</svg>
