<?xml version="1.0" encoding="utf-8"?>
<!-- Generator: Adobe Illustrator 22.0.0, SVG Export Plug-In . SVG Version: 6.00 Build 0)  -->
<svg version="1.1" id="Layer_1" xmlns="http://www.w3.org/2000/svg" xmlns:xlink="http://www.w3.org/1999/xlink" x="0px" y="0px"
	 viewBox="0 0 231.2 231.2" style="enable-background:new 0 0 231.2 231.2;" xml:space="preserve">
<style type="text/css">
	.st0{fill:#FFFFFF;}
</style>
<g>
	<g>
		<g>
			<path class="st0" d="M177.6,84.6c0-7.1-2.8-13.8-7.8-18.8c0,0,0,0,0,0c-5-5-11.7-7.8-18.8-7.8l-62,0c-0.9,0-1.8,0.4-2.5,1
				c-0.7,0.7-1,1.6-1,2.5v10.6l-14.2,0l0-10.6c0-0.9-0.4-1.8-1-2.5c-0.7-0.7-1.6-1-2.5-1l-53.1,0c-0.9,0-1.8,0.4-2.5,1
				c-0.7,0.7-1,1.6-1,2.5l0,37.2c0,8,3.1,15.6,8.8,21.3c0,0,0,0,0,0c3.5,3.5,7.8,6.1,12.4,7.5l0,38.6l7.1,0v-37.4
				c0.6,0,1.2,0.1,1.8,0.1c8,0,15.6-3.1,21.3-8.8c5.7-5.7,8.8-13.3,8.8-21.3V97h14.2v10.6c0,2,1.6,3.5,3.5,3.5l62,0
				C165.7,111.2,177.6,99.2,177.6,84.6z M64.2,87.5l0,11.2c0,6.1-2.4,11.9-6.7,16.3c-4.4,4.4-10.1,6.8-16.3,6.8
				c-6.1,0-11.9-2.4-16.3-6.7c0,0,0,0,0,0c-4.4-4.4-6.8-10.1-6.8-16.3l0-33.6l46.1,0v10.6c0,0,0,0,0,0L64.2,87.5z M85.5,79.3v10.6
				l-14.2,0l0-3.5v-7.1L85.5,79.3z M170.5,84.6c0,10.7-8.7,19.5-19.5,19.5l-58.5,0V93.4l0-17.7c0,0,0,0,0,0V65.1l58.5,0
				c5.2,0,10.1,2,13.8,5.7c0,0,0,0,0,0C168.5,74.5,170.5,79.4,170.5,84.6z"/>
			<path class="st0" d="M219.1,95.9c0.7-0.7,1-1.6,1-2.5l0-17.7c0-1-0.4-1.9-1-2.5c-0.6-0.6-1.5-1-2.5-1l-31.9,0
				c-0.9,0-1.8,0.4-2.5,1c-0.7,0.7-1,1.6-1,2.5l0,17.7c0,1.9,1.7,3.5,3.5,3.5h31.9C217.5,97,218.4,96.6,219.1,95.9z M213,89.9
				l-24.8,0l0-10.6l24.8,0L213,89.9z"/>
		</g>
	</g>
</g>
</svg>
