<?xml version="1.0" encoding="utf-8"?>
<!-- Generator: Adobe Illustrator 22.0.0, SVG Export Plug-In . SVG Version: 6.00 Build 0)  -->
<svg version="1.1" id="Layer_1" xmlns="http://www.w3.org/2000/svg" xmlns:xlink="http://www.w3.org/1999/xlink" x="0px" y="0px"
	 viewBox="0 0 91 91" style="enable-background:new 0 0 91 91;" xml:space="preserve">
<style type="text/css">
	.st0{fill:#FFFFFF;}
</style>
<g>
	<g>
		
			<rect x="43.3" y="39.4" transform="matrix(0.2175 -0.9761 0.9761 0.2175 -17.9503 87.4437)" class="st0" width="4.5" height="31"/>
		<g>
			<polygon class="st0" points="58.1,63 53.6,63 53.6,66.4 37.4,62.8 37.4,58.4 32.9,58.4 32.9,61.8 30.9,61.3 29.9,65.7 60.1,72.5 
				61.1,68.1 58.1,67.4 			"/>
			<path class="st0" d="M53.6,76.7H37.4v-6.2h-4.5v10.8h1.4l9.7,8.5c0.4,0.4,1,0.6,1.5,0.6s1.1-0.2,1.5-0.6l9.7-8.5h1.4V75h-4.5
				L53.6,76.7L53.6,76.7z M45.5,85l-4.4-3.8h8.7L45.5,85z"/>
			<path class="st0" d="M73.9,15.9c0-0.1,0-0.2,0-0.4c-0.2-4.9-2-8.5-5.8-11.1c-3-2-7.3-3.2-11.9-3.2h-0.1c-3.8,0-7.7,0.8-10.5,2.1
				h-0.1l0,0c-2.2-1-5.2-1.7-8.3-2h-0.1L32,1.5h-0.2c-3.5,0.4-6.6,1.4-8.9,3c-3.7,2.6-5.6,6.1-5.8,11.1c0,1.4,0.3,6.8,4.4,15.8
				c2,4.5,3.1,7.9,3.1,7.9l0.5,1.6h3.1v7.9H33v5.6L58.1,60l0,0V48.8h4.8v-7.9h1.4h1.6l0.5-1.6c0,0,1.4-4.3,3-7.8
				c2-4.3,4.1-9.5,4.4-14.7C74,16.5,73.9,16.2,73.9,15.9z M53.6,54.4l-16.2-3.6v-2h16.2V54.4z M58.4,44.3h-0.3H32.9h-0.3l0,0v-3.4
				h25.7C58.4,40.9,58.4,44.3,58.4,44.3z M65.4,29.6c-1.1,2.5-2.1,5.1-2.7,6.8H28.4c-0.5-1.5-1.4-3.9-2.7-6.8
				c-3.9-8.6-4-13.4-4-13.9c0.1-3.5,1.3-5.7,3.8-7.5c1.7-1.1,4-1.9,6.8-2.2l4.8-0.1c2.5,0.2,5,0.8,6.7,1.6l0.9,0.4l9.7,5.1
				c0.3,0.2,0.7,0.3,1,0.3c0.8,0,1.6-0.4,2-1.2c0.6-1.1,0.2-2.5-0.9-3l-5.1-2.7c1.6-0.3,3.3-0.5,4.9-0.5h0.1c3.7,0,7.2,0.9,9.4,2.4
				c2.5,1.8,3.7,4,3.8,7.4c0,0.2,0,0.3,0,0.5c0,0.1,0,0.2,0,0.4C69.2,20.1,68,24,65.4,29.6z"/>
		</g>
	</g>
	<path class="st0" d="M30.5,23.7c-0.7,0-1.3-0.3-1.7-0.9c-1.3-2-1.4-4.7-0.2-7.3c1.2-2.8,3.5-4.9,6.2-5.4c1.1-0.2,2.1,0.5,2.4,1.6
		c0.2,1.1-0.5,2.1-1.6,2.4c-1.3,0.3-2.6,1.4-3.3,3c-0.6,1.4-0.6,2.8-0.1,3.6c0.6,0.9,0.3,2.2-0.6,2.8C31.2,23.6,30.9,23.7,30.5,23.7
		z"/>
</g>
</svg>
