<?xml version="1.0" encoding="utf-8"?>
<!-- Generator: Adobe Illustrator 22.0.0, SVG Export Plug-In . SVG Version: 6.00 Build 0)  -->
<svg version="1.1" id="Layer_1" xmlns="http://www.w3.org/2000/svg" xmlns:xlink="http://www.w3.org/1999/xlink" x="0px" y="0px"
	 viewBox="0 0 16 16" style="enable-background:new 0 0 16 16;" xml:space="preserve">
<style type="text/css">
	.st0{fill:#FFFFFF;}
</style>
<path class="st0" d="M8.2,5.2C9.1,4,10.2,3,11.5,3C14,3,16,6.2,16,9.9c0,2.3-1,3.7-2.8,3.7c-1.5,0-2.4-0.9-3.9-3.4L8.7,9.1L8.5,8.9
	C8.4,8.6,8.2,8.3,8,8l-1.2,2.1c-1.7,2.9-2.6,3.5-3.9,3.5C1.1,13.6,0,12.2,0,10c0-3.6,2-7,4.6-7c0.3,0,0.6,0,0.9,0.1
	c0.3,0.1,0.6,0.2,0.9,0.4C7,3.9,7.6,4.4,8.2,5.2z M9.7,7.5C9.5,7.1,9.2,6.7,9,6.3l0,0c0.8-1.3,1.5-2,2.4-2c1.7,0,3.1,2.5,3.1,5.7
	c0,1.2-0.4,1.9-1.2,1.9c-0.8,0-1.1-0.5-2.6-2.9L9.7,7.5L9.7,7.5z M4.8,4.8c0.7,0.1,1.4,0.6,2.3,2C6.6,7.6,6.1,8.4,5.6,9.3
	c-1.4,2.1-1.8,2.6-2.6,2.6c-0.8,0-1.2-0.7-1.2-1.9c0-2.6,1.3-5.3,2.8-5.3C4.7,4.7,4.8,4.7,4.8,4.8L4.8,4.8z"/>
</svg>
