<?xml version="1.0" encoding="utf-8"?>
<!-- Generator: Adobe Illustrator 22.0.0, SVG Export Plug-In . SVG Version: 6.00 Build 0)  -->
<svg version="1.1" id="Layer_1" xmlns="http://www.w3.org/2000/svg" xmlns:xlink="http://www.w3.org/1999/xlink" x="0px" y="0px"
	 viewBox="0 0 1133.9 1133.9" style="enable-background:new 0 0 1133.9 1133.9;" xml:space="preserve">
<style type="text/css">
	.st0{fill:#E6AC00;}
	.st1{fill:#FFFFFF;}
</style>
<rect y="0" class="st0" width="1133.9" height="1133.9"/>
<path class="st1" d="M445.1,687.4c-25-25-65.5-25-90.5,0c-25,25-25,65.5,0,90.5c25,25,65.5,25,90.5,0
	C470.1,753,470.7,713,445.1,687.4z M558.9,574.9c-49.7-49.7-115.6-79.4-185.6-83.8c-18.2-0.4-33.4,12.9-34.6,30.6
	c-1,17.7,12.4,32.9,30,33.9c54.4,3.4,105.7,26.5,144.3,65.1s61.8,89.9,65.1,144.3c0.5,8.1,4,15.3,9.3,20.6
	c6.3,6.3,15.1,9.9,24.6,9.3c17.7-1.1,31.1-16.3,30-33.9C637.7,691.2,608.6,624.7,558.9,574.9z M802.6,770
	c-2.5-116.2-49-225.4-131.2-307.5S480.1,333.7,363.9,331.3c-17.7-0.4-32.3,13.7-32.7,31.3c-0.4,17.7,13.7,32.2,31.3,32.7
	c99.5,0.8,193.1,42,263.6,112.4s109.7,163.4,112.4,263.5c0.3,8.6,3.7,16.3,9.4,22c5.9,5.9,14.2,9.6,23.3,9.4
	C788.9,802.2,803.5,787,802.6,770z"/>
</svg>
