<?xml version="1.0" encoding="utf-8"?>
<!-- Generator: Adobe Illustrator 22.0.0, SVG Export Plug-In . SVG Version: 6.00 Build 0)  -->
<svg version="1.1" id="Layer_1" xmlns="http://www.w3.org/2000/svg" xmlns:xlink="http://www.w3.org/1999/xlink" x="0px" y="0px"
	 viewBox="0 0 91 91" style="enable-background:new 0 0 91 91;" xml:space="preserve">
<style type="text/css">
	.st0{fill:#FFFFFF;}
</style>
<g>
	<g>
		<g>
			<path class="st0" d="M76.3,16.1l0-0.4c-0.2-5.3-2.2-9.1-6.2-11.9c-3.3-2.2-7.8-3.4-12.9-3.4l-0.1,0c-4.1,0-8.3,0.8-11.4,2.2
				l-0.2,0.1l-0.2-0.1c-2.4-1.1-5.6-1.9-9-2.1c-0.1,0-0.1,0-0.2,0l-5.5,0.1c-0.1,0-0.1,0-0.2,0c-3.8,0.4-7.1,1.5-9.6,3.3
				c-4,2.8-6,6.5-6.2,11.9l0,0.3c0,0.4,0,0.7,0,1c0.6,7.4,1.4,10,3.2,14.1c0.3,0.7,0.7,1.3,1,2c0.3,0.6,0.6,1.1,0.9,1.7
				c0.3,0.8,1.1,1.3,1.9,1.3l10.4,0c1.7,0,4.7-0.9,5.7-4.2c0.1-0.2,0.1-0.4,0.1-0.6v-3.5c0-0.1,0-0.1,0-0.2c0-0.2,0-0.5,0.1-0.6
				c0.1-0.1,0.3-0.2,0.8-0.2h13.4c0.5,0,0.8,0.1,0.8,0.2c0.1,0.1,0.2,0.4,0.2,0.5c0,0.1,0,0.2,0,0.2v3.5c0,0.2,0,0.4,0.1,0.6
				c0.9,3.3,4,4.2,5.7,4.2l9.7,0c0.7,0,3.1-0.3,4.9-4.9c2.3-5.7,2.4-7.9,2.8-14.2C76.4,16.7,76.4,16.4,76.3,16.1z M69.6,29.7
				c-0.6,1.5-1.1,2-1.3,2.2h-9.4c-0.3,0-1.1-0.1-1.5-0.9v-3.1c0-0.6,0-2.3-1.2-3.7c-0.7-0.7-1.9-1.6-4-1.6H38.8
				c-2.1,0-3.3,0.9-4,1.6c-1.2,1.4-1.3,3.1-1.2,3.7V31c-0.4,0.8-1.2,0.9-1.5,0.9H23c-0.1-0.3-0.3-0.5-0.4-0.8
				c-0.3-0.6-0.6-1.1-0.8-1.5c-1.6-3.8-2.3-6-2.8-12.8c0-0.2,0-0.3,0-0.5l0-0.4c0.1-4,1.4-6.5,4.3-8.5c1.9-1.3,4.5-2.2,7.6-2.5
				l5.3-0.1c2.8,0.2,5.6,0.9,7.5,1.8l1,0.4l7.3,3.8c1,0.6,2.3,0.2,2.9-0.9c0.2-0.3,0.2-0.7,0.2-1c0-0.8-0.4-1.5-1.1-1.9l-3.1-1.6
				c2-0.5,4.2-0.8,6.4-0.8h0.1c4.2,0,8,1,10.5,2.7c2.9,2,4.2,4.5,4.3,8.5c0,0.1,0,0.3,0,0.4c0,0.2,0,0.4,0,0.5
				C71.7,22.9,71.6,24.6,69.6,29.7z"/>
			<path class="st0" d="M52.1,39.2c-1.2,0-2.1,1-2,2.2c0,1.2,1,2.1,2.2,2c3.6-0.1,8.3,0.4,10.7,3.4c2.1,2.6,2.3,7,0.6,12.9
				c-1.3,3.1-2.1,5.4-2.4,11.4C61,76.3,59.9,81.4,58.4,84c-0.7,1.3-1.1,1.9-1.4,2.1c-0.4-0.6-1-1.7-1.3-3.7
				c-0.1-0.6-0.2-1.6-0.4-2.8c-0.3-2.3-0.6-5.1-1.1-7.6c-0.5-2.3-1.5-4.7-2.7-6.8c-2-3.5-4.7-4-6.1-4c0,0-0.1,0-0.1,0
				c-3,0-5.5,2-6.7,4c-1.4,2.3-2.1,4.7-2.7,6.7l0,0.1c-1.4,5-1.4,7.6-1.5,10.2c0,1,0,1.9-0.1,3c0,0.6-0.3,1.1-0.5,1.2
				c-0.8,0-0.9,0-2.1-2.3c-1.1-2-3-6.4-2.8-12.8l0-0.7c0.1-5.2,0.2-7.6-1.1-10.8C26.6,57,25,49.3,28.4,45.5
				c2.2-2.5,6.2-3.2,12.1-2.1l2.9,0.9v5.2L40.8,47l-3,3l6.2,6.2c0.4,0.4,0.9,0.6,1.5,0.6s1.1-0.2,1.5-0.6l6.2-6.2l-3-3l-2.5,2.5
				v-7.3c0,0,0,0,0,0v-8.6h-4.3v6.3l-1.7-0.6c-0.1,0-0.2,0-0.2-0.1c-7.5-1.4-13-0.3-16.2,3.4c-5.7,6.5-1.9,18-1.7,18.5
				c0,0,0,0.1,0.1,0.1c1,2.4,1,4.1,0.9,9.2l0,0.7c-0.2,7.4,2,12.5,3.4,14.9c1.7,3.1,2.8,4.5,5.9,4.5c2.9,0,4.6-2.6,4.8-5.1
				c0.1-1.2,0.1-2.3,0.2-3.3c0.1-2.4,0.1-4.7,1.3-9.1l0-0.1c0.5-1.8,1.1-3.8,2.2-5.6c0.6-1,1.9-2,3.1-2c0,0,0,0,0,0
				c0.9,0,1.8,0.7,2.5,1.9c1,1.8,1.8,3.8,2.2,5.6c0.5,2.3,0.8,5,1.1,7.2c0.2,1.3,0.3,2.4,0.4,3.1c0.9,4.8,3.1,7.3,4.8,7.3
				c2.9,0,4.1-1.4,5.9-4.5c1.9-3.3,3.1-8.9,3.4-14.8c0.2-5.4,0.9-7.3,2.1-10c0-0.1,0.1-0.2,0.1-0.2c2.1-7.3,1.7-13-1.3-16.8
				C63.6,40.7,58.7,39,52.1,39.2z"/>
		</g>
	</g>
</g>
</svg>
