<?xml version="1.0" encoding="utf-8"?>
<!-- Generator: Adobe Illustrator 22.0.0, SVG Export Plug-In . SVG Version: 6.00 Build 0)  -->
<svg version="1.1" id="Layer_1" xmlns="http://www.w3.org/2000/svg" xmlns:xlink="http://www.w3.org/1999/xlink" x="0px" y="0px"
	 viewBox="0 0 100 100" style="enable-background:new 0 0 100 100;" xml:space="preserve">
<style type="text/css">
	.st0{fill:#0069BE;}
	.st1{fill:#1F212B;}
	.st2{fill:#FCBA7F;}
	.st3{fill:#FED5B3;}
	.st4{fill:#007EE6;}
	.st5{fill:#FFFFFF;}
</style>
<g>
	<path class="st0" d="M17.1,17.1c-10.8,10.8-10.8,28.3,0,39.1s28.3,10.8,39.1,0s10.8-28.3,0-39.1S27.9,6.3,17.1,17.1z"/>
	<path class="st1" d="M57.1,57.1c-11.3,11.3-29.6,11.3-40.9,0S5,27.5,16.2,16.2s29.6-11.3,40.9,0S68.4,45.9,57.1,57.1z M18,18
		c-10.3,10.3-10.3,27,0,37.3s27,10.3,37.3,0s10.3-27,0-37.3S28.3,7.7,18,18z"/>
	<path class="st1" d="M63.3,63.3c-0.5,0.5-1.3,0.5-1.8,0l-6.2-6.2c-0.5-0.5-0.5-1.3,0-1.8c0.5-0.5,1.3-0.5,1.8,0l6.2,6.2
		C63.8,62.1,63.8,62.9,63.3,63.3z"/>
	<path class="st2" d="M89.1,89.1L89.1,89.1c-2.4,2.4-6.4,2.4-8.9,0L62.5,71.3c-2.4-2.4-2.4-6.4,0-8.9l0,0c2.4-2.4,6.4-2.4,8.9,0
		l17.8,17.8C91.6,82.7,91.6,86.7,89.1,89.1z"/>
	<path class="st1" d="M90,90c-2.9,2.9-7.7,2.9-10.7,0L61.6,72.2c-2.9-2.9-2.9-7.7,0-10.7c2.9-2.9,7.7-2.9,10.7,0L90,79.3
		C93,82.3,93,87.1,90,90z M63.3,63.3c-2,2-2,5.2,0,7.1l17.8,17.8c2,2,5.2,2,7.1,0s2-5.2,0-7.1L70.5,63.3
		C68.5,61.4,65.3,61.4,63.3,63.3z"/>
	<path class="st3" d="M63.3,63.3c-2,2-2.1,5-0.3,6.8l0.3,0.3l0.7-0.7l6.4-6.4L70.1,63C68.3,61.2,65.3,61.4,63.3,63.3z"/>
	<path class="st4" d="M21.1,21.1c-8.6,8.6-8.6,22.5,0,31.1s22.5,8.6,31.1,0s8.6-22.5,0-31.1S29.7,12.5,21.1,21.1L21.1,21.1z"/>
	<path class="st5" d="M52.7,52.7c-8.8,8.8-23.2,8.8-32,0s-8.8-23.2,0-32s23.2-8.8,32,0S61.5,43.9,52.7,52.7z M21.6,21.6
		c-8.3,8.3-8.3,21.9,0,30.2s21.9,8.3,30.2,0s8.3-21.9,0-30.2S29.9,13.2,21.6,21.6z M72.7,62.9l-8,8c-0.2,0.2-0.6,0.2-0.9,0
		c-0.2-0.2-0.2-0.6,0-0.9l8-8c0.2-0.2,0.6-0.2,0.9,0C72.9,62.3,72.9,62.7,72.7,62.9z M78,82.5c-0.2,0.2-0.6,0.2-0.9,0l-9.8-9.8
		c-0.2-0.2-0.2-0.6,0-0.9c0.2-0.2,0.6-0.2,0.9,0l9.8,9.8C78.3,81.8,78.3,82.2,78,82.5z M81.6,86c-0.2,0.2-0.6,0.2-0.9,0l-1.8-1.8
		c-0.2-0.2-0.2-0.6,0-0.9c0.2-0.2,0.6-0.2,0.9,0l1.8,1.8C81.8,85.4,81.8,85.8,81.6,86z"/>
</g>
</svg>
