<?xml version="1.0" encoding="utf-8"?>
<!-- Generator: Adobe Illustrator 22.0.0, SVG Export Plug-In . SVG Version: 6.00 Build 0)  -->
<svg version="1.1" id="Layer_1" xmlns="http://www.w3.org/2000/svg" xmlns:xlink="http://www.w3.org/1999/xlink" x="0px" y="0px"
	 viewBox="0 0 91 91" style="enable-background:new 0 0 91 91;" xml:space="preserve">
<style type="text/css">
	.st0{fill:#FFFFFF;}
	.st1{fill:#F16B72;}
</style>
<g>
	<g>
		<g>
			<path class="st0" d="M88.6,52.6c-1.7-0.2-2.2-0.3-2.7-0.4c-0.6-0.1-1.1-0.2-2.7-0.3c0.5-1.4,1.1-2.6,1.8-3.7l0.2-0.4
				c1.3-2.4,2.5-4.6,2.6-9.8l0-0.8c-0.1-3.8-1.6-6.5-4.5-8.6c-2.3-1.6-5.6-2.4-9.1-2.4h-0.1c-2.8,0-5.7,0.6-7.9,1.5
				c-1.7-0.7-3.9-1.3-6.2-1.4c-0.1,0-0.1,0-0.2,0l-3.7,0.1c-0.1,0-0.1,0-0.2,0c-2.7,0.3-5,1.1-6.8,2.3c-2.9,2-4.3,4.8-4.5,8.6l0,0.8
				c0,3.4,0.6,5.5,1.3,7.2c-0.8-0.6-1.8-1.2-2.8-1.7c-2.2-1.1-4.7-1.8-6.7-2c-1-1.2-2.5-2.5-4.2-3.5c-0.1,0-0.1-0.1-0.2-0.1
				l-2.9-1.4c-0.1,0-0.1-0.1-0.2-0.1c-1.7-0.6-3.4-1-5-1c-0.4,0-0.9,0-1.3,0.1c-3.1,0.4-5.3,2-7,5l-0.3,0.6c-2,4.1-1.9,6.3-1.9,8.7
				l0,0.4c0,0.6,0.1,1.2,0,1.9c-0.2-0.1-0.4-0.1-0.7-0.2c-3.6-0.2-10.3,1-10.6,1.1c-1.1,0.2-1.9,1.3-1.6,2.4c0.2,1,1,1.7,2,1.7
				c0.1,0,0.2,0,0.4,0c1.8-0.3,7.1-1.1,9.6-1c0.1,0,0.2,0,0.2,0c-0.3,0.9-0.7,1.9-1.3,3c-3,5.9-3.5,9.7-3.4,11.8
				c0.2,2.2,0.4,3.7,2.5,4.7c0.5,0.3,1.1,0.4,1.6,0.4c1.6,0,2.8-1.1,3.4-2.1c0.4-0.7,0.9-1.5,1.3-2.3c1-1.9,2.2-4.2,4.1-6.2
				c0.8-0.8,1.6-1.7,2.6-2.3c0.3-0.2,0.7-0.3,1.1-0.3c0.9,0,1.2,0.4,1.3,1.4c0.1,1.2-0.1,2.5-0.3,3.6c-0.5,2.7-1.5,5.5-2.8,7.6
				c-1,1.6-1.3,3.1-1,4.5c0.3,1,0.9,1.8,1.8,2.3c0.5,0.2,1.1,0.5,1.9,0.5c1.1,0,2.1-0.5,3.4-1.3c1.8-1.1,4.5-3.7,7.5-9.7
				c1.9-3.9,3.9-5.4,6-6.8l0.3-0.2c2-1.3,3.8-2.6,5.9-6.7l0.3-0.6c0.2-0.5,0.4-1,0.6-1.5c0.1,0.7,0.1,1.5,0.1,2.4
				c0,7.7,1.4,11.7,2.7,13.8c1.3,2.1,2.2,3.4,4.8,3.4c2.5,0,3.9-2.1,4.1-4.1c0.1-0.9,0.1-2,0.1-3.1c0-2.4,0.1-5.5,1-8.6
				c0.4-1.2,0.8-2.6,1.6-3.8c0.4-0.6,1.2-1.2,2.1-1.2c0.2,0,0.9,0,1.6,1.2c0.8,1.3,1.3,2.6,1.6,3.9c0.9,3.1,1.3,6.6,1.1,9.5
				c-0.2,2.1,0.2,3.8,1.3,4.9c1.1,1.2,2.5,1.3,2.8,1.3c2.4,0,3.4-1.1,4.8-3.4c1.2-2,2.7-6.1,2.7-13.8c0-0.9,0-1.8,0.1-2.6
				c2,0.2,2.3,0.2,2.9,0.3c0.5,0.1,1.1,0.2,2.9,0.4c0.1,0,0.2,0,0.2,0c1,0,1.9-0.8,2-1.8C90.6,53.8,89.8,52.8,88.6,52.6z M45.7,56
				l-0.3,0.5c-1.6,3.1-2.8,3.9-4.6,5.1l-0.3,0.2c-2.3,1.5-5,3.5-7.4,8.4c-2.7,5.4-5,7.4-6,8c-0.5,0.3-0.7,0.4-0.9,0.5
				c0.1-0.2,0.2-0.5,0.5-0.9c1.6-2.5,2.8-5.8,3.4-9c0.2-1.4,0.5-3,0.3-4.7c-0.3-3.1-2.4-5.2-5.4-5.2c-1.1,0-2.2,0.3-3.1,0.8
				c-1.6,0.9-2.7,2.1-3.7,3.1c-2.3,2.4-3.6,5-4.7,7c-0.4,0.7-0.7,1.4-1.1,2c0-0.2-0.1-0.5-0.1-1c-0.1-1.3,0.2-4.3,2.9-9.6
				c2.5-4.8,2.5-8.2,2.3-10.9l0-0.4c-0.1-2.1-0.1-3.5,1.4-6.7l0.3-0.5c1.2-2.2,2.6-2.7,3.9-2.9c1.2-0.1,2.7,0.1,4.2,0.6l2.7,1.3
				c1.3,0.8,2.5,1.8,3.2,2.7l0.4,0.5l2.8,3.9c0.4,0.6,1,0.9,1.7,0.9c0.4,0,0.8-0.1,1.2-0.4c0.8-0.6,1.1-1.7,0.6-2.6
				c0.4,0.2,0.8,0.4,1.2,0.6c2,1,3.7,2.4,4.5,3.9C46.3,52.3,46.8,53.7,45.7,56z M78.2,58.6c0,7.1-1.3,10.4-2.1,11.7
				c-0.7,1.1-0.9,1.4-1,1.4c0,0-0.1,0-0.2,0c-0.1-0.1-0.3-0.6-0.2-1.8c0.3-3.4-0.1-7.4-1.2-11c-0.4-1.5-1-3.2-2.1-4.9
				c-1.2-2-3-3.1-5.1-3.1c-2.1,0-4.2,1.2-5.5,3c-1.1,1.7-1.7,3.6-2.1,5c-1.1,3.6-1.1,7-1.2,9.7c0,1.1,0,2-0.1,2.8
				c0,0.1-0.1,0.2-0.1,0.3c-0.1,0-0.2,0-0.2,0c-0.1-0.1-0.4-0.5-0.9-1.4c-0.8-1.3-2.1-4.6-2.1-11.7c0-6.2-1.7-9.6-3.2-12.3l-0.2-0.4
				c-1.2-2.2-2-3.7-2.1-7.8l0-0.7c0.1-2.5,0.9-4.1,2.7-5.3c1.2-0.8,2.9-1.4,4.9-1.6l3.5,0c1.8,0.2,3.6,0.6,4.9,1.1l0.6,0.3l5,2.6
				c0.3,0.2,0.6,0.2,1,0.2c0.7,0,1.4-0.4,1.8-1.1c0.5-1,0.2-2.2-0.8-2.8l-0.6-0.3c0.8-0.1,1.7-0.2,2.6-0.2h0.1
				c2.7,0,5.2,0.6,6.8,1.7c1.8,1.3,2.6,2.8,2.7,5.3l0,0.7c0,4.2-0.9,5.6-2.1,7.8l-0.2,0.3C79.9,49,78.2,52.5,78.2,58.6z"/>
			<path class="st0" d="M20.6,24.3l11.4,8.3c0.4,0.3,0.8,0.4,1.2,0.4c0.6,0,1.3-0.3,1.7-0.8c0.7-0.9,0.5-2.2-0.5-2.9L23,21
				c-0.9-0.7-2.2-0.5-2.9,0.5C19.5,22.4,19.7,23.7,20.6,24.3z"/>
			<path class="st0" d="M37.1,26.6c0.2,1,1.1,1.6,2,1.6c0.1,0,0.3,0,0.4,0c1.1-0.2,1.8-1.3,1.6-2.4L37.9,9.7
				c-0.2-1.1-1.3-1.8-2.4-1.6c-1.1,0.2-1.8,1.3-1.6,2.4L37.1,26.6z"/>
			<path class="st0" d="M47.5,27.2c0.3,0.2,0.6,0.2,0.9,0.2c0.7,0,1.5-0.4,1.8-1.1l6.6-12.9c0.5-1,0.1-2.2-0.9-2.8
				c-1-0.5-2.2-0.1-2.8,0.9l-6.6,12.9C46,25.5,46.4,26.7,47.5,27.2z"/>
		</g>
		<g>
			<path class="st1" d="M58.1,40.5c0.9-0.7,1.1-1.9,0.5-2.9c-0.7-0.9-1.9-1.1-2.9-0.5l-8.5,6c-0.9,0.7-1.1,1.9-0.5,2.9
				c0.4,0.6,1,0.9,1.7,0.9c0.4,0,0.8-0.1,1.2-0.4L58.1,40.5z"/>
			<path class="st1" d="M61.2,44.4c-0.6-0.9-1.9-1.2-2.8-0.6l-8.5,5.7c-0.9,0.6-1.2,1.9-0.6,2.8c0.4,0.6,1,0.9,1.7,0.9
				c0.4,0,0.8-0.1,1.1-0.3l8.5-5.7C61.6,46.6,61.9,45.3,61.2,44.4z"/>
			<path class="st1" d="M55.8,53.5l-4.9,3.4c-0.9,0.7-1.1,1.9-0.5,2.9c0.4,0.6,1,0.9,1.7,0.9c0.4,0,0.8-0.1,1.2-0.4l4.9-3.4
				c0.9-0.7,1.1-1.9,0.5-2.9C58,53.1,56.7,52.9,55.8,53.5z"/>
		</g>
	</g>
	<g>
		<path class="st0" d="M28.7,44.4c-1.5-1.1-3.2-1.4-4.8-0.9c-1.7,0.5-3,1.9-3.7,3.6c-0.4,1.1,0.1,2.2,1.2,2.6
			c0.2,0.1,0.5,0.1,0.7,0.1c0.8,0,1.6-0.5,1.9-1.3c0.2-0.5,0.6-1,1-1.1c0.1,0,0.5-0.2,1.2,0.3c0.9,0.7,2.2,0.4,2.9-0.5
			C29.9,46.4,29.6,45.1,28.7,44.4z"/>
		<path class="st0" d="M79.5,34.9c-0.6-0.6-1.6-1.2-3.3-1.1c-1.1,0-2,1-2,2.1c0,1.1,1,2,2.1,2c0,0,0.1,0,0.1,0c0.2,0,0.3,0,0.3,0
			c0.2,0.3,0.2,1.6,0.2,2.3c0,1.1,0.9,2,2,2c0,0,0,0,0,0c1.1,0,2-1,2-2.1C81,38.4,81,36.3,79.5,34.9z"/>
	</g>
</g>
</svg>
