<?xml version="1.0" encoding="utf-8"?>
<!-- Generator: Adobe Illustrator 22.0.0, SVG Export Plug-In . SVG Version: 6.00 Build 0)  -->
<svg version="1.1" id="Layer_1" xmlns="http://www.w3.org/2000/svg" xmlns:xlink="http://www.w3.org/1999/xlink" x="0px" y="0px"
	 viewBox="0 0 1133.9 1133.9" style="enable-background:new 0 0 1133.9 1133.9;" xml:space="preserve">
<style type="text/css">
	.st0{fill:#292929;}
	.st1{fill:#FFFFFF;}
</style>
<rect y="0" class="st0" width="1133.9" height="1133.9"/>
<path class="st1" d="M774.5,343h-416c-25.6,0-47.1,21.5-47.1,48v352c0,26.5,21.5,48,47.1,48h416c26.5,0,48-21.5,48-48V391
	C822.5,364.4,801.9,343,774.5,343z M422.5,719c0,4.4-3.6,8-8,8h-48c-4.4,0-8-3.6-8-8v-48c0-4.4,3.6-8,8-8h47.1c4.4,0,8,3.6,8,8
	L422.5,719z M422.5,591c0,4.4-3.6,8-8,8h-48c-4.4,0-8-3.6-8-8v-48c0-4.4,3.6-8,8-8h47.1c4.4,0,8,3.6,8,8v48H422.5z M422.5,463
	c0,4.4-3.6,8-8,8h-48c-4.4,0-8-3.6-8-8v-48c0-4.4,3.6-8,8-8h47.1c4.4,0,8,3.6,8,8L422.5,463z M662.5,711c0,8.8-7.2,16-16,16h-160
	c-8.8,0-16-7.2-16-16v-96c0-8.8,7.2-16,16-16h160c8.8,0,16,7.2,16,16V711z M662.5,519c0,8.8-7.2,16-16,16h-160c-8.8,0-16-7.2-16-16
	v-96c0-8.8,7.2-16,16-16h160c8.8,0,16,7.2,16,16V519z M774.5,719c0,4.4-3.6,8-8,8h-47.1c-4.4,0-7.1-3.6-7.1-8v-48c0-4.4,3.6-8,8-8
	h47.1c4.4,0,8,3.6,8,8v48H774.5z M774.5,591c0,4.4-3.6,8-8,8h-47.1c-4.4,0-8-3.6-8-8v-48c0-4.4,3.6-8,8-8h47.1c4.4,0,8,3.6,8,8V591z
	 M774.5,463c0,4.4-3.6,8-8,8h-47.1c-4.4,0-8-3.6-8-8v-48c0-4.4,3.6-8,7.1-8h47.1c4.4,0,8,3.6,8,8v48H774.5z"/>
</svg>
