<?xml version="1.0" encoding="utf-8"?>
<!-- Generator: Adobe Illustrator 22.0.0, SVG Export Plug-In . SVG Version: 6.00 Build 0)  -->
<svg version="1.1" id="Layer_1" xmlns="http://www.w3.org/2000/svg" xmlns:xlink="http://www.w3.org/1999/xlink" x="0px" y="0px"
	 viewBox="0 0 10.8 10.8" style="enable-background:new 0 0 10.8 10.8;" xml:space="preserve">
<style type="text/css">
	.st0{fill-rule:evenodd;clip-rule:evenodd;fill:#005A9C;}
</style>
<g>
	<path class="st0" d="M5.7,1.2c0.2,0.2,0,0.5,0,0.7l0,1.7c-0.1,0-0.2,0-0.3,0.1v0L5.2,1.9c0-0.3-0.1-0.6,0.2-0.8
		C5.5,1.1,5.6,1.1,5.7,1.2L5.7,1.2z"/>
	<path class="st0" d="M2,3.1c0-0.2,0.2-0.4,0.3-0.6C2.5,2.4,2.7,2.2,3,2.1l0.1,0C2.9,2.4,2.4,2.9,2,3.1L2,3.1z"/>
	<path class="st0" d="M8.4,2.5c0.2,0.2,0.3,0.4,0.4,0.6L8.3,2.7C8.1,2.5,7.9,2.3,7.8,2.1C8,2.1,8.2,2.3,8.4,2.5L8.4,2.5z"/>
	<path class="st0" d="M6.2,2.2C6.2,2.2,6.1,2.2,6.2,2.2c-0.1,0.1-0.2,0-0.3,0C5.9,2.2,6,2.1,6.2,2.2C6.1,2.1,6.2,2.1,6.2,2.2
		L6.2,2.2z"/>
	<path class="st0" d="M6.7,2.8c0.1,0.2,0.1,0.6-0.1,0.8C6.3,4.1,5.8,4.1,5.3,4.2c-0.2,0-0.4,0.2-0.4,0.4C4.9,4.8,5,4.9,5.1,5l0.1,0
		l0,0.3c-0.3,0-0.6-0.2-0.7-0.5c0-0.2,0-0.3,0.1-0.5c0.3-0.6,1.1-0.4,1.6-0.8c0-0.1,0.1-0.1,0.1-0.2c-0.1,0-0.1-0.1-0.2-0.1
		C6,3.2,5.8,3.2,5.7,3.2V3.1c0.2,0,0.4,0.1,0.6,0.2c0,0,0-0.1,0-0.2c0-0.2-0.2-0.4-0.5-0.4c0,0-0.1,0-0.1,0V2.3
		C6.1,2.3,6.5,2.5,6.7,2.8L6.7,2.8z"/>
	<path class="st0" d="M9.2,4c0,0,0,0.1,0,0.2C9,3.7,8.4,3.5,8.2,3c0.2,0.1,0.5,0.3,0.7,0.5C9,3.6,9.1,3.8,9.1,3.9
		c0-0.2-0.1-0.3-0.1-0.5C8.9,3.2,8.9,2.9,8.8,2.7C9.2,3,9.3,3.5,9.2,4L9.2,4z"/>
	<path class="st0" d="M7,2.7C7,2.8,7.1,2.8,7,2.7c0,0-0.1,0-0.1,0C6.9,2.7,7,2.7,7,2.7L7,2.7z"/>
	<path class="st0" d="M1.7,3.8C1.7,3.8,1.7,3.7,1.7,3.8C1.8,3.5,2,3.4,2.1,3.3l0.5-0.4C2.5,3.2,2.2,3.5,2,3.7C1.8,3.8,1.7,4,1.6,4.1
		c-0.1-0.5-0.1-1,0.2-1.4C1.9,3.1,1.8,3.4,1.7,3.8L1.7,3.8z"/>
	<path class="st0" d="M9.6,4.5L9.4,5.2v0C9.3,5.1,9.3,4.9,9.2,4.8L8.8,4.3C8.8,4.1,8.7,4,8.7,3.8l0.4,0.5c0.1,0.2,0.2,0.4,0.3,0.7
		c0-0.3,0-0.7,0-1c0-0.2,0.1-0.3,0-0.5C9.6,3.7,9.7,4.1,9.6,4.5L9.6,4.5z"/>
	<path class="st0" d="M1.4,4.5c0,0.1,0,0.3,0,0.4c0-0.1,0-0.1,0-0.2c0.1-0.3,0.3-0.7,0.6-0.9c0,0.6-0.6,0.9-0.6,1.5
		C1.3,4.7,0.9,4,1.3,3.5C1.3,3.8,1.4,4.2,1.4,4.5L1.4,4.5z"/>
	<path class="st0" d="M6.8,4L6.8,4C6.8,4,6.8,4,6.8,4C6.8,4,6.8,4,6.8,4L6.8,4z"/>
	<path class="st0" d="M6.8,4.2C6.8,4.2,6.8,4.2,6.8,4.2L6.8,4.2C6.7,4.2,6.8,4.2,6.8,4.2C6.8,4.2,6.9,4.2,6.8,4.2L6.8,4.2z"/>
	<path class="st0" d="M5.5,5.9c-0.1,0-0.1,0-0.2,0l0-1.6c0.1,0,0.2,0,0.3-0.1l0,1.2V5.9L5.5,5.9z"/>
	<path class="st0" d="M6.8,4.4C6.8,4.4,6.7,4.4,6.8,4.4C6.7,4.4,6.7,4.4,6.8,4.4C6.7,4.4,6.8,4.4,6.8,4.4L6.8,4.4z"/>
	<path class="st0" d="M0.9,4.5C1,5,1.4,5.3,1.5,5.8c0,0.1,0,0.2,0.1,0.3c0-0.1,0-0.3,0-0.4c0-0.3,0.1-0.7,0.3-0.9
		c0.1,0.6-0.3,1-0.2,1.6L1.2,5.7C0.9,5.3,0.8,4.9,0.9,4.5L0.9,4.5L0.9,4.5z"/>
	<path class="st0" d="M5.1,4.6v0.2C5.1,4.8,5,4.7,5,4.6C5,4.6,5,4.5,5.1,4.6C5.1,4.5,5.1,4.5,5.1,4.6L5.1,4.6z"/>
	<path class="st0" d="M9.8,5.4L9.6,5.7L9.2,6.2L9.1,6.5c0-0.6-0.3-1.1-0.2-1.8c0.2,0.4,0.4,0.9,0.3,1.4C9.2,6.1,9.2,6,9.3,5.9
		l0.2-0.5c0.1-0.3,0.2-0.5,0.3-0.8C9.9,4.9,9.8,5.2,9.8,5.4L9.8,5.4z"/>
	<path class="st0" d="M6,5.3c0.1,0.1,0.2,0.3,0.1,0.4c0,0.1-0.1,0.3-0.2,0.3C5.8,6.2,5.6,6.2,5.4,6.3c-0.1,0-0.2,0.1-0.2,0.2v0.3
		C5.1,6.8,5,6.7,5,6.5c0-0.1,0-0.3,0.1-0.4C5.3,6,5.7,6,5.9,5.8c0,0,0-0.1,0-0.2c0-0.1-0.1-0.1-0.2-0.1V5.2C5.8,5.2,5.9,5.3,6,5.3
		L6,5.3z"/>
	<path class="st0" d="M4,5.5C4,5.5,3.9,5.5,4,5.5c0-0.1,0-0.1,0-0.2C4,5.3,4,5.4,4,5.5L4,5.5z"/>
	<path class="st0" d="M5.2,5.6C5.1,5.6,5.2,5.6,5.2,5.6C5.1,5.6,5.1,5.6,5.2,5.6C5.1,5.5,5.2,5.5,5.2,5.6L5.2,5.6z"/>
	<path class="st0" d="M4,5.7C4,5.7,4,5.7,4,5.7c0-0.1,0-0.1,0-0.1C4,5.6,4,5.6,4,5.7L4,5.7z"/>
	<path class="st0" d="M5.7,5.7C5.7,5.7,5.7,5.7,5.7,5.7c0,0.1,0,0.1-0.1,0.1C5.6,5.8,5.7,5.7,5.7,5.7C5.7,5.7,5.7,5.7,5.7,5.7
		L5.7,5.7z"/>
	<path class="st0" d="M8.8,7.1C9,7,9,6.8,9.1,6.6l0.4-0.4C9.6,6.1,9.7,6,9.8,5.9C9.7,6.5,9.2,7,8.7,7.3L8.6,7.5
		c0.1-0.4,0.2-0.8,0.1-1.2c0-0.2,0-0.4,0.1-0.5C8.8,6.1,9,6.7,8.8,7.1L8.8,7.1z"/>
	<path class="st0" d="M1.5,6.5C1.6,6.7,1.8,6.9,1.9,7c0-0.4-0.1-0.9,0.1-1.3C2,5.9,2,6,2.1,6.1l0,0.2v0.8c0,0.1,0,0.2,0.1,0.3L1.7,7
		C1.3,6.7,1,6.3,0.9,5.8L1.5,6.5L1.5,6.5z"/>
	<path class="st0" d="M5.2,6C5.2,6,5.1,6,5.2,6C5.1,5.9,5.1,5.9,5.2,6C5.2,5.9,5.2,5.9,5.2,6L5.2,6z"/>
	<path class="st0" d="M5.1,6L5.1,6C5.1,6,5.1,6,5.1,6C5.1,5.9,5.1,6,5.1,6L5.1,6z"/>
	<path class="st0" d="M2.6,6.1C2.6,6.1,2.6,6.2,2.6,6.1C2.5,6.2,2.5,6.1,2.6,6.1C2.5,6.1,2.6,6.1,2.6,6.1L2.6,6.1z"/>
	<path class="st0" d="M5.5,8.1C5.5,8.1,5.5,8.2,5.5,8.1c-0.1,0.1-0.1,0-0.1,0l0-1.1l0-0.5c0,0,0.1,0,0.2-0.1v0.5L5.5,8.1L5.5,8.1z"
		/>
	<path class="st0" d="M8.2,7.9c0,0,0,0.1,0,0.1c0.5-0.3,1-0.6,1.5-1C9.3,7.8,8.4,8,7.8,8.3c0.4-0.5,0.3-1.2,0.7-1.7
		C8.4,7.1,8.4,7.5,8.2,7.9L8.2,7.9z"/>
	<path class="st0" d="M2.5,7c0.1,0.4,0.2,0.9,0.4,1.2C2.4,8,1.9,7.9,1.5,7.5C1.4,7.3,1.3,7.2,1.2,7c0,0,0,0,0,0
		C1.6,7.3,2,7.5,2.4,7.8C2.4,7.8,2.5,7.9,2.6,8c0-0.2-0.2-0.3-0.2-0.5C2.3,7.2,2.2,6.9,2.3,6.6C2.4,6.7,2.4,6.9,2.5,7L2.5,7z"/>
	<path class="st0" d="M5.1,6.9C5.1,6.9,5.1,6.9,5.1,6.9L5.1,6.9L5.1,6.9C5,6.8,5,6.8,5,6.7C5,6.8,5.1,6.9,5.1,6.9L5.1,6.9z"/>
	<path class="st0" d="M5.1,1.9C4.4,2,3.7,2.3,3.2,2.9l0.4,0.4C4,2.8,4.5,2.6,5,2.4l0.1,0v0.3C4.9,2.8,4.8,3.1,4.5,3.2
		C4.4,3.3,4.3,3.3,4.2,3.4c0,0-0.1,0-0.1,0L4,3.6c0,0,0-0.1,0-0.1c0,0-0.1,0-0.1,0c0.1,0,0.2-0.1,0.2-0.2c0-0.2,0.1-0.3,0.2-0.5
		c0,0,0,0,0,0l0,0C4,2.9,3.8,3.1,3.6,3.3c0,0.1,0.1,0.1,0.2,0.2l0,0L3.6,3.3C3.1,3.8,2.9,4.4,2.9,5.1h0.5c0-0.5,0.2-1,0.5-1.4l0,0
		l0,0l0,0C4.3,3.3,4.7,3.1,5.1,3v0.1C4.7,3.2,4.3,3.4,4,3.7l0.4,0.4C4.5,4.1,4.6,4,4.7,3.9c0,0,0,0.1,0,0.1C4.4,4.2,4.3,4.5,4.2,4.7
		c0,0,0-0.1,0.1-0.1c0,0,0,0,0,0c0,0,0,0.1,0,0.2c0,0.2,0.2,0.4,0.4,0.5l0.1,0c0,0-0.1,0-0.1,0.1c0,0,0,0,0,0c0,0,0,0.1,0,0.1
		c0,0,0.1-0.1,0.1-0.1C5,5.4,5,5.4,5.1,5.4c0,0,0,0,0,0c0,0,0,0,0,0L5,5.6l0,0L4.5,6c0.1,0.1,0.3,0.2,0.4,0.3c0,0,0,0.1,0,0
		C4.7,6.3,4.6,6.2,4.5,6.1C4.3,6.2,4.2,6.3,4.1,6.4c0,0,0,0.1,0.1,0.2c0,0,0,0.1,0,0.1C4.6,6.9,4.9,7,5.2,7.1v0.1
		c-0.3,0-0.7-0.1-1-0.3C4.1,6.7,4,6.9,3.9,6.9c0,0-0.1,0-0.2,0L3.6,6.9c0.4,0.5,1,0.7,1.6,0.7l0,0.1C4.6,7.7,4.1,7.5,3.6,7L3.5,7
		L3.2,7.3c0.6,0.6,1.3,0.9,2.1,1c0.9,0,1.7-0.3,2.3-0.9c0,0,0,0,0,0L7.2,7C7,7.2,6.7,7.4,6.5,7.5C6.4,7.6,6.3,7.7,6.2,7.7l0,0
		C6,7.7,5.8,7.7,5.6,7.7l0-0.1c0.1,0,0.2,0,0.4-0.1c0-0.1-0.1-0.1-0.1-0.1c0,0-0.1-0.1-0.1-0.2C5.8,7.3,5.9,7.5,6,7.5
		c0.1-0.1,0-0.3,0-0.4c0,0-0.1,0-0.1,0c0,0,0,0.1,0,0.1c0,0,0,0.1,0,0.1c0,0-0.1-0.1-0.1-0.1c0,0,0-0.1-0.1-0.1l-0.1,0V7
		c0,0,0,0,0.1,0c-0.1,0,0-0.1-0.1-0.2c0.1,0,0.2,0.1,0.2,0.2c0,0,0.1,0,0.1,0C5.9,6.9,5.8,6.8,5.7,6.7V6.4c0.3-0.1,0.5-0.2,0.7-0.5
		c0-0.2,0-0.5-0.1-0.6C6,5.2,5.8,5.1,5.7,5V4.4c0,0,0.1,0,0.1,0c0,0.1-0.1,0.2,0,0.2c0.1,0,0.1-0.1,0.1-0.1c0,0,0-0.1,0.1-0.1
		C6,4.4,6,4.3,6.1,4.3l0.6-0.6c0,0,0-0.1,0-0.1l0.1,0c0-0.1,0.2-0.1,0.1-0.2c0,0,0,0,0,0c0.1-0.2,0-0.4,0-0.6c0,0,0,0,0,0
		c0.1,0,0.1,0.1,0.2,0.1c0,0.1,0.1,0.1,0.1,0.2c0,0,0,0.1,0.1,0.1l0.3-0.3C7.1,2.3,6.5,2,5.8,1.9V1.8c1.1,0.1,2.3,1,2.7,2.1
		c0.5,1.3,0.1,2.8-0.9,3.8c-0.6,0.5-1.2,0.8-2,0.8c-0.8,0-1.6-0.2-2.2-0.8c-1-0.9-1.5-2.4-1-3.7c0.3-0.9,1.2-1.8,2.1-2.1
		c0.2-0.1,0.5-0.1,0.7-0.2V1.9L5.1,1.9z M4.5,2.8C4.4,2.8,4.4,2.9,4.5,2.8c0,0.1,0,0.1,0,0.1C4.5,2.9,4.6,2.9,4.5,2.8
		C4.5,2.8,4.5,2.8,4.5,2.8L4.5,2.8z M7.6,2.9L7.3,3.2l0.1,0.1c0.1,0.1,0.1,0.2,0.2,0.2c0,0.1,0.2,0.2,0.3,0.4C7.9,4,7.8,4,7.8,4
		C7.9,4.3,8,4.7,8,5.1h0.5C8.5,4.2,8.2,3.5,7.6,2.9L7.6,2.9z M3.1,2.9C2.6,3.5,2.3,4.3,2.3,5.1h0.5c0-0.7,0.3-1.3,0.7-1.8
		C3.4,3.1,3.3,3,3.1,2.9L3.1,2.9z M7,3.6L6.8,3.7C7,3.8,7.1,4,7.2,4.1c0,0.1,0,0.1,0,0.2c0,0,0,0.1,0,0.1c0,0,0-0.1,0-0.1
		c0.1,0.1,0,0.2,0,0.3c0,0.1,0,0.3,0.1,0.5h0.5c0-0.3-0.1-0.7-0.2-1c0,0,0,0,0,0C7.6,4.1,7.5,4,7.5,3.9c0,0-0.1,0-0.1,0
		c0,0,0,0-0.1,0c0,0-0.1,0-0.2,0C7.1,3.7,7,3.6,7,3.6L7,3.6z M4.4,4.2L4,3.7C3.6,4.1,3.5,4.6,3.5,5.1h0.4C3.9,5,3.9,5,3.9,5
		c0-0.1,0.1-0.1,0.2-0.2C4.2,4.6,4.3,4.4,4.4,4.2L4.4,4.2L4.4,4.2z M6.8,3.7L6.4,4.2c0,0,0.1,0.1,0.1,0.1c0,0,0,0,0,0
		c0,0.1,0.1,0.1,0.2,0.1c0,0,0,0.1,0,0.1c0.1,0,0,0.1,0,0.2c0,0,0.1-0.1,0.1-0.1c0.1,0,0,0.1,0,0.2c0.1,0,0.1-0.1,0.2-0.2
		c0,0.1,0,0.2-0.1,0.3c0,0-0.1,0-0.1,0c0,0.1,0,0.1-0.1,0.1h0.5c0-0.1,0-0.2,0-0.2c0,0,0,0.1-0.1,0c0-0.1,0-0.2,0-0.4
		c0,0,0-0.1,0-0.1C7.2,4.3,7,4.3,7,4.2h0.1l0-0.1c0,0,0,0,0,0C6.9,4.1,6.9,4,6.9,3.9C6.8,3.9,6.8,3.8,6.8,3.7L6.8,3.7z M6.3,4.2
		L6.3,4.2C6.3,4.2,6.3,4.3,6.3,4.2L6.3,4.2L6.3,4.2z M6.2,4.3L6.2,4.3C6.1,4.5,6.2,4.4,6.2,4.3c0.1,0.1,0,0.2,0.1,0.2c0,0,0,0,0,0
		c0,0,0-0.1,0-0.1c0,0,0.1,0,0.1,0c0,0,0,0,0-0.1C6.3,4.4,6.3,4.3,6.2,4.3C6.2,4.4,6.2,4.4,6.2,4.3L6.2,4.3z M6,4.4
		C6,4.4,6.1,4.4,6,4.4L6,4.4L6,4.4z M2.3,5.1c0,0.8,0.3,1.6,0.9,2.2c0.1-0.1,0.3-0.2,0.4-0.4C3.4,6.9,3.4,6.8,3.3,6.8
		c0,0-0.1,0-0.1,0c0-0.1,0-0.1,0-0.2C3.1,6.5,3,6.5,3,6.5c0,0-0.1-0.1-0.1-0.1c0-0.1-0.1-0.1-0.2-0.2c-0.1,0-0.1,0-0.1-0.1
		c0,0-0.1,0-0.1,0c0,0,0-0.1,0-0.1c0-0.1,0.1-0.1,0.2-0.1c0,0,0.1,0,0.1-0.1c0-0.2-0.1-0.4-0.1-0.7H2.3L2.3,5.1z M3.4,5.1H2.9
		c0,0.2,0,0.5,0.1,0.7c0.1,0,0.1,0,0.2,0.1c0,0,0-0.1,0-0.1c0,0,0-0.1,0-0.2c0-0.1,0.1-0.2,0.2-0.2L3.4,5.1L3.4,5.1z M3.5,5.1l0,0.2
		c0,0,0.1,0.1,0.2,0.1c0.1,0,0.1-0.1,0.1-0.2C3.8,5.1,3.6,5.2,3.5,5.1L3.5,5.1z M4,5.2c-0.1,0,0,0.1-0.1,0.1c0,0.1,0,0.1-0.1,0.2
		c0,0,0,0.1,0,0.1c0.1,0,0,0.1,0,0.2c0.1,0.1,0.1,0.2,0,0.3C4,6.1,4,6.2,4,6.3c0,0,0,0,0,0.1c0,0,0,0,0.1,0C4.2,6.3,4.3,6.1,4.4,6
		C4.2,5.8,4.1,5.5,4,5.2C4.1,5.1,4,5.2,4,5.2L4,5.2z M6.8,5.1c0,0.1,0,0.2,0,0.2c0,0,0,0,0,0c0,0,0,0,0,0c0.1,0,0.1,0,0.2,0.1l0,0
		C7,5.5,6.9,5.6,6.9,5.6c0,0.1-0.2,0.1-0.2,0.2c0,0,0,0.1-0.1,0c0,0.1-0.2,0.1-0.2,0.2c0-0.1,0.2,0,0.2-0.1c0,0,0,0,0.1,0
		c0,0.1,0,0.2,0,0.2c0,0,0,0.1-0.1,0.1c0,0,0,0,0,0c0,0,0-0.1,0.1-0.1c0.1,0,0,0.2,0.1,0.3c0.4-0.4,0.5-0.8,0.6-1.3H6.8L6.8,5.1z
		 M7.4,5.1c0,0.5-0.2,1-0.6,1.4l0.1,0.1v0c0,0,0,0,0.1,0c0,0.1,0.1,0.2,0.2,0.3c0.5-0.5,0.7-1.1,0.7-1.7H7.4L7.4,5.1z M8,5.1
		C8,5.8,7.7,6.4,7.2,7l0.4,0.4l0.1-0.1c0.5-0.6,0.8-1.3,0.8-2.1H8L8,5.1z M4.1,5.2l0,0.1C4.2,5.3,4.2,5.2,4.1,5.2L4.1,5.2L4.1,5.2z
		 M4.2,5.4c0,0.2,0.1,0.4,0.3,0.5l0.2-0.2c0,0,0,0,0,0c-0.1,0-0.1-0.2-0.2-0.2c0,0-0.1,0-0.1,0C4.3,5.4,4.2,5.5,4.2,5.4L4.2,5.4z
		 M6.5,6.3c0,0-0.1,0-0.2,0l0,0C6.3,6.3,6.4,6.3,6.5,6.3L6.5,6.3L6.5,6.3z M6.8,6.6L6.6,6.7c0,0.1,0.1,0.1,0.1,0.1
		c0,0.1,0,0.1-0.1,0.2c0,0.1-0.1,0.2,0,0.3C6.8,7.2,7,7.1,7.1,6.9L7,6.8c0,0,0,0.1,0,0.1c-0.1,0-0.1-0.1-0.1-0.1
		C6.9,6.7,6.8,6.6,6.8,6.6L6.8,6.6z M3.6,6.9L3.6,6.9L3.6,6.9C3.6,6.9,3.6,6.9,3.6,6.9L3.6,6.9z"/>
	<path class="st0" d="M7.4,8.6c0,0,0.1,0,0.2,0C8,8.4,8.6,8.3,9.1,8l0.1-0.1C9.1,8,9.1,8.1,9,8.2C8.8,8.4,8.5,8.5,8.2,8.6
		c-0.4,0.1-0.8,0-1.2,0.1l0.2-0.3l0.4-0.8l0.3-0.4C7.8,7.8,7.6,8.2,7.4,8.6L7.4,8.6z"/>
	<path class="st0" d="M3,7.6c0.2,0.2,0.3,0.5,0.4,0.8c0.1,0.1,0.1,0.2,0.2,0.3c0,0-0.1,0-0.1,0l-0.6,0c-0.3,0-0.5-0.1-0.8-0.2
		C2,8.4,1.8,8.2,1.6,8C1.8,8.1,2,8.2,2.2,8.2l0.7,0.2C3,8.4,3,8.5,3.1,8.5c0.1,0,0.2,0.1,0.3,0.1C3.2,8.2,2.9,7.9,2.8,7.4
		C2.9,7.5,3,7.5,3,7.6L3,7.6z"/>
	<path class="st0" d="M5.1,8.8C5.1,8.9,5,9,4.9,9c-0.2,0-0.4,0-0.6,0.1C3.8,9.2,3.1,9.4,2.6,9L2.4,8.9C2.6,8.9,2.7,9,2.9,9
		c0.2,0,0.4,0,0.6,0l0.6-0.2C4.4,8.7,4.8,8.7,5.1,8.8L5.1,8.8z"/>
	<path class="st0" d="M7.6,9c0.3,0,0.5,0,0.8-0.1C8,9.2,7.6,9.3,7.1,9.2C6.6,9.1,6.1,8.9,5.6,9C5.3,9.1,5,9.2,4.8,9.4
		C4.7,9.4,4.6,9.6,4.5,9.7c0,0-0.1-0.1-0.1-0.1c0.6-0.6,1.3-1,2.2-0.8C6.9,8.8,7.2,9,7.6,9L7.6,9z"/>
	<path class="st0" d="M6.4,9.6c0,0-0.1,0-0.1,0C6.1,9.5,5.9,9.3,5.7,9.2c0,0,0.1,0,0.1,0C6,9.3,6.2,9.4,6.4,9.6L6.4,9.6z"/>
</g>
</svg>
