<?xml version="1.0" encoding="utf-8"?>
<!-- Generator: Adobe Illustrator 22.0.0, SVG Export Plug-In . SVG Version: 6.00 Build 0)  -->
<svg version="1.1" id="Layer_1" xmlns="http://www.w3.org/2000/svg" xmlns:xlink="http://www.w3.org/1999/xlink" x="0px" y="0px"
	 viewBox="0 0 94 94" style="enable-background:new 0 0 94 94;" xml:space="preserve">
<style type="text/css">
	.st0{fill:#FFFFFF;}
	.st1{fill:#E49D04;}
	.st2{fill:#020100;}
	.st3{fill:#D5202A;}
	.st4{fill:#718E1A;}
</style>
<g>
	<path class="st0" d="M73.6,79.5c-0.9-1.9-2-1.8-2.4-1.6c-0.2,0.1-0.3,0-0.5-0.1c-0.1-0.1-0.2-0.3-0.1-0.4c0.2-0.4,0.1-0.8-0.1-1
		c-0.7-0.8-3.2-0.7-4.2-0.6l0,0c-8.6,0.8-15.7,1.1-21.5,1.1c-10.4,0-16.1-0.9-17.2-1.1l0,0c-0.9-0.1-3.5-0.3-4.2,0.6
		c-0.2,0.2-0.2,0.6-0.1,1c0.1,0.1,0,0.3-0.1,0.4c-0.1,0.1-0.3,0.1-0.5,0.1c-0.4-0.2-1.5-0.3-2.4,1.6c0,0.1-0.1,0.1-0.1,0.2
		c-0.1,0.1-0.3,0.2-0.5,0.3l0.2,0.1c0.2,0.1,0.3,0.2,0.3,0.4c0,0.2,0,1.3,1.7,2.3c0.2,0.1,0.2,0.3,0.2,0.5c-0.1,0.1-0.3,0.6,0,1.1
		c0.2,0.3,0.6,0.6,1.1,0.8c0,0,0.1,0,0.1,0c0.2,0,0.3,0.1,0.5,0.1c2.6,0.7,7.4,2,23.2,2c15.8-0.1,20.6-1.3,23.2-2
		c0.2-0.1,0.4-0.1,0.5-0.1c0,0,0.1,0,0.1,0c0.6-0.2,1-0.4,1.1-0.8c0.2-0.5,0-1,0-1.1c-0.1-0.2,0-0.4,0.2-0.5c1.7-1,1.7-2.1,1.7-2.3
		c0-0.2,0.1-0.3,0.3-0.4l0.2-0.1c-0.3-0.1-0.4-0.2-0.5-0.3C73.6,79.6,73.6,79.6,73.6,79.5"/>
	<path class="st1" d="M74.1,80c-0.2,0.1-0.3,0.2-0.3,0.4c0,0.2,0,1.3-1.7,2.3c-0.2,0.1-0.2,0.3-0.2,0.5c0.1,0.1,0.3,0.6,0,1.1
		c-0.2,0.3-0.6,0.6-1.1,0.8c0,0-0.1,0-0.1,0c-0.2,0-0.3,0.1-0.5,0.1c-2.6,0.7-7.4,2-23.2,2c-15.8-0.1-20.6-1.3-23.2-2
		c-0.2-0.1-0.4-0.1-0.5-0.1c0,0-0.1,0-0.1,0c-0.6-0.2-1-0.4-1.1-0.8c-0.2-0.5,0-1,0-1.1c0.1-0.2,0-0.4-0.2-0.5
		c-1.7-1-1.7-2.1-1.7-2.3c0-0.2-0.1-0.3-0.3-0.4l-0.2-0.1c0.3-0.1,0.4-0.2,0.5-0.3c0.1,0,0.1-0.1,0.1-0.2c0.9-1.9,2-1.8,2.4-1.6
		c0.2,0.1,0.3,0,0.5-0.1c0.1-0.1,0.2-0.3,0.1-0.4c-0.2-0.4-0.1-0.8,0.1-1c0.7-0.8,3.3-0.7,4.2-0.6l0,0c1.1,0.2,6.7,1.1,17.2,1.1
		c5.7,0,12.9-0.3,21.5-1.1l0,0c1-0.1,3.5-0.2,4.2,0.6c0.2,0.2,0.2,0.6,0.1,1c-0.1,0.1,0,0.3,0.1,0.4c0.1,0.1,0.3,0.1,0.5,0.1
		c0.4-0.2,1.5-0.3,2.4,1.6c0,0.1,0.1,0.1,0.1,0.2c0.1,0.1,0.3,0.2,0.5,0.3L74.1,80z M75,79.4c-0.6-0.1-0.8-0.2-0.8-0.3
		c-0.9-1.9-2.1-2.1-2.8-2c0.1-0.5,0-0.9-0.3-1.2c-1.1-1.3-4.5-0.9-4.9-0.8l0,0c-25.7,2.4-38.4,0-38.5,0l0,0
		c-0.7-0.1-3.7-0.3-4.8,0.8c-0.3,0.3-0.4,0.7-0.3,1.2c-0.7-0.1-1.9,0.1-2.8,2c-0.1,0.1-0.3,0.2-0.8,0.3c-0.2,0-0.3,0.1-0.4,0.4
		c0,0.2,0.1,0.4,0.3,0.5l0.6,0.2c0,0.5,0.3,1.6,1.8,2.6c-0.1,0.3-0.2,0.9,0.1,1.4c0.3,0.5,0.8,0.9,1.6,1.1c0,0,0.1,0,0.1,0
		c0.2,0,0.3,0.1,0.5,0.1c2.6,0.7,7.5,2,23.4,2.1l0-0.3l0,0.3c15.9-0.1,20.8-1.4,23.4-2.1c0.2-0.1,0.4-0.1,0.5-0.1c0,0,0.1,0,0.1,0
		c0.8-0.2,1.3-0.6,1.6-1.1c0.3-0.6,0.2-1.1,0.1-1.4c1.6-1,1.8-2.1,1.8-2.6l0.6-0.2c0.2-0.1,0.3-0.3,0.3-0.5
		C75.4,79.6,75.2,79.5,75,79.4"/>
	<path class="st1" d="M46.4,17.6V22h-2.1l-0.6,0.9c0,0-4.1,3.5-10.8,1c0,0-1.3-0.4-3-1.4c0,0-5.8-3.5-10-2.1c0,0-2.2,0.9-2.7,3.7
		c0,0-0.2,1.7-0.3,4l-2.1,46.1l-0.1,1.5c0,0,0,0.7,1.1-0.3l16-13.8L28.6,73l-0.9,2.7l17.2,1.9H47h2.1l17.2-1.9L65.4,73l-3.3-11.4
		l16,13.8c1.1,1,1.1,0.3,1.1,0.3l-0.1-1.5L77,28c-0.1-2.3-0.3-4-0.3-4c-0.6-2.8-2.7-3.7-2.7-3.7c-4.1-1.4-10,2.1-10,2.1
		c-1.8,1.1-3,1.4-3,1.4c-6.6,2.6-10.8-1-10.8-1L49.6,22h-2v-4.3"/>
	<path class="st0" d="M44.5,57.2c0,0-0.6-0.5-1.6-1.4l-1.2,1.5l1.7,4.8"/>
	<path class="st0" d="M38.9,53.9l1.2-1.1c-0.5-0.6-1-1.3-1.6-2.1"/>
	<path class="st0" d="M39,54.5l0.5,4.7l3.2-3.7c-0.6-0.6-1.4-1.4-2.1-2.3"/>
	<path class="st0" d="M38.5,54.3l-0.4-4.4c-0.5-0.7-0.9-1.5-1.4-2.3l-2.3,7.6l0.9,2"/>
	<polyline class="st0" points="41.4,70.9 43.2,63.1 40.5,66.8 	"/>
	<polyline class="st0" points="33.4,69.9 36.2,66 37.6,70.1 40,66.7 38.9,61.8 36.1,65 35.1,61 31.7,64.2 	"/>
	<polyline class="st0" points="31.9,63.4 35.4,60.2 36.4,64 39.1,60.8 40.3,66.2 43,62.4 41.3,57.7 39.1,60.4 38.5,54.9 35.1,57.9 
		34.2,55.8 	"/>
	<path class="st0" d="M49.5,57.2l1.1,4.8l1.7-4.8L51,55.8C50.1,56.7,49.5,57.2,49.5,57.2"/>
	<path class="st0" d="M55.1,53.9l0.3-3.2c-0.5,0.7-1,1.4-1.6,2.1"/>
	<path class="st0" d="M51.4,55.5l3.2,3.7l0.5-4.7l-1.5-1.3C52.7,54.1,52,54.9,51.4,55.5"/>
	<path class="st0" d="M57.3,47.6c-0.4,0.8-0.9,1.6-1.4,2.3l-0.4,4.4l3.2,2.8l0.9-2"/>
	<polyline class="st0" points="52.6,70.9 53.5,66.8 50.8,63.1 	"/>
	<polyline class="st0" points="55.1,61.8 54,66.7 56.4,70.1 57.7,66 60.5,69.9 62.3,64.2 58.9,61 57.8,65 	"/>
	<polyline class="st0" points="62.5,64.9 60.9,70.4 63.5,74 63.1,74.3 60.7,70.9 59.5,74.8 59.1,75.8 56.9,72.7 55.8,75.4 
		55.4,75.3 56.8,71.7 59,74.9 59.1,74.6 60.4,70.4 57.9,67 56.6,71.1 53.9,67.3 52.8,71.9 53.5,74.8 53.6,75.5 53.1,75.5 53,74.9 
		52.5,73.1 51.4,74.1 49.7,72.9 48.1,62.1 48.6,72.9 47,74.9 45.4,72.9 45.8,62.1 44.3,72.9 42.6,74.1 41.5,73.1 41,74.9 40.8,75.5 
		40.3,75.5 40.5,74.8 41.1,71.9 40.1,67.3 37.4,71.1 36.1,67 33.6,70.4 34.9,74.6 35,74.9 37.2,71.7 38.6,75.3 38.1,75.4 37.1,72.7 
		34.9,75.8 34.4,74.8 33.3,70.9 30.9,74.3 30.5,74 33.1,70.4 31.4,64.9 28.9,73.2 28.9,75.2 44.1,76.9 45.2,76.9 46.1,76.9 47,76.9 
		47.8,76.9 48.8,76.9 49.9,76.9 65.1,75.2 65.1,73.2 	"/>
	<polyline class="st0" points="54.9,60.4 52.6,57.7 50.9,62.4 53.6,66.2 54.9,60.8 57.6,64 58.6,60.2 62.1,63.4 59.8,55.8 
		58.9,57.9 55.4,54.9 	"/>
	<path class="st0" d="M32.5,59.7l1.5-4.9l0.4-13.1c-0.5-1.6-0.8-3.1-1-4.5"/>
	<path class="st0" d="M60,54.8l1.5,4.9l-0.8-22.4c-0.2,1.3-0.5,2.8-1,4.5"/>
	<path class="st0" d="M76.3,25.4c-0.3-3.5-2.2-4.3-2.7-4.4c0,0,0,0,0,0c-4-0.9-9.2,2.2-9.2,2.2c-1.7,1-2.9,1.4-2.9,1.4
		C55,27,51,23.5,51,23.5l-0.6-0.9h-1.6h-1H47h-0.9h-1h-1.6L43,23.5c0,0-4,3.4-10.5,1c0,0-1.2-0.4-2.9-1.4c0,0-5.2-3.1-9.2-2.2
		c0,0,0,0,0,0c-0.4,0.1-2.4,0.9-2.7,4.4l3.2-1.4l-2,48l1.1-1l2-46.3l3.2,2.8l-1.7,40.3l1.4-1.2l1.8-38l2.5,1.9l-1.3,33.5l1.6-1.4
		l1.2-31.5l2.1,1.1c0-0.3,0-0.5,0-0.5c10.5,0.4,14-3.7,14-3.7s3.5,4.1,14,3.7c0,0,0,0.2,0,0.5l2.1-1.1l1.2,31.5l1.6,1.4l-1.3-33.5
		l2.5-1.9l1.8,38l1.4,1.2l-1.7-40.3l3.2-2.8l2,46.3l1.1,1l-2-48"/>
	<path class="st0" d="M60.2,32.5C50.3,32.8,47,29,47,29s-3.3,3.8-13.2,3.5c0,0-1,16,13.2,25.5C61.2,48.5,60.2,32.5,60.2,32.5"/>
	<path class="st1" d="M59.6,32.9C50.1,33.3,47,29.6,47,29.6s-3.1,3.7-12.6,3.3c0,0-1,15.3,12.6,24.5C60.6,48.3,59.6,32.9,59.6,32.9"
		/>
	<path class="st2" d="M58.9,33.5c-9,0.3-12-3.1-12-3.1s-3,3.5-12,3.1c0,0-0.9,14.5,12,23.2C59.9,48,58.9,33.5,58.9,33.5"/>
	<path class="st3" d="M35,33.5c0,0-0.7,10.3,6.9,18.8V32.9C40.2,33.3,37.9,33.6,35,33.5"/>
	<path class="st0" d="M47,56.7c2-1.4,3.7-2.8,5.1-4.4V32.9C48.4,32,47,30.4,47,30.4s-1.4,1.6-5.1,2.5v19.4
		C43.3,53.8,45,55.3,47,56.7"/>
	<path class="st1" d="M25.2,72.8c0,0-3.5,0.1-2.6,3.8c0,0,0.8-0.6,2.6-0.9c0,0,4.1,1,7.6,1.5c0,0,0,0.5,0.5,0.8c0,0,0.9,0.7,0.9,1.6
		c0,0,0.1-0.9,0.9-1.4c0,0,0.3-0.2,0.5-0.5c0,0,2.7,0.4,7.9,0.1c0,0,0.1,0.3,0.5,0.6c0,0,1.4,0.6,1.4,1.4c0,0,1.2-0.6,1.2-2.6
		c0,0-0.2-1.7-1.7-1.8c0,0-0.5-0.7-1.4-0.8c0,0-1.3,0.4-9-0.4c0,0-2.6-0.3-7.8-1.7C26.7,72.6,25.9,72.2,25.2,72.8"/>
	<path class="st0" d="M34.2,78.7c0,0,0.1-0.3,0.6-0.7c0,0,0.6-0.5,0.6-1.2c0,0,0.2-1.1-0.9-1.4c0,0-0.9,0-1.2,0.8c0,0-0.2,0.4-0.1,1
		c0,0,0.1,0.4,0.4,0.8C33.6,77.8,34.1,78.3,34.2,78.7"/>
	<path class="st0" d="M45.1,75.9c0,0,0,0.5-0.7,1c0,0-0.8,0.7-0.1,1.1c0,0,1.1,0.6,1.3,1.3c0,0,1.2-1.7,0.2-3.1
		C45.7,76.3,45.2,75.6,45.1,75.9"/>
	<path class="st0" d="M24.8,73.4c0,0,0.1,0.2,0,0.6c0,0-0.1,0.5,0,0.7c0,0,0.1,0.5-0.5,0.6c0,0-1.1,0.4-1.5,0.7c0,0-0.4-2,1.3-2.7
		C24.1,73.4,24.7,73.2,24.8,73.4"/>
	<path class="st0" d="M42.8,76.5c0,0-1.5,0-2,0.2c0,0-0.6,0.2-0.6-0.2c0,0,0.3-0.3,1.1-0.3c0,0,1.3-0.1,1.8,0
		C43,76.2,43.4,76.4,42.8,76.5 M39.1,76.4h-2.8c0,0,0,0,0,0c0.1-0.7,1.5-0.7,1.5-0.7C38.7,75.8,39,76.3,39.1,76.4
		C39.1,76.4,39.1,76.4,39.1,76.4 M32.5,75.8c-0.2,0-0.6-0.1-0.6-0.1c-0.6-0.2-1.3-0.3-1.3-0.3c-0.2-0.1-0.7-0.1-0.7-0.1
		c-0.3-0.2-0.4-0.3-0.4-0.3c0.9-0.2,2.1,0.2,2.1,0.2C32.8,75.4,32.5,75.8,32.5,75.8 M27.8,74.5c-0.4-0.2-1.2-0.4-1.2-0.4L26.1,74
		c-0.4-0.2,0-0.3,0-0.3c2,0.2,2.4,0.8,2.4,0.8C28.5,74.8,27.8,74.5,27.8,74.5 M44.3,75.7c0,0-0.3-0.2-0.5-0.4c0,0-0.1-0.2-0.9-0.1
		c0,0-8.6,0.4-16.1-2.1c0,0-0.8-0.4-1.3,0.3c0,0-0.7,0.8,0,1.8c0,0,0.2,0.2,0.6,0.3c0,0,1.4,0.5,6.6,1.4c0,0,0.1-1.9,1.8-1.9
		c0,0,1.5,0.2,1.3,2.4c0,0,3.1,0.2,7.2,0.1c0,0,0.4,0,0.6-0.5c0,0,0.3-0.6,0.9-0.8C44.5,76.2,44.8,75.9,44.3,75.7"/>
	<path class="st1" d="M68.8,72.8c0,0,3.5,0.1,2.6,3.8c0,0-0.8-0.6-2.6-0.9c0,0-4.1,1-7.6,1.5c0,0,0,0.5-0.5,0.8c0,0-0.9,0.7-0.9,1.6
		c0,0-0.1-0.9-0.9-1.4c0,0-0.3-0.2-0.5-0.5c0,0-2.7,0.4-7.9,0.1c0,0-0.1,0.3-0.5,0.6c0,0-1.4,0.6-1.4,1.4c0,0-1.2-0.6-1.2-2.6
		c0,0,0.2-1.7,1.7-1.8c0,0,0.5-0.7,1.4-0.8c0,0,1.3,0.4,9-0.4c0,0,2.6-0.3,7.8-1.7C67.3,72.6,68,72.2,68.8,72.8"/>
	<path class="st0" d="M59.7,78.7c0,0-0.1-0.3-0.6-0.7c0,0-0.6-0.5-0.6-1.2c0,0-0.2-1.1,0.9-1.4c0,0,0.9,0,1.2,0.8c0,0,0.2,0.4,0.1,1
		c0,0-0.1,0.4-0.4,0.8C60.4,77.8,59.8,78.3,59.7,78.7"/>
	<path class="st0" d="M48.9,75.9c0,0,0,0.5,0.7,1c0,0,0.8,0.7,0.1,1.1c0,0-1.1,0.6-1.3,1.3c0,0-1.2-1.7-0.2-3.1
		C48.2,76.3,48.8,75.6,48.9,75.9"/>
	<path class="st0" d="M69.2,73.4c0,0-0.1,0.2,0,0.6c0,0,0.1,0.5,0,0.7c0,0-0.1,0.5,0.5,0.6c0,0,1.1,0.4,1.5,0.7c0,0,0.4-2-1.3-2.7
		C69.9,73.4,69.3,73.2,69.2,73.4"/>
	<path class="st0" d="M50.9,76.2c0.4-0.1,1.8,0,1.8,0c0.8,0,1.1,0.3,1.1,0.3c0,0.4-0.6,0.2-0.6,0.2c-0.5-0.2-2-0.2-2-0.2
		C50.5,76.4,50.9,76.2,50.9,76.2 M54.9,76.4c0.1-0.2,0.4-0.6,1.3-0.6c0,0,1.4,0,1.5,0.7c0,0,0,0,0,0L54.9,76.4
		C54.9,76.4,54.8,76.4,54.9,76.4 M62.3,75.1c0,0,1.2-0.5,2.1-0.2c0,0,0,0.1-0.4,0.3c0,0-0.5,0-0.7,0.1c0,0-0.7,0.2-1.3,0.3
		c0,0-0.4,0.2-0.6,0.2C61.5,75.8,61.2,75.4,62.3,75.1 M65.5,74.5c0,0,0.4-0.6,2.4-0.8c0,0,0.4,0.1,0,0.3l-0.4,0.1
		c0,0-0.8,0.2-1.2,0.4C66.2,74.5,65.4,74.8,65.5,74.5 M49.5,76.2c0.5,0.2,0.9,0.8,0.9,0.8c0.3,0.5,0.6,0.5,0.6,0.5
		c4.1,0.1,7.2-0.1,7.2-0.1c-0.2-2.2,1.3-2.4,1.3-2.4c1.7,0,1.8,1.9,1.8,1.9c5.2-0.9,6.6-1.4,6.6-1.4c0.4-0.1,0.6-0.3,0.6-0.3
		c0.7-1,0-1.8,0-1.8c-0.6-0.6-1.3-0.3-1.3-0.3c-7.5,2.5-16.1,2.1-16.1,2.1c-0.8,0-0.9,0.1-0.9,0.1c-0.3,0.2-0.5,0.4-0.5,0.4
		C49.2,75.9,49.5,76.2,49.5,76.2"/>
	<path class="st1" d="M42.6,11.1c0,0,2,2.9-1.7,10.2c0,0-0.7,1.3-3.5,5.3c0,0,1.9,0.2,4.3-1.4l-0.4,2.3c0,0,1.1-0.1,3.7-2.3l2,1.9
		l1.7-1.9c0,0,1.6,1.5,4.1,1.8c0,0,0.2-0.5,0-1.4c0,0,1.7,1,3.7,0.6c0,0-1.3-0.6-2.6-4c0,0-0.7-1.6-0.9-4c0,0-0.2-2,0-4.6
		c0,0,0.3-5.3-2.3-6.5c0,0-1.8-1-4.9-1.4c0,0-1.3-0.2-1.4,0.8c0,0-1.9-0.4-3.6-0.4c0,0-2.3-0.2-2.4,2.5c0,0,0,0.9,0.4,1.2
		c0,0,0.2,0.2,0.8-0.3c0,0,0.1-0.3,1-0.3C40.5,9.5,41.6,9.5,42.6,11.1"/>
	<path class="st0" d="M47,8.5c0,0.3-0.3,0.5-0.6,0.5c-0.3,0-0.6-0.2-0.6-0.5c0-0.3,0.3-0.5,0.6-0.5C46.7,8,47,8.2,47,8.5"/>
	<path class="st0" d="M51.7,24.9c0,0,0-0.1-0.1-0.1l0,0c-0.4-0.7-1-2.1-1.2-4l-0.6-4.5l0.5-0.1l0.6,4.5c0.3,2.3,1.1,3.8,1.4,4.2
		c0.3,0.4,1.2,0.9,3,1.1c0,0-1.9-2.2-2.6-6.2c0,0-0.3-1.4-0.3-3.7c0,0,0.4-3.9-0.3-5.8c0,0-0.4-1.6-1.4-1.7c0,0-0.5-0.1-1.2,0
		c-0.4,0.1-1.1,0.1-1.5,0.4c0,0-0.4,0.2-0.6,0.4c0,0-0.1,0.1-0.1,0.4c0,0,0.1,0.2-0.4,0.2c0,0-0.4,0.1-0.6-0.2c0,0-0.1-0.6-0.8-0.5
		c0,0-0.3,0.1-1.3-0.6c0,0-1.4-1.3-2.5-1.3c0,0-0.9-0.1-1.7,0.2c0,0-0.6,0.2-0.7,0.9c0,0-0.1,0.6,0,1c0,0,0.1,0.4,0.2,0.1
		c0,0,0.6-1.1,1.1-1.2c0,0,0.8-0.2,1.4,0.1c0,0,0.3,0,2.5,1.8c0,0,0.3,0.2,1,1.2c0,0,0.3,0.3-0.2,0.3c0,0-1.6-0.3-1.5,0.1
		c0,0,0.8,3.2-1,7.5c0,0-0.7,2.7-4,6.8c0,0,1.2,0,3.5-1.3l0,0c0,0,0.7-0.4,1.7-2.9c0,0,0.8-2.2,1.3-6l0.5,0.1
		c-0.5,3.9-1.3,6.1-1.4,6.1c-0.8,2.1-1.4,2.8-1.8,3.1L41.9,27c0,0,1.7-0.7,3.2-2.1c0.2-0.4,0.7-1.3,1-3.5l0.6-5.7l0.5,0l-0.6,5.7
		c-0.3,2.2-0.7,3.2-1,3.7l0,0l1.5,1.5l1.4-1.5l0.1,0L48,15.9l0.5,0l0.4,9c0.2,0.2,1.2,1.2,3.5,1.7c0,0,0.1-0.4-0.6-1.5
		C51.8,25.1,51.7,25,51.7,24.9"/>
	<path class="st4" d="M26.1,80.8l-0.7,0.2c0,0-0.2,0-0.1-0.2l0.5-0.4c0,0,0.2-0.2,0.3,0.1C26.2,80.5,26.3,80.7,26.1,80.8 M30.7,80.2
		c0,0-0.2,0.3-0.8,0.4c0,0-0.2,0.2,0,0.3c0,0,0.3,0,0.3,0.3c0,0-0.1,0.3-0.2,0.7c0,0-0.1,0.2-0.3,0.1l-1.1-0.3c0,0-0.3,0-0.2-0.3
		l0.6-1.7c0,0,0-0.5-0.6,0c0,0-0.3,0.1-0.5,0.2c0,0-0.5,0.1-0.1,0.3c0,0,0.3,0,0.2,0.2l-0.2,0.8c0,0-0.1,0.2-0.4,0.2l-0.6-0.2
		c0,0-0.1,0-0.1-0.2c0,0,0.2-0.7,0.2-0.9l0.9-2.2c0,0,0.2-0.7-0.2-0.6c0,0-0.1,0.1-0.3,0.2c0,0-0.1,0.1-0.3,0.1h-0.7
		c0,0-0.7-0.3-0.7,0.3c0,0,0,0.5,0.7,0.4c0,0,0.2,0,0.3-0.3c0,0,0,0,0.2-0.1c0,0,0.3-0.1,0.3,0.1c0,0,0.1,0.5-0.4,1.4
		c0,0-0.2,0.3-0.5,0.3c0,0-0.6-0.1-1,0.6c0,0-0.4,0.5-0.4,0.8c0,0,0,0.2,0.5,0.3l4.5,1.2c0,0,0.8,0.3,1.1-0.5l0.5-1.9
		C31.3,80.4,31.2,79.9,30.7,80.2"/>
	<path class="st4" d="M26.1,78.9c0,0.2-0.2,0.4-0.4,0.4c-0.2,0-0.4-0.2-0.4-0.4c0-0.2,0.2-0.4,0.4-0.4
		C25.9,78.5,26.1,78.7,26.1,78.9"/>
	<path class="st4" d="M26.2,82.4c0,0.2-0.2,0.4-0.4,0.4c-0.2,0-0.4-0.2-0.4-0.4c0-0.2,0.2-0.4,0.4-0.4C26,82,26.2,82.2,26.2,82.4"/>
	<path class="st4" d="M27.3,82.7c0,0.2-0.2,0.4-0.4,0.4c-0.2,0-0.4-0.2-0.4-0.4c0-0.2,0.2-0.4,0.4-0.4
		C27.1,82.3,27.3,82.5,27.3,82.7"/>
	<path class="st4" d="M29.3,83.3c0,0.2-0.2,0.4-0.4,0.4c-0.2,0-0.4-0.2-0.4-0.4c0-0.2,0.2-0.4,0.4-0.4
		C29.1,82.9,29.3,83.1,29.3,83.3"/>
	<path class="st4" d="M35.6,81.8c-0.2,0.1-0.8,0-0.8,0c-0.3-0.1-0.2-0.3-0.2-0.3c0-0.1,0.2-0.1,0.2-0.1c0.1,0,0.3-0.3,0.3-0.3
		c0.2-0.3,0.3,0.1,0.3,0.1c0,0.3,0.1,0.4,0.1,0.4C35.7,81.7,35.6,81.8,35.6,81.8 M38.4,79.3c-0.1,0-0.2,0.1-0.2,0.1
		c-0.3,0.2-0.7,0.3-0.7,0.3c-0.3,0.2-0.1,0.4-0.1,0.4l0.1,0c0.2,0,0.2,0.3,0.2,0.3L37.3,84c0,0.1-0.1,0.1-0.1,0.1h-0.4
		c-0.1,0-0.1-0.2-0.1-0.2l0-0.7c0-0.3-0.1-0.3-0.1-0.3l-0.3,0l-0.3,0c-0.1,0-0.1-0.1-0.1-0.1l0-0.3c0-0.1,0.1-0.1,0.1-0.1l0.6,0
		c0.1,0,0.1,0,0.1,0c0.1-0.1,0.2-0.2,0.2-0.2c0.1-0.3-0.2-0.4-0.2-0.4c-0.2-0.1-0.2-0.2-0.2-0.2c-0.3-0.3-0.4-0.7-0.4-0.7
		c-0.2-0.7-0.7-0.8-0.7-0.8c-0.4,0-0.6,0.4-0.6,0.4c-0.3,0.4-0.8,0.5-0.8,0.5c-0.6,0-0.7,0.6-0.7,0.6c0,0.5,0.7,0.5,0.7,0.5
		c0.7-0.1,0.3,0.3,0.3,0.3c-0.4,0.6-1.3,0.3-1.3,0.3c-0.4-0.1-0.4-0.6-0.4-0.6c-0.1-0.6-0.2-1-0.2-1c-0.2-0.3-0.4,0-0.4,0
		c-0.1,0.2-0.2,0.3-0.2,0.3c-0.3,0.2-0.1,0.4-0.1,0.4c0.1,0.1,0.3,0.3,0.3,0.3l0,0.8c-0.1,0.6-0.8,0.7-0.8,0.7l-0.7,0
		c-0.3,0.2,0,0.4,0,0.4l1.1,0c0.4,0,0.7-0.5,0.7-0.5c0.3-0.3,0.7-0.3,0.7-0.3c0.5,0,0.7,0.1,0.7,0.1c0.6,0.3,1-0.1,1-0.1
		c0.4-0.5,0.5,0,0.5,0c-0.1,0.6,0.6,0.5,0.6,0.5c0.4-0.1,0.4-0.2,0.4,0.5c0.1,1.1,1.3,0.7,1.3,0.7c0.8-0.1,0.8-1.2,0.8-1.2l0.5-4.2
		C38.6,79.3,38.4,79.3,38.4,79.3"/>
	<path class="st4" d="M39.2,79.8l-0.4,3.8c0,0-0.1,0.4,0.2,0.5c0,0,0.4,0.1,0.5-0.1c0,0,0.1-0.2,0.1-0.6c0-0.3,0-1.4,0.2-2.8
		c0,0,0-0.3,0.3-0.2c0,0,0.1,0,0.1-0.1c0,0,0-0.2-0.1-0.2c0,0-0.4-0.3-0.5-0.5c0,0,0-0.1-0.1-0.1C39.4,79.5,39.2,79.4,39.2,79.8"/>
	<path class="st4" d="M49.2,83.8h-0.3c-0.4,0-0.3-0.1-0.3-0.1l0.3-0.4c0.1-0.1,0.2-0.1,0.2-0.1c0.1,0.1,0.2,0.5,0.2,0.5
		C49.3,83.8,49.2,83.8,49.2,83.8 M46.4,84.7c0,0-0.2,0.1-0.2-0.2v-0.5c0,0,0.1-0.2-0.3-0.2l-2.1,0c0,0-0.4,0-0.4-0.3
		c0,0,0-0.3,0.4-0.3h2.5c0,0,0.3,0,0.3,0.3v0.9C46.6,84.4,46.6,84.6,46.4,84.7 M49.8,82.4c0,0-0.1-0.1-0.3-0.2c0,0-0.1-0.1-0.6,0.3
		L48.1,83c0,0-0.3,0.3-0.3,0.4c0,0,0.1,0.3,0,0.3c0,0-0.4,0.1-0.4-0.3c0,0-0.1-0.9-0.4-0.9l-3,0c0,0-0.5,0.1-0.6-0.3l0-0.4
		c0,0,0-0.2-0.3-0.2c0,0-0.7,0.1-0.7,0.4c0,0-0.1,0.2,0.1,0.4c0,0,0.2,0.1,0.1,0.6l-0.1,0.4c0,0-0.1,0.2-0.2,0.2c0,0-0.4,0-0.5-0.2
		c0,0-0.2-0.9-0.6-1.1c0,0-0.2,0-0.5,0.2c0,0-0.4,0.4-0.1,0.8c0,0,0.5,0.5,0.3,1.2c0,0-0.2,0.6-1,0.7h-0.5c0,0-0.2,0.2,0,0.4
		c0,0,1.3,0.1,1.8-0.2c0,0,0.5-0.3,0.6-0.9c0,0,0-0.1,0.4-0.1l2.9,0.1c0,0,0.2,0,0.2,0.2c0,0,0.3,0.9,0.8,1c0,0,0.9,0.2,1.1-0.5
		c0,0,0.1-0.3,0.2-0.6c0,0,0.1-0.1,0.2-0.1h2.3c0,0,0.1,0,0.2-0.3C50.1,84.2,50.3,83.1,49.8,82.4"/>
	<path class="st4" d="M51.4,80.7c0,0.2-0.2,0.4-0.4,0.4c-0.2,0-0.4-0.2-0.4-0.4c0-0.2,0.2-0.4,0.4-0.4
		C51.2,80.3,51.4,80.5,51.4,80.7"/>
	<path class="st4" d="M51.5,81.7c0,0.2-0.2,0.4-0.4,0.4c-0.2,0-0.4-0.2-0.4-0.4s0.2-0.4,0.4-0.4C51.3,81.3,51.5,81.5,51.5,81.7"/>
	<path class="st4" d="M53,85.2c0,0.2-0.2,0.4-0.5,0.4c-0.3,0-0.5-0.2-0.5-0.4s0.2-0.4,0.5-0.4C52.8,84.8,53,85,53,85.2"/>
	<path class="st4" d="M54,85.1c0,0.2-0.2,0.4-0.4,0.4c-0.2,0-0.4-0.2-0.4-0.4c0-0.2,0.2-0.4,0.4-0.4C53.8,84.7,54,84.9,54,85.1"/>
	<path class="st4" d="M55.6,82.7c0,0,0.1,0.2,0.4,0.3c0,0,0.3,0.1,0.3,0.6c0,0,0.1,0.4-0.3,0.9c0,0-0.3,0.3-0.6,0.4
		c0,0-0.2,0.1-0.3,0.3c0,0,0,0.1,0.3,0.1c0,0,0.7,0.1,1.5-1c0,0,0.4-0.4-0.1-1.6c0,0-0.3-0.8-0.7-1c0,0-0.1-0.1-0.3,0.2
		C55.9,81.9,55.5,82.5,55.6,82.7"/>
	<path class="st4" d="M52.4,83.5C52.4,83.6,52.3,83.6,52.4,83.5l-0.5,0.2c-0.3,0-0.2-0.1-0.2-0.1c0.1-0.2,0.4-0.3,0.4-0.3
		C52.5,83.3,52.4,83.5,52.4,83.5 M55,83l-0.2-1.1c0,0-0.1-0.2-0.3-0.2c0,0-0.3,0.3-0.6,0.5c0,0-0.2,0.1-0.1,0.2c0,0,0.5,0.1,0.5,1.2
		c0,0-0.3,0.2-0.6,0.2c0,0-0.8,0.1-0.8-0.5L52.8,80c0,0-0.1-0.3-0.3-0.3c0,0-0.1,0-0.3,0.2l-0.4,0.4c0,0-0.1,0.1-0.1,0.2
		c0,0,0.1,0.1,0.2,0.1c0,0,0.2,0,0.2,0.2l0.1,1.4c0,0,0,0.2,0,0.2c0,0-1.1,0.5-1.2,1.3c0,0-0.3,0.7,0.1,0.8c0,0,0.5,0.1,1.1-0.1
		c0,0,0.5-0.1,1.1-0.1c0,0,1.5,0.1,1.8-0.1C55,84.2,55.1,83.4,55,83"/>
	<path class="st4" d="M68.7,82.8c0,0.2-0.3,0.4-0.5,0.3c-0.3,0-0.4-0.2-0.4-0.4c0-0.2,0.3-0.4,0.5-0.3
		C68.5,82.4,68.7,82.6,68.7,82.8"/>
	<path class="st4" d="M65.8,82.2c0,0.1-0.2,0.3-0.2,0.3c-0.2,0.1-0.4,0-0.4,0c-0.5-0.4,0.1-0.5,0.1-0.5
		C65.9,81.9,65.8,82.2,65.8,82.2 M63.3,83.4c-0.1,0.3-0.2,0.2-0.2,0.2c-0.1,0-0.3-0.2-0.3-0.2c-0.2-0.2,0-0.2,0-0.2
		c0.6-0.2,0.6,0,0.6,0C63.4,83.2,63.3,83.4,63.3,83.4 M62.3,82c0.1-0.4,0.7,0,0.7,0c0.3,0.3,0.2,0.4,0.2,0.4
		c-0.3,0.2-0.5,0.1-0.5,0.1C62.2,82.3,62.3,82,62.3,82 M61.7,82.7c-0.1,0.1-0.5,0-0.5,0C61,82.6,61,82.4,61,82.4
		c0-0.3,0.3-0.4,0.3-0.4c0.2,0,0.4,0.2,0.4,0.2C61.7,82.2,61.7,82.7,61.7,82.7 M59,82.7V83c-0.1,0.2-0.1,0.1-0.1,0.1h-0.4
		c-0.3,0-0.2-0.2-0.2-0.2c0.1-0.2,0.4-0.4,0.4-0.4C59.1,82.4,59,82.7,59,82.7 M69.8,81.4L69.4,81c0,0-0.1-0.3-0.5-0.1
		c0,0-0.1,0.1-0.2,0.2c0,0-0.3,0.5-0.9,0.1c0,0-0.3-0.3-0.3-0.5c0,0-0.2-0.4-0.2-0.7c0,0,0-0.5,0-1.1c0,0,0.1-0.6-0.7-1
		c0,0-0.6-0.3-1.4-0.2c0,0-0.7,0-0.8,0.4c0,0-0.2,0.3,0.6,0.8c0,0,0.1,0.2,0.3-0.2c0,0,0-0.1,0.2-0.1l0.6,0c0,0,0.4,0.1,0.4,0.6
		l0,0.4c0,0,0,0.6,0.2,1c0,0,0.1,0.3,0.3,0.6c0,0,0.3,0.6-0.1,0.7c0,0-0.4,0.2-0.6-0.2c0,0-0.5-0.8-1.2-0.3c0,0-0.5,0.3-0.6,0.6
		c0,0-0.1,0.4-0.3,0.4c0,0-0.3,0-0.5-0.4c0,0-0.4-0.7-1-0.8c0,0-0.4,0.1-0.5-0.4l-0.2-0.4c0,0-0.2-0.5-0.3-0.6c0,0-0.2,0-0.3,0.2
		l-0.3,0.5c0,0-0.2,0.3,0.2,0.4c0,0,0.4,0.1,0.2,0.4c0,0-0.7,0.5-1,0.9c0,0,0,0.2,0,0.3v0.5c0,0,0.1,0.2-0.1,0.2l-0.4,0
		c0,0-0.2,0-0.2-0.2l-0.3-1c0,0,0-0.1-0.2-0.1c0,0-0.3,0-0.6,0.2c0,0-0.9,0.5-0.8,1.3c0,0,0,0.6,0.6,0.7c0,0,0.5,0,0.6-0.2
		c0,0,0.2,0.5-0.2,0.6c0,0-0.3,0.1-0.7,0.2c0,0-0.2,0.1-0.2,0.2c0,0,0,0.1,0.4,0.1c0,0,0.9,0,1.4-0.7c0,0,0.1-0.1,0.1-0.4
		c0,0,0-0.2,0.3-0.3c0,0,0.5-0.1,0.9-0.1c0,0,0.6-0.2,0.8,0.1c0,0,0.2,0.1,0.2,0.3c0,0,0,0.5,0.9,0.5c0,0,0.8,0.1,1-1
		c0,0,0-0.6,0.4-0.5c0,0,0.2,0,0.4,0.2c0,0,0.2,0.4,0.6,0.3c0,0,0.8-0.1,1-0.7c0,0,0.2-0.3,0.4-0.3c0,0,1.5-0.1,2.6-0.6
		C69.5,81.7,69.9,81.6,69.8,81.4"/>
</g>
</svg>
