<?xml version="1.0" encoding="utf-8"?>
<!-- Generator: Adobe Illustrator 22.0.0, SVG Export Plug-In . SVG Version: 6.00 Build 0)  -->
<svg version="1.1" id="Layer_1" xmlns="http://www.w3.org/2000/svg" xmlns:xlink="http://www.w3.org/1999/xlink" x="0px" y="0px"
	 viewBox="0 0 16 16" style="enable-background:new 0 0 16 16;" xml:space="preserve">
<style type="text/css">
	.st0{fill:#FFFFFF;}
</style>
<path class="st0" d="M0,7.8C0,3.3,3.5,0,8,0s8,3.3,8,7.8s-3.5,7.8-8,7.8c-0.8,0-1.6-0.1-2.3-0.3c-0.1,0-0.3,0-0.4,0l-1.6,0.7
	c-0.3,0.1-0.7,0-0.8-0.3c0-0.1-0.1-0.2-0.1-0.2l0-1.4c0-0.2-0.1-0.3-0.2-0.5C1,12.1,0,10.1,0,7.8z M5.5,6.3L3.2,10
	c-0.2,0.4,0.2,0.8,0.6,0.5l2.5-1.9c0.2-0.1,0.4-0.1,0.6,0L8.7,10c0.5,0.4,1.3,0.3,1.7-0.2c0,0,0-0.1,0.1-0.1L12.8,6
	c0.2-0.4-0.2-0.8-0.6-0.5L9.7,7.4c-0.2,0.1-0.4,0.1-0.6,0L7.3,6C6.8,5.6,6,5.7,5.5,6.3C5.6,6.2,5.6,6.3,5.5,6.3L5.5,6.3z"/>
</svg>
