<?xml version="1.0" encoding="utf-8"?>
<!-- Generator: Adobe Illustrator 22.0.0, SVG Export Plug-In . SVG Version: 6.00 Build 0)  -->
<svg version="1.1" id="Layer_1" xmlns="http://www.w3.org/2000/svg" xmlns:xlink="http://www.w3.org/1999/xlink" x="0px" y="0px"
	 viewBox="0 0 542.4 147.7" style="enable-background:new 0 0 542.4 147.7;" xml:space="preserve">
<style type="text/css">
	.st0{fill:#FFD500;}
	.st1{fill:#57ABDF;}
	.st2{fill:url(#SVGID_1_);}
	.st3{fill:url(#SVGID_2_);}
	.st4{fill:url(#SVGID_3_);}
	.st5{fill:url(#SVGID_4_);}
	.st6{fill:url(#SVGID_5_);}
	.st7{fill:url(#SVGID_6_);}
	.st8{fill:url(#SVGID_7_);}
	.st9{fill:url(#SVGID_8_);}
	.st10{fill:#FFFFFF;}
	.st11{fill:url(#SVGID_9_);}
</style>
<g>
	<g>
		<g>
			<path d="M178.7,91.8c-1.8,0-2.8,0.2-3.5,0.6c0.3,0.8,0.4,2,0.4,2.5v11.1c0,0.8,0.6,1.2,1.4,1.2c0.7,0,1.1-0.3,1.3-0.5
				c-0.3-0.7-0.3-1.8-0.3-2.4v-3.2h0.5c4.3,0,6.6-1.7,6.6-4.9C185,93.1,182.9,91.8,178.7,91.8z M178.4,100.2c-0.2,0-0.4,0-0.5,0
				v-7.5c0.2,0,0.4,0,0.8,0c2.7,0,3.7,1.4,3.7,3.7C182.4,98.7,181.3,100.2,178.4,100.2z"/>
			<path d="M196.9,105.4c-0.4,0-0.6-0.3-0.6-1.1l0-7.3c0-0.9-0.6-1.3-1.3-1.3c-0.7,0-1.1,0.3-1.3,0.5c0.4,1,0.4,1.8,0.4,4.9
				c0,3.5-1.2,5-2.5,5c-1.4,0-1.8-1.1-1.8-3.6v-5.6c0-0.8-0.6-1.2-1.3-1.2c-0.6,0-1,0.3-1.3,0.5c0.3,0.8,0.3,1.9,0.3,2.6l0,4.1
				c0,3.2,1.1,4.4,3.4,4.4c1.8,0,2.9-0.9,3.5-2.6v0.1c0,1.7,0.7,2.5,1.9,2.5c1,0,1.5-0.5,1.5-1.3c0-0.3-0.1-0.5-0.3-0.8
				C197.3,105.4,197.1,105.4,196.9,105.4z"/>
			<path d="M205.3,95.7c-1.7,0-2.9,1-3.4,2.4l0-2.4c0-0.9,0-2.6,0.4-3.9c-0.2-0.2-0.7-0.5-1.4-0.5c-0.7,0-1.3,0.5-1.3,1.2v13.3
				c1,1,2.8,1.4,4.4,1.4c3.6,0,5-2.5,5-6.2C209.1,97.2,207.6,95.7,205.3,95.7z M203.9,106.2c-0.8,0-1.6-0.3-2-0.6v-3.8
				c0-2.3,0.8-4.8,2.9-4.8c1.2,0,1.8,1.2,1.8,4C206.6,103.6,206.2,106.1,203.9,106.2z"/>
			<path d="M214.5,105.4c-0.5,0-0.8-0.4-0.8-1.1V96c0-2,0-3.1,0.3-4.2c-0.2-0.2-0.6-0.5-1.3-0.5c-0.8,0-1.3,0.5-1.3,1.2v11.9
				c0,1.7,0.8,2.7,2.4,2.7c0.9,0,1.7-0.5,1.7-1.3c0-0.2-0.1-0.5-0.3-0.8C215.1,105.3,214.8,105.4,214.5,105.4z"/>
			<path d="M220,96.9c0-0.8-0.6-1.2-1.3-1.2c-0.6,0-1.1,0.3-1.3,0.5c0.3,0.8,0.3,1.7,0.3,2.6l0,7.2c0,0.8,0.6,1.2,1.3,1.2
				c0.7,0,1.1-0.3,1.3-0.5c-0.3-0.8-0.3-1.7-0.3-2.5L220,96.9z"/>
			<path d="M218.7,94.3c0.8,0,1.4-0.6,1.4-1.4c0-0.8-0.6-1.4-1.4-1.4c-0.8,0-1.4,0.6-1.4,1.4C217.3,93.7,217.9,94.3,218.7,94.3z"/>
			<path d="M231.3,103.6c-0.3,1.3-1.5,2.1-3,2.1c-2,0-3.4-1.3-3.4-4.6c0-2.9,1-4.5,2.6-4.5c0.9,0,1.6,0.4,1.6,1.6
				c0,0.7-0.2,1.2-0.6,1.5c0.3,0.3,0.8,0.5,1.3,0.5c1,0,1.7-0.7,1.7-1.8c0-1.5-1.3-2.7-3.8-2.7c-3.4,0-5.3,2.2-5.3,5.8
				c0,3.7,1.9,5.7,5.2,5.7c2,0,3.5-0.8,3.9-2.4C231.8,104.1,231.6,103.7,231.3,103.6z"/>
			<path d="M243.5,92.6c-0.2-0.6-0.7-0.8-1.3-0.8c-0.7,0-1.3,0.1-2,0.4l-4.3,12.8c-0.2,0.5-0.3,1-0.3,1.3c0,0.7,0.4,1,1.3,1
				c0.6,0,0.9-0.1,1.3-0.2c-0.1-0.1-0.2-0.3-0.2-0.6c0-0.3,0.1-0.6,0.1-0.9l0.9-3.1h5.1l1.1,3.8c0.1,0.6,0.7,0.9,1.5,0.9
				c0.7,0,1.2-0.3,1.4-0.5c-0.3-0.3-0.5-0.9-0.6-1.2L243.5,92.6z M239.4,101.1l2.2-7.9l2.2,7.9H239.4z"/>
			<path d="M259.3,105.3c-0.4,0-0.7-0.3-0.7-1.1l0-11.7c0-0.8-0.6-1.2-1.4-1.2c-0.7,0-1.1,0.3-1.3,0.5c0.3,1.1,0.4,2.5,0.4,3.5v1.8
				c-0.4-0.9-1.4-1.5-2.8-1.5c-2.9,0-4.5,2.3-4.5,6.2c0,2.8,0.9,5.3,3.7,5.3c1.8,0,3-1,3.7-2.9c0.1,1.8,0.7,2.8,2.1,2.8
				c0.9,0,1.6-0.5,1.6-1.2c0-0.2-0.1-0.6-0.3-0.8C259.8,105.3,259.5,105.3,259.3,105.3z M253.5,105.9c-1.6,0-1.9-1.7-1.9-4.1
				c0-3.2,0.8-4.9,2.5-4.9c1.9,0,2.2,1.6,2.2,3.3C256.3,103.1,255.4,105.9,253.5,105.9z"/>
			<path d="M277.8,100c0-2.9-1-4.4-3.2-4.4c-1.7,0-2.9,1-3.4,2.6c-0.3-1.7-1.3-2.6-3.1-2.6c-1.8,0-2.9,1-3.4,2.6
				c0-1.8-0.8-2.6-2-2.6c-0.9,0-1.6,0.6-1.6,1.3c0,0.3,0.1,0.5,0.3,0.8c0.1-0.3,0.4-0.4,0.6-0.4c0.4,0,0.7,0.4,0.7,1.1l0,7.3
				c0,0.8,0.6,1.3,1.3,1.3c0.7,0,1.2-0.3,1.4-0.5c-0.4-1-0.4-1.7-0.4-4.8c0-3.6,1.2-5.1,2.4-5.1c1.4,0,1.8,1.3,1.8,3.5v5.6
				c0,0.8,0.6,1.2,1.3,1.2c0.6,0,1-0.3,1.3-0.5c-0.3-0.8-0.4-1.8-0.4-2.5v-2.5c0-3.4,1.3-4.8,2.5-4.8c1.4,0,1.6,1.5,1.6,3.5v5.6
				c0,0.8,0.6,1.2,1.3,1.2c0.6,0,1-0.3,1.3-0.5c-0.3-0.8-0.3-1.8-0.3-2.5V100z"/>
			<path d="M283.3,96.9c0-0.8-0.6-1.2-1.3-1.2c-0.6,0-1.1,0.3-1.3,0.5c0.3,0.8,0.3,1.7,0.3,2.6l0,7.2c0,0.8,0.6,1.2,1.3,1.2
				c0.7,0,1.1-0.3,1.3-0.5c-0.3-0.8-0.3-1.7-0.3-2.5L283.3,96.9z"/>
			<path d="M282.1,94.3c0.8,0,1.4-0.6,1.4-1.4c0-0.8-0.6-1.4-1.4-1.4c-0.8,0-1.4,0.6-1.4,1.4C280.6,93.7,281.3,94.3,282.1,94.3z"/>
			<path d="M295.9,100c0-2.9-1.1-4.4-3.4-4.4c-1.8,0-3,0.9-3.6,2.6v-0.1c0-1.7-0.7-2.5-1.9-2.5c-1,0-1.5,0.5-1.5,1.3
				c0,0.3,0.1,0.5,0.3,0.8c0.1-0.3,0.4-0.3,0.6-0.3c0.4,0,0.6,0.3,0.6,1.1v7.3c0,0.8,0.6,1.3,1.4,1.3c0.6,0,1.1-0.3,1.3-0.5
				c-0.4-1-0.4-1.8-0.4-4.9c0-3.4,1.3-4.9,2.6-4.9c1.5,0,1.8,1.2,1.9,3.5v5.6c0,0.8,0.6,1.2,1.4,1.2c0.6,0,1-0.2,1.3-0.5
				c-0.3-0.8-0.4-1.8-0.4-2.5V100z"/>
			<path d="M301.4,96.9c0-0.8-0.6-1.2-1.3-1.2c-0.6,0-1.1,0.3-1.3,0.5c0.3,0.8,0.3,1.7,0.3,2.6l0,7.2c0,0.8,0.6,1.2,1.3,1.2
				c0.7,0,1.1-0.3,1.3-0.5c-0.3-0.8-0.3-1.7-0.3-2.5L301.4,96.9z"/>
			<path d="M300.2,94.3c0.8,0,1.4-0.6,1.4-1.4c0-0.8-0.6-1.4-1.4-1.4c-0.8,0-1.4,0.6-1.4,1.4C298.7,93.7,299.4,94.3,300.2,94.3z"/>
			<path d="M308.9,100.4c-1.4-0.7-2.7-1.2-2.7-2.5c0-0.9,0.9-1.3,1.9-1.3c1.1,0,1.8,0.5,2,1.3c0.1,0.3,0.1,0.7,0.1,1.1
				c0.2,0,0.4,0.1,0.7,0c0.8,0,1.1-0.6,1.1-1.2c0-1.4-1.5-2.1-3.8-2.1c-2.2,0-4.1,0.9-4.1,3c0,2.2,1.8,3,3.5,3.8
				c1.4,0.7,2.7,1.2,2.7,2.4c0,1-1,1.5-2.2,1.5c-1.6,0-2.4-0.9-2.5-1.9c-0.1-0.4-0.1-0.7,0-1c-1.4-0.2-1.8,0.6-1.8,1.3
				c0,1.5,1.3,2.5,4.1,2.5c3.5,0,4.7-1.7,4.7-3.3C312.5,102,310.6,101.2,308.9,100.4z"/>
			<path d="M317.4,96c0-0.9,0.1-1.6,0.3-2.3c-0.2-0.2-0.6-0.5-1.3-0.5c-0.8,0-1.4,0.4-1.4,1.2V96h-0.9c-0.3,0-0.6,0.2-0.6,0.6l0,0.6
				c0.3,0,1-0.1,1.3-0.1h0.3v7.3c0,1.7,0.9,2.7,2.4,2.7c1.2,0,2.1-0.6,2.1-1.3c0-0.2-0.1-0.5-0.3-0.8c-0.1,0.3-0.6,0.4-0.9,0.4
				c-0.7,0-1-0.4-1-1.2l0-6.4v-0.7h2c0.3,0,0.6-0.2,0.6-0.6l0-0.6c-0.2,0-2,0.1-2.2,0.1H317.4z"/>
			<path d="M327.3,95.7c-1.4,0-2.3,0.8-2.8,2.4c0-1.6-0.8-2.4-1.9-2.4c-1,0-1.5,0.5-1.5,1.3c0,0.3,0.1,0.5,0.3,0.8
				c0.1-0.3,0.4-0.3,0.6-0.3c0.4,0,0.6,0.3,0.6,1.1v7.2c0,0.9,0.6,1.3,1.4,1.3c0.7,0,1.1-0.3,1.3-0.5c-0.4-1-0.4-1.8-0.4-4.8
				c0-3.5,0.8-5,1.9-5c0.7,0,1.1,0.4,1.1,1.2c0,0.5-0.1,0.9-0.4,1.4c0.2,0.2,0.6,0.4,1.1,0.3c0.9,0,1.5-0.7,1.5-1.8
				C329.9,96.5,328.8,95.7,327.3,95.7z"/>
			<path d="M341.2,105.4c-0.5,0-0.7-0.4-0.7-1.1v-3.9c0-3.2-1.4-4.6-4.5-4.6c-2.6,0-4.3,0.9-4.3,2.6c0,1,0.7,1.9,1.9,1.9
				c0.5,0,1-0.1,1.3-0.5c-0.6-0.3-0.8-1-0.8-1.6c0-1.2,0.9-1.6,1.8-1.6c1.6,0,2.2,1.2,2.2,3.6v0.5c-0.9,0-2.1,0.1-3.3,0.4
				c-1.9,0.5-3.7,1.6-3.7,3.5c0,1.6,1.1,2.5,2.8,2.5c2,0,3.5-1.3,4.3-3c0,2.2,0.8,3,2.1,3c1,0,1.8-0.6,1.8-1.3
				c0-0.2-0.1-0.5-0.3-0.8C341.7,105.3,341.4,105.4,341.2,105.4z M335.1,105.6c-1,0.1-1.4-0.7-1.4-1.5c0-1,0.6-1.7,1.6-2.1
				c0.8-0.4,1.9-0.5,2.8-0.4C338.1,103.7,336.5,105.5,335.1,105.6z"/>
			<path d="M346.5,96c0-0.9,0.1-1.6,0.3-2.3c-0.2-0.2-0.6-0.5-1.3-0.5c-0.8,0-1.4,0.4-1.4,1.2V96h-0.9c-0.3,0-0.6,0.2-0.6,0.6l0,0.6
				c0.3,0,1-0.1,1.3-0.1h0.3v7.3c0,1.7,0.9,2.7,2.4,2.7c1.2,0,2.1-0.6,2.1-1.3c0-0.2-0.1-0.5-0.3-0.8c-0.1,0.3-0.6,0.4-0.9,0.4
				c-0.7,0-1-0.4-1-1.2l0-6.4v-0.7h2c0.3,0,0.6-0.2,0.6-0.6l0-0.6c-0.2,0-2,0.1-2.2,0.1H346.5z"/>
			<path d="M352.5,94.3c0.8,0,1.4-0.6,1.4-1.4c0-0.8-0.6-1.4-1.4-1.4c-0.8,0-1.4,0.6-1.4,1.4C351.1,93.7,351.7,94.3,352.5,94.3z"/>
			<path d="M353.7,96.9c0-0.8-0.6-1.2-1.3-1.2c-0.6,0-1.1,0.3-1.3,0.5c0.3,0.8,0.3,1.7,0.3,2.6l0,7.2c0,0.8,0.6,1.2,1.3,1.2
				c0.7,0,1.1-0.3,1.3-0.5c-0.3-0.8-0.3-1.7-0.3-2.5L353.7,96.9z"/>
			<path d="M361.3,95.7c-3.2,0-5.1,2.1-5.1,5.8s1.9,5.7,5.1,5.7c3.2,0,5.1-2.1,5.1-5.7S364.6,95.7,361.3,95.7z M361.3,106.3
				c-1.7,0-2.6-1.7-2.6-4.9c0-3.2,0.9-4.9,2.6-4.9s2.6,1.7,2.6,4.9C363.9,104.6,363,106.3,361.3,106.3z"/>
			<path d="M378.2,100c0-2.9-1.1-4.4-3.4-4.4c-1.8,0-3,0.9-3.6,2.6v-0.1c0-1.7-0.7-2.5-1.9-2.5c-1,0-1.5,0.5-1.5,1.3
				c0,0.3,0.1,0.5,0.3,0.8c0.1-0.3,0.4-0.3,0.6-0.3c0.4,0,0.6,0.3,0.6,1.1v7.3c0,0.8,0.6,1.3,1.4,1.3c0.6,0,1.1-0.3,1.3-0.5
				c-0.4-1-0.4-1.8-0.4-4.9c0-3.4,1.3-4.9,2.6-4.9c1.5,0,1.8,1.2,1.9,3.5v5.6c0,0.8,0.6,1.2,1.4,1.2c0.6,0,1-0.2,1.3-0.5
				c-0.3-0.8-0.4-1.8-0.4-2.5V100z"/>
			<path d="M390.2,95.7c-3.2,0-5.1,2.1-5.1,5.8s1.9,5.7,5.1,5.7c3.2,0,5.1-2.1,5.1-5.7S393.4,95.7,390.2,95.7z M390.2,106.3
				c-1.7,0-2.6-1.7-2.6-4.9c0-3.2,0.9-4.9,2.6-4.9c1.7,0,2.6,1.7,2.6,4.9C392.8,104.6,391.9,106.3,390.2,106.3z"/>
			<path d="M402,91.1c-3.1,0-3.9,2-3.9,4.2V96h-0.9c-0.3,0-0.6,0.2-0.6,0.6l0,0.6c0.3,0,1-0.1,1.3-0.1h0.2v8.9
				c0,0.8,0.6,1.2,1.3,1.2c0.6,0,1-0.3,1.3-0.5c-0.3-0.8-0.3-1.8-0.3-2.5v-7h2.2c0.3,0,0.6-0.2,0.6-0.6l0-0.6
				c-0.2,0-1.9,0.1-2.1,0.1h-0.8v-0.3c0-2,0-3.8,1.5-3.8c0.7,0,1.1,0.3,1.1,1c0,0.3-0.1,0.7-0.4,1.1c0.2,0.2,0.6,0.3,1,0.3
				c0.8,0,1.5-0.5,1.5-1.4C405,91.7,403.9,91.1,402,91.1z"/>
			<path d="M415.4,91.8c-1.3,0-3.5,0-4.6,0.2c0.3,0.8,0.3,2.1,0.3,2.9l0,10.8c0,0.7,0.5,1.2,1.4,1.2h3.1c4,0,6.4-2.3,6.4-7.6
				C422,94.3,419.6,91.8,415.4,91.8z M415.4,106h-2V92.7h2c2.6,0,3.9,2.1,3.9,6.7C419.3,104.2,418.1,106,415.4,106z"/>
			<path d="M433.4,98.8c0-2.1-1.8-3.2-4.2-3.2c-3.4,0-5.3,2.2-5.3,5.8c0,3.7,2,5.7,5.2,5.7c1.9,0,3.4-0.7,3.9-2.1
				c0.3-0.7,0.1-1-0.2-1.2c-0.4,1-1.6,1.7-3.1,1.7c-1.8,0-3.1-0.9-3.3-3.7c0.8,0.1,1.5,0.1,2.2,0.1
				C431.5,102.1,433.4,101,433.4,98.8z M426.4,101.1c0-2.9,1-4.6,2.7-4.6c0.9,0,1.7,0.4,1.7,1.9c0,2.3-1.8,2.7-3.4,2.7
				C427.1,101.2,426.7,101.1,426.4,101.1z"/>
			<path d="M445.1,100c0-2.9-1.1-4.4-3.4-4.4c-1.8,0-3,0.9-3.6,2.6v-0.1c0-1.7-0.7-2.5-1.9-2.5c-1,0-1.5,0.5-1.5,1.3
				c0,0.3,0.1,0.5,0.3,0.8c0.1-0.3,0.4-0.3,0.6-0.3c0.4,0,0.6,0.3,0.6,1.1v7.3c0,0.8,0.6,1.3,1.4,1.3c0.6,0,1.1-0.3,1.3-0.5
				c-0.4-1-0.4-1.8-0.4-4.9c0-3.4,1.3-4.9,2.6-4.9c1.5,0,1.8,1.2,1.9,3.5v5.6c0,0.8,0.6,1.2,1.4,1.2c0.6,0,1-0.2,1.3-0.5
				c-0.3-0.8-0.4-1.8-0.4-2.5V100z"/>
			<path d="M450.8,96c0-0.9,0.1-1.6,0.3-2.3c-0.2-0.2-0.6-0.5-1.3-0.5c-0.8,0-1.4,0.4-1.4,1.2V96h-0.9c-0.3,0-0.6,0.2-0.6,0.6l0,0.6
				c0.3,0,1-0.1,1.3-0.1h0.3v7.3c0,1.7,0.9,2.7,2.4,2.7c1.2,0,2.1-0.6,2.1-1.3c0-0.2-0.1-0.5-0.3-0.8c-0.1,0.3-0.6,0.4-0.9,0.4
				c-0.7,0-1-0.4-1-1.2l0-6.4v-0.7h2c0.3,0,0.6-0.2,0.6-0.6l0-0.6c-0.2,0-2,0.1-2.2,0.1H450.8z"/>
			<path d="M464.9,105.4c-0.5,0-0.7-0.4-0.7-1.1v-3.9c0-3.2-1.4-4.6-4.5-4.6c-2.6,0-4.3,0.9-4.3,2.6c0,1,0.7,1.9,1.9,1.9
				c0.5,0,1-0.1,1.3-0.5c-0.6-0.3-0.8-1-0.8-1.6c0-1.2,0.9-1.6,1.8-1.6c1.6,0,2.2,1.2,2.2,3.6v0.5c-0.9,0-2.1,0.1-3.3,0.4
				c-1.9,0.5-3.7,1.6-3.7,3.5c0,1.6,1.1,2.5,2.8,2.5c2,0,3.5-1.3,4.3-3c0,2.2,0.8,3,2.1,3c1,0,1.8-0.6,1.8-1.3
				c0-0.2-0.1-0.5-0.3-0.8C465.4,105.3,465.1,105.4,464.9,105.4z M458.8,105.6c-1,0.1-1.4-0.7-1.4-1.5c0-1,0.6-1.7,1.6-2.1
				c0.8-0.4,1.9-0.5,2.8-0.4C461.8,103.7,460.1,105.5,458.8,105.6z"/>
			<path d="M470.6,105.4c-0.5,0-0.8-0.4-0.8-1.1V96c0-2,0-3.1,0.3-4.2c-0.2-0.2-0.6-0.5-1.3-0.5c-0.8,0-1.3,0.5-1.3,1.2v11.9
				c0,1.7,0.8,2.7,2.4,2.7c0.9,0,1.7-0.5,1.7-1.3c0-0.2-0.1-0.5-0.3-0.8C471.2,105.3,470.8,105.4,470.6,105.4z"/>
			<path d="M489.5,93c0-0.8-0.6-1.2-1.4-1.2c-0.7,0-1.1,0.3-1.3,0.5c0.3,0.8,0.3,1.7,0.3,2.5v3.6h-6.2V93c0-0.8-0.6-1.2-1.4-1.2
				c-0.7,0-1.2,0.3-1.4,0.5c0.3,0.8,0.3,1.7,0.3,2.5l0,11.1c0,0.8,0.6,1.2,1.3,1.2c0.7,0,1.2-0.3,1.4-0.5c-0.3-0.8-0.3-1.7-0.3-2.5
				v-4.3h6.2l0,6.2c0,0.8,0.6,1.2,1.3,1.2c0.7,0,1.2-0.3,1.4-0.5c-0.3-0.8-0.3-1.7-0.3-2.5V93z"/>
			<path d="M501.6,98.8c0-2.1-1.8-3.2-4.2-3.2c-3.4,0-5.3,2.2-5.3,5.8c0,3.7,2,5.7,5.2,5.7c1.9,0,3.4-0.7,3.9-2.1
				c0.3-0.7,0.1-1-0.2-1.2c-0.4,1-1.6,1.7-3.1,1.7c-1.8,0-3.1-0.9-3.3-3.7c0.8,0.1,1.5,0.1,2.2,0.1
				C499.8,102.1,501.6,101,501.6,98.8z M494.7,101.1c0-2.9,1-4.6,2.7-4.6c0.9,0,1.7,0.4,1.7,1.9c0,2.3-1.8,2.7-3.4,2.7
				C495.4,101.2,495,101.1,494.7,101.1z"/>
			<path d="M513.3,105.4c-0.5,0-0.7-0.4-0.7-1.1v-3.9c0-3.2-1.4-4.6-4.5-4.6c-2.6,0-4.3,0.9-4.3,2.6c0,1,0.7,1.9,1.9,1.9
				c0.5,0,1-0.1,1.3-0.5c-0.6-0.3-0.8-1-0.8-1.6c0-1.2,0.9-1.6,1.8-1.6c1.6,0,2.2,1.2,2.2,3.6v0.5c-0.9,0-2.1,0.1-3.3,0.4
				c-1.9,0.5-3.7,1.6-3.7,3.5c0,1.6,1.1,2.5,2.8,2.5c2,0,3.5-1.3,4.3-3c0,2.2,0.8,3,2.1,3c1,0,1.8-0.6,1.8-1.3
				c0-0.2-0.1-0.5-0.3-0.8C513.8,105.3,513.5,105.4,513.3,105.4z M507.2,105.6c-1,0.1-1.4-0.7-1.4-1.5c0-1,0.6-1.7,1.6-2.1
				c0.8-0.4,1.9-0.5,2.8-0.4C510.3,103.7,508.6,105.5,507.2,105.6z"/>
			<path d="M519,105.4c-0.5,0-0.8-0.4-0.8-1.1V96c0-2,0-3.1,0.3-4.2c-0.2-0.2-0.6-0.5-1.3-0.5c-0.8,0-1.3,0.5-1.3,1.2v11.9
				c0,1.7,0.8,2.7,2.4,2.7c0.9,0,1.7-0.5,1.7-1.3c0-0.2-0.1-0.5-0.3-0.8C519.6,105.3,519.3,105.4,519,105.4z"/>
			<path d="M524.6,96c0-0.9,0.1-1.6,0.3-2.3c-0.2-0.2-0.6-0.5-1.3-0.5c-0.8,0-1.4,0.4-1.4,1.2V96h-0.9c-0.3,0-0.6,0.2-0.6,0.6l0,0.6
				c0.3,0,1-0.1,1.3-0.1h0.3v7.3c0,1.7,0.9,2.7,2.4,2.7c1.2,0,2.1-0.6,2.1-1.3c0-0.2-0.1-0.5-0.3-0.8c-0.1,0.3-0.6,0.4-0.9,0.4
				c-0.7,0-1-0.4-1-1.2l0-6.4v-0.7h2c0.3,0,0.6-0.2,0.6-0.6l0-0.6c-0.2,0-2,0.1-2.2,0.1H524.6z"/>
			<path d="M538.5,104.1l0-4.1c0-2.9-1.1-4.4-3.4-4.4c-1.6,0-2.8,0.8-3.4,2.3v-1.9c0-1.9,0.1-3.2,0.4-4.3c-0.2-0.2-0.9-0.6-1.6-0.5
				c-0.7,0-1.1,0.4-1.1,1.2l0,13.3c0,0.8,0.6,1.3,1.3,1.3c0.7,0,1.1-0.3,1.3-0.5c-0.4-1-0.4-1.8-0.4-4.9c0-3.5,1.3-5,2.6-5
				c1.5,0,1.9,1.3,1.9,3.5v5.6c0,0.8,0.6,1.2,1.3,1.2c0.6,0,1-0.3,1.3-0.5C538.5,105.9,538.5,104.8,538.5,104.1z"/>
		</g>
		<g>
			<path d="M178.6,47.7c0.1,0.1,0.3,0.2,0.5,0.3c0.2,0.1,0.4,0.1,0.6,0.1c0.2,0,0.4,0,0.6-0.1c0.2-0.1,0.4-0.2,0.5-0.3
				c0.1-0.1,0.2-0.3,0.3-0.5c0.1-0.2,0.1-0.4,0.1-0.6c0-0.2,0-0.4-0.1-0.6c-0.1-0.2-0.2-0.4-0.3-0.5c-0.1-0.1-0.3-0.2-0.5-0.3
				c-0.2-0.1-0.4-0.1-0.6-0.1c-0.2,0-0.4,0-0.6,0.1c-0.2,0.1-0.3,0.2-0.5,0.3c-0.1,0.1-0.2,0.3-0.3,0.5c-0.1,0.2-0.1,0.4-0.1,0.6
				c0,0.2,0,0.4,0.1,0.6C178.4,47.4,178.5,47.5,178.6,47.7z"/>
			<path d="M182.2,47.7c0.1,0.1,0.3,0.2,0.5,0.3c0.2,0.1,0.4,0.1,0.6,0.1c0.2,0,0.4,0,0.6-0.1c0.2-0.1,0.4-0.2,0.5-0.3
				c0.1-0.1,0.2-0.3,0.3-0.5c0.1-0.2,0.1-0.4,0.1-0.6c0-0.2,0-0.4-0.1-0.6c-0.1-0.2-0.2-0.4-0.3-0.5c-0.1-0.1-0.3-0.2-0.5-0.3
				c-0.2-0.1-0.4-0.1-0.6-0.1c-0.2,0-0.4,0-0.6,0.1c-0.2,0.1-0.3,0.2-0.5,0.3c-0.1,0.1-0.2,0.3-0.3,0.5c-0.1,0.2-0.1,0.4-0.1,0.6
				c0,0.2,0,0.4,0.1,0.6C181.9,47.4,182,47.5,182.2,47.7z"/>
			<path d="M190.9,63.4c-0.1-0.1-0.3-0.2-0.5-0.3c-0.2-0.1-0.4-0.1-0.6-0.1c-0.2,0-0.4,0-0.6,0.1c-0.2,0.1-0.3,0.2-0.5,0.3
				c-0.1,0.1-0.2,0.3-0.3,0.5c-0.1,0.2-0.1,0.4-0.1,0.6c0,0.2,0,0.4,0.1,0.6c0.1,0.2,0.2,0.3,0.3,0.5c0.1,0.1,0.3,0.2,0.5,0.3
				c0.2,0.1,0.4,0.1,0.6,0.1c0.2,0,0.4,0,0.6-0.1c0.2-0.1,0.4-0.2,0.5-0.3c0.1-0.1,0.2-0.3,0.3-0.5c0.1-0.2,0.1-0.4,0.1-0.6
				c0-0.2,0-0.4-0.1-0.6C191.1,63.7,191,63.5,190.9,63.4z"/>
			<path d="M195.6,50h-2.8v8h-4.4H188H186l0-6.7c0-0.2-0.1-0.5-0.2-0.7c-0.1-0.2-0.2-0.4-0.4-0.5c-0.2-0.2-0.4-0.3-0.6-0.4
				c-0.2-0.1-0.4-0.1-0.7-0.1h-3.5c-0.7,0-1.4,0.1-2.1,0.4c-0.6,0.3-1.2,0.7-1.7,1.1c-0.5,0.5-0.9,1-1.1,1.7
				c-0.3,0.6-0.4,1.3-0.4,2.1v4.2c0,0.3,0.1,0.6,0.3,0.9c0.2,0.3,0.5,0.4,0.8,0.5c0.6,0.2,1.3,0.3,2,0.4c0.7,0.1,1.4,0.1,2.1,0.1
				c0.2,0,0.4,0,0.7,0c0.2,0,0.4,0,0.7,0l-0.2-2.8c-0.4,0-0.7,0-1.1,0c-0.4,0-0.8,0-1.3-0.1c-0.4,0-0.8-0.1-1.2-0.2l0-3
				c0-0.3,0.1-0.7,0.2-1c0.1-0.3,0.3-0.6,0.5-0.8c0.2-0.2,0.5-0.4,0.8-0.5c0.3-0.1,0.6-0.2,1-0.2l2.5,0l0,6.9c0,0.2,0,0.4,0.1,0.6
				c0.1,0.2,0.2,0.3,0.3,0.5c0.1,0.1,0.3,0.2,0.4,0.3c0.2,0.1,0.4,0.1,0.6,0.1h3.3h0.3h5.8c0.2,0,0.4,0,0.6-0.1
				c0.2-0.1,0.3-0.2,0.5-0.3c0.1-0.1,0.2-0.3,0.3-0.4c0.1-0.2,0.1-0.4,0.1-0.5c0-0.1,0-0.1,0-0.1V50z"/>
			<path d="M194.4,63.4c-0.1-0.1-0.3-0.2-0.5-0.3c-0.2-0.1-0.4-0.1-0.6-0.1c-0.2,0-0.4,0-0.6,0.1c-0.2,0.1-0.3,0.2-0.5,0.3
				c-0.1,0.1-0.2,0.3-0.3,0.5c-0.1,0.2-0.1,0.4-0.1,0.6c0,0.2,0,0.4,0.1,0.6c0.1,0.2,0.2,0.3,0.3,0.5c0.1,0.1,0.3,0.2,0.5,0.3
				c0.2,0.1,0.4,0.1,0.6,0.1c0.2,0,0.4,0,0.6-0.1c0.2-0.1,0.4-0.2,0.5-0.3c0.1-0.1,0.2-0.3,0.3-0.5c0.1-0.2,0.1-0.4,0.1-0.6
				c0-0.2,0-0.4-0.1-0.6C194.6,63.7,194.5,63.5,194.4,63.4z"/>
			<path d="M204.2,51.4h-2.8c0,0.7,0,1.4,0.1,2.3c0,0.8,0.1,1.7,0.1,2.6c0,0.6,0,1.3-0.1,2c0,0.7-0.1,1.3-0.2,1.9
				c-0.1,0.6-0.3,1.2-0.5,1.7c-0.2,0.5-0.5,1-0.9,1.4c-0.4,0.4-0.8,0.7-1.4,0.9c-0.5,0.2-1.2,0.3-1.9,0.3v2.8c1.2,0,2.2-0.2,3-0.5
				c0.8-0.3,1.6-0.8,2.2-1.4c0.6-0.6,1.1-1.3,1.4-2.1c0.4-0.8,0.6-1.7,0.8-2.6c0.1-0.7,0.2-1.5,0.3-2.2c0-0.7,0.1-1.5,0.1-2.2
				c0-0.9,0-1.8-0.1-2.6C204.3,52.9,204.2,52.1,204.2,51.4z"/>
			<path d="M220.9,47.6c0.1,0.1,0.3,0.2,0.5,0.3c0.2,0.1,0.4,0.1,0.6,0.1c0.2,0,0.4,0,0.6-0.1c0.2-0.1,0.4-0.2,0.5-0.3
				c0.1-0.1,0.2-0.3,0.3-0.5c0.1-0.2,0.1-0.4,0.1-0.6c0-0.2,0-0.4-0.1-0.6c-0.1-0.2-0.2-0.4-0.3-0.5c-0.1-0.1-0.3-0.2-0.5-0.3
				c-0.2-0.1-0.4-0.1-0.6-0.1c-0.2,0-0.4,0-0.6,0.1c-0.2,0.1-0.3,0.2-0.5,0.3c-0.1,0.1-0.2,0.3-0.3,0.5c-0.1,0.2-0.1,0.4-0.1,0.6
				c0,0.2,0,0.4,0.1,0.6C220.7,47.3,220.8,47.5,220.9,47.6z"/>
			<path d="M257.3,58h-3v-8h-2.8v8h-2.9v-8h-2.8v8h-2.4h-0.3h-1.8v-1.8c0-0.7,0-1.3-0.1-1.8c-0.1-0.5-0.2-0.9-0.4-1.2
				c-0.2-0.3-0.4-0.6-0.7-0.8c-0.3-0.2-0.6-0.3-1-0.4c-0.4-0.1-0.9-0.1-1.4-0.2c-0.5,0-1.2,0-1.9,0h-5c0.4-0.7,0.8-1.2,1.4-1.7
				c0.6-0.5,1.2-0.9,1.9-1.2c0.7-0.3,1.5-0.6,2.2-0.7s1.5-0.2,2.3-0.2l0.1-2.8c-1,0-2,0.1-3.1,0.3c-1.1,0.2-2.1,0.6-3,1
				c-1,0.5-1.8,1.1-2.6,1.8c-0.8,0.7-1.4,1.6-1.9,2.5c-0.2,0.4-0.4,0.9-0.4,1.3c0,0.4,0,0.9,0.1,1.2c0.1,0.4,0.4,0.7,0.7,0.9
				c0.3,0.2,0.8,0.3,1.3,0.3l6.8,0c0.4,0,0.7,0,0.9,0c0.2,0,0.4,0.1,0.5,0.2c0.1,0.1,0.2,0.3,0.2,0.6c0,0.3,0,0.6,0,1.1V58h-12.4V58
				h-2.4V50h-2.8v8h-2.5H218h-1.4c-0.1-1.3-0.2-2.5-0.5-3.5c-0.3-1-0.7-1.8-1.3-2.5c-0.4-0.4-0.8-0.8-1.3-1.1
				c-0.5-0.3-1-0.6-1.6-0.8c-0.6-0.2-1.3-0.3-2.1-0.4c-0.8-0.1-1.6-0.1-2.5-0.1l0,2.8c1.4,0,2.6,0.1,3.4,0.3c0.9,0.2,1.5,0.6,2,1.1
				c0.4,0.4,0.7,1,0.8,1.6c0.2,0.7,0.3,1.5,0.3,2.5h-7.5v2.8l11.7,0v0l0,0l0.2,0v0l7.3,0v0h17.5h0.3h3.9c0.3,0,0.6-0.1,0.8-0.3
				c0.2-0.2,0.4-0.4,0.5-0.7v1h4.4c0.3,0,0.6-0.1,0.8-0.3c0.2-0.2,0.4-0.4,0.5-0.7v1h4.4c0.2,0,0.4,0,0.5-0.1
				c0.2-0.1,0.3-0.2,0.4-0.3c0.1-0.1,0.2-0.3,0.3-0.4c0.1-0.2,0.1-0.4,0.1-0.5V50h-2.8V58z"/>
			<path d="M270.5,55.2c0,0.7-0.2,1.2-0.4,1.7c-0.2,0.5-0.5,0.8-0.9,1.1c0-0.3,0-0.6-0.1-0.9c0-0.3-0.1-0.6-0.1-0.9
				c-0.1-1-0.4-1.9-0.6-2.9c-0.3-1-0.6-2-1.1-2.9c-0.4-1-1-1.9-1.6-2.8c-0.6-0.9-1.3-1.7-2-2.5l-2,2c0.6,0.6,1.2,1.4,1.7,2.1
				c0.5,0.8,0.9,1.6,1.3,2.4c0.4,0.8,0.7,1.7,0.9,2.5c0.2,0.9,0.4,1.7,0.5,2.5c0.1,0.4,0.1,0.9,0.1,1.3c0,0.4,0,0.8,0,1.2
				c-0.4,0.1-0.9,0.2-1.5,0.3c-0.5,0.1-1.1,0.2-1.6,0.3l0.5,2.8c0.9-0.2,1.8-0.3,2.6-0.5c0.8-0.1,1.6-0.3,2.2-0.5
				c0.7-0.2,1.3-0.5,1.8-0.8c0.5-0.3,1-0.7,1.4-1.2c0.4-0.5,0.7-1.1,0.9-1.7c0.2-0.7,0.4-1.5,0.4-2.5V44.9h-2.8V55.2z"/>
			<path d="M263.4,65.9c-0.1-0.1-0.1-0.3-0.1-0.4c0-0.2,0.1-0.3,0.2-0.4c0.1-0.1,0.3-0.2,0.5-0.2l1.5,0v-1.1h-1.5
				c-0.3,0-0.5,0-0.7,0.1c-0.2,0.1-0.4,0.2-0.5,0.4c-0.1,0.2-0.2,0.3-0.3,0.6c-0.1,0.2-0.1,0.4-0.1,0.6c0,0.1,0,0.2,0,0.3
				c0,0.1,0,0.2,0.1,0.3h-0.5v1.1h3.6v-1.1h-1.6C263.6,66.1,263.5,66,263.4,65.9z"/>
			<path d="M285.2,63.3c-0.1-0.1-0.3-0.2-0.5-0.3c-0.2-0.1-0.4-0.1-0.6-0.1c-0.2,0-0.4,0-0.6,0.1c-0.2,0.1-0.3,0.2-0.5,0.3
				c-0.1,0.1-0.2,0.3-0.3,0.5c-0.1,0.2-0.1,0.4-0.1,0.6c0,0.2,0,0.4,0.1,0.6c0.1,0.2,0.2,0.3,0.3,0.5c0.1,0.1,0.3,0.2,0.5,0.3
				c0.2,0.1,0.4,0.1,0.6,0.1c0.2,0,0.4,0,0.6-0.1c0.2-0.1,0.4-0.2,0.5-0.3c0.1-0.1,0.2-0.3,0.3-0.5c0.1-0.2,0.1-0.4,0.1-0.6
				c0-0.2,0-0.4-0.1-0.6C285.5,63.6,285.4,63.4,285.2,63.3z"/>
			<path d="M287.2,50h-2.8v8h-3.4h-0.3h-2.3V44.9h-2.8v14.4c0,0,0,0.1,0,0.1c0,0.2,0,0.4,0.1,0.5c0.1,0.2,0.2,0.3,0.3,0.4
				c0.1,0.1,0.3,0.2,0.5,0.3c0.2,0.1,0.4,0.1,0.5,0.1h3.7h0.3h4.8c0.2,0,0.4,0,0.6-0.1c0.2-0.1,0.3-0.2,0.5-0.3
				c0.1-0.1,0.2-0.3,0.3-0.4c0.1-0.2,0.1-0.4,0.1-0.5c0-0.1,0-0.1,0-0.1V50z"/>
			<path d="M303.5,60c0,0.4-0.1,0.8-0.2,1.1c-0.2,0.3-0.4,0.6-0.6,0.8c-0.3,0.2-0.6,0.4-0.9,0.5c-0.3,0.1-0.7,0.1-1,0.1
				c-0.4,0-0.7,0-1-0.1c-0.3-0.1-0.6-0.2-0.9-0.5c-0.3-0.2-0.5-0.5-0.6-0.8c-0.2-0.3-0.2-0.7-0.2-1.1v-4.9h-2.8V60
				c0,0.9,0.2,1.6,0.5,2.3c0.3,0.7,0.7,1.2,1.3,1.7c0.5,0.4,1.1,0.8,1.8,1c0.7,0.2,1.4,0.3,2.1,0.3c0.7,0,1.4-0.1,2.1-0.3
				c0.7-0.2,1.3-0.6,1.8-1c0.5-0.4,1-1,1.3-1.7c0.3-0.7,0.5-1.4,0.5-2.3v-9.8h-2.8V60z"/>
			<path d="M299.3,48.7c0.1,0.1,0.3,0.2,0.5,0.3c0.2,0.1,0.4,0.1,0.6,0.1c0.2,0,0.4,0,0.6-0.1c0.2-0.1,0.4-0.2,0.5-0.3
				c0.1-0.1,0.2-0.3,0.3-0.5s0.1-0.4,0.1-0.6s0-0.4-0.1-0.6c-0.1-0.2-0.2-0.4-0.3-0.5c-0.1-0.1-0.3-0.2-0.5-0.3
				c-0.2-0.1-0.4-0.1-0.6-0.1c-0.2,0-0.4,0-0.6,0.1c-0.2,0.1-0.3,0.2-0.5,0.3c-0.1,0.1-0.2,0.3-0.3,0.5c-0.1,0.2-0.1,0.4-0.1,0.6
				s0,0.4,0.1,0.6C299,48.4,299.1,48.5,299.3,48.7z"/>
			<path d="M316.5,47.6c0.1,0.1,0.3,0.2,0.5,0.3c0.2,0.1,0.4,0.1,0.6,0.1c0.2,0,0.4,0,0.6-0.1c0.2-0.1,0.4-0.2,0.5-0.3
				c0.1-0.1,0.2-0.3,0.3-0.5c0.1-0.2,0.1-0.4,0.1-0.6c0-0.2,0-0.4-0.1-0.6c-0.1-0.2-0.2-0.4-0.3-0.5c-0.1-0.1-0.3-0.2-0.5-0.3
				c-0.2-0.1-0.4-0.1-0.6-0.1c-0.2,0-0.4,0-0.6,0.1c-0.2,0.1-0.3,0.2-0.5,0.3c-0.1,0.1-0.2,0.3-0.3,0.5c-0.1,0.2-0.1,0.4-0.1,0.6
				c0,0.2,0,0.4,0.1,0.6C316.3,47.3,316.4,47.5,316.5,47.6z"/>
			<path d="M335.5,58h-3v-8h-2.8v8h-2.9v-8H324v8h-2.5V58H319V50h-2.8v8h-2.3h-0.3h-2.3V44.9h-2.8v14.4c0,0,0,0.1,0,0.1
				c0,0.2,0,0.4,0.1,0.5c0.1,0.2,0.2,0.3,0.3,0.4c0.1,0.1,0.3,0.2,0.5,0.3c0.2,0.1,0.4,0.1,0.5,0.1h4v0l7.3,0v0h4.2
				c0.3,0,0.6-0.1,0.8-0.3c0.2-0.2,0.4-0.4,0.5-0.7v1h4.4c0.3,0,0.6-0.1,0.8-0.3c0.2-0.2,0.4-0.4,0.5-0.7v1h4.4c0.2,0,0.4,0,0.5-0.1
				c0.2-0.1,0.3-0.2,0.4-0.3c0.1-0.1,0.2-0.3,0.3-0.4c0.1-0.2,0.1-0.4,0.1-0.5V50h-2.8V58z"/>
			<path d="M346.2,42.5h-1.6c-0.2,0-0.4-0.1-0.5-0.2c-0.1-0.1-0.1-0.3-0.1-0.4c0-0.2,0.1-0.3,0.2-0.4s0.3-0.2,0.5-0.2l1.5,0v-1.1
				h-1.5c-0.3,0-0.5,0-0.7,0.1c-0.2,0.1-0.4,0.2-0.5,0.4c-0.1,0.2-0.2,0.3-0.3,0.6c-0.1,0.2-0.1,0.4-0.1,0.6c0,0.1,0,0.2,0,0.3
				c0,0.1,0,0.2,0.1,0.3h-0.5v1.1h3.6V42.5z"/>
			<path d="M348.8,55.2c0,0.7-0.2,1.2-0.4,1.7c-0.2,0.5-0.5,0.8-0.9,1.1c0-0.3,0-0.6-0.1-0.9c0-0.3-0.1-0.6-0.1-0.9
				c-0.1-1-0.4-1.9-0.6-2.9c-0.3-1-0.6-2-1.1-2.9c-0.4-1-1-1.9-1.6-2.8c-0.6-0.9-1.3-1.7-2-2.5l-2,2c0.6,0.6,1.2,1.4,1.7,2.1
				c0.5,0.8,0.9,1.6,1.3,2.4c0.4,0.8,0.7,1.7,0.9,2.5c0.2,0.9,0.4,1.7,0.5,2.5c0.1,0.4,0.1,0.9,0.1,1.3c0,0.4,0,0.8,0,1.2
				c-0.4,0.1-0.9,0.2-1.5,0.3c-0.5,0.1-1.1,0.2-1.6,0.3l0.5,2.8c0.9-0.2,1.8-0.3,2.6-0.5c0.8-0.1,1.6-0.3,2.2-0.5
				c0.7-0.2,1.3-0.5,1.8-0.8c0.5-0.3,1-0.7,1.4-1.2c0.4-0.5,0.7-1.1,0.9-1.7c0.2-0.7,0.4-1.5,0.4-2.5V44.9h-2.8V55.2z"/>
			<rect x="354.5" y="44.9" width="2.8" height="15.9"/>
			<path d="M375.6,63.3c-0.1-0.1-0.3-0.2-0.5-0.3c-0.2-0.1-0.4-0.1-0.6-0.1c-0.2,0-0.4,0-0.6,0.1c-0.2,0.1-0.3,0.2-0.5,0.3
				s-0.2,0.3-0.3,0.5s-0.1,0.4-0.1,0.6c0,0.2,0,0.4,0.1,0.6c0.1,0.2,0.2,0.3,0.3,0.5s0.3,0.2,0.5,0.3c0.2,0.1,0.4,0.1,0.6,0.1
				c0.2,0,0.4,0,0.6-0.1c0.2-0.1,0.4-0.2,0.5-0.3c0.1-0.1,0.2-0.3,0.3-0.5c0.1-0.2,0.1-0.4,0.1-0.6c0-0.2,0-0.4-0.1-0.6
				S375.8,63.4,375.6,63.3z"/>
			<path d="M405.3,44.9h-2.8V58h-2.3h-0.3h-1.6v-7c0-0.2,0-0.4-0.1-0.5c-0.1-0.2-0.2-0.3-0.3-0.4c-0.1-0.1-0.3-0.2-0.4-0.3
				c-0.2-0.1-0.4-0.1-0.5-0.1l-5.2-0.1c-0.5,0-1,0.1-1.4,0.2c-0.4,0.1-0.8,0.3-1.2,0.5c-0.3,0.2-0.6,0.5-0.9,0.8
				c-0.2,0.3-0.4,0.6-0.5,0.9v-7.1h-2.8V58H383h-0.3h-1.9v-8h-2.8v8l-6.9,0c-0.5,0-0.9-0.1-1.2-0.2c-0.3-0.1-0.6-0.3-0.8-0.5
				c-0.2-0.2-0.3-0.4-0.4-0.7c-0.1-0.3-0.1-0.6-0.1-0.9c0-0.5,0.1-1,0.2-1.5c0.1-0.5,0.3-0.9,0.4-1.2l-2.5-1.3
				c-0.1,0.2-0.2,0.5-0.4,0.8c-0.1,0.3-0.2,0.6-0.3,1c-0.1,0.3-0.2,0.7-0.2,1.1c0,0.4-0.1,0.7-0.1,1.1c0,0.6,0.1,1.3,0.3,1.9
				c0.2,0.6,0.5,1.2,0.9,1.7c0.4,0.5,1,0.9,1.7,1.2c0.7,0.3,1.5,0.5,2.6,0.5h11.5h0.3h16.9h0.3h3.7c0.2,0,0.4,0,0.5-0.1
				c0.2-0.1,0.3-0.2,0.5-0.3c0.1-0.1,0.2-0.3,0.3-0.4c0.1-0.2,0.1-0.4,0.1-0.5c0-0.1,0-0.1,0-0.1V44.9z M395.4,58h-7.7v-2.6
				c0-0.5,0.1-1,0.4-1.3c0.2-0.4,0.5-0.7,0.9-0.9c0.4-0.3,0.8-0.4,1.2-0.6c0.5-0.1,0.9-0.2,1.4-0.2c0,0,0.4,0,1,0c0.6,0,1.6,0,2.9,0
				V58z"/>
			<path d="M416.1,47.7c0.1,0.1,0.3,0.2,0.5,0.3c0.2,0.1,0.4,0.1,0.6,0.1c0.2,0,0.4,0,0.6-0.1c0.2-0.1,0.4-0.2,0.5-0.3
				c0.1-0.1,0.2-0.3,0.3-0.5c0.1-0.2,0.1-0.4,0.1-0.6c0-0.2,0-0.4-0.1-0.6s-0.2-0.4-0.3-0.5s-0.3-0.2-0.5-0.3
				c-0.2-0.1-0.4-0.1-0.6-0.1c-0.2,0-0.4,0-0.6,0.1c-0.2,0.1-0.3,0.2-0.5,0.3s-0.2,0.3-0.3,0.5s-0.1,0.4-0.1,0.6
				c0,0.2,0,0.4,0.1,0.6C415.9,47.4,416,47.5,416.1,47.7z"/>
			<path d="M419.7,47.7c0.1,0.1,0.3,0.2,0.5,0.3c0.2,0.1,0.4,0.1,0.6,0.1c0.2,0,0.4,0,0.6-0.1c0.2-0.1,0.4-0.2,0.5-0.3
				c0.1-0.1,0.2-0.3,0.3-0.5c0.1-0.2,0.1-0.4,0.1-0.6c0-0.2,0-0.4-0.1-0.6c-0.1-0.2-0.2-0.4-0.3-0.5s-0.3-0.2-0.5-0.3
				c-0.2-0.1-0.4-0.1-0.6-0.1c-0.2,0-0.4,0-0.6,0.1c-0.2,0.1-0.3,0.2-0.5,0.3s-0.2,0.3-0.3,0.5s-0.1,0.4-0.1,0.6
				c0,0.2,0,0.4,0.1,0.6C419.4,47.4,419.5,47.5,419.7,47.7z"/>
			<path d="M437.9,50.1c-0.1-0.1-0.3-0.2-0.4-0.3c-0.2-0.1-0.4-0.1-0.5-0.1l-4-0.1c-0.5,0-1,0-1.4,0.2c-0.4,0.1-0.9,0.3-1.3,0.6
				c-0.4,0.2-0.7,0.5-1.1,0.9c-0.3,0.3-0.6,0.7-0.8,1.1c-0.2,0.4-0.4,0.8-0.5,1.2c-0.1,0.4-0.2,0.8-0.2,1.2V58h-1.9h-0.4h-1.9l0-6.7
				c0-0.2-0.1-0.5-0.2-0.7c-0.1-0.2-0.2-0.4-0.4-0.5c-0.2-0.2-0.4-0.3-0.6-0.4c-0.2-0.1-0.4-0.1-0.7-0.1h-3.5
				c-0.7,0-1.4,0.1-2.1,0.4c-0.6,0.3-1.2,0.7-1.7,1.1s-0.9,1-1.1,1.7c-0.3,0.6-0.4,1.3-0.4,2.1v4.2c0,0.3,0.1,0.6,0.3,0.9
				c0.2,0.3,0.5,0.4,0.8,0.5c0.6,0.2,1.3,0.3,2,0.4c0.7,0.1,1.4,0.1,2.1,0.1c0.2,0,0.4,0,0.7,0c0.2,0,0.4,0,0.7,0l-0.2-2.8
				c-0.4,0-0.7,0-1.1,0c-0.4,0-0.8,0-1.3-0.1c-0.4,0-0.8-0.1-1.2-0.2l0-3c0-0.3,0.1-0.7,0.2-1c0.1-0.3,0.3-0.6,0.5-0.8
				c0.2-0.2,0.5-0.4,0.8-0.5c0.3-0.1,0.6-0.2,1-0.2l2.5,0l0,6.9c0,0.2,0,0.4,0.1,0.6s0.2,0.3,0.3,0.5c0.1,0.1,0.3,0.2,0.4,0.3
				c0.2,0.1,0.4,0.1,0.6,0.1h3.3h0.4h11.1c0.2,0,0.4,0,0.6-0.1c0.2-0.1,0.3-0.2,0.4-0.3c0.1-0.1,0.2-0.3,0.3-0.5
				c0.1-0.2,0.1-0.4,0.1-0.6v-8.3c0-0.2,0-0.4-0.1-0.5C438.1,50.3,438,50.2,437.9,50.1z M435.5,58h-5v-3.2c0-0.3,0.1-0.6,0.2-0.9
				c0.1-0.3,0.3-0.5,0.5-0.8c0.2-0.2,0.5-0.4,0.8-0.5c0.3-0.1,0.6-0.2,0.9-0.2c0,0,0,0,0.1,0c0,0,0.1,0,0.3,0c0.2,0,0.4,0,0.8,0
				c0.3,0,0.8,0,1.5,0V58z"/>
			<path d="M465.2,44.9h-2.8V58h-2.3h-0.3h-3.5l1.5-2.3c0.5-0.8,0.8-1.5,0.8-2.3c0-0.6-0.1-1.1-0.3-1.5c-0.2-0.5-0.5-0.9-0.9-1.2
				c-0.4-0.3-0.8-0.6-1.3-0.8s-1.1-0.3-1.6-0.3h-2.9c-0.6,0-1.2,0.1-1.8,0.3s-1,0.5-1.3,0.8c-0.4,0.4-0.7,0.8-0.8,1.2
				c-0.2,0.4-0.3,0.9-0.3,1.4c0,0.4,0.1,0.7,0.2,1.1c0.1,0.4,0.3,0.8,0.6,1.2l1.5,2.3h-3.4h-0.4h-2.2V44.9h-2.8v14.4
				c0,0,0,0.1,0,0.1c0,0.2,0,0.4,0.1,0.5c0.1,0.2,0.2,0.3,0.3,0.4c0.1,0.1,0.3,0.2,0.5,0.3c0.2,0.1,0.4,0.1,0.5,0.1h3.6h0.4h13.7
				h0.3h3.7c0.2,0,0.4,0,0.5-0.1c0.2-0.1,0.3-0.2,0.5-0.3c0.1-0.1,0.2-0.3,0.3-0.4c0.1-0.2,0.1-0.4,0.1-0.5c0-0.1,0-0.1,0-0.1V44.9z
				 M455.5,54.1L453,58h-0.1l-2.5-3.9c-0.2-0.3-0.3-0.5-0.3-0.8c0-0.1,0-0.3,0.1-0.4c0.1-0.1,0.2-0.2,0.3-0.3
				c0.1-0.1,0.3-0.1,0.4-0.2c0.2,0,0.3-0.1,0.5-0.1h2.9c0.2,0,0.3,0,0.5,0.1c0.2,0,0.3,0.1,0.5,0.2c0.1,0.1,0.2,0.2,0.3,0.3
				c0.1,0.1,0.1,0.3,0.1,0.4C455.8,53.6,455.7,53.8,455.5,54.1z"/>
			<rect x="468.3" y="44.9" width="2.8" height="15.9"/>
			<path d="M482.7,47.7c0.1,0.1,0.3,0.2,0.5,0.3c0.2,0.1,0.4,0.1,0.6,0.1c0.2,0,0.4,0,0.6-0.1c0.2-0.1,0.4-0.2,0.5-0.3
				c0.1-0.1,0.2-0.3,0.3-0.5c0.1-0.2,0.1-0.4,0.1-0.6c0-0.2,0-0.4-0.1-0.6c-0.1-0.2-0.2-0.4-0.3-0.5s-0.3-0.2-0.5-0.3
				s-0.4-0.1-0.6-0.1c-0.2,0-0.4,0-0.6,0.1c-0.2,0.1-0.3,0.2-0.5,0.3s-0.2,0.3-0.3,0.5c-0.1,0.2-0.1,0.4-0.1,0.6
				c0,0.2,0,0.4,0.1,0.6C482.5,47.4,482.6,47.5,482.7,47.7z"/>
			<path d="M486.3,47.7c0.1,0.1,0.3,0.2,0.5,0.3c0.2,0.1,0.4,0.1,0.6,0.1c0.2,0,0.4,0,0.6-0.1c0.2-0.1,0.4-0.2,0.5-0.3
				c0.1-0.1,0.2-0.3,0.3-0.5c0.1-0.2,0.1-0.4,0.1-0.6c0-0.2,0-0.4-0.1-0.6c-0.1-0.2-0.2-0.4-0.3-0.5s-0.3-0.2-0.5-0.3
				c-0.2-0.1-0.4-0.1-0.6-0.1c-0.2,0-0.4,0-0.6,0.1c-0.2,0.1-0.3,0.2-0.5,0.3s-0.2,0.3-0.3,0.5c-0.1,0.2-0.1,0.4-0.1,0.6
				c0,0.2,0,0.4,0.1,0.6C486,47.4,486.1,47.5,486.3,47.7z"/>
			<path d="M490.2,50.7c-0.1-0.2-0.2-0.4-0.4-0.6s-0.4-0.3-0.6-0.4c-0.2-0.1-0.4-0.1-0.7-0.1H485c-0.7,0-1.4,0.1-2.1,0.4
				c-0.6,0.3-1.2,0.7-1.7,1.1c-0.5,0.5-0.9,1-1.1,1.7c-0.3,0.6-0.4,1.3-0.4,2.1v4.2c0,0.4,0.1,0.7,0.3,0.9c0.2,0.2,0.4,0.4,0.8,0.5
				c0.3,0.1,0.6,0.2,1,0.3c0.4,0.1,0.7,0.1,1,0.2c0.4,0,0.7,0.1,1.1,0.1c0.4,0,0.7,0,1.1,0c0.7,0,1.4,0,2.1-0.1
				c0.7-0.1,1.4-0.2,2-0.4c0.3-0.1,0.6-0.2,0.8-0.5c0.2-0.3,0.3-0.6,0.3-0.9l0-7.7C490.3,51.2,490.3,50.9,490.2,50.7z M487.5,58
				c-0.4,0.1-0.8,0.1-1.2,0.2c-0.4,0-0.8,0.1-1.3,0.1c-0.2,0-0.4,0-0.6,0c-0.2,0-0.4,0-0.6,0c-0.2,0-0.4,0-0.6-0.1
				c-0.2,0-0.4-0.1-0.7-0.1l0-3c0-0.3,0.1-0.7,0.2-1c0.1-0.3,0.3-0.6,0.5-0.8c0.2-0.2,0.5-0.4,0.8-0.5c0.3-0.1,0.6-0.2,1-0.2l2.5,0
				V58z"/>
			<path d="M498.9,51.4H496c0,0.7,0,1.4,0.1,2.3c0,0.8,0.1,1.7,0.1,2.6c0,0.6,0,1.3-0.1,2c0,0.7-0.1,1.3-0.2,1.9
				c-0.1,0.6-0.3,1.2-0.5,1.7c-0.2,0.5-0.5,1-0.9,1.4c-0.4,0.4-0.8,0.7-1.4,0.9c-0.5,0.2-1.2,0.3-1.9,0.3v2.8c1.2,0,2.2-0.2,3-0.5
				c0.8-0.3,1.6-0.8,2.2-1.4c0.6-0.6,1.1-1.3,1.4-2.1c0.4-0.8,0.6-1.7,0.8-2.6c0.1-0.7,0.2-1.5,0.3-2.2c0-0.7,0.1-1.5,0.1-2.2
				c0-0.9,0-1.8-0.1-2.6C498.9,52.9,498.9,52.1,498.9,51.4z"/>
			<rect x="501.5" y="44.9" width="2.8" height="15.9"/>
			<path d="M517.4,55.1c-0.1-0.6-0.3-1.2-0.6-1.7c-0.2-0.5-0.5-1-0.9-1.4c-0.4-0.4-0.8-0.8-1.3-1.1c-0.5-0.3-1-0.6-1.6-0.8
				c-0.6-0.2-1.3-0.3-2.1-0.4c-0.8-0.1-1.6-0.1-2.5-0.1l0,2.8c1.4,0,2.6,0.1,3.4,0.3c0.9,0.2,1.5,0.6,2,1.1c0.4,0.4,0.7,1,0.8,1.7
				s0.3,1.5,0.3,2.5h-7.5v2.8h8.9c0.2,0,0.4,0,0.5-0.1c0.2-0.1,0.3-0.2,0.4-0.3c0.1-0.1,0.2-0.3,0.3-0.4c0.1-0.2,0.1-0.4,0.1-0.5
				c0-0.9,0-1.6-0.1-2.4C517.7,56.4,517.6,55.7,517.4,55.1z"/>
			<path d="M521.3,65.9c-0.1-0.1-0.1-0.3-0.1-0.4c0-0.2,0.1-0.3,0.2-0.4c0.1-0.1,0.3-0.2,0.5-0.2l1.5,0v-1.1h-1.5
				c-0.3,0-0.5,0-0.7,0.1c-0.2,0.1-0.4,0.2-0.5,0.4s-0.2,0.3-0.3,0.6c-0.1,0.2-0.1,0.4-0.1,0.6c0,0.1,0,0.2,0,0.3
				c0,0.1,0,0.2,0.1,0.3h-0.5v1.1h3.6v-1.1h-1.6C521.6,66.1,521.4,66,521.3,65.9z"/>
			<path d="M528.4,55.2c0,0.7-0.2,1.2-0.4,1.7c-0.2,0.5-0.5,0.8-0.9,1.1c0-0.3,0-0.6-0.1-0.9c0-0.3-0.1-0.6-0.1-0.9
				c-0.1-1-0.4-1.9-0.6-2.9c-0.3-1-0.6-2-1.1-2.9c-0.4-1-1-1.9-1.6-2.8c-0.6-0.9-1.3-1.7-2-2.5l-2,2c0.6,0.6,1.2,1.4,1.7,2.1
				c0.5,0.8,0.9,1.6,1.3,2.4c0.4,0.8,0.7,1.7,0.9,2.5c0.2,0.9,0.4,1.7,0.5,2.5c0.1,0.4,0.1,0.9,0.1,1.3c0,0.4,0,0.8,0,1.2
				c-0.4,0.1-0.9,0.2-1.5,0.3c-0.5,0.1-1.1,0.2-1.6,0.3l0.5,2.8c0.9-0.2,1.8-0.3,2.6-0.5c0.8-0.1,1.6-0.3,2.2-0.5
				c0.7-0.2,1.3-0.5,1.8-0.8c0.5-0.3,1-0.7,1.4-1.2c0.4-0.5,0.7-1.1,0.9-1.7c0.2-0.7,0.4-1.5,0.4-2.5V44.9h-2.8V55.2z"/>
			<rect x="534.1" y="44.9" width="2.8" height="15.9"/>
		</g>
		<g>
			<rect x="174.9" y="80.4" width="363.8" height="0.7"/>
		</g>
	</g>
	<g>
		<g>
			<g>
				<g>
					<path class="st0" d="M75.5,87.9h6l-0.1-1.3L80,58.9H67.4l-1.4,27.6l-0.1,1.3h5.9v-4.3c0-1,0.8-1.9,1.9-1.9c0.5,0,1,0.2,1.3,0.6
						c0.3,0.3,0.6,0.8,0.6,1.3V87.9z M74.8,77c0,0.2-0.2,0.4-0.4,0.4h-1.5c-0.2,0-0.4-0.2-0.4-0.4v-2.7c0-0.2,0.2-0.4,0.4-0.4h1.5
						c0.2,0,0.4,0.2,0.4,0.4V77z M74.8,70.6c0,0.2-0.2,0.4-0.4,0.4h-1.5c-0.2,0-0.4-0.2-0.4-0.4v-2.3c0-0.2,0.2-0.4,0.4-0.4h1.5
						c0.2,0,0.4,0.2,0.4,0.4V70.6z M74.8,64.4c0,0.2-0.2,0.4-0.4,0.4h-1.5c-0.2,0-0.4-0.2-0.4-0.4v-2.3c0-0.2,0.2-0.4,0.4-0.4h1.5
						c0.2,0,0.4,0.2,0.4,0.4V64.4z M86.9,84.7l-1.5-25.8l0-0.3l-0.3-5.1H62.9l-0.3,5.1l0,0.3l-1.5,26l-0.2,3h4.7l0.1-1.4l1.4-27.6
						l0-0.3h13.1l0,0.3l1.4,27.6l0.1,1.3h5.3L86.9,84.7z"/>
					<rect x="60.5" y="49.4" class="st0" width="26.6" height="1.3"/>
					<rect x="66.4" y="48.2" class="st0" width="14.7" height="1"/>
					<polygon class="st0" points="83.1,53.3 84.5,51.1 63.2,51.1 64.7,53.3 					"/>
					<rect x="68" y="36" class="st0" width="2.4" height="11.9"/>
					<rect x="76.9" y="36" class="st0" width="2.4" height="11.9"/>
					<g>
						<path class="st0" d="M70.7,36v11.9h5.9V36H70.7z M73.6,38.3c0.6,0,1.1,0.5,1.1,1.1s-0.5,1.1-1.1,1.1s-1.1-0.5-1.1-1.1
							S73,38.3,73.6,38.3z M74.8,45c0,0.2-0.2,0.4-0.4,0.4h-1.5c-0.2,0-0.4-0.2-0.4-0.4v-1.6c0-0.2,0.2-0.4,0.4-0.4h1.5
							c0.2,0,0.4,0.2,0.4,0.4V45z"/>
					</g>
					<g>
						<path class="st0" d="M76.2,24.5l-2.1-2.1c-0.2-0.2-0.6-0.2-0.9,0l-2.1,2.1c-0.2,0.2-0.2,0.6,0,0.9l0.1,0.1h0.3v1.3h-0.3v7.8
							h4.9v-7.8h-0.3v-1.3h0.3l0.1-0.1C76.4,25.2,76.4,24.8,76.2,24.5z M74.8,33.3h-2.3v-6h0.3V33h1.7v-5.7h0.3V33.3z M75.1,26.8h-3
							v-1.3h3V26.8z"/>
					</g>
					<rect x="70.7" y="34.9" class="st0" width="5.9" height="0.8"/>
					<rect x="76.9" y="34.9" class="st0" width="3" height="0.8"/>
					<rect x="67.4" y="34.9" class="st0" width="3" height="0.8"/>
					<rect x="69" y="33.3" class="st0" width="1.7" height="1.3"/>
					<rect x="76.6" y="33.3" class="st0" width="1.7" height="1.3"/>
				</g>
				<path class="st1" d="M102.2,31.1l-3.5-0.2l-2.9-0.2l-19.4-1v0.5l20,1l3,0.2l2.8,0.1c0.1,0,0.3-0.1,0.3-0.2
					C102.4,31.2,102.3,31.1,102.2,31.1z M110.9,26.3l-17.5,0.9l-1.9,0.1l-15.1,0.8v1l17.9,0.3l2.5,0l8.5,0.1c0.1,0,0.3-0.1,0.3-0.2
					c0-0.1-0.1-0.3-0.2-0.3L96.1,29l-2.4,0l-17.1-0.3l15.6-0.8l2-0.1l16.8-0.9c0.1,0,0.2-0.1,0.2-0.3
					C111.1,26.4,111,26.3,110.9,26.3z M98.9,33.1L98,33l-21.6-2.4V32l12.9,3.5c0.1,0,0.3,0,0.3-0.2c0-0.1,0-0.3-0.2-0.3l-12.3-3.3
					l16,3.1c0.1,0,0.3-0.1,0.3-0.2c0-0.1-0.1-0.3-0.2-0.3l-16.5-3.2l21.8,2.5l0.3,0c0.1,0,0.3-0.1,0.3-0.2
					C99.1,33.2,99,33.1,98.9,33.1z M112.6,22.1c0-0.1-0.1-0.2-0.3-0.2l-22.4,3.6l-1.2,0.2l-12.2,1.9v0.5l13-2.1l1.3-0.2l21.7-3.4
					C112.5,22.4,112.6,22.3,112.6,22.1z M58.8,25.7l-1.3-0.2L35,21.9c-0.1,0-0.3,0.1-0.3,0.2c0,0.1,0.1,0.3,0.2,0.3l21.9,3.5
					l1.3,0.2l12.8,2v-0.5L58.8,25.7z M56,27.4l-1.9-0.1l-17.7-0.9c-0.1,0-0.3,0.1-0.3,0.2c0,0.1,0.1,0.3,0.2,0.3l17,0.9l2,0.1
					l15.3,0.8l-16.8,0.3l-2.4,0l-9.5,0.2c-0.1,0-0.2,0.1-0.2,0.3c0,0.1,0.1,0.2,0.3,0.2l8.8-0.2l2.5,0l17.6-0.3v-1L56,27.4z
					 M49.6,33l-1.2,0.1c-0.1,0-0.2,0.1-0.2,0.3c0,0.1,0.1,0.2,0.3,0.2l0.6-0.1l21.5-2.4l-16.5,3.2c-0.1,0-0.2,0.2-0.2,0.3
					c0,0.1,0.2,0.2,0.3,0.2l16-3.1L57.9,35c-0.1,0-0.2,0.2-0.2,0.3c0,0.1,0.2,0.2,0.3,0.2L70.9,32v-1.4L49.6,33z M51.7,30.8
					l-2.9,0.2l-3.8,0.2c-0.1,0-0.2,0.1-0.2,0.3c0,0.1,0.1,0.2,0.3,0.2l3.1-0.2l3-0.2l19.7-1v-0.5L51.7,30.8z"/>
			</g>
			<g>
				<linearGradient id="SVGID_1_" gradientUnits="userSpaceOnUse" x1="3.2238" y1="73.6667" x2="144.3155" y2="73.6667">
					<stop  offset="0" style="stop-color:#D94048"/>
					<stop  offset="1" style="stop-color:#CD010B"/>
				</linearGradient>
				<path class="st2" d="M144.3,73.7c0,39-31.6,70.5-70.5,70.5S3.2,112.6,3.2,73.7C3.2,35.2,34,4,72.2,3.1
					C41.1,4,16.2,29.4,16.2,60.7c0,31.8,25.8,57.6,57.6,57.6s57.6-25.8,57.6-57.6c0-31.3-25-56.8-56.1-57.6
					C113.6,4,144.3,35.2,144.3,73.7z"/>
				<linearGradient id="SVGID_2_" gradientUnits="userSpaceOnUse" x1="50.7266" y1="29.2025" x2="53.8753" y2="29.2025">
					<stop  offset="0" style="stop-color:#4094D2"/>
					<stop  offset="1" style="stop-color:#0070C3"/>
				</linearGradient>
				<path class="st3" d="M51.5,29l2.4,0c-0.2,0.2-0.4,0.3-0.6,0.5l-2.5,0C51,29.3,51.2,29.1,51.5,29z"/>
				<linearGradient id="SVGID_3_" gradientUnits="userSpaceOnUse" x1="53.3812" y1="27.5476" x2="56.0429" y2="27.5476">
					<stop  offset="0" style="stop-color:#4094D2"/>
					<stop  offset="1" style="stop-color:#0070C3"/>
				</linearGradient>
				<path class="st4" d="M54.2,27.3l1.9,0.1c-0.2,0.2-0.5,0.3-0.7,0.5l-2-0.1C53.6,27.6,53.9,27.4,54.2,27.3z"/>
				<linearGradient id="SVGID_4_" gradientUnits="userSpaceOnUse" x1="56.7721" y1="25.8134" x2="58.8357" y2="25.8134">
					<stop  offset="0" style="stop-color:#4094D2"/>
					<stop  offset="1" style="stop-color:#0070C3"/>
				</linearGradient>
				<path class="st5" d="M58.8,25.7c-0.2,0.1-0.5,0.3-0.7,0.4l-1.3-0.2c0.3-0.1,0.5-0.3,0.8-0.4L58.8,25.7z"/>
				<linearGradient id="SVGID_5_" gradientUnits="userSpaceOnUse" x1="88.6475" y1="25.7834" x2="90.7067" y2="25.7834">
					<stop  offset="0" style="stop-color:#4094D2"/>
					<stop  offset="1" style="stop-color:#0070C3"/>
				</linearGradient>
				<path class="st6" d="M89.4,26.1c-0.2-0.1-0.5-0.3-0.7-0.4l1.2-0.2c0.3,0.1,0.5,0.2,0.8,0.4L89.4,26.1z"/>
				<linearGradient id="SVGID_6_" gradientUnits="userSpaceOnUse" x1="91.48" y1="27.5352" x2="94.1399" y2="27.5352">
					<stop  offset="0" style="stop-color:#4094D2"/>
					<stop  offset="1" style="stop-color:#0070C3"/>
				</linearGradient>
				<path class="st7" d="M92.2,27.8c-0.2-0.2-0.5-0.3-0.7-0.5l1.9-0.1c0.3,0.1,0.5,0.3,0.8,0.5L92.2,27.8z"/>
				<linearGradient id="SVGID_7_" gradientUnits="userSpaceOnUse" x1="93.6714" y1="29.2069" x2="96.8201" y2="29.2069">
					<stop  offset="0" style="stop-color:#4094D2"/>
					<stop  offset="1" style="stop-color:#0070C3"/>
				</linearGradient>
				<path class="st8" d="M94.3,29.4c-0.2-0.2-0.4-0.3-0.6-0.5l2.4,0c0.2,0.2,0.5,0.3,0.7,0.5L94.3,29.4z"/>
				<linearGradient id="SVGID_8_" gradientUnits="userSpaceOnUse" x1="34.0354" y1="66.4994" x2="113.5042" y2="66.4994">
					<stop  offset="0" style="stop-color:#4094D2"/>
					<stop  offset="1" style="stop-color:#0070C3"/>
				</linearGradient>
				<path class="st9" d="M113.5,62.1c0,22.1-17.8,40.1-39.7,40.1c-21.9,0-39.7-18-39.7-40.1c0-12.3,5.5-23.4,14.2-30.7
					c0.2-0.2,0.4-0.4,0.6-0.5l2.9-0.2c-0.2,0.2-0.4,0.4-0.6,0.5c-0.6,0.5-1.1,1.1-1.6,1.7c-0.2,0.2-0.3,0.4-0.5,0.6
					c-4.8,5.7-7.8,13.2-7.8,21.3c0,13.5,8.1,25.1,19.7,30.1c1.5,0.6,3,1.2,4.6,1.6c0.1,0,0.2,0.1,0.3,0.1c1.9,0.5,3.8,0.8,5.8,0.9
					c0.7,0,1.3,0.1,2,0.1c0.6,0,1.2,0,1.8,0c2-0.1,4-0.4,5.9-0.9c0.1,0,0.2,0,0.3-0.1c1.8-0.5,3.5-1.1,5.2-1.8
					c11.4-5.1,19.3-16.6,19.3-29.9c0-8.1-2.9-15.5-7.8-21.2c-0.2-0.2-0.3-0.4-0.5-0.6c-0.5-0.6-1.1-1.2-1.6-1.7
					c-0.2-0.2-0.4-0.4-0.6-0.5l2.9,0.2c0.2,0.2,0.4,0.4,0.6,0.5C108,38.8,113.5,49.8,113.5,62.1z"/>
				<g>
					<path class="st10" d="M26.3,108c0.1,0.1,0.2,0.1,0.2,0.2c0.1,0,0.2,0.1,0.3,0.1c0.1,0,0.2,0,0.2,0c0.1,0,0.1-0.1,0.2-0.1
						c0.1-0.1,0.1-0.1,0.1-0.2c0-0.1,0-0.2,0-0.3c0-0.1,0-0.2-0.1-0.3c0-0.1-0.1-0.2-0.2-0.3c-0.1-0.1-0.1-0.1-0.2-0.2
						c-0.1,0-0.2-0.1-0.2-0.1c-0.1,0-0.2,0-0.2,0c-0.1,0-0.1,0.1-0.2,0.1c-0.1,0.1-0.1,0.1-0.1,0.2c0,0.1,0,0.2,0,0.3
						c0,0.1,0,0.2,0.1,0.3C26.1,107.8,26.2,107.9,26.3,108z"/>
					<path class="st10" d="M27,109.5c-1.1,1.2-1.6,1.8-2.6,3c-0.1,0.1-0.2,0.2-0.4,0.2c-0.1,0-0.3,0-0.4,0c-0.2,0-0.3-0.1-0.5-0.2
						c-0.2-0.1-0.3-0.2-0.4-0.4c-0.1-0.1-0.2-0.3-0.3-0.5c-0.1-0.2-0.2-0.3-0.2-0.5c0-0.2,0-0.3,0-0.5c0-0.2,0.1-0.3,0.2-0.4
						c0.5-0.6,0.8-0.9,1.4-1.4c-0.4-0.5-0.6-0.7-1-1.2c-0.6,0.6-0.8,0.8-1.4,1.4c-0.2,0.2-0.4,0.5-0.5,0.9c-0.1,0.3-0.1,0.7,0,1
						c0.1,0.4,0.2,0.7,0.4,1.1c0.2,0.4,0.4,0.7,0.7,1c0.3,0.3,0.5,0.5,0.9,0.7c0.3,0.2,0.6,0.3,0.9,0.4c0.3,0.1,0.6,0.1,0.9,0
						c0.3-0.1,0.6-0.3,0.8-0.5c1-1.2,1.6-1.8,2.6-3C27.6,110.1,27.4,109.9,27,109.5z"/>
					<path class="st10" d="M32.4,113.5c0,0.1,0.1,0.2,0.2,0.2c0.1,0.1,0.2,0.1,0.2,0.2c0.1,0,0.2,0,0.3,0c0.1,0,0.2,0,0.2-0.1
						c0.1,0,0.1-0.1,0.2-0.2c0.1-0.1,0.1-0.2,0.1-0.2c0-0.1,0-0.2,0-0.3c0-0.1-0.1-0.2-0.1-0.3c0-0.1-0.1-0.2-0.2-0.2
						c-0.1-0.1-0.2-0.1-0.2-0.1c-0.1,0-0.2,0-0.3,0c-0.1,0-0.2,0-0.2,0.1c-0.1,0-0.1,0.1-0.2,0.2c-0.1,0.1-0.1,0.1-0.1,0.2
						c0,0.1,0,0.2,0,0.3C32.4,113.3,32.4,113.4,32.4,113.5z"/>
					<path class="st10" d="M39.1,119.7c-0.6,1.2-1,1.7-1.6,2.9c-0.5-0.3-0.7-0.5-1.2-0.8c0.7-1.1,1-1.7,1.7-2.9
						c-0.4-0.3-0.7-0.5-1.1-0.8c-0.7,1.1-1,1.7-1.7,2.8c-0.5-0.4-0.7-0.5-1.2-0.9c0.7-1.1,1.1-1.7,1.8-2.8c-0.4-0.3-0.7-0.5-1.1-0.8
						c-0.7,1.1-1.1,1.7-1.8,2.8c-0.4-0.3-0.6-0.5-1-0.8c0,0,0,0,0,0c-0.4-0.3-0.6-0.5-0.9-0.8c0.8-1.1,1.1-1.6,1.9-2.7
						c-0.4-0.4-0.6-0.5-1-0.9c-0.8,1.1-1.2,1.6-1.9,2.6c-0.4-0.3-0.6-0.5-0.9-0.8c0,0,0,0,0,0c0,0,0,0-0.1-0.1c0,0,0,0-0.1-0.1
						c0,0,0,0,0,0c-0.3-0.3-0.5-0.5-0.9-0.8c1.3-1.7,2-2.5,3.3-4.2c-0.4-0.4-0.6-0.6-1-1c-1.5,1.8-2.2,2.7-3.7,4.5c0,0,0,0,0,0
						c-0.1,0.1-0.1,0.1-0.1,0.2c0,0.1,0,0.2,0,0.3c0,0.1,0,0.2,0.1,0.3c0,0.1,0.1,0.2,0.2,0.2c0.6,0.6,0.9,0.9,1.5,1.5c0,0,0,0,0,0
						c1.1,1,1.7,1.6,2.9,2.5c0,0,0,0,0,0c0.7,0.6,1,0.8,1.7,1.4c0.1,0.1,0.3,0.2,0.4,0.2c0.1,0,0.3,0,0.4-0.1
						c-0.1,0.1-0.1,0.2-0.2,0.3c0.7,0.6,1.1,0.8,1.8,1.4c0.1,0.1,0.3,0.1,0.4,0.2c0.1,0,0.3,0,0.4-0.1c-0.1,0.1-0.1,0.2-0.2,0.3
						c0.7,0.5,1.1,0.8,1.9,1.3c0.1,0.1,0.2,0.1,0.3,0.1c0.1,0,0.2,0,0.2,0c0.1,0,0.2,0,0.2-0.1c0.1,0,0.1-0.1,0.2-0.2
						c0.7-1.4,1.1-2.1,1.8-3.5C39.7,120.1,39.5,120,39.1,119.7z"/>
					<path class="st10" d="M45.3,121c-0.7,1.6-1,2.4-1.7,3.9c-0.1,0.2-0.3,0.4-0.5,0.6c-0.2,0.1-0.4,0.2-0.6,0.2
						c0-0.1,0.1-0.2,0.1-0.4c0-0.1,0.1-0.2,0.1-0.4c0.1-0.4,0.2-0.8,0.2-1.3c0.1-0.4,0.1-0.9,0.1-1.4c0-0.5-0.1-0.9-0.1-1.4
						c-0.1-0.5-0.2-1-0.4-1.4c-0.5,0.1-0.7,0.2-1.2,0.3c0.1,0.4,0.2,0.8,0.3,1.2c0.1,0.4,0.1,0.8,0.1,1.2c0,0.4,0,0.8-0.1,1.2
						c-0.1,0.4-0.1,0.7-0.2,1.1c-0.1,0.2-0.1,0.4-0.2,0.5c-0.1,0.2-0.1,0.3-0.2,0.5c-0.2-0.1-0.4-0.2-0.7-0.3
						c-0.2-0.1-0.5-0.2-0.7-0.3c-0.1,0.5-0.2,0.7-0.3,1.2c0.4,0.2,0.9,0.4,1.2,0.5c0.4,0.2,0.7,0.3,1.1,0.4c0.3,0.1,0.6,0.1,0.9,0.1
						c0.3,0,0.6,0,0.8-0.1c0.2-0.1,0.5-0.3,0.7-0.5c0.2-0.2,0.4-0.5,0.6-0.9c0.7-1.6,1-2.4,1.7-4C46,121.3,45.8,121.2,45.3,121z"/>
					<path class="st10" d="M44.7,119.5c-0.3-0.1-0.4-0.2-0.6-0.4c-0.1-0.1-0.1-0.1-0.1-0.2c0-0.1,0-0.1,0-0.2c0-0.1,0.1-0.1,0.1-0.1
						c0.1,0,0.1,0,0.2,0c0.2,0.1,0.3,0.2,0.6,0.3c0.1-0.2,0.1-0.2,0.2-0.4c-0.2-0.1-0.3-0.2-0.6-0.3c-0.1-0.1-0.2-0.1-0.3-0.1
						c-0.1,0-0.2,0-0.3,0c-0.1,0-0.2,0.1-0.2,0.1c-0.1,0.1-0.1,0.1-0.2,0.2c0,0,0,0.1-0.1,0.1c0,0,0,0.1,0,0.1
						c-0.1,0-0.1-0.1-0.2-0.1c-0.1,0.2-0.1,0.2-0.2,0.4c0.6,0.3,0.8,0.5,1.4,0.8C44.6,119.7,44.6,119.6,44.7,119.5z"/>
					<path class="st10" d="M45.1,128.4c0.5,0.2,0.8,0.4,1.3,0.6c0.8-2.1,1.6-4.2,2.4-6.3c-0.5-0.2-0.7-0.3-1.2-0.5
						C46.8,124.2,46,126.3,45.1,128.4z"/>
					<path class="st10" d="M54.5,133.2c-0.1-0.1-0.1-0.1-0.2-0.2c-0.1-0.1-0.2-0.1-0.3-0.1c-0.1,0-0.2,0-0.3,0c-0.1,0-0.2,0-0.3,0.1
						c-0.1,0-0.1,0.1-0.2,0.2c-0.1,0.1-0.1,0.1-0.1,0.2c0,0.1,0,0.2,0,0.3c0,0.1,0.1,0.2,0.1,0.2c0,0.1,0.1,0.1,0.2,0.2
						c0.1,0.1,0.2,0.1,0.3,0.1c0.1,0,0.2,0,0.3,0c0.1,0,0.2,0,0.3-0.1c0.1,0,0.1-0.1,0.2-0.2c0.1-0.1,0.1-0.1,0.1-0.2
						c0-0.1,0-0.2,0-0.3C54.6,133.3,54.6,133.2,54.5,133.2z"/>
					<path class="st10" d="M69.2,128c-0.5,0-0.7-0.1-1.2-0.1c-0.2,2.2-0.3,3.3-0.5,5.6c-0.4,0-0.7-0.1-1.1-0.1c0,0,0,0,0,0
						c0,0-0.1,0-0.1,0c-0.1,0-0.3,0-0.4,0c-0.1,0-0.2,0-0.4-0.1c0.1-1.2,0.2-1.8,0.3-2.9c0-0.1,0-0.2,0-0.2c0-0.1-0.1-0.1-0.1-0.2
						c-0.1-0.1-0.1-0.1-0.2-0.2c-0.1,0-0.2-0.1-0.2-0.1c-0.9-0.1-1.4-0.2-2.3-0.4c-0.2,0-0.4-0.1-0.6,0c-0.2,0-0.4,0.1-0.6,0.1
						c-0.2,0.1-0.3,0.1-0.4,0.2c-0.1,0.1-0.2,0.2-0.3,0.3c0.2-1.2,0.3-1.8,0.5-3c-0.5-0.1-0.7-0.2-1.2-0.3c-0.4,2.2-0.6,3.3-1.1,5.5
						c-0.4-0.1-0.6-0.1-0.9-0.2c0,0,0,0-0.1,0c0,0-0.1,0-0.1,0c-0.2,0-0.3-0.1-0.4-0.1s-0.3-0.1-0.5-0.1c0.3-1.3,0.4-2,0.7-3.3
						c-0.5-0.1-0.7-0.2-1.2-0.3c-0.3,1.3-0.5,2-0.8,3.3c-1.3-0.4-1.9-0.6-3.1-1c-0.2-0.1-0.4-0.2-0.5-0.3c-0.1-0.1-0.2-0.2-0.3-0.3
						c-0.1-0.1-0.1-0.2-0.1-0.4c0-0.1,0-0.2,0.1-0.4c0.1-0.2,0.1-0.4,0.3-0.6c0.1-0.2,0.2-0.3,0.3-0.4c-0.4-0.4-0.6-0.6-0.9-0.9
						c-0.1,0.1-0.2,0.2-0.3,0.3c-0.1,0.1-0.2,0.2-0.3,0.3c-0.1,0.1-0.2,0.3-0.2,0.4c-0.1,0.1-0.1,0.3-0.2,0.4
						c-0.1,0.3-0.1,0.5-0.1,0.8c0,0.3,0.1,0.6,0.2,0.8c0.1,0.3,0.3,0.5,0.6,0.8c0.3,0.2,0.7,0.4,1.1,0.6c2.1,0.7,3.2,1.1,5.3,1.6
						c0,0,0,0,0,0c0.1,0,0.1,0,0.1,0c0,0,0,0,0,0c2.6,0.7,5.3,1.1,8,1.5v0c0.8,0.1,1.1,0.1,1.9,0.2c0.1,0,0.2,0,0.3,0
						c0.1,0,0.2-0.1,0.2-0.1c0.1,0,0.1-0.1,0.2-0.2c0-0.1,0.1-0.1,0.1-0.2c0,0,0,0,0-0.1C69,131.7,69.1,130.5,69.2,128z M64.2,133.1
						c-1.4-0.2-2.2-0.3-3.6-0.6c0.1-0.4,0.1-0.6,0.2-1.1c0-0.2,0.1-0.4,0.3-0.5c0.1-0.1,0.3-0.2,0.5-0.3c0.2-0.1,0.4-0.1,0.6-0.1
						c0.2,0,0.4,0,0.7,0c0,0,0.2,0,0.4,0.1c0.3,0,0.7,0.1,1.3,0.2C64.4,131.7,64.4,132.1,64.2,133.1z"/>
					<path class="st10" d="M74,129.4c0.1,0.1,0.1,0.1,0.2,0.1c0.1,0,0.2,0,0.3,0c0.1,0,0.2,0,0.3-0.1c0.1,0,0.2-0.1,0.2-0.1
						c0.1-0.1,0.1-0.1,0.1-0.2c0-0.1,0-0.2,0-0.3c0-0.1,0-0.2-0.1-0.3c0-0.1-0.1-0.1-0.1-0.2c-0.1-0.1-0.1-0.1-0.2-0.1
						c-0.1,0-0.2,0-0.3,0c-0.1,0-0.2,0-0.3,0.1c-0.1,0-0.2,0.1-0.2,0.1c-0.1,0.1-0.1,0.1-0.1,0.2c0,0.1-0.1,0.2-0.1,0.3
						c0,0.1,0,0.2,0.1,0.3C73.9,129.3,73.9,129.3,74,129.4z"/>
					<path class="st10" d="M75.5,129.4c0.1,0.1,0.1,0.1,0.2,0.1c0.1,0,0.2,0,0.3,0c0.1,0,0.2,0,0.3-0.1c0.1,0,0.2-0.1,0.2-0.1
						c0.1-0.1,0.1-0.1,0.1-0.2c0-0.1,0-0.2,0-0.3c0-0.1,0-0.2-0.1-0.3c0-0.1-0.1-0.1-0.1-0.2c-0.1-0.1-0.1-0.1-0.2-0.1
						c-0.1,0-0.2,0-0.3,0c-0.1,0-0.2,0-0.3,0.1c-0.1,0-0.1,0.1-0.2,0.1c-0.1,0.1-0.1,0.1-0.1,0.2c0,0.1,0,0.2,0,0.3
						c0,0.1,0,0.2,0.1,0.3C75.4,129.2,75.5,129.3,75.5,129.4z"/>
					<path class="st10" d="M84.5,133.5c-0.2-1.4-0.3-2.1-0.5-3.5c0-0.1,0-0.2-0.1-0.2c0-0.1-0.1-0.1-0.2-0.2c-0.1,0-0.1-0.1-0.2-0.1
						c-0.1,0-0.2,0-0.3,0c-0.7,0.1-1.1,0.1-1.8,0.2c-0.2,0-0.4,0.1-0.6,0.2c-0.2,0.1-0.4,0.2-0.5,0.3c-0.2,0.1-0.3,0.3-0.5,0.4
						c-0.1,0.2-0.2,0.3-0.3,0.5c-0.1,0.2-0.2,0.4-0.2,0.5c0,0.2-0.1,0.4,0,0.5c0,0.5,0.1,0.8,0.1,1.4c-0.4,0-0.6,0-0.9,0.1
						c0,0-0.1,0-0.1,0c0,0-0.1,0-0.1,0c-0.2,0-0.3,0-0.4,0s-0.3,0-0.5,0c-0.1-1.1-0.1-1.7-0.1-2.8c0-0.1,0-0.2-0.1-0.3
						c0-0.1-0.1-0.2-0.2-0.2c-0.1-0.1-0.2-0.1-0.3-0.1c-0.1,0-0.2,0-0.3,0c-0.6,0-0.9,0-1.6,0c-0.3,0-0.6,0.1-0.9,0.2
						c-0.3,0.1-0.5,0.3-0.8,0.5c-0.2,0.2-0.4,0.4-0.5,0.7c-0.1,0.3-0.2,0.6-0.2,0.9c0,0.7,0,1.1,0,1.8c0,0.1,0,0.3,0.1,0.4
						c0.1,0.1,0.2,0.2,0.4,0.2c0.3,0.1,0.6,0.1,1,0.2c0.3,0,0.7,0.1,1,0c0.1,0,0.2,0,0.3,0c0.1,0,0.2,0,0.3,0
						c-0.1-0.5-0.1-0.7-0.1-1.2c-0.2,0-0.3,0-0.5,0c-0.2,0-0.4,0-0.6,0c-0.2,0-0.4,0-0.6-0.1c0-0.5,0-0.8,0-1.3c0-0.1,0-0.3,0.1-0.4
						c0.1-0.1,0.1-0.2,0.2-0.3c0.1-0.1,0.2-0.2,0.4-0.2c0.1-0.1,0.3-0.1,0.4-0.1c0.5,0,0.7,0,1.1,0c0,1.2,0.1,1.8,0.1,2.9
						c0,0.1,0,0.2,0.1,0.3c0,0.1,0.1,0.1,0.1,0.2c0.1,0.1,0.1,0.1,0.2,0.1c0.1,0,0.2,0,0.3,0c0.7,0,1.1-0.1,1.8-0.1
						c1-0.1,1.8-0.1,2.6-0.2c0.8-0.1,1.6-0.2,2.7-0.4c0.1,0,0.2,0,0.3-0.1c0.1,0,0.1-0.1,0.2-0.2c0.1-0.1,0.1-0.1,0.1-0.2
						C84.5,133.7,84.5,133.6,84.5,133.5z M80.8,133.4c0-0.5-0.1-0.8-0.1-1.4c0-0.1,0-0.3,0.1-0.4c0-0.1,0.1-0.2,0.2-0.3
						c0.1-0.1,0.2-0.2,0.3-0.3c0.1-0.1,0.3-0.1,0.4-0.1c0,0,0,0,0,0c0,0,0.1,0,0.1,0c0.1,0,0.2,0,0.3,0c0.2,0,0.4,0,0.7-0.1
						c0.1,0.9,0.2,1.4,0.3,2.3C82.2,133.3,81.7,133.3,80.8,133.4z"/>
					<path class="st10" d="M97,130.2C97,130.2,97,130.2,97,130.2c-0.7-2.4-1.1-3.5-1.8-5.8c-0.5,0.2-0.7,0.3-1.2,0.4
						c0.6,2.1,0.9,3.2,1.6,5.3c-0.4,0.1-0.6,0.2-1,0.4c-0.3,0.1-0.6,0.2-0.9,0.3c-0.3,0.1-0.5,0.2-0.9,0.3c0.2-0.5,0.3-0.7,0.4-1.2
						c0.1-0.4,0.2-0.7,0.1-1c-0.1-0.2-0.2-0.4-0.3-0.6c-0.1-0.2-0.3-0.3-0.5-0.4c-0.2-0.1-0.4-0.1-0.7-0.1c-0.2,0-0.5,0-0.7,0.1
						c-0.5,0.1-0.8,0.2-1.3,0.4c-0.3,0.1-0.5,0.2-0.7,0.3c-0.2,0.1-0.4,0.3-0.5,0.5c-0.1,0.2-0.2,0.4-0.3,0.6
						c-0.1,0.2-0.1,0.4,0,0.6c0,0.2,0.1,0.3,0.2,0.5c0.1,0.2,0.2,0.3,0.4,0.4c0.4,0.3,0.5,0.5,0.9,0.8c-0.6,0.2-1,0.2-1.6,0.4
						c0,0,0,0-0.1,0c0,0-0.1,0-0.1,0c-0.2,0-0.3,0.1-0.5,0.1c-0.2,0-0.3,0.1-0.5,0.1c-0.4-2.2-0.6-3.3-0.9-5.5
						c-0.5,0.1-0.7,0.1-1.2,0.2c0.4,2.4,0.6,3.6,0.9,6c0,0,0,0,0,0.1c0,0.1,0,0.2,0.1,0.2c0,0.1,0.1,0.1,0.2,0.2
						c0.1,0,0.1,0.1,0.2,0.1c0.1,0,0.2,0,0.3,0c0.8-0.1,1.1-0.2,1.9-0.4c0,0,0,0,0,0c2.2-0.5,4.3-1.1,6.4-1.8c0,0,0,0,0,0
						c0,0,0.1,0,0.1,0c0,0,0,0,0,0c0.3-0.1,0.6-0.2,0.8-0.3c0.3-0.1,0.5-0.2,0.9-0.3c0.1,0,0.2-0.1,0.2-0.1c0.1-0.1,0.1-0.1,0.2-0.2
						c0-0.1,0.1-0.2,0.1-0.2C97,130.4,97,130.3,97,130.2z M92,129.5c-0.3,0.8-0.4,1.2-0.8,1.9c0,0,0,0-0.1,0
						c-0.6-0.5-0.9-0.8-1.5-1.3c-0.1-0.1-0.2-0.2-0.2-0.3c0-0.1,0-0.1,0-0.2c0-0.1,0.1-0.1,0.1-0.2c0.1-0.1,0.1-0.1,0.2-0.1
						c0.1,0,0.1-0.1,0.2-0.1c0.5-0.1,0.8-0.2,1.3-0.4c0.1,0,0.2,0,0.2,0c0.1,0,0.2,0,0.2,0c0.1,0,0.1,0,0.2,0.1c0,0,0.1,0.1,0.1,0.2
						C92.1,129.2,92,129.4,92,129.5z"/>
					<path class="st10" d="M96.4,123.9c0.7,2.1,1.4,4.2,2.1,6.4c0.5-0.2,0.8-0.3,1.3-0.5c-0.7-2.1-1.5-4.2-2.2-6.3
						C97.1,123.6,96.9,123.7,96.4,123.9z"/>
					<path class="st10" d="M104,121.2c0.1,0.1,0.1,0.1,0.2,0.1c0.1,0,0.2,0,0.3,0c0.1,0,0.2,0,0.3-0.1c0.1,0,0.2-0.1,0.2-0.2
						c0.1-0.1,0.1-0.2,0.1-0.2c0-0.1,0-0.2,0-0.3c0-0.1,0-0.2-0.1-0.3c0-0.1-0.1-0.1-0.2-0.2c-0.1-0.1-0.1-0.1-0.2-0.1
						c-0.1,0-0.2,0-0.3,0c-0.1,0-0.2,0-0.3,0.1c-0.1,0-0.2,0.1-0.2,0.2c-0.1,0.1-0.1,0.1-0.1,0.2c0,0.1,0,0.2,0,0.3
						c0,0.1,0,0.2,0.1,0.3C103.9,121.1,104,121.2,104,121.2z"/>
					<path class="st10" d="M108,124.7c-0.6-1.1-0.9-1.7-1.4-2.9c0-0.1-0.1-0.2-0.2-0.2c-0.1-0.1-0.2-0.1-0.3-0.1c-0.1,0-0.2,0-0.3,0
						c-0.1,0-0.2,0.1-0.3,0.1c-0.6,0.3-0.9,0.5-1.4,0.8c-0.3,0.2-0.6,0.4-0.8,0.6c-0.2,0.2-0.4,0.5-0.5,0.8
						c-0.1,0.3-0.2,0.6-0.2,0.9c0,0.3,0,0.6,0.2,0.9c0.3,0.6,0.4,1,0.7,1.6c0.1,0.1,0.1,0.2,0.3,0.3c0.1,0,0.3,0,0.4,0
						c0.2,0,0.3-0.1,0.5-0.1c0.2-0.1,0.3-0.1,0.5-0.2c0.2-0.1,0.3-0.1,0.5-0.2c0.2-0.1,0.3-0.2,0.5-0.3c0.3-0.2,0.6-0.4,0.9-0.6
						c0.3-0.2,0.6-0.4,0.8-0.7c0.1-0.1,0.2-0.2,0.3-0.4C108.1,124.9,108.1,124.8,108,124.7z M106.1,125.3c-0.2,0.1-0.3,0.2-0.5,0.3
						c-0.1,0.1-0.2,0.1-0.3,0.1c-0.1,0-0.2,0.1-0.2,0.1c-0.1,0-0.2,0.1-0.3,0.1c-0.1,0-0.2,0.1-0.3,0.1c-0.2-0.5-0.3-0.7-0.5-1.2
						c-0.1-0.1-0.1-0.3-0.1-0.4c0-0.1,0-0.3,0.1-0.4c0.1-0.1,0.1-0.3,0.2-0.4c0.1-0.1,0.2-0.2,0.4-0.3c0.4-0.2,0.6-0.3,1-0.6
						c0.4,0.8,0.6,1.2,1,2.1C106.4,125.1,106.3,125.2,106.1,125.3z"/>
					<path class="st10" d="M102.8,122.1c0.1,0,0.2,0,0.3,0c0.1,0,0.2,0,0.3-0.1c0.1,0,0.2-0.1,0.2-0.2c0.1-0.1,0.1-0.1,0.1-0.2
						c0-0.1,0-0.2,0-0.3c0-0.1,0-0.2-0.1-0.3c0-0.1-0.1-0.1-0.2-0.2c-0.1-0.1-0.1-0.1-0.2-0.1c-0.1,0-0.2,0-0.3,0
						c-0.1,0-0.2,0-0.3,0.1c-0.1,0-0.2,0.1-0.2,0.2c-0.1,0.1-0.1,0.1-0.1,0.2c0,0.1,0,0.2,0,0.3c0,0.1,0,0.2,0.1,0.3
						c0,0.1,0.1,0.1,0.1,0.2C102.7,122.1,102.7,122.1,102.8,122.1z"/>
					<path class="st10" d="M111.5,122.1c-0.1-0.3-0.3-0.6-0.4-0.8c-0.2-0.3-0.4-0.6-0.6-0.9c-0.2-0.3-0.4-0.6-0.5-0.8
						c-0.4,0.3-0.7,0.5-1.1,0.8c0.1,0.2,0.3,0.5,0.5,0.8c0.2,0.3,0.4,0.6,0.5,0.9c0.1,0.2,0.3,0.5,0.4,0.7c0.1,0.3,0.2,0.5,0.3,0.8
						c0.1,0.3,0.1,0.5,0.1,0.8c0,0.3,0,0.5-0.1,0.8c-0.1,0.2-0.2,0.5-0.4,0.7c-0.2,0.2-0.5,0.5-0.8,0.7c0.2,0.4,0.3,0.6,0.5,1.1
						c0.5-0.3,0.9-0.7,1.2-1c0.3-0.4,0.5-0.7,0.7-1.1c0.1-0.4,0.2-0.8,0.2-1.2c0-0.4-0.1-0.8-0.2-1.2
						C111.8,122.7,111.7,122.4,111.5,122.1z"/>
					<path class="st10" d="M109.7,116.5c1.1,1.9,2.3,3.8,3.4,5.7c0.5-0.3,0.7-0.5,1.2-0.9c-1.2-1.9-2.3-3.7-3.5-5.6
						C110.3,116,110.1,116.2,109.7,116.5z"/>
					<path class="st10" d="M119.3,116.4c-0.2-0.3-0.4-0.5-0.6-0.7c-0.2-0.2-0.4-0.4-0.6-0.6c-0.2-0.2-0.4-0.3-0.6-0.4
						c-0.2-0.1-0.4-0.1-0.7-0.2c-0.2,0-0.5,0-0.7,0.1c-0.3,0.1-0.5,0.2-0.8,0.3c-0.3,0.1-0.6,0.3-0.9,0.5c-0.3,0.2-0.6,0.5-1,0.7
						c0.3,0.4,0.4,0.6,0.7,1c0.5-0.4,1-0.8,1.4-1c0.4-0.2,0.7-0.3,1-0.3c0.2,0,0.5,0.1,0.7,0.3c0.2,0.2,0.5,0.4,0.7,0.7
						c-1.2,1-1.7,1.5-2.9,2.5c0.3,0.4,0.4,0.6,0.6,1c1.4-1.1,2.2-1.7,3.5-3c0.1-0.1,0.1-0.1,0.2-0.2c0-0.1,0.1-0.2,0.1-0.3
						c0-0.1,0-0.2,0-0.3C119.4,116.5,119.4,116.4,119.3,116.4z"/>
					<path class="st10" d="M123.2,110c-1.1-1.2-1.7-1.9-2.9-3.1c-0.4,0.4-0.6,0.6-0.9,1c1.1,1.3,1.7,1.9,2.8,3.1
						c0.2,0.2,0.3,0.4,0.3,0.7c0,0.2,0,0.4,0,0.7c-0.1-0.1-0.2-0.2-0.3-0.2c-0.1-0.1-0.2-0.2-0.3-0.2c-0.3-0.2-0.6-0.5-1-0.7
						c-0.4-0.2-0.8-0.4-1.2-0.5c-0.4-0.1-0.8-0.2-1.3-0.3c-0.4-0.1-0.9-0.1-1.4-0.1c-0.1,0.5-0.1,0.8-0.2,1.3c0.4,0,0.8,0,1.2,0.1
						c0.4,0.1,0.7,0.2,1.1,0.3c0.3,0.1,0.7,0.3,1,0.5c0.3,0.2,0.6,0.4,0.9,0.6c0.1,0.1,0.3,0.2,0.4,0.4c0.1,0.1,0.2,0.2,0.3,0.4
						c-0.1,0.2-0.3,0.4-0.5,0.6c-0.2,0.2-0.4,0.5-0.6,0.7c0.4,0.3,0.5,0.4,0.9,0.7c0.3-0.4,0.6-0.8,0.9-1.1c0.3-0.4,0.5-0.7,0.7-1
						c0.2-0.3,0.4-0.6,0.5-1c0.1-0.3,0.2-0.6,0.2-0.9c0-0.3,0-0.6-0.1-0.9C123.6,110.7,123.4,110.4,123.2,110z"/>
					<path class="st10" d="M122.5,117.1c-0.1,0.1-0.2,0.1-0.2,0.1c-0.1,0-0.1,0-0.2-0.1c0-0.1-0.1-0.1-0.1-0.2
						c0-0.1,0.1-0.2,0.1-0.3c0.2-0.2,0.3-0.3,0.6-0.6c-0.1-0.1-0.2-0.2-0.3-0.3c-0.2,0.2-0.3,0.3-0.6,0.6c-0.1,0.1-0.2,0.2-0.2,0.3
						c-0.1,0.1-0.1,0.2-0.1,0.3c0,0.1,0,0.2,0,0.3c0,0.1,0.1,0.2,0.1,0.2c0,0,0.1,0.1,0.1,0.1s0.1,0.1,0.1,0.1
						c-0.1,0.1-0.1,0.1-0.2,0.2c0.1,0.1,0.2,0.2,0.3,0.4c0.6-0.5,0.9-0.8,1.4-1.4c-0.1-0.1-0.2-0.2-0.3-0.3
						C122.9,116.7,122.8,116.8,122.5,117.1z"/>
					<path class="st10" d="M122.2,104.8c-0.4,0.4-0.5,0.7-0.9,1.1c1.5,1.6,3,3.1,4.5,4.7c0.4-0.5,0.6-0.7,1-1.2
						C125.2,107.8,123.7,106.3,122.2,104.8z"/>
				</g>
				<g>
					<g>
						<path d="M26.6,71.7c-1.4,0.3-2.1-1.4-2.3-2.5c0-0.1,0-0.1,0-0.2c-0.4,0.1-0.7,0.1-1.1,0.2c-0.2,0-0.6,0.1-0.8,0.3
							c-0.1-0.1-0.2-0.3-0.3-0.6c-0.1-0.4,0.1-0.7,0.3-0.7c1.3-0.2,2.6-0.4,3.9-0.6c0.2,0,0.6-0.1,0.9-0.3c0.2,0.3,0.3,0.7,0.5,1.5
							C27.7,69.6,27.9,71.4,26.6,71.7z M26.3,70.6c0.8-0.2,1.2-0.7,0.9-1.9c0-0.1-0.1-0.3-0.1-0.3c-0.9,0.2-1.7,0.3-2.6,0.5
							c0,0.1,0,0.1,0,0.2C24.7,69.9,25.3,70.8,26.3,70.6z"/>
						<path d="M24.9,78.1c-0.2,0.1-0.5-0.1-0.6-0.5c-0.2-0.5,0-0.9,0.6-1.1c0,0,0,0,0,0c-0.6-0.1-1.1-0.5-1.3-1.2
							c-0.3-0.9,0.1-1.7,1.1-1.9c0.6-0.2,0.8-0.2,1.4-0.4c0.2-0.1,0.6-0.2,0.8-0.4c0.1,0.1,0.3,0.3,0.3,0.5c0.1,0.3,0,0.6-0.3,0.7
							c-0.8,0.2-1.1,0.3-1.9,0.6c-0.8,0.3-1.2,0.5-1,1.1c0.2,0.6,0.8,0.9,2,0.5c1-0.4,1.3-0.4,1.6-0.7c0.1,0.1,0.2,0.2,0.3,0.5
							c0.1,0.3,0,0.6-0.3,0.7c-0.8,0.3-1.6,0.6-2.4,0.9c-0.3,0.1-0.3,0.2-0.3,0.4c0,0.1,0.1,0.2,0.2,0.2C25,78,25,78,24.9,78.1z"/>
						<path d="M25.2,78.8c1.5-0.6,2.9-1.2,4.4-1.7c0.3-0.1,0.5,0,0.6,0.3c0.1,0.3,0.1,0.5,0,0.6c-0.5,0.1-1,0.3-1.3,0.4
							c-0.3,0.1-0.5,0.2-0.8,0.3c0.5,0,1,0.3,1.3,0.9c0.4,0.9-0.3,1.8-1.1,2.2c-1.1,0.5-2.4,0.1-2.8-1C25.1,80.1,25,79.3,25.2,78.8z
							 M27.8,80.9c0.9-0.4,1.2-0.8,1-1.3c-0.3-0.8-1.2-0.7-2-0.4c-0.5,0.2-0.7,0.3-1.2,0.5c-0.1,0.2,0,0.6,0.1,0.9
							C26.1,81.5,27,81.3,27.8,80.9z"/>
						<path d="M27.6,83.3c1.3-0.7,2.5-1.3,3.8-2c0.2-0.1,0.5,0,0.6,0.3c0.1,0.2,0.1,0.4,0.1,0.5c-0.4,0.1-0.7,0.3-1.4,0.6
							c-0.9,0.5-1.7,0.9-2.6,1.4c-0.2,0.1-0.3,0.3-0.2,0.5c0,0.1,0.1,0.2,0.2,0.2c0,0.1-0.1,0.2-0.2,0.2c-0.2,0.1-0.6-0.1-0.7-0.4
							C26.9,84.1,27.1,83.6,27.6,83.3z"/>
						<path d="M32.2,83.4c0.2-0.1,0.6,0,0.7,0.2c0.1,0.3,0.1,0.6-0.2,0.7c-0.2,0.1-0.5,0-0.7-0.2C31.9,83.9,32,83.5,32.2,83.4z
							 M28.6,87c-0.1,0-0.3-0.1-0.4-0.4c-0.2-0.3-0.1-0.6,0.1-0.7c0.7-0.4,1.5-0.9,2.2-1.3c0.3-0.2,0.5-0.3,0.7-0.6
							c0.1,0,0.3,0.1,0.4,0.3c0.1,0.3,0.1,0.5-0.1,0.7c-0.7,0.5-1.5,0.9-2.2,1.4C29.1,86.5,28.8,86.7,28.6,87z"/>
						<path d="M30.6,86.7c0.9-0.6,2.2-0.4,2.8,0.6c0.5,0.8,0.5,1.4,0,1.8c-0.3,0.2-0.7,0.2-0.9-0.2c-0.1-0.2-0.2-0.3-0.1-0.5
							c0.2,0.1,0.4,0,0.6-0.1c0.3-0.3,0.3-0.6,0.1-0.9c-0.3-0.5-1-0.5-1.9,0.1c-0.7,0.4-1.2,1.3-0.6,2.1c0.3,0.5,0.8,0.7,1.3,0.6
							c0,0.1,0,0.2-0.3,0.3c-0.5,0.2-1.1-0.2-1.6-0.8C29.3,88.7,29.6,87.4,30.6,86.7z"/>
						<path d="M36.4,97.1c-0.1,0-0.3,0-0.5-0.3c-0.2-0.2-0.3-0.4-0.2-0.6c0.3-0.5,0.4-0.8,0.7-1.3c-0.5-0.6-0.8-0.9-1.3-1.5
							c-0.4,0.2-0.6,0.3-1,0.5c-0.1,0-0.2,0.1-0.3,0.2c-0.1,0.1-0.1,0.1-0.1,0.2c-0.1-0.1-0.2-0.2-0.4-0.3c-0.2-0.3-0.3-0.5-0.1-0.6
							c0.1-0.1,0.2-0.2,0.4-0.2c1.5-0.6,3-1.2,4.5-1.8c0.2,0.1,0.4,0.3,0.6,0.4c0.1,0.2,0.2,0.4,0.1,0.5c-0.8,1.4-1.6,2.9-2.3,4.3
							C36.4,96.7,36.4,96.9,36.4,97.1z M36.6,94.5c0.5-0.9,1-1.7,1.5-2.6c-0.9,0.4-1.7,0.9-2.6,1.3C35.9,93.7,36.2,94,36.6,94.5z"/>
						<path d="M40,100.1c-0.2,0.2-0.5,0.2-0.8-0.1c-0.4-0.3-0.3-0.8,0-1.3c-0.6,0.3-1.2,0.3-1.8-0.2c-0.8-0.7-0.4-1.8,0.3-2.4
							c0.7-0.7,1.9-1.3,2.7-0.5c0.4,0.3,0.5,0.7,0.4,1.1c0.2-0.2,0.3-0.3,0.4-0.5c0.2-0.3,0.5-0.7,0.7-1.1c0.1,0,0.3,0,0.5,0.2
							c0.2,0.2,0.3,0.4,0.1,0.7c-0.9,1.1-1.8,2.2-2.7,3.3c-0.2,0.2-0.2,0.4,0,0.5c0,0,0.1,0.1,0.2,0.1C40.1,99.9,40.1,100,40,100.1z
							 M40.2,97.5c0.4-0.5,0.7-1,0.2-1.4c-0.5-0.4-1.1-0.2-1.9,0.7c-0.6,0.6-0.9,1.2-0.5,1.6C38.8,98.9,39.8,98.1,40.2,97.5z"/>
						<path d="M45.5,104.3c-0.2,0-0.3,0-0.5-0.1c-0.3-0.2-0.3-0.4-0.2-0.7c0.4-0.7,0.7-1,1.1-1.7c0.4-0.6,0.6-1.1,0.2-1.4
							c-0.4-0.2-1,0-1.7,0.9c-0.2,0.3-0.3,0.4-0.5,0.7c-0.1,0.2-0.3,0.5-0.4,0.8c-0.2,0-0.3,0-0.5-0.1c-0.2-0.2-0.3-0.4-0.2-0.7
							c0.5-0.7,0.7-1,1.2-1.7c0.5-0.7,0.6-1.1,0.2-1.4c-0.4-0.3-1-0.1-1.8,1c-0.7,0.9-0.8,1.1-0.9,1.5c-0.1,0-0.3,0-0.5-0.2
							c-0.2-0.2-0.3-0.5-0.1-0.7c0.5-0.7,1.1-1.4,1.6-2.1c0.2-0.2,0.2-0.4,0.1-0.5c-0.1,0-0.2-0.1-0.3,0c0-0.1,0-0.2,0.1-0.3
							c0.2-0.2,0.5-0.2,0.7,0c0.3,0.3,0.4,0.7,0,1.2c0.5-0.4,1.1-0.4,1.6,0c0.5,0.4,0.6,0.8,0.4,1.4c0.5-0.4,1-0.4,1.5-0.1
							c0.7,0.4,0.7,1.1,0.1,2c-0.3,0.5-0.5,0.8-0.8,1.3C45.7,103.7,45.6,104,45.5,104.3z"/>
						<path d="M48.9,100.5c0.1-0.2,0.5-0.3,0.7-0.2c0.2,0.1,0.3,0.4,0.2,0.7c-0.1,0.2-0.4,0.3-0.7,0.2
							C48.8,101.1,48.7,100.7,48.9,100.5z M47.4,105.4c-0.1,0-0.3,0-0.5-0.1c-0.3-0.1-0.4-0.4-0.2-0.6c0.4-0.8,0.9-1.5,1.3-2.3
							c0.2-0.3,0.3-0.6,0.4-0.9c0.1,0,0.3,0,0.5,0.1c0.2,0.1,0.3,0.4,0.2,0.6c-0.4,0.8-0.8,1.5-1.3,2.3
							C47.5,104.8,47.4,105.1,47.4,105.4z"/>
						<path d="M51.7,107.5c-0.2,0.1-0.3,0.1-0.6,0c-0.3-0.1-0.4-0.4-0.3-0.6c0.3-0.7,0.5-1.1,0.9-1.8c0.3-0.7,0.4-1.2-0.1-1.4
							c-0.4-0.2-1.1,0.1-1.6,1.2c-0.5,1-0.6,1.3-0.7,1.6c-0.1,0-0.3,0-0.5-0.1c-0.3-0.1-0.4-0.4-0.2-0.7c0.4-0.8,0.8-1.6,1.2-2.3
							c0.1-0.3,0.1-0.4,0-0.5c0,0-0.1-0.1-0.2,0c0-0.1,0-0.2,0.1-0.3c0.1-0.2,0.4-0.3,0.7-0.1c0.4,0.2,0.5,0.6,0.2,1.1c0,0,0,0,0,0
							c0.5-0.4,1-0.5,1.6-0.3c0.8,0.4,0.9,1,0.5,2c-0.2,0.5-0.4,0.8-0.6,1.4C51.8,106.9,51.7,107.2,51.7,107.5z"/>
						<path d="M54.5,103.3c0.1-0.3,0.4-0.4,0.7-0.3c0.2,0.1,0.4,0.4,0.3,0.7c-0.1,0.3-0.4,0.4-0.6,0.3
							C54.5,103.8,54.4,103.6,54.5,103.3z M53.6,108.3c-0.1,0-0.3,0.1-0.6,0c-0.3-0.1-0.4-0.3-0.3-0.6c0.3-0.8,0.7-1.6,1-2.4
							c0.1-0.3,0.2-0.6,0.2-0.9c0.1,0,0.3-0.1,0.5,0c0.3,0.1,0.4,0.3,0.3,0.6c-0.3,0.8-0.6,1.6-1,2.5
							C53.7,107.7,53.6,108,53.6,108.3z"/>
						<path d="M54.6,107.9c0.1-0.3,0.3-0.5,0.8-0.2c-0.1,0.1-0.1,0.2-0.1,0.4c-0.1,0.4,0.1,0.8,0.7,1c0.5,0.2,0.9,0.1,1-0.2
							c0.1-0.4-0.3-0.7-0.7-1.1c-0.5-0.5-1-1-0.7-1.7c0.3-0.7,1-0.8,1.7-0.5c0.8,0.3,1.2,0.7,1.1,1.1c-0.1,0.2-0.2,0.3-0.5,0.3
							c-0.1,0-0.2,0-0.2-0.1c0.1-0.1,0.1-0.3,0.1-0.4c0-0.3-0.2-0.5-0.5-0.7c-0.3-0.1-0.7-0.1-0.8,0.2c-0.2,0.4,0.2,0.8,0.6,1.2
							c0.5,0.5,1.1,1,0.9,1.6c-0.2,0.6-0.8,1-2.1,0.6C54.7,109,54.4,108.4,54.6,107.9z"/>
						<path d="M61.2,106.6c0,0.1,0,0.1-0.1,0.2c0,0.1-0.1,0.2-0.3,0.2c-0.3-0.1-0.4-0.1-0.7-0.2c0,0.1,0,0.1-0.1,0.2
							c-0.2,0.9-0.4,1.4-0.6,2.3c-0.1,0.3,0,0.4,0.3,0.5c0.1,0,0.3,0,0.4,0c0,0.1,0.1,0.2,0,0.3c-0.1,0.3-0.4,0.4-0.9,0.3
							c-0.6-0.2-0.8-0.6-0.6-1.2c0.2-0.9,0.5-1.7,0.7-2.6c0,0-0.1,0-0.1,0c-0.1,0-0.3-0.1-0.4-0.1c0-0.1,0-0.1,0.1-0.2
							c0-0.1,0.2-0.2,0.3-0.1c0.1,0,0.2,0.1,0.3,0.1c0.1-0.2,0.1-0.3,0.2-0.6c0.1-0.3,0.3-0.4,0.6-0.3c0.2,0.1,0.3,0.2,0.4,0.3
							c-0.1,0.2-0.2,0.5-0.3,0.8c0.1,0,0.1,0,0.1,0C60.5,106.5,61.1,106.6,61.2,106.6z"/>
						<path d="M64.5,108.1c-0.1,0.4-0.4,0.6-0.7,0.5c-0.2,0-0.3-0.1-0.4-0.2c0.2-0.2,0.2-0.3,0.2-0.5c0.1-0.3,0-0.5-0.3-0.5
							c-0.4-0.1-0.8,0.4-1,1.7c-0.2,1.1-0.3,1.4-0.2,1.7c-0.1,0.1-0.3,0.1-0.5,0.1c-0.3-0.1-0.5-0.3-0.4-0.6
							c0.2-0.9,0.4-1.7,0.6-2.6c0.1-0.3,0-0.4-0.1-0.4c-0.1,0-0.2,0-0.2,0.1c0-0.1-0.1-0.2,0-0.3c0.1-0.3,0.3-0.4,0.6-0.3
							c0.4,0.1,0.6,0.4,0.5,1c0.3-0.5,0.7-0.7,1.2-0.6C64.3,107.2,64.6,107.6,64.5,108.1z"/>
						<path d="M68.6,111.5c0,0.3-0.3,0.5-0.7,0.4c-0.5-0.1-0.8-0.4-0.7-1.2c-0.4,0.6-1,1-1.8,0.9c-0.6-0.1-1-0.5-0.9-1.1
							c0.1-0.7,0.8-1,1.5-1.1c0.4-0.1,0.9,0,1.2,0c0-0.1,0-0.1,0-0.2c0.1-0.9-0.1-1.3-0.6-1.4c-0.3,0-0.7,0.1-0.7,0.5
							c0,0.2,0,0.5,0.2,0.6c-0.1,0.1-0.3,0.1-0.5,0.1c-0.4-0.1-0.6-0.4-0.6-0.8c0.1-0.6,0.8-0.8,1.7-0.7c1,0.1,1.6,0.9,1.4,1.9
							c-0.1,0.6-0.1,0.9-0.1,1.4c0,0.3,0.1,0.4,0.2,0.4c0.1,0,0.2,0,0.3-0.1C68.6,111.3,68.7,111.4,68.6,111.5z M67.3,109.8
							c-0.3-0.1-0.8-0.1-1.1,0c-0.4,0.1-0.6,0.3-0.7,0.7c0,0.3,0.1,0.6,0.4,0.6C66.5,111.2,67.2,110.6,67.3,109.8z"/>
						<path d="M71.4,108.1c0,0.1,0,0.1,0,0.2c0,0.1-0.1,0.2-0.2,0.2c-0.3,0-0.4,0-0.7,0c0,0.1,0,0.2,0,0.3c0,0.9-0.1,1.4-0.1,2.4
							c0,0.3,0.1,0.4,0.4,0.4c0.1,0,0.3,0,0.4-0.1c0.1,0.1,0.1,0.2,0.1,0.3c0,0.3-0.3,0.5-0.8,0.5c-0.6,0-0.9-0.4-0.9-1.1
							c0.1-0.9,0.1-1.8,0.2-2.7c0,0-0.1,0-0.1,0c-0.1,0-0.4,0-0.5,0c0-0.1,0-0.1,0-0.2c0-0.1,0.1-0.2,0.2-0.2c0.1,0,0.2,0,0.3,0
							c0-0.2,0-0.4,0-0.6c0-0.3,0.2-0.4,0.5-0.4c0.2,0,0.4,0.1,0.5,0.2c-0.1,0.3-0.1,0.5-0.1,0.8c0.1,0,0.1,0,0.1,0
							C70.7,108,71.3,108.1,71.4,108.1z"/>
						<path d="M72.1,107c0-0.3,0.2-0.5,0.5-0.5c0.3,0,0.5,0.2,0.5,0.5c0,0.3-0.2,0.5-0.5,0.5C72.3,107.5,72.1,107.3,72.1,107z
							 M73.2,112c-0.1,0.1-0.3,0.2-0.5,0.2c-0.3,0-0.5-0.2-0.5-0.5c0-0.9,0-1.8,0-2.6c0-0.3,0-0.6-0.1-0.9c0.1-0.1,0.2-0.2,0.5-0.2
							c0.3,0,0.5,0.2,0.5,0.5c0,0.9,0,1.8,0,2.6C73.1,111.4,73.1,111.8,73.2,112z"/>
						<path d="M74,110.1c0-1.1,0.6-2.1,1.7-2.2c1.1,0,1.9,1,2,2c0.1,1.1-0.6,2.1-1.7,2.2C74.8,112.3,74,111.2,74,110.1z M76.8,110
							c-0.1-1.2-0.5-1.8-1.1-1.7c-0.6,0-0.9,0.7-0.8,1.8c0.1,1.2,0.4,1.8,1.1,1.8C76.6,111.8,76.9,111.2,76.8,110z"/>
						<path d="M82.5,111.3c-0.1,0.1-0.3,0.2-0.5,0.3c-0.3,0-0.5-0.1-0.6-0.4c-0.1-0.8-0.2-1.2-0.3-2c-0.1-0.8-0.4-1.2-0.9-1.2
							c-0.5,0.1-0.8,0.6-0.7,1.9c0.2,1.1,0.2,1.4,0.4,1.8c-0.1,0.1-0.2,0.2-0.5,0.2c-0.3,0-0.6-0.1-0.6-0.4
							c-0.1-0.9-0.2-1.8-0.3-2.7c0-0.3-0.1-0.4-0.3-0.4c-0.1,0-0.2,0-0.2,0.1c-0.1-0.1-0.1-0.2-0.1-0.3c0-0.3,0.1-0.5,0.5-0.5
							c0.4,0,0.7,0.2,0.8,0.8c0,0,0,0,0,0c0.1-0.6,0.5-1,1.1-1.1c0.8-0.1,1.3,0.4,1.5,1.4c0.1,0.6,0.2,0.9,0.3,1.5
							C82.3,110.7,82.4,111.1,82.5,111.3z"/>
						<path d="M84.5,109c-0.3-1.1,0.1-2.2,1.2-2.5c1.1-0.3,2.1,0.6,2.4,1.6c0.3,1.1-0.1,2.2-1.2,2.5C85.8,111,84.8,110.1,84.5,109z
							 M87.3,108.3c-0.3-1.1-0.8-1.7-1.4-1.5c-0.6,0.1-0.7,0.8-0.4,2c0.3,1.1,0.8,1.7,1.4,1.5C87.5,110.2,87.6,109.5,87.3,108.3z"/>
						<path d="M90.4,104.1c0.1,0.3,0,0.6-0.3,0.7c-0.1,0-0.3,0.1-0.4,0c0-0.2,0-0.3,0-0.4c-0.1-0.2-0.3-0.3-0.5-0.2
							c-0.5,0.2-0.3,0.8,0,1.5c0,0,0,0.1,0,0.1c0.1,0,0.2-0.1,0.3-0.1c0.1,0,0.6-0.2,0.7-0.3c0,0.1,0,0.1,0.1,0.2
							c0,0.1,0,0.2-0.1,0.3c-0.3,0.1-0.5,0.2-0.8,0.3c0.3,0.8,0.6,1.6,0.9,2.5c0.1,0.2,0.2,0.6,0.4,0.8c-0.1,0.1-0.2,0.3-0.4,0.3
							c-0.3,0.1-0.6,0-0.6-0.3c-0.4-1-0.7-2.1-1.1-3.1c0,0,0,0-0.1,0c-0.1,0-0.3,0.1-0.4,0.2c0-0.1,0-0.1-0.1-0.2
							c0-0.1,0-0.2,0.1-0.3c0.1,0,0.2-0.1,0.3-0.1c0-0.1,0-0.1-0.1-0.2c-0.3-0.8-0.2-1.6,0.7-1.9C89.8,103.6,90.3,103.6,90.4,104.1z
							"/>
						<path d="M94.3,107.6c-0.6-1.2-1.1-2.5-1.7-3.7c-0.1-0.3-0.3-0.7-0.5-0.9c0.3-0.2,1-0.5,1.4-0.7c1.4-0.6,2.7,0.2,3.4,1.5
							c0.7,1.3,0.7,2.9-0.8,3.5c-0.4,0.2-0.7,0.3-1.1,0.5C94.7,108,94.5,107.9,94.3,107.6z M95.9,107.1c1.2-0.5,0.7-2,0.2-2.8
							c-0.4-0.8-1.3-2.1-2.4-1.7c-0.3,0.1-0.4,0.2-0.6,0.3c0.7,1.5,1.4,3,2.1,4.5C95.5,107.3,95.6,107.2,95.9,107.1z"/>
						<path d="M101.7,103.6c0.1,0.5-0.3,1.1-0.9,1.4c-1,0.7-2.3,0.1-2.8-0.9c-0.6-1-0.5-2.2,0.6-2.8c0.7-0.4,1.5-0.4,1.9,0.2
							c0.4,0.7,0.1,1.4-0.8,1.9c-0.2,0.1-0.5,0.3-0.7,0.4c0.6,0.9,1.2,0.9,1.8,0.6c0.5-0.3,0.7-0.7,0.7-1.2
							C101.5,103.3,101.6,103.4,101.7,103.6z M98.7,103.6c0,0,0.2-0.1,0.3-0.2c0.5-0.3,1-0.7,0.5-1.5c-0.3-0.5-0.7-0.4-0.9-0.3
							C98.2,102,98.4,103.6,98.7,103.6z"/>
						<path d="M106,101.4c0,0.2-0.1,0.3-0.3,0.5c-0.2,0.2-0.5,0.2-0.7-0.1c-0.5-0.7-0.8-1-1.3-1.7c-0.5-0.7-0.9-0.9-1.3-0.6
							c-0.4,0.3-0.4,1,0.3,2c0.7,0.9,0.8,1.2,1.2,1.4c0,0.1-0.1,0.3-0.3,0.4c-0.3,0.2-0.6,0.1-0.7-0.1c-0.5-0.8-1-1.5-1.6-2.3
							c-0.2-0.2-0.3-0.3-0.4-0.2c0,0-0.1,0.1-0.1,0.2c-0.1,0-0.2-0.1-0.3-0.2c-0.2-0.2-0.1-0.5,0.2-0.7c0.4-0.2,0.8-0.1,1.1,0.4
							c0,0,0,0,0,0c-0.2-0.6,0-1.2,0.5-1.5c0.7-0.5,1.3-0.3,2,0.6c0.4,0.5,0.6,0.7,1,1.2C105.4,100.9,105.7,101.3,106,101.4z"/>
						<path d="M105.6,96.4c0.1,0.1,0.1,0.1,0.1,0.2c0.1,0.1,0.1,0.2,0,0.3c-0.2,0.2-0.3,0.3-0.6,0.5c0.1,0.1,0.1,0.1,0.2,0.2
							c0.6,0.7,1,1.1,1.6,1.8c0.2,0.2,0.4,0.2,0.6,0.1c0.1-0.1,0.2-0.2,0.2-0.3c0.1,0,0.2,0.1,0.3,0.2c0.2,0.2,0.1,0.6-0.3,0.9
							c-0.5,0.4-1,0.3-1.4-0.2c-0.6-0.7-1.2-1.4-1.8-2.1c0,0-0.1,0-0.1,0.1c-0.1,0.1-0.3,0.2-0.3,0.3c-0.1-0.1-0.1-0.1-0.1-0.2
							c-0.1-0.1-0.1-0.2,0-0.3c0.1-0.1,0.2-0.1,0.3-0.2c-0.2-0.2-0.2-0.3-0.4-0.5c-0.2-0.2-0.1-0.5,0.1-0.7c0.2-0.2,0.4-0.2,0.5-0.2
							c0.1,0.2,0.3,0.5,0.5,0.7c0,0,0.1-0.1,0.1-0.1C105.1,96.9,105.6,96.5,105.6,96.4z"/>
						<path d="M111.6,95.9c0.2,0.2,0.2,0.5-0.1,0.8c-0.4,0.4-0.8,0.4-1.4-0.2c0.3,0.7,0.2,1.5-0.4,2c-0.5,0.4-1,0.5-1.4,0
							c-0.5-0.5-0.3-1.3,0.1-1.9c0.2-0.4,0.5-0.7,0.8-1c-0.1-0.1-0.1-0.1-0.1-0.1c-0.7-0.6-1.1-0.8-1.6-0.4
							c-0.3,0.2-0.4,0.6-0.1,0.9c0.2,0.2,0.4,0.3,0.6,0.2c0,0.2-0.1,0.3-0.2,0.5c-0.3,0.3-0.8,0.2-1-0.1c-0.4-0.5-0.2-1.1,0.5-1.8
							c0.8-0.7,1.7-0.7,2.4,0.1c0.4,0.4,0.6,0.6,1.1,1c0.2,0.2,0.4,0.2,0.5,0.1c0.1-0.1,0.1-0.2,0.1-0.3
							C111.5,95.8,111.6,95.8,111.6,95.9z M109.4,95.8c-0.3,0.2-0.5,0.6-0.7,0.9c-0.1,0.4-0.1,0.7,0.1,1c0.2,0.2,0.5,0.3,0.8,0
							C110,97.4,110,96.4,109.4,95.8z"/>
						<path d="M111.7,95c-1.1-1-2.2-2-3.4-3c-0.2-0.2-0.2-0.5,0-0.7c0.2-0.2,0.4-0.2,0.5-0.2c0.2,0.4,0.5,0.6,1.1,1.1
							c0.8,0.7,1.6,1.4,2.4,2.1c0.2,0.2,0.4,0.2,0.5,0.1c0.1-0.1,0.1-0.2,0.1-0.3c0.1,0,0.2,0.1,0.3,0.1c0.2,0.2,0.2,0.6-0.1,0.8
							C112.7,95.5,112.2,95.5,111.7,95z"/>
						<path d="M117.8,88.4c0,0.1,0,0.4-0.1,0.6c-0.2,0.3-0.5,0.4-0.7,0.2c-0.8-0.5-1.2-0.8-2-1.3c-0.5,0.8-0.8,1.2-1.4,2
							c0.5,0.4,0.8,0.6,1.3,1c0.3,0.2,0.6,0.4,0.9,0.5c0,0.1,0,0.4-0.2,0.6c-0.2,0.3-0.5,0.3-0.7,0.2c-1.1-0.8-2.2-1.7-3.4-2.5
							c-0.2-0.2-0.5-0.4-0.8-0.5c0-0.1,0-0.3,0.1-0.5c0.2-0.2,0.4-0.3,0.7-0.1c0.7,0.5,1,0.7,1.7,1.2c0.6-0.8,0.8-1.2,1.3-2
							c-0.5-0.3-0.7-0.5-1.1-0.8c-0.3-0.2-0.6-0.3-0.9-0.4c0-0.1,0-0.3,0.1-0.5c0.2-0.2,0.4-0.3,0.7-0.2c1.2,0.8,2.4,1.5,3.5,2.3
							C117.1,88.2,117.5,88.4,117.8,88.4z"/>
						<path d="M119.6,83.9c0.4,0.4,0.3,1.1-0.1,1.8c-0.6,1.1-1.9,1.4-2.9,0.8c-1-0.6-1.5-1.8-0.9-2.9c0.4-0.8,1.1-1.3,1.8-0.9
							c0.9,0.5,0.6,1.6,0.2,2.3c-0.1,0.3-0.3,0.5-0.5,0.8c1,0.5,1.5,0.2,1.9-0.5c0.3-0.6,0.3-1.1,0-1.5
							C119.3,83.7,119.4,83.7,119.6,83.9z M117,85.6c0,0,0.1-0.2,0.2-0.3c0.3-0.6,0.5-1.3-0.2-1.7c-0.5-0.3-0.8,0-1,0.3
							C115.7,84.4,116.7,85.7,117,85.6z"/>
						<path d="M122,78.9c0.3,0.1,0.4,0.5,0.2,0.9c-0.2,0.5-0.6,0.7-1.4,0.4c0.5,0.6,0.7,1.4,0.3,2.2c-0.3,0.6-0.8,0.9-1.4,0.7
							c-0.7-0.3-0.7-1.2-0.6-2c0.1-0.5,0.2-1,0.4-1.3c-0.1,0-0.1,0-0.2-0.1c-0.8-0.4-1.3-0.3-1.6,0.3c-0.2,0.4-0.2,0.7,0.3,0.9
							c0.2,0.1,0.5,0.1,0.7-0.1c0.1,0.2,0,0.4-0.1,0.6c-0.2,0.4-0.6,0.6-1,0.4c-0.6-0.3-0.6-1-0.2-2c0.4-1,1.3-1.5,2.3-1
							c0.6,0.2,0.8,0.3,1.4,0.6c0.3,0.1,0.4,0.1,0.5-0.1c0-0.1,0-0.2,0-0.3C121.8,78.9,121.9,78.9,122,78.9z M119.9,79.9
							c-0.2,0.4-0.3,0.8-0.3,1.2c0,0.4,0.1,0.8,0.5,0.9c0.3,0.1,0.6,0.1,0.8-0.3C121,81.2,120.7,80.2,119.9,79.9z"/>
						<path d="M121.8,78c-1.4-0.5-2.8-1.1-4.2-1.6c-0.3-0.1-0.4-0.4-0.3-0.7c0.1-0.3,0.3-0.4,0.4-0.4c0.4,0.2,0.7,0.4,1.5,0.7
							c1,0.3,2,0.7,3,1c0.3,0.1,0.4,0,0.5-0.2c0-0.1,0-0.3,0-0.3c0.1-0.1,0.2,0,0.3,0c0.3,0.1,0.4,0.5,0.2,0.9
							C122.9,78,122.4,78.3,121.8,78z"/>
						<path d="M120.1,72.4c0.1,0,0.1,0,0.2,0.1c0.1,0,0.2,0.2,0.2,0.3c-0.1,0.3-0.1,0.5-0.2,0.8c0.1,0,0.2,0,0.3,0.1
							c0.9,0.3,1.4,0.4,2.3,0.7c0.3,0.1,0.5,0,0.5-0.3c0-0.2,0.1-0.4,0-0.4c0.1-0.1,0.2-0.1,0.3,0c0.3,0.1,0.4,0.5,0.2,1.1
							c-0.2,0.7-0.7,1-1.3,0.8c-0.9-0.3-1.8-0.6-2.7-0.8c0,0,0,0.1,0,0.1c0,0.1-0.1,0.4-0.1,0.5c-0.1,0-0.1,0-0.2-0.1
							c-0.1-0.1-0.2-0.2-0.1-0.3c0-0.2,0.1-0.2,0.1-0.4c-0.2-0.1-0.4-0.1-0.6-0.2c-0.3-0.1-0.4-0.4-0.3-0.7c0.1-0.3,0.3-0.4,0.3-0.5
							c0.2,0.2,0.5,0.3,0.8,0.4c0-0.1,0-0.1,0-0.2C119.9,73.2,120.1,72.5,120.1,72.4z"/>
						<path d="M125.2,68c0.1,0.2,0.1,0.4,0.1,0.7c-0.1,0.4-0.3,0.6-0.6,0.6c-0.8-0.2-1.3-0.2-2.1-0.4c-0.9-0.2-1.4,0-1.5,0.6
							c-0.1,0.8,0.8,1.4,1.6,1.5c1.1,0.2,1.4,0.3,1.8,0.2c0.1,0.1,0.1,0.3,0.1,0.7c-0.1,0.4-0.3,0.6-0.6,0.5
							c-1.6-0.4-3.3-0.8-4.9-1.2c-0.3-0.1-0.4-0.3-0.3-0.6c0-0.3,0.2-0.5,0.3-0.6c0.4,0.2,0.9,0.4,1.6,0.5c0.3,0.1,0.4,0.1,0.7,0.2
							c-0.5-0.4-0.7-1-0.6-1.6c0.1-0.9,1-1.4,1.9-1.2c0.6,0.1,0.9,0.1,1.5,0.2C124.5,68.1,124.9,68.1,125.2,68z"/>
					</g>
				</g>
			</g>
			<linearGradient id="SVGID_9_" gradientUnits="userSpaceOnUse" x1="65.527" y1="13.1674" x2="81.8522" y2="13.1674">
				<stop  offset="0" style="stop-color:#4094D2"/>
				<stop  offset="1" style="stop-color:#0070C3"/>
			</linearGradient>
			<path class="st11" d="M79.7,13.7c-0.1,0-0.1-0.1-0.3-0.2c-0.3-0.2-1-0.7-2.1-1.1c-0.1,0-0.2-0.1-0.4-0.1c1.1,0.8,1.9,1.9,2.5,3.1
				c1.4,2.9,0.2,6.3-2.8,7.8c-0.3,0.2-0.5,0.1-0.5-0.3c0-0.3,0.1-0.7,0.2-1c0.2-0.5,0.4-1.1,0.5-1.6c0.3-1.2-0.4-2.3-0.5-2.5
				c-0.2-0.2-0.6-0.9-1.5-1.3c-0.8-0.3-1.5-0.2-1.6-0.1c-0.6,0.1-1,0.4-1.1,0.5c-0.2,0.1-0.4,0.3-0.5,0.5c-0.5,0.7-0.8,1.4-0.8,2.2
				c0,0.7,0.1,1.5,0.1,2.2c0,0.2-0.1,0.3-0.1,0.5c-0.1-0.1-0.3-0.1-0.4-0.2c-0.8-0.5-1.5-1.2-2-2c-0.9-1.3-1.3-2.7-1-4.3
				c0.1-0.6,0.4-0.9,0.6-1.9c0.1-0.4,0.2-0.7,0.2-0.9c0,0-0.1-0.1-0.2-0.2c-0.7-0.8-2.3-2.8-2.6-5.3C65.4,5.9,66,4.7,67.4,4
				c1.2-0.7,2.3-0.8,3.7-0.8c0.9,0,2.1,0,3.5,0.3c0,0.2-0.1,0.4-0.2,0.6c-0.3,0.3-0.6,0.7-0.8,1c-0.1,0.1-0.1,0.2-0.1,0.3
				c0.1,0,0.1,0,0.1,0c0.1,0,0.1-0.1,0.1-0.1c0.5-0.4,1-0.7,1.6-0.9c1.5-0.5,3-0.3,4.4,0.3c1.2,0.5,1.9,1.5,2.1,2.9
				c0.2,1.1,0,1.9-0.2,2.7c-0.1,0.3-0.2,0.9-0.6,1.8C80.6,12.6,80.1,13.3,79.7,13.7z"/>
		</g>
	</g>
</g>
</svg>
