<?xml version="1.0" encoding="utf-8"?>
<!-- Generator: Adobe Illustrator 22.0.0, SVG Export Plug-In . SVG Version: 6.00 Build 0)  -->
<svg version="1.1" id="Layer_1" xmlns="http://www.w3.org/2000/svg" xmlns:xlink="http://www.w3.org/1999/xlink" x="0px" y="0px"
	 viewBox="0 0 91 91" style="enable-background:new 0 0 91 91;" xml:space="preserve">
<style type="text/css">
	.st0{fill:#FF889C;}
	.st1{fill:#FFFFFF;}
	.st2{fill:#F16B72;}
</style>
<g>
	<path class="st0" d="M88.8,45.4c0-1.1-1-2-2.1-2h-9.7c-3.2,0-5.2,2.6-5.9,4.2l-8.1,16.8c-3,6.3-10,10-18.8,10h0
		c-3.1,0-6.3-0.5-9.5-1.4c-11.1-3.3-17-14.6-15.1-22l0.9-3.9c0.4-0.9,1.2-1.7,0.4-3c-1-1.5-1.9-0.7-4.9-0.7h-12c-1.1,0-2,0.9-2,2
		c0,0.7,0,1.3,0,2c0,23.9,19.5,43.4,43.4,43.4c23.9,0,43.4-19.5,43.4-43.4C88.9,46.7,88.9,46,88.8,45.4z"/>
	<g>
		<path class="st1" d="M79.8,15.8c-2.1-2.9-5.6-5.3-9.9-6.8c-2.9-1.1-6.2-1.7-9-1.7c-0.5,0-0.9,0-1.3,0l-0.1,0l-0.1-0.1
			c-1.7-1.7-4.1-3.3-6.9-4.6c-0.1,0-0.1,0-0.2-0.1L47.7,1c-0.1,0-0.1,0-0.2-0.1c-3.3-0.8-6.4-0.9-9.1-0.2c-4.3,1.1-7.1,3.7-8.9,8.2
			l-0.4,1c-2.2,6.2-1.7,9.3-1.2,12.8l0.1,0.6c0.6,3.6,1.1,7.7-1.3,14.2c-3.4,9.3-3.4,14.8-2.9,17.7c0.6,3.3,1.2,4.8,4,5.8
			c0.5,0.2,1,0.3,1.5,0.3c2.2,0,3.8-1.7,4.5-3.2c0.5-1.1,1-2.3,1.5-3.7c1.2-3,2.6-6.8,5.2-10.2c1-1.4,2.2-2.9,3.8-4.1
			c0.7-0.5,1.7-0.8,2.6-0.8c1.6,0,2.5,0.9,2.9,2.8c0.4,2,0.4,3.9,0.3,5.7c-0.3,4.2-1.4,8.8-3,12.3c-1.1,2.4-1.3,4.4-0.6,6.1
			c0.6,1.4,1.7,2.2,2.5,2.5c0.5,0.2,1.2,0.4,2,0.4c1.6,0,3-0.9,4.8-2.3c2.3-1.9,5.8-6.1,9.2-15.4c2.3-6.4,5.3-9.3,8.1-11.7l0.4-0.3
			c2.7-2.4,5.1-4.4,7.4-10.6c0.1-0.2,0.1-0.4,0.2-0.6l0.1-0.4C82.8,23.1,82.3,19.4,79.8,15.8z M77.5,26.4l-0.1,0.4
			c-0.1,0.2-0.1,0.4-0.2,0.5c-2,5.2-3.8,6.8-6.2,8.9l-0.4,0.3c-3.1,2.6-6.7,6-9.3,13.4c-3.2,8.9-6.4,12.3-8,13.6
			c-1.4,1.2-2,1.4-2.2,1.4c-0.1,0-0.3-0.1-0.6-0.1c-0.3-0.2-0.5-1.1,0.3-3c1.9-4,3.1-9,3.4-13.8c0.1-2.1,0.1-4.4-0.4-6.8
			c-0.8-3.8-3.4-6-6.9-6c-1.8,0-3.6,0.6-5,1.6c-2.1,1.5-3.5,3.4-4.7,5c-2.9,3.9-4.4,7.9-5.7,11.2c-0.5,1.3-0.9,2.4-1.4,3.4
			c-0.2,0.4-0.6,0.8-0.8,0.8c0,0-0.1,0-0.1,0c-0.8-0.3-0.9-0.3-1.4-2.8c-0.4-2-0.5-6.7,2.7-15.5c2.7-7.4,2.2-12.3,1.5-16.3L32.1,22
			c-0.5-3.2-0.9-5.6,1-10.8l0.3-0.9c1.3-3.2,3.1-4.9,6.1-5.7c2-0.5,4.4-0.4,7,0.2l4.4,1.5c2.3,1,4.3,2.4,5.7,3.7l0.7,0.7l4.9,5.4
			c0.4,0.4,1,0.7,1.5,0.7c0.5,0,1-0.2,1.4-0.5c0.8-0.8,0.9-2.1,0.2-2.9l-1.8-2c1.7,0.2,3.5,0.7,5.1,1.3c3.5,1.3,6.3,3.2,7.9,5.4
			C78.2,20.7,78.5,23.1,77.5,26.4z"/>
	</g>
	<g>
		<path class="st2" d="M44.3,76.1c-3.4,0-7-0.5-10.6-1.6c-13.6-4.1-19.2-16.7-16.6-26c0-0.1,0.1-0.2,0.1-0.3l1.3-2.7
			c-0.2-0.1-0.9-0.4-2.3-0.4h-12c-1.1,0-2.1-0.9-2.1-2.1c0-1.1,0.9-2.1,2.1-2.1h12c3,0,4.9,0.7,5.9,2.3c0.8,1.3,0.7,2.8,0.3,3.7
			L21,49.8c-1.9,7.4,2.8,17.5,13.9,20.8C47.1,74.3,59,70.7,63.1,62l8.1-16.8c0.7-1.6,2.7-4.3,5.9-4.3h9.7c1.1,0,2.1,0.9,2.1,2.1
			c0,1.1-0.9,2.1-2.1,2.1h-9.7c-1.3,0-2.1,1.8-2.1,1.8l-8.1,16.9C63.1,71.6,54.4,76.1,44.3,76.1z"/>
	</g>
	<path class="st1" d="M39.5,20.8c-1,0-1.8-0.8-1.8-1.8c0-4.2,1.7-7.5,4.6-9.1c2.7-1.5,6-1.2,8.8,0.6c0.8,0.5,1.1,1.7,0.5,2.5
		s-1.7,1.1-2.5,0.5c-1.7-1.1-3.6-1.3-5.1-0.5c-1.7,0.9-2.7,3.1-2.7,5.9C41.3,20,40.5,20.8,39.5,20.8z"/>
</g>
</svg>
