<?xml version="1.0" encoding="utf-8"?>
<!-- Generator: Adobe Illustrator 22.0.0, SVG Export Plug-In . SVG Version: 6.00 Build 0)  -->
<svg version="1.1" id="Layer_1" xmlns="http://www.w3.org/2000/svg" xmlns:xlink="http://www.w3.org/1999/xlink" x="0px" y="0px"
	 viewBox="0 0 1133.9 1133.9" style="enable-background:new 0 0 1133.9 1133.9;" xml:space="preserve">
<style type="text/css">
	.st0{fill:#007EE6;}
	.st1{fill:#FFFFFF;}
</style>
<rect y="0" class="st0" width="1133.9" height="1133.9"/>
<path class="st1" d="M807,343H423c-26.5,0-48,21.5-48,48v256c0,26.5,21.5,48,48,48h384c26.5,0,48-21.5,48-48V391
	C855,364.4,833.5,343,807,343z M502.1,407c17.7,0,32,14.3,32,32s-13.4,32-32,32c-17.7,0-32-14.3-32-32S485.3,407,502.1,407z
	 M773.1,622.6c-2.8,5.2-8.2,8.4-14.1,8.4H471c-6,0-11.5-3.4-14.3-8.8c-2.7-5.4-2.2-11.8,1.3-16.7l70-96c3-4.2,7.8-6.6,12.9-6.6
	c5.1,0,9.9,2.4,12.9,6.6l22.3,30.7l62.7-94.1c2.1-4.4,7.1-7.1,13.3-7.1c5.3,0,10.3,2.7,13.3,7.1l106.7,160
	C775.6,611,775.8,617.3,773.1,622.6z M735,743H399c-39.7,0-72-32.3-72-72V431c0-13.2-10.8-24-24-24s-24,10.8-24,24v240
	c0,66.2,53.8,120,120,120h336c13.3,0,24-10.8,24-24S748.3,743,735,743z"/>
</svg>
