<?xml version="1.0" encoding="utf-8"?>
<!-- Generator: Adobe Illustrator 22.0.0, SVG Export Plug-In . SVG Version: 6.00 Build 0)  -->
<svg version="1.1" id="Layer_1" xmlns="http://www.w3.org/2000/svg" xmlns:xlink="http://www.w3.org/1999/xlink" x="0px" y="0px"
	 viewBox="0 0 3118.1 3118.1" style="enable-background:new 0 0 3118.1 3118.1;" xml:space="preserve">
<style type="text/css">
	.st0{display:none;}
	.st1{display:inline;fill:none;stroke:#000000;stroke-miterlimit:10;}
	.st2{fill:url(#SVGID_1_);}
	.st3{fill:url(#SVGID_2_);}
	.st4{fill:url(#SVGID_3_);}
	.st5{fill:#FFD500;}
	.st6{fill:#57ABDF;}
</style>
<g class="st0">
	<circle class="st1" cx="6012.2" cy="2980.5" r="337.5"/>
	<circle class="st1" cx="6012.2" cy="2918.6" r="275.6"/>
	<ellipse class="st1" cx="6012.2" cy="2925.5" rx="190.1" ry="191.8"/>
	<ellipse class="st1" cx="6012.2" cy="2890.3" rx="155.2" ry="156.7"/>
</g>
<g class="st0">
	<circle class="st1" cx="3493" cy="-1825.3" r="337.5"/>
	<circle class="st1" cx="3493" cy="-1887.2" r="275.6"/>
	<ellipse class="st1" cx="3493" cy="-1880.3" rx="190.1" ry="191.8"/>
	<ellipse class="st1" cx="3493" cy="-1915.5" rx="155.2" ry="156.7"/>
</g>
<g class="st0">
	<circle class="st1" cx="-3181.7" cy="-1825.3" r="337.5"/>
	<circle class="st1" cx="-3181.7" cy="-1887.2" r="275.6"/>
	<ellipse class="st1" cx="-3181.7" cy="-1880.3" rx="190.1" ry="191.8"/>
	<ellipse class="st1" cx="-3181.7" cy="-1915.5" rx="155.2" ry="156.7"/>
</g>
<g class="st0">
	<circle class="st1" cx="3493" cy="1467.9" r="337.5"/>
	<circle class="st1" cx="3493" cy="1406" r="275.6"/>
	<ellipse class="st1" cx="3493" cy="1412.9" rx="190.1" ry="191.8"/>
	<ellipse class="st1" cx="3493" cy="1377.7" rx="155.2" ry="156.7"/>
</g>
<g class="st0">
	<circle class="st1" cx="-1852.4" cy="4775.2" r="337.5"/>
	<circle class="st1" cx="-1852.4" cy="4713.4" r="275.6"/>
	<ellipse class="st1" cx="-1852.4" cy="4720.2" rx="190.1" ry="191.8"/>
	<ellipse class="st1" cx="-1852.4" cy="4685" rx="155.2" ry="156.7"/>
</g>
<g class="st0">
	<circle class="st1" cx="1560.8" cy="4775.2" r="337.5"/>
	<circle class="st1" cx="1560.8" cy="4713.4" r="275.6"/>
	<ellipse class="st1" cx="1560.8" cy="4720.2" rx="190.1" ry="191.8"/>
	<ellipse class="st1" cx="1560.8" cy="4685" rx="155.2" ry="156.7"/>
</g>
<g class="st0">
	<circle class="st1" cx="-1852.4" cy="1485.9" r="337.5"/>
	<circle class="st1" cx="-1852.4" cy="1424.1" r="275.6"/>
	<ellipse class="st1" cx="-1852.4" cy="1430.9" rx="190.1" ry="191.8"/>
	<ellipse class="st1" cx="-1852.4" cy="1395.7" rx="155.2" ry="156.7"/>
</g>
<g class="st0">
	<circle class="st1" cx="1560.8" cy="1461.5" r="337.5"/>
	<circle class="st1" cx="1560.8" cy="1399.6" r="275.6"/>
	<ellipse class="st1" cx="1560.8" cy="1406.5" rx="190.1" ry="191.8"/>
	<ellipse class="st1" cx="1560.8" cy="1371.3" rx="155.2" ry="156.7"/>
</g>
<g>
	<g>
		<linearGradient id="SVGID_1_" gradientUnits="userSpaceOnUse" x1="1380.0554" y1="245.2143" x2="1734.5797" y2="245.2143">
			<stop  offset="0" style="stop-color:#4094D2"/>
			<stop  offset="1" style="stop-color:#0070C3"/>
		</linearGradient>
		<path class="st2" d="M1688.9,257c-1.1-0.9-3.2-2.5-5.9-4.4c-5.5-3.9-22-14.1-46-24.2c-2.1-0.9-4.2-1.6-7.8-2.8
			c24.9,18.3,42.1,41,54.6,66.9c30.5,63.1,3.5,137.2-60.5,168.4c-7.1,3.4-10.3,1.9-10-6.1c0.3-7.2,2.1-14.4,4.2-21.3
			c3.5-11.6,8.5-22.8,11.5-34.6c6.8-26.3-9.5-50.2-11.5-53.3c-3.3-5-13.5-20-33.5-27.6c-17.4-6.6-32.4-3.7-35.5-3.1
			c-13.2,2.7-21.9,9.2-24.2,10.8c-4.1,2.8-7.7,6.5-10.7,10.5c-10.7,14.4-16.5,30.8-16.3,48.6c0.1,15.9,2.2,31.8,3,47.8
			c0.2,3.7-1.3,7.5-2,11.2c-3.2-1.2-6.9-1.9-9.7-3.8c-17-11.8-31.5-26.3-43.6-43.1c-20.1-27.9-27.9-59.1-21.8-92.8
			c2.5-13.9,8.4-20.3,13.8-41.4c2.1-8.3,3.3-15.2,4-19.9c-0.9-1-2.4-2.6-4.1-4.5c-15-16.8-50.5-60.1-56.3-116
			c-3.6-34,9.7-60.6,39.7-76.6c26.6-14.2,51-16.6,80.5-17.7c18.6-0.7,44.7-0.2,75.6,5.4c0,4.9-1.5,8.6-4.6,12.2
			c-6.3,7.2-12.3,14.6-18.2,22.1c-1.4,1.7-2,4-3.2,6.6c1.3-0.3,1.7-0.3,2-0.5c1.1-0.9,2.2-1.7,3.2-2.6c10-9.2,21.9-15.4,34.6-19.9
			c32.9-11.5,65.3-7.5,96.5,5.9c27,11.6,42.3,33,46.5,62.1c3.4,23.6-0.3,42.2-4,57.9c-1.3,5.6-5.2,20.5-13.9,38.6
			C1706.6,233.9,1696.8,247.5,1688.9,257z"/>
		<g>
			<g>
				<linearGradient id="SVGID_2_" gradientUnits="userSpaceOnUse" x1="27.0455" y1="1559.0552" x2="3091.0647" y2="1559.0552">
					<stop  offset="0" style="stop-color:#D94048"/>
					<stop  offset="1" style="stop-color:#CD010B"/>
				</linearGradient>
				<path class="st3" d="M2250.5,2627.4c-9,5.1-13.4,7.6-22.4,12.5c-3,1.7-5.7,3.8-7.9,6.4c-2.3,2.6-4,5.4-5.2,8.4
					c-1.2,3-1.9,6.1-2,9.3c-0.1,3.2,0.4,6.1,1.7,8.9c4.5,10.1,6.8,15.2,11.3,25.3c2.7-0.8,5.1-1.6,7.1-2.4c2-0.8,4-1.6,5.8-2.4
					c1.8-0.8,3.5-1.7,5.3-2.7c1.8-1,3.7-2.1,5.8-3.2c4.1-2.3,8-4.7,11.7-7.2c3.6-2.5,7.2-5.1,10.6-7.8
					C2263.4,2654.5,2259.1,2645.4,2250.5,2627.4z M2250.5,2627.4c-9,5.1-13.4,7.6-22.4,12.5c-3,1.7-5.7,3.8-7.9,6.4
					c-2.3,2.6-4,5.4-5.2,8.4c-1.2,3-1.9,6.1-2,9.3c-0.1,3.2,0.4,6.1,1.7,8.9c4.5,10.1,6.8,15.2,11.3,25.3c2.7-0.8,5.1-1.6,7.1-2.4
					c2-0.8,4-1.6,5.8-2.4c1.8-0.8,3.5-1.7,5.3-2.7c1.8-1,3.7-2.1,5.8-3.2c4.1-2.3,8-4.7,11.7-7.2c3.6-2.5,7.2-5.1,10.6-7.8
					C2263.4,2654.5,2259.1,2645.4,2250.5,2627.4z M1955.8,2764c-0.3-1.4-1-2.5-2.1-3.3c-1.1-0.8-2.4-1.3-3.8-1.7s-3.1-0.4-4.8-0.3
					c-1.7,0.1-3.4,0.4-5,0.9c-11.3,3.3-17,4.8-28.3,7.9c-1.8,0.5-3.4,1.1-5,2c-1.5,0.9-2.9,1.8-4,2.9c-1.1,1.1-1.9,2.2-2.5,3.4
					c-0.5,1.2-0.6,2.4-0.4,3.6c0.5,2.2,1.8,4.3,4.1,6.4c12.9,11.4,19.5,17.1,32.8,28.3c0.5-0.1,0.8-0.2,1.3-0.4
					c6.9-16.8,10.2-25.2,16.6-42C1956,2768.6,1956.3,2766.1,1955.8,2764z M2250.5,2627.4c-9,5.1-13.4,7.6-22.4,12.5
					c-3,1.7-5.7,3.8-7.9,6.4c-2.3,2.6-4,5.4-5.2,8.4c-1.2,3-1.9,6.1-2,9.3c-0.1,3.2,0.4,6.1,1.7,8.9c4.5,10.1,6.8,15.2,11.3,25.3
					c2.7-0.8,5.1-1.6,7.1-2.4c2-0.8,4-1.6,5.8-2.4c1.8-0.8,3.5-1.7,5.3-2.7c1.8-1,3.7-2.1,5.8-3.2c4.1-2.3,8-4.7,11.7-7.2
					c3.6-2.5,7.2-5.1,10.6-7.8C2263.4,2654.5,2259.1,2645.4,2250.5,2627.4z M2250.5,2627.4c-9,5.1-13.4,7.6-22.4,12.5
					c-3,1.7-5.7,3.8-7.9,6.4c-2.3,2.6-4,5.4-5.2,8.4c-1.2,3-1.9,6.1-2,9.3c-0.1,3.2,0.4,6.1,1.7,8.9c4.5,10.1,6.8,15.2,11.3,25.3
					c2.7-0.8,5.1-1.6,7.1-2.4c2-0.8,4-1.6,5.8-2.4c1.8-0.8,3.5-1.7,5.3-2.7c1.8-1,3.7-2.1,5.8-3.2c4.1-2.3,8-4.7,11.7-7.2
					c3.6-2.5,7.2-5.1,10.6-7.8C2263.4,2654.5,2259.1,2645.4,2250.5,2627.4z M1955.8,2764c-0.3-1.4-1-2.5-2.1-3.3
					c-1.1-0.8-2.4-1.3-3.8-1.7s-3.1-0.4-4.8-0.3c-1.7,0.1-3.4,0.4-5,0.9c-11.3,3.3-17,4.8-28.3,7.9c-1.8,0.5-3.4,1.1-5,2
					c-1.5,0.9-2.9,1.8-4,2.9c-1.1,1.1-1.9,2.2-2.5,3.4c-0.5,1.2-0.6,2.4-0.4,3.6c0.5,2.2,1.8,4.3,4.1,6.4
					c12.9,11.4,19.5,17.1,32.8,28.3c0.5-0.1,0.8-0.2,1.3-0.4c6.9-16.8,10.2-25.2,16.6-42C1956,2768.6,1956.3,2766.1,1955.8,2764z
					 M1755.6,2799.8c-6.5,0.9-11.5,1.5-14.9,1.9c-3.4,0.4-6,0.7-7.6,0.9c-1.6,0.2-2.6,0.3-2.9,0.3c-0.3,0-0.5,0.1-0.7,0.1
					c-2.9,0.4-5.8,1.3-8.5,2.9c-2.7,1.6-5.1,3.5-7.1,5.8c-2,2.3-3.6,4.8-4.7,7.6c-1.1,2.8-1.5,5.5-1.3,8.3
					c1.1,11.9,1.6,17.9,2.6,29.7c20.4-2.2,30.6-3.4,51-6.4C1759.2,2830.4,1758,2820.3,1755.6,2799.8z M1955.8,2764
					c-0.3-1.4-1-2.5-2.1-3.3c-1.1-0.8-2.4-1.3-3.8-1.7s-3.1-0.4-4.8-0.3c-1.7,0.1-3.4,0.4-5,0.9c-11.3,3.3-17,4.8-28.3,7.9
					c-1.8,0.5-3.4,1.1-5,2c-1.5,0.9-2.9,1.8-4,2.9c-1.1,1.1-1.9,2.2-2.5,3.4c-0.5,1.2-0.6,2.4-0.4,3.6c0.5,2.2,1.8,4.3,4.1,6.4
					c12.9,11.4,19.5,17.1,32.8,28.3c0.5-0.1,0.8-0.2,1.3-0.4c6.9-16.8,10.2-25.2,16.6-42C1956,2768.6,1956.3,2766.1,1955.8,2764z
					 M2250.5,2627.4c-9,5.1-13.4,7.6-22.4,12.5c-3,1.7-5.7,3.8-7.9,6.4c-2.3,2.6-4,5.4-5.2,8.4c-1.2,3-1.9,6.1-2,9.3
					c-0.1,3.2,0.4,6.1,1.7,8.9c4.5,10.1,6.8,15.2,11.3,25.3c2.7-0.8,5.1-1.6,7.1-2.4c2-0.8,4-1.6,5.8-2.4c1.8-0.8,3.5-1.7,5.3-2.7
					c1.8-1,3.7-2.1,5.8-3.2c4.1-2.3,8-4.7,11.7-7.2c3.6-2.5,7.2-5.1,10.6-7.8C2263.4,2654.5,2259.1,2645.4,2250.5,2627.4z
					 M2250.5,2627.4c-9,5.1-13.4,7.6-22.4,12.5c-3,1.7-5.7,3.8-7.9,6.4c-2.3,2.6-4,5.4-5.2,8.4c-1.2,3-1.9,6.1-2,9.3
					c-0.1,3.2,0.4,6.1,1.7,8.9c4.5,10.1,6.8,15.2,11.3,25.3c2.7-0.8,5.1-1.6,7.1-2.4c2-0.8,4-1.6,5.8-2.4c1.8-0.8,3.5-1.7,5.3-2.7
					c1.8-1,3.7-2.1,5.8-3.2c4.1-2.3,8-4.7,11.7-7.2c3.6-2.5,7.2-5.1,10.6-7.8C2263.4,2654.5,2259.1,2645.4,2250.5,2627.4z
					 M1955.8,2764c-0.3-1.4-1-2.5-2.1-3.3c-1.1-0.8-2.4-1.3-3.8-1.7s-3.1-0.4-4.8-0.3c-1.7,0.1-3.4,0.4-5,0.9
					c-11.3,3.3-17,4.8-28.3,7.9c-1.8,0.5-3.4,1.1-5,2c-1.5,0.9-2.9,1.8-4,2.9c-1.1,1.1-1.9,2.2-2.5,3.4c-0.5,1.2-0.6,2.4-0.4,3.6
					c0.5,2.2,1.8,4.3,4.1,6.4c12.9,11.4,19.5,17.1,32.8,28.3c0.5-0.1,0.8-0.2,1.3-0.4c6.9-16.8,10.2-25.2,16.6-42
					C1956,2768.6,1956.3,2766.1,1955.8,2764z M1755.6,2799.8c-6.5,0.9-11.5,1.5-14.9,1.9c-3.4,0.4-6,0.7-7.6,0.9
					c-1.6,0.2-2.6,0.3-2.9,0.3c-0.3,0-0.5,0.1-0.7,0.1c-2.9,0.4-5.8,1.3-8.5,2.9c-2.7,1.6-5.1,3.5-7.1,5.8c-2,2.3-3.6,4.8-4.7,7.6
					c-1.1,2.8-1.5,5.5-1.3,8.3c1.1,11.9,1.6,17.9,2.6,29.7c20.4-2.2,30.6-3.4,51-6.4C1759.2,2830.4,1758,2820.3,1755.6,2799.8z
					 M1755.6,2799.8c-6.5,0.9-11.5,1.5-14.9,1.9c-3.4,0.4-6,0.7-7.6,0.9c-1.6,0.2-2.6,0.3-2.9,0.3c-0.3,0-0.5,0.1-0.7,0.1
					c-2.9,0.4-5.8,1.3-8.5,2.9c-2.7,1.6-5.1,3.5-7.1,5.8c-2,2.3-3.6,4.8-4.7,7.6c-1.1,2.8-1.5,5.5-1.3,8.3
					c1.1,11.9,1.6,17.9,2.6,29.7c20.4-2.2,30.6-3.4,51-6.4C1759.2,2830.4,1758,2820.3,1755.6,2799.8z M1955.8,2764
					c-0.3-1.4-1-2.5-2.1-3.3c-1.1-0.8-2.4-1.3-3.8-1.7s-3.1-0.4-4.8-0.3c-1.7,0.1-3.4,0.4-5,0.9c-11.3,3.3-17,4.8-28.3,7.9
					c-1.8,0.5-3.4,1.1-5,2c-1.5,0.9-2.9,1.8-4,2.9c-1.1,1.1-1.9,2.2-2.5,3.4c-0.5,1.2-0.6,2.4-0.4,3.6c0.5,2.2,1.8,4.3,4.1,6.4
					c12.9,11.4,19.5,17.1,32.8,28.3c0.5-0.1,0.8-0.2,1.3-0.4c6.9-16.8,10.2-25.2,16.6-42C1956,2768.6,1956.3,2766.1,1955.8,2764z
					 M2250.5,2627.4c-9,5.1-13.4,7.6-22.4,12.5c-3,1.7-5.7,3.8-7.9,6.4c-2.3,2.6-4,5.4-5.2,8.4c-1.2,3-1.9,6.1-2,9.3
					c-0.1,3.2,0.4,6.1,1.7,8.9c4.5,10.1,6.8,15.2,11.3,25.3c2.7-0.8,5.1-1.6,7.1-2.4c2-0.8,4-1.6,5.8-2.4c1.8-0.8,3.5-1.7,5.3-2.7
					c1.8-1,3.7-2.1,5.8-3.2c4.1-2.3,8-4.7,11.7-7.2c3.6-2.5,7.2-5.1,10.6-7.8C2263.4,2654.5,2259.1,2645.4,2250.5,2627.4z
					 M2250.5,2627.4c-9,5.1-13.4,7.6-22.4,12.5c-3,1.7-5.7,3.8-7.9,6.4c-2.3,2.6-4,5.4-5.2,8.4c-1.2,3-1.9,6.1-2,9.3
					c-0.1,3.2,0.4,6.1,1.7,8.9c4.5,10.1,6.8,15.2,11.3,25.3c2.7-0.8,5.1-1.6,7.1-2.4c2-0.8,4-1.6,5.8-2.4c1.8-0.8,3.5-1.7,5.3-2.7
					c1.8-1,3.7-2.1,5.8-3.2c4.1-2.3,8-4.7,11.7-7.2c3.6-2.5,7.2-5.1,10.6-7.8C2263.4,2654.5,2259.1,2645.4,2250.5,2627.4z
					 M1955.8,2764c-0.3-1.4-1-2.5-2.1-3.3c-1.1-0.8-2.4-1.3-3.8-1.7s-3.1-0.4-4.8-0.3c-1.7,0.1-3.4,0.4-5,0.9
					c-11.3,3.3-17,4.8-28.3,7.9c-1.8,0.5-3.4,1.1-5,2c-1.5,0.9-2.9,1.8-4,2.9c-1.1,1.1-1.9,2.2-2.5,3.4c-0.5,1.2-0.6,2.4-0.4,3.6
					c0.5,2.2,1.8,4.3,4.1,6.4c12.9,11.4,19.5,17.1,32.8,28.3c0.5-0.1,0.8-0.2,1.3-0.4c6.9-16.8,10.2-25.2,16.6-42
					C1956,2768.6,1956.3,2766.1,1955.8,2764z M1755.6,2799.8c-6.5,0.9-11.5,1.5-14.9,1.9c-3.4,0.4-6,0.7-7.6,0.9
					c-1.6,0.2-2.6,0.3-2.9,0.3c-0.3,0-0.5,0.1-0.7,0.1c-2.9,0.4-5.8,1.3-8.5,2.9c-2.7,1.6-5.1,3.5-7.1,5.8c-2,2.3-3.6,4.8-4.7,7.6
					c-1.1,2.8-1.5,5.5-1.3,8.3c1.1,11.9,1.6,17.9,2.6,29.7c20.4-2.2,30.6-3.4,51-6.4C1759.2,2830.4,1758,2820.3,1755.6,2799.8z
					 M1755.6,2799.8c-6.5,0.9-11.5,1.5-14.9,1.9c-3.4,0.4-6,0.7-7.6,0.9c-1.6,0.2-2.6,0.3-2.9,0.3c-0.3,0-0.5,0.1-0.7,0.1
					c-2.9,0.4-5.8,1.3-8.5,2.9c-2.7,1.6-5.1,3.5-7.1,5.8c-2,2.3-3.6,4.8-4.7,7.6c-1.1,2.8-1.5,5.5-1.3,8.3
					c1.1,11.9,1.6,17.9,2.6,29.7c20.4-2.2,30.6-3.4,51-6.4C1759.2,2830.4,1758,2820.3,1755.6,2799.8z M1955.8,2764
					c-0.3-1.4-1-2.5-2.1-3.3c-1.1-0.8-2.4-1.3-3.8-1.7s-3.1-0.4-4.8-0.3c-1.7,0.1-3.4,0.4-5,0.9c-11.3,3.3-17,4.8-28.3,7.9
					c-1.8,0.5-3.4,1.1-5,2c-1.5,0.9-2.9,1.8-4,2.9c-1.1,1.1-1.9,2.2-2.5,3.4c-0.5,1.2-0.6,2.4-0.4,3.6c0.5,2.2,1.8,4.3,4.1,6.4
					c12.9,11.4,19.5,17.1,32.8,28.3c0.5-0.1,0.8-0.2,1.3-0.4c6.9-16.8,10.2-25.2,16.6-42C1956,2768.6,1956.3,2766.1,1955.8,2764z
					 M2250.5,2627.4c-9,5.1-13.4,7.6-22.4,12.5c-3,1.7-5.7,3.8-7.9,6.4c-2.3,2.6-4,5.4-5.2,8.4c-1.2,3-1.9,6.1-2,9.3
					c-0.1,3.2,0.4,6.1,1.7,8.9c4.5,10.1,6.8,15.2,11.3,25.3c2.7-0.8,5.1-1.6,7.1-2.4c2-0.8,4-1.6,5.8-2.4c1.8-0.8,3.5-1.7,5.3-2.7
					c1.8-1,3.7-2.1,5.8-3.2c4.1-2.3,8-4.7,11.7-7.2c3.6-2.5,7.2-5.1,10.6-7.8C2263.4,2654.5,2259.1,2645.4,2250.5,2627.4z
					 M2250.5,2627.4c-9,5.1-13.4,7.6-22.4,12.5c-3,1.7-5.7,3.8-7.9,6.4c-2.3,2.6-4,5.4-5.2,8.4c-1.2,3-1.9,6.1-2,9.3
					c-0.1,3.2,0.4,6.1,1.7,8.9c4.5,10.1,6.8,15.2,11.3,25.3c2.7-0.8,5.1-1.6,7.1-2.4c2-0.8,4-1.6,5.8-2.4c1.8-0.8,3.5-1.7,5.3-2.7
					c1.8-1,3.7-2.1,5.8-3.2c4.1-2.3,8-4.7,11.7-7.2c3.6-2.5,7.2-5.1,10.6-7.8C2263.4,2654.5,2259.1,2645.4,2250.5,2627.4z
					 M1955.8,2764c-0.3-1.4-1-2.5-2.1-3.3c-1.1-0.8-2.4-1.3-3.8-1.7s-3.1-0.4-4.8-0.3c-1.7,0.1-3.4,0.4-5,0.9
					c-11.3,3.3-17,4.8-28.3,7.9c-1.8,0.5-3.4,1.1-5,2c-1.5,0.9-2.9,1.8-4,2.9c-1.1,1.1-1.9,2.2-2.5,3.4c-0.5,1.2-0.6,2.4-0.4,3.6
					c0.5,2.2,1.8,4.3,4.1,6.4c12.9,11.4,19.5,17.1,32.8,28.3c0.5-0.1,0.8-0.2,1.3-0.4c6.9-16.8,10.2-25.2,16.6-42
					C1956,2768.6,1956.3,2766.1,1955.8,2764z M1755.6,2799.8c-6.5,0.9-11.5,1.5-14.9,1.9c-3.4,0.4-6,0.7-7.6,0.9
					c-1.6,0.2-2.6,0.3-2.9,0.3c-0.3,0-0.5,0.1-0.7,0.1c-2.9,0.4-5.8,1.3-8.5,2.9c-2.7,1.6-5.1,3.5-7.1,5.8c-2,2.3-3.6,4.8-4.7,7.6
					c-1.1,2.8-1.5,5.5-1.3,8.3c1.1,11.9,1.6,17.9,2.6,29.7c20.4-2.2,30.6-3.4,51-6.4C1759.2,2830.4,1758,2820.3,1755.6,2799.8z
					 M1330.2,2793.3c-6-1.1-9.1-1.7-9.4-1.7c-4.8-0.9-9.6-1.2-14.2-0.9c-4.6,0.3-8.9,1.2-12.8,2.7c-3.9,1.6-7.2,3.9-10,6.9
					c-2.8,3-4.6,6.9-5.7,11.5c-1.6,9.3-2.4,14-4.1,23.3c31.1,6.5,46.7,9.3,78,14.1c2.6-20.4,3.9-30.6,6.5-51
					C1345.6,2796.1,1336.1,2794.4,1330.2,2793.3z M1755.6,2799.8c-6.5,0.9-11.5,1.5-14.9,1.9c-3.4,0.4-6,0.7-7.6,0.9
					c-1.6,0.2-2.6,0.3-2.9,0.3c-0.3,0-0.5,0.1-0.7,0.1c-2.9,0.4-5.8,1.3-8.5,2.9c-2.7,1.6-5.1,3.5-7.1,5.8c-2,2.3-3.6,4.8-4.7,7.6
					c-1.1,2.8-1.5,5.5-1.3,8.3c1.1,11.9,1.6,17.9,2.6,29.7c20.4-2.2,30.6-3.4,51-6.4C1759.2,2830.4,1758,2820.3,1755.6,2799.8z
					 M1955.8,2764c-0.3-1.4-1-2.5-2.1-3.3c-1.1-0.8-2.4-1.3-3.8-1.7s-3.1-0.4-4.8-0.3c-1.7,0.1-3.4,0.4-5,0.9
					c-11.3,3.3-17,4.8-28.3,7.9c-1.8,0.5-3.4,1.1-5,2c-1.5,0.9-2.9,1.8-4,2.9c-1.1,1.1-1.9,2.2-2.5,3.4c-0.5,1.2-0.6,2.4-0.4,3.6
					c0.5,2.2,1.8,4.3,4.1,6.4c12.9,11.4,19.5,17.1,32.8,28.3c0.5-0.1,0.8-0.2,1.3-0.4c6.9-16.8,10.2-25.2,16.6-42
					C1956,2768.6,1956.3,2766.1,1955.8,2764z M2250.5,2627.4c-9,5.1-13.4,7.6-22.4,12.5c-3,1.7-5.7,3.8-7.9,6.4
					c-2.3,2.6-4,5.4-5.2,8.4c-1.2,3-1.9,6.1-2,9.3c-0.1,3.2,0.4,6.1,1.7,8.9c4.5,10.1,6.8,15.2,11.3,25.3c2.7-0.8,5.1-1.6,7.1-2.4
					c2-0.8,4-1.6,5.8-2.4c1.8-0.8,3.5-1.7,5.3-2.7c1.8-1,3.7-2.1,5.8-3.2c4.1-2.3,8-4.7,11.7-7.2c3.6-2.5,7.2-5.1,10.6-7.8
					C2263.4,2654.5,2259.1,2645.4,2250.5,2627.4z M2250.5,2627.4c-9,5.1-13.4,7.6-22.4,12.5c-3,1.7-5.7,3.8-7.9,6.4
					c-2.3,2.6-4,5.4-5.2,8.4c-1.2,3-1.9,6.1-2,9.3c-0.1,3.2,0.4,6.1,1.7,8.9c4.5,10.1,6.8,15.2,11.3,25.3c2.7-0.8,5.1-1.6,7.1-2.4
					c2-0.8,4-1.6,5.8-2.4c1.8-0.8,3.5-1.7,5.3-2.7c1.8-1,3.7-2.1,5.8-3.2c4.1-2.3,8-4.7,11.7-7.2c3.6-2.5,7.2-5.1,10.6-7.8
					C2263.4,2654.5,2259.1,2645.4,2250.5,2627.4z M1955.8,2764c-0.3-1.4-1-2.5-2.1-3.3c-1.1-0.8-2.4-1.3-3.8-1.7s-3.1-0.4-4.8-0.3
					c-1.7,0.1-3.4,0.4-5,0.9c-11.3,3.3-17,4.8-28.3,7.9c-1.8,0.5-3.4,1.1-5,2c-1.5,0.9-2.9,1.8-4,2.9c-1.1,1.1-1.9,2.2-2.5,3.4
					c-0.5,1.2-0.6,2.4-0.4,3.6c0.5,2.2,1.8,4.3,4.1,6.4c12.9,11.4,19.5,17.1,32.8,28.3c0.5-0.1,0.8-0.2,1.3-0.4
					c6.9-16.8,10.2-25.2,16.6-42C1956,2768.6,1956.3,2766.1,1955.8,2764z M1755.6,2799.8c-6.5,0.9-11.5,1.5-14.9,1.9
					c-3.4,0.4-6,0.7-7.6,0.9c-1.6,0.2-2.6,0.3-2.9,0.3c-0.3,0-0.5,0.1-0.7,0.1c-2.9,0.4-5.8,1.3-8.5,2.9c-2.7,1.6-5.1,3.5-7.1,5.8
					c-2,2.3-3.6,4.8-4.7,7.6c-1.1,2.8-1.5,5.5-1.3,8.3c1.1,11.9,1.6,17.9,2.6,29.7c20.4-2.2,30.6-3.4,51-6.4
					C1759.2,2830.4,1758,2820.3,1755.6,2799.8z M1330.2,2793.3c-6-1.1-9.1-1.7-9.4-1.7c-4.8-0.9-9.6-1.2-14.2-0.9
					c-4.6,0.3-8.9,1.2-12.8,2.7c-3.9,1.6-7.2,3.9-10,6.9c-2.8,3-4.6,6.9-5.7,11.5c-1.6,9.3-2.4,14-4.1,23.3
					c31.1,6.5,46.7,9.3,78,14.1c2.6-20.4,3.9-30.6,6.5-51C1345.6,2796.1,1336.1,2794.4,1330.2,2793.3z M1330.2,2793.3
					c-6-1.1-9.1-1.7-9.4-1.7c-4.8-0.9-9.6-1.2-14.2-0.9c-4.6,0.3-8.9,1.2-12.8,2.7c-3.9,1.6-7.2,3.9-10,6.9c-2.8,3-4.6,6.9-5.7,11.5
					c-1.6,9.3-2.4,14-4.1,23.3c31.1,6.5,46.7,9.3,78,14.1c2.6-20.4,3.9-30.6,6.5-51C1345.6,2796.1,1336.1,2794.4,1330.2,2793.3z
					 M1755.6,2799.8c-6.5,0.9-11.5,1.5-14.9,1.9c-3.4,0.4-6,0.7-7.6,0.9c-1.6,0.2-2.6,0.3-2.9,0.3c-0.3,0-0.5,0.1-0.7,0.1
					c-2.9,0.4-5.8,1.3-8.5,2.9c-2.7,1.6-5.1,3.5-7.1,5.8c-2,2.3-3.6,4.8-4.7,7.6c-1.1,2.8-1.5,5.5-1.3,8.3
					c1.1,11.9,1.6,17.9,2.6,29.7c20.4-2.2,30.6-3.4,51-6.4C1759.2,2830.4,1758,2820.3,1755.6,2799.8z M1955.8,2764
					c-0.3-1.4-1-2.5-2.1-3.3c-1.1-0.8-2.4-1.3-3.8-1.7s-3.1-0.4-4.8-0.3c-1.7,0.1-3.4,0.4-5,0.9c-11.3,3.3-17,4.8-28.3,7.9
					c-1.8,0.5-3.4,1.1-5,2c-1.5,0.9-2.9,1.8-4,2.9c-1.1,1.1-1.9,2.2-2.5,3.4c-0.5,1.2-0.6,2.4-0.4,3.6c0.5,2.2,1.8,4.3,4.1,6.4
					c12.9,11.4,19.5,17.1,32.8,28.3c0.5-0.1,0.8-0.2,1.3-0.4c6.9-16.8,10.2-25.2,16.6-42C1956,2768.6,1956.3,2766.1,1955.8,2764z
					 M2250.5,2627.4c-9,5.1-13.4,7.6-22.4,12.5c-3,1.7-5.7,3.8-7.9,6.4c-2.3,2.6-4,5.4-5.2,8.4c-1.2,3-1.9,6.1-2,9.3
					c-0.1,3.2,0.4,6.1,1.7,8.9c4.5,10.1,6.8,15.2,11.3,25.3c2.7-0.8,5.1-1.6,7.1-2.4c2-0.8,4-1.6,5.8-2.4c1.8-0.8,3.5-1.7,5.3-2.7
					c1.8-1,3.7-2.1,5.8-3.2c4.1-2.3,8-4.7,11.7-7.2c3.6-2.5,7.2-5.1,10.6-7.8C2263.4,2654.5,2259.1,2645.4,2250.5,2627.4z
					 M2250.5,2627.4c-9,5.1-13.4,7.6-22.4,12.5c-3,1.7-5.7,3.8-7.9,6.4c-2.3,2.6-4,5.4-5.2,8.4c-1.2,3-1.9,6.1-2,9.3
					c-0.1,3.2,0.4,6.1,1.7,8.9c4.5,10.1,6.8,15.2,11.3,25.3c2.7-0.8,5.1-1.6,7.1-2.4c2-0.8,4-1.6,5.8-2.4c1.8-0.8,3.5-1.7,5.3-2.7
					c1.8-1,3.7-2.1,5.8-3.2c4.1-2.3,8-4.7,11.7-7.2c3.6-2.5,7.2-5.1,10.6-7.8C2263.4,2654.5,2259.1,2645.4,2250.5,2627.4z
					 M1955.8,2764c-0.3-1.4-1-2.5-2.1-3.3c-1.1-0.8-2.4-1.3-3.8-1.7s-3.1-0.4-4.8-0.3c-1.7,0.1-3.4,0.4-5,0.9
					c-11.3,3.3-17,4.8-28.3,7.9c-1.8,0.5-3.4,1.1-5,2c-1.5,0.9-2.9,1.8-4,2.9c-1.1,1.1-1.9,2.2-2.5,3.4c-0.5,1.2-0.6,2.4-0.4,3.6
					c0.5,2.2,1.8,4.3,4.1,6.4c12.9,11.4,19.5,17.1,32.8,28.3c0.5-0.1,0.8-0.2,1.3-0.4c6.9-16.8,10.2-25.2,16.6-42
					C1956,2768.6,1956.3,2766.1,1955.8,2764z M1755.6,2799.8c-6.5,0.9-11.5,1.5-14.9,1.9c-3.4,0.4-6,0.7-7.6,0.9
					c-1.6,0.2-2.6,0.3-2.9,0.3c-0.3,0-0.5,0.1-0.7,0.1c-2.9,0.4-5.8,1.3-8.5,2.9c-2.7,1.6-5.1,3.5-7.1,5.8c-2,2.3-3.6,4.8-4.7,7.6
					c-1.1,2.8-1.5,5.5-1.3,8.3c1.1,11.9,1.6,17.9,2.6,29.7c20.4-2.2,30.6-3.4,51-6.4C1759.2,2830.4,1758,2820.3,1755.6,2799.8z
					 M1330.2,2793.3c-6-1.1-9.1-1.7-9.4-1.7c-4.8-0.9-9.6-1.2-14.2-0.9c-4.6,0.3-8.9,1.2-12.8,2.7c-3.9,1.6-7.2,3.9-10,6.9
					c-2.8,3-4.6,6.9-5.7,11.5c-1.6,9.3-2.4,14-4.1,23.3c31.1,6.5,46.7,9.3,78,14.1c2.6-20.4,3.9-30.6,6.5-51
					C1345.6,2796.1,1336.1,2794.4,1330.2,2793.3z M1330.2,2793.3c-6-1.1-9.1-1.7-9.4-1.7c-4.8-0.9-9.6-1.2-14.2-0.9
					c-4.6,0.3-8.9,1.2-12.8,2.7c-3.9,1.6-7.2,3.9-10,6.9c-2.8,3-4.6,6.9-5.7,11.5c-1.6,9.3-2.4,14-4.1,23.3
					c31.1,6.5,46.7,9.3,78,14.1c2.6-20.4,3.9-30.6,6.5-51C1345.6,2796.1,1336.1,2794.4,1330.2,2793.3z M1755.6,2799.8
					c-6.5,0.9-11.5,1.5-14.9,1.9c-3.4,0.4-6,0.7-7.6,0.9c-1.6,0.2-2.6,0.3-2.9,0.3c-0.3,0-0.5,0.1-0.7,0.1c-2.9,0.4-5.8,1.3-8.5,2.9
					c-2.7,1.6-5.1,3.5-7.1,5.8c-2,2.3-3.6,4.8-4.7,7.6c-1.1,2.8-1.5,5.5-1.3,8.3c1.1,11.9,1.6,17.9,2.6,29.7
					c20.4-2.2,30.6-3.4,51-6.4C1759.2,2830.4,1758,2820.3,1755.6,2799.8z M1955.8,2764c-0.3-1.4-1-2.5-2.1-3.3
					c-1.1-0.8-2.4-1.3-3.8-1.7s-3.1-0.4-4.8-0.3c-1.7,0.1-3.4,0.4-5,0.9c-11.3,3.3-17,4.8-28.3,7.9c-1.8,0.5-3.4,1.1-5,2
					c-1.5,0.9-2.9,1.8-4,2.9c-1.1,1.1-1.9,2.2-2.5,3.4c-0.5,1.2-0.6,2.4-0.4,3.6c0.5,2.2,1.8,4.3,4.1,6.4
					c12.9,11.4,19.5,17.1,32.8,28.3c0.5-0.1,0.8-0.2,1.3-0.4c6.9-16.8,10.2-25.2,16.6-42C1956,2768.6,1956.3,2766.1,1955.8,2764z
					 M2250.5,2627.4c-9,5.1-13.4,7.6-22.4,12.5c-3,1.7-5.7,3.8-7.9,6.4c-2.3,2.6-4,5.4-5.2,8.4c-1.2,3-1.9,6.1-2,9.3
					c-0.1,3.2,0.4,6.1,1.7,8.9c4.5,10.1,6.8,15.2,11.3,25.3c2.7-0.8,5.1-1.6,7.1-2.4c2-0.8,4-1.6,5.8-2.4c1.8-0.8,3.5-1.7,5.3-2.7
					c1.8-1,3.7-2.1,5.8-3.2c4.1-2.3,8-4.7,11.7-7.2c3.6-2.5,7.2-5.1,10.6-7.8C2263.4,2654.5,2259.1,2645.4,2250.5,2627.4z
					 M2250.5,2627.4c-9,5.1-13.4,7.6-22.4,12.5c-3,1.7-5.7,3.8-7.9,6.4c-2.3,2.6-4,5.4-5.2,8.4c-1.2,3-1.9,6.1-2,9.3
					c-0.1,3.2,0.4,6.1,1.7,8.9c4.5,10.1,6.8,15.2,11.3,25.3c2.7-0.8,5.1-1.6,7.1-2.4c2-0.8,4-1.6,5.8-2.4c1.8-0.8,3.5-1.7,5.3-2.7
					c1.8-1,3.7-2.1,5.8-3.2c4.1-2.3,8-4.7,11.7-7.2c3.6-2.5,7.2-5.1,10.6-7.8C2263.4,2654.5,2259.1,2645.4,2250.5,2627.4z
					 M1955.8,2764c-0.3-1.4-1-2.5-2.1-3.3c-1.1-0.8-2.4-1.3-3.8-1.7s-3.1-0.4-4.8-0.3c-1.7,0.1-3.4,0.4-5,0.9
					c-11.3,3.3-17,4.8-28.3,7.9c-1.8,0.5-3.4,1.1-5,2c-1.5,0.9-2.9,1.8-4,2.9c-1.1,1.1-1.9,2.2-2.5,3.4c-0.5,1.2-0.6,2.4-0.4,3.6
					c0.5,2.2,1.8,4.3,4.1,6.4c12.9,11.4,19.5,17.1,32.8,28.3c0.5-0.1,0.8-0.2,1.3-0.4c6.9-16.8,10.2-25.2,16.6-42
					C1956,2768.6,1956.3,2766.1,1955.8,2764z M1755.6,2799.8c-6.5,0.9-11.5,1.5-14.9,1.9c-3.4,0.4-6,0.7-7.6,0.9
					c-1.6,0.2-2.6,0.3-2.9,0.3c-0.3,0-0.5,0.1-0.7,0.1c-2.9,0.4-5.8,1.3-8.5,2.9c-2.7,1.6-5.1,3.5-7.1,5.8c-2,2.3-3.6,4.8-4.7,7.6
					c-1.1,2.8-1.5,5.5-1.3,8.3c1.1,11.9,1.6,17.9,2.6,29.7c20.4-2.2,30.6-3.4,51-6.4C1759.2,2830.4,1758,2820.3,1755.6,2799.8z
					 M1330.2,2793.3c-6-1.1-9.1-1.7-9.4-1.7c-4.8-0.9-9.6-1.2-14.2-0.9c-4.6,0.3-8.9,1.2-12.8,2.7c-3.9,1.6-7.2,3.9-10,6.9
					c-2.8,3-4.6,6.9-5.7,11.5c-1.6,9.3-2.4,14-4.1,23.3c31.1,6.5,46.7,9.3,78,14.1c2.6-20.4,3.9-30.6,6.5-51
					C1345.6,2796.1,1336.1,2794.4,1330.2,2793.3z M1330.2,2793.3c-6-1.1-9.1-1.7-9.4-1.7c-4.8-0.9-9.6-1.2-14.2-0.9
					c-4.6,0.3-8.9,1.2-12.8,2.7c-3.9,1.6-7.2,3.9-10,6.9c-2.8,3-4.6,6.9-5.7,11.5c-1.6,9.3-2.4,14-4.1,23.3
					c31.1,6.5,46.7,9.3,78,14.1c2.6-20.4,3.9-30.6,6.5-51C1345.6,2796.1,1336.1,2794.4,1330.2,2793.3z M1755.6,2799.8
					c-6.5,0.9-11.5,1.5-14.9,1.9c-3.4,0.4-6,0.7-7.6,0.9c-1.6,0.2-2.6,0.3-2.9,0.3c-0.3,0-0.5,0.1-0.7,0.1c-2.9,0.4-5.8,1.3-8.5,2.9
					c-2.7,1.6-5.1,3.5-7.1,5.8c-2,2.3-3.6,4.8-4.7,7.6c-1.1,2.8-1.5,5.5-1.3,8.3c1.1,11.9,1.6,17.9,2.6,29.7
					c20.4-2.2,30.6-3.4,51-6.4C1759.2,2830.4,1758,2820.3,1755.6,2799.8z M1955.8,2764c-0.3-1.4-1-2.5-2.1-3.3
					c-1.1-0.8-2.4-1.3-3.8-1.7s-3.1-0.4-4.8-0.3c-1.7,0.1-3.4,0.4-5,0.9c-11.3,3.3-17,4.8-28.3,7.9c-1.8,0.5-3.4,1.1-5,2
					c-1.5,0.9-2.9,1.8-4,2.9c-1.1,1.1-1.9,2.2-2.5,3.4c-0.5,1.2-0.6,2.4-0.4,3.6c0.5,2.2,1.8,4.3,4.1,6.4
					c12.9,11.4,19.5,17.1,32.8,28.3c0.5-0.1,0.8-0.2,1.3-0.4c6.9-16.8,10.2-25.2,16.6-42C1956,2768.6,1956.3,2766.1,1955.8,2764z
					 M2250.5,2627.4c-9,5.1-13.4,7.6-22.4,12.5c-3,1.7-5.7,3.8-7.9,6.4c-2.3,2.6-4,5.4-5.2,8.4c-1.2,3-1.9,6.1-2,9.3
					c-0.1,3.2,0.4,6.1,1.7,8.9c4.5,10.1,6.8,15.2,11.3,25.3c2.7-0.8,5.1-1.6,7.1-2.4c2-0.8,4-1.6,5.8-2.4c1.8-0.8,3.5-1.7,5.3-2.7
					c1.8-1,3.7-2.1,5.8-3.2c4.1-2.3,8-4.7,11.7-7.2c3.6-2.5,7.2-5.1,10.6-7.8C2263.4,2654.5,2259.1,2645.4,2250.5,2627.4z
					 M2250.5,2627.4c-9,5.1-13.4,7.6-22.4,12.5c-3,1.7-5.7,3.8-7.9,6.4c-2.3,2.6-4,5.4-5.2,8.4c-1.2,3-1.9,6.1-2,9.3
					c-0.1,3.2,0.4,6.1,1.7,8.9c4.5,10.1,6.8,15.2,11.3,25.3c2.7-0.8,5.1-1.6,7.1-2.4c2-0.8,4-1.6,5.8-2.4c1.8-0.8,3.5-1.7,5.3-2.7
					c1.8-1,3.7-2.1,5.8-3.2c4.1-2.3,8-4.7,11.7-7.2c3.6-2.5,7.2-5.1,10.6-7.8C2263.4,2654.5,2259.1,2645.4,2250.5,2627.4z
					 M1955.8,2764c-0.3-1.4-1-2.5-2.1-3.3c-1.1-0.8-2.4-1.3-3.8-1.7s-3.1-0.4-4.8-0.3c-1.7,0.1-3.4,0.4-5,0.9
					c-11.3,3.3-17,4.8-28.3,7.9c-1.8,0.5-3.4,1.1-5,2c-1.5,0.9-2.9,1.8-4,2.9c-1.1,1.1-1.9,2.2-2.5,3.4c-0.5,1.2-0.6,2.4-0.4,3.6
					c0.5,2.2,1.8,4.3,4.1,6.4c12.9,11.4,19.5,17.1,32.8,28.3c0.5-0.1,0.8-0.2,1.3-0.4c6.9-16.8,10.2-25.2,16.6-42
					C1956,2768.6,1956.3,2766.1,1955.8,2764z M1755.6,2799.8c-6.5,0.9-11.5,1.5-14.9,1.9c-3.4,0.4-6,0.7-7.6,0.9
					c-1.6,0.2-2.6,0.3-2.9,0.3c-0.3,0-0.5,0.1-0.7,0.1c-2.9,0.4-5.8,1.3-8.5,2.9c-2.7,1.6-5.1,3.5-7.1,5.8c-2,2.3-3.6,4.8-4.7,7.6
					c-1.1,2.8-1.5,5.5-1.3,8.3c1.1,11.9,1.6,17.9,2.6,29.7c20.4-2.2,30.6-3.4,51-6.4C1759.2,2830.4,1758,2820.3,1755.6,2799.8z
					 M1330.2,2793.3c-6-1.1-9.1-1.7-9.4-1.7c-4.8-0.9-9.6-1.2-14.2-0.9c-4.6,0.3-8.9,1.2-12.8,2.7c-3.9,1.6-7.2,3.9-10,6.9
					c-2.8,3-4.6,6.9-5.7,11.5c-1.6,9.3-2.4,14-4.1,23.3c31.1,6.5,46.7,9.3,78,14.1c2.6-20.4,3.9-30.6,6.5-51
					C1345.6,2796.1,1336.1,2794.4,1330.2,2793.3z M1592.8,27.3c675.4,17.9,1217.3,570.9,1217.3,1250.6
					c0,691-560.1,1251.1-1251.1,1251.1c-691,0-1251.1-560.1-1251.1-1251.1c0-679.7,542-1232.7,1217.4-1250.6
					C694.8,45.1,27,724,27,1558.8c0,846.1,685.9,1532,1532,1532s1532-685.9,1532-1532C3091.1,724,2423.3,45.1,1592.8,27.3z
					 M2212.6,2576.6c0.6-1.8,1.6-3.5,2.9-5c1.3-1.5,2.9-2.9,4.7-3.9c1.8-1.1,3.7-1.7,5.6-2c1.9-0.3,3.8-0.2,5.5,0.2
					c1.7,0.4,3.3,1.2,4.7,2.3c1.5,1.1,2.6,2.6,3.4,4.3c0.8,1.7,1.3,3.5,1.3,5.4c0,1.9-0.3,3.8-0.9,5.6c-0.6,1.8-1.7,3.5-3,5.1
					c-1.3,1.6-2.9,3-4.8,4c-1.8,1.1-3.8,1.7-5.7,2c-1.9,0.3-3.8,0.2-5.5-0.3c-1.7-0.4-3.3-1.2-4.7-2.4c-1.4-1.1-2.5-2.6-3.3-4.3
					c-0.8-1.7-1.2-3.6-1.3-5.5C2211.6,2580.3,2211.9,2578.4,2212.6,2576.6z M1594.1,2753.3c0.7-1.8,1.7-3.3,3-4.6
					c1.3-1.3,2.8-2.4,4.5-3.1c1.8-0.8,3.6-1.2,5.6-1.3c2-0.1,3.9,0.2,5.7,0.9c1.8,0.7,3.4,1.6,4.7,2.8s2.4,2.7,3.2,4.4
					c0.8,1.7,1.3,3.6,1.3,5.5c0.1,2-0.2,3.8-0.9,5.5c-0.7,1.7-1.7,3.3-2.9,4.6c-1.3,1.3-2.8,2.4-4.6,3.2c-1.8,0.8-3.7,1.2-5.8,1.3
					c-2,0.1-4-0.3-5.8-0.9c-1.8-0.7-3.4-1.6-4.7-2.9c-1.3-1.2-2.4-2.7-3.2-4.4c-0.8-1.7-1.2-3.5-1.3-5.5
					C1593.1,2757,1593.4,2755.1,1594.1,2753.3z M1560.4,2753.7c0.8-1.7,1.8-3.2,3.1-4.5c1.3-1.3,2.8-2.2,4.6-3
					c1.7-0.7,3.6-1.1,5.6-1.1c2,0,3.9,0.3,5.7,1c1.8,0.7,3.4,1.7,4.7,2.9c1.3,1.2,2.4,2.7,3.2,4.4c0.8,1.7,1.2,3.6,1.2,5.5
					c0,1.9-0.3,3.8-1.1,5.5c-0.7,1.7-1.7,3.2-3,4.5c-1.3,1.3-2.9,2.3-4.7,3c-1.8,0.8-3.7,1.1-5.8,1.1c-2,0-3.9-0.3-5.7-1.1
					c-1.8-0.7-3.4-1.7-4.6-3c-1.3-1.3-2.4-2.7-3.1-4.4c-0.8-1.7-1.1-3.6-1.1-5.5C1559.2,2757.3,1559.6,2755.5,1560.4,2753.7z
					 M897,2536c1.7,1,2.5,1.5,4.2,2.5c0-1,0.2-2,0.5-2.9c0.3-0.9,0.7-1.8,1.1-2.7c0.9-1.8,2-3.3,3.4-4.7c1.4-1.3,3-2.3,4.8-3
					c1.8-0.6,3.7-0.9,5.8-0.6c2.1,0.2,4.3,1,6.5,2.2c4.9,2.8,7.3,4.2,12.3,7c-1.7,3.6-2.5,5.4-4.2,9c-4.9-2.8-7.4-4.3-12.3-7.1
					c-2-1.2-3.7-1.5-5.1-0.8c-1.4,0.6-2.4,1.5-3.1,2.8c-0.6,1.2-0.7,2.6-0.4,4.1c0.3,1.5,1.4,2.8,3.1,4c5.6,3.2,8.4,4.8,14,8
					c-1.7,3.6-2.5,5.4-4.2,9c-12.4-7-18.6-10.5-30.9-17.9C894.4,2541.4,895.3,2539.6,897,2536z M659.2,2412.8
					c0.4-1.9,1.1-3.6,2.2-5.1c1.1-1.5,2.5-2.7,4.1-3.5c1.6-0.8,3.3-1.2,5.1-1.3c1.8,0,3.6,0.3,5.5,1c1.9,0.7,3.6,1.8,5.3,3.2
					c1.7,1.5,3,3.1,4.1,5c1.1,1.8,1.8,3.7,2.2,5.7c0.4,1.9,0.4,3.9,0,5.8c-0.3,1.9-1.1,3.6-2.2,5.2c-1.1,1.6-2.4,2.7-4,3.5
					c-1.6,0.8-3.2,1.3-5,1.3c-1.8,0.1-3.7-0.3-5.6-1c-1.9-0.7-3.7-1.8-5.4-3.3c-1.7-1.5-3.1-3.1-4.1-5c-1-1.9-1.7-3.8-2.1-5.7
					C658.9,2416.6,658.9,2414.6,659.2,2412.8z M522.5,2287.4c0.5-1.8,1.5-3.4,2.7-4.8c1.3-1.3,2.8-2.3,4.5-2.9
					c1.7-0.6,3.5-0.7,5.3-0.5c1.8,0.2,3.6,0.8,5.4,1.8c1.8,1,3.5,2.4,5,4.1c1.5,1.7,2.7,3.6,3.6,5.6c0.9,2,1.5,4,1.6,6
					c0.2,2,0,3.9-0.5,5.8c-0.5,1.9-1.4,3.5-2.7,4.9c-1.3,1.4-2.7,2.4-4.4,2.9c-1.7,0.6-3.4,0.7-5.2,0.5c-1.8-0.2-3.7-0.8-5.5-1.9
					c-1.9-1-3.6-2.4-5.1-4.2c-1.6-1.7-2.8-3.6-3.6-5.7c-0.9-2-1.4-4.1-1.6-6.1C521.7,2291.1,521.9,2289.2,522.5,2287.4z M492,2437.8
					c-6.5,1.7-13.2,1.8-20.1,0.2c-6.9-1.6-13.8-4.6-20.6-9c-6.8-4.4-13.1-9.8-18.7-16.1c-5.8-6.4-10.6-13.5-14.6-21.1
					c-3.9-7.6-6.6-15.3-7.9-22.9c-1.3-7.7-1.2-15.1,0.4-22.1c1.6-7.1,5.1-13.3,10.5-18.7c12.1-12.1,18.1-18.2,30.3-30.3
					c8.4,10.1,12.6,15.1,21.1,25c-11.9,12.4-17.8,18.6-29.7,31c-2.5,2.7-4.2,5.7-4.8,9.1c-0.6,3.4-0.6,6.9,0.1,10.5
					c0.8,3.6,2.2,7.2,4.2,10.8c2,3.6,4.5,7,7.4,10.2c2.8,3.1,5.8,5.8,9.1,8.2c3.3,2.3,6.5,3.9,9.8,4.8c3.2,0.8,6.4,0.9,9.5,0.3
					s5.8-2.4,8.3-5.2c23-26,34.4-39,57.4-65c8.6,9.2,12.9,13.7,21.6,22.7c-22.5,26.5-33.7,39.7-56.2,66.2
					C504.2,2432.4,498.5,2436.1,492,2437.8z M786.5,2653.8c-1.4,0.9-3,1.5-4.7,1.8c-1.7,0.3-3.5,0.2-5.4-0.3
					c-1.9-0.4-3.8-1.2-5.5-2.4c-16.4-10.7-24.5-16.2-40.6-27.5c1.7-3,2.6-4.5,4.3-7.5c-2.1,1.6-4.7,2.3-7.7,2.2
					c-3-0.1-6-1.2-8.8-3.3c-16-11.4-23.9-17.3-39.7-29.4c1.8-2.9,2.8-4.4,4.6-7.3c-2.2,1.5-4.8,2.1-7.9,1.8c-3-0.3-5.9-1.5-8.6-3.7
					c-14.9-11.7-22.3-17.6-37-29.8c0.1-0.1,0.1-0.2,0.2-0.3c-25.1-20.7-38.7-32.5-62.8-54.7c0,0,0,0,0,0
					c-13.5-12.5-20.2-18.8-33.4-31.8c-1.6-1.6-2.9-3.3-3.9-5.2c-1-1.9-1.7-3.8-2-5.8c-0.4-1.9-0.4-3.8,0-5.6
					c0.4-1.8,1.1-3.3,2.2-4.7c0.3-0.4,0.6-0.6,0.8-0.8c32.5-39.5,48.7-59.2,81.2-98.6c8.5,8.5,12.7,12.6,21.3,20.8
					c-28.9,36.5-43.3,54.9-72.2,91.4c3.8,3.6,6.7,6.4,9.6,9.2c2.9,2.7,5.6,5.3,9.1,8.5c0.5,0.4,0.9,0.8,1.4,1.3
					c0.4,0.4,0.9,0.8,1.3,1.2c7.1,6.6,11.5,10.6,19.4,17.7c16.9-23,25.4-34.5,42.3-57.5c9,8.1,13.6,12.1,22.7,19.9
					c-16.4,23.2-24.6,34.8-40.9,58c8.2,7,12.3,10.5,20.6,17.4c-0.1,0.1-0.2,0.3-0.3,0.4c8.2,6.8,13,10.7,21.9,17.8
					c15.7-24,23.6-35.9,39.3-59.9c9.4,7.5,14.1,11.2,23.6,18.4c-15.3,24.3-23,36.4-38.3,60.8c10.4,7.9,15.5,11.8,26,19.4
					c14.9-24.6,22.3-36.9,37.1-61.6c9.5,7,14.3,10.4,24,17.2c-14.4,25-21.6,37.4-36,62.4c10.6,7.4,16,11.1,26.6,18.2
					c14-25.3,20.9-37.9,34.9-63.2c9.7,6.5,14.6,9.7,24.5,16c-15.9,30.1-23.8,45.2-39.7,75.3C789,2651.6,787.9,2652.9,786.5,2653.8z
					 M915.5,2705.8c-4.6,4.6-9.6,8-15,10.1c-5.4,2.1-11.3,3-17.5,2.8c-6.2-0.2-13-1.3-20.3-3.1c-7.3-1.9-15.1-4.4-23.4-7.7
					c-8.3-3.3-17.3-6.9-26.9-11.1c2.7-10.2,4.1-15.2,6.9-25.4c5.5,2.7,10.9,5,16.1,7c5.3,2,10.2,3.8,14.8,5.4
					c1.5-3.2,3-6.7,4.4-10.4c1.4-3.7,2.7-7.5,3.8-11.5c2.2-7.5,3.8-15.5,5-23.8c1.2-8.3,1.7-16.8,1.7-25.5c0-8.7-0.7-17.5-2.1-26.3
					c-1.3-8.8-3.5-17.6-6.4-26.3c10.2-2.2,15.2-3.3,25.3-5.7c3.4,10.1,6,20.4,7.8,30.8c1.7,10.4,2.7,20.7,2.9,30.8
					c0.2,10.1-0.3,20-1.5,29.7c-1.2,9.7-3,18.9-5.3,27.6c-0.8,2.8-1.5,5.5-2.4,8.1c-0.8,2.6-1.7,5.2-2.7,7.8c4.6-0.7,8.8-2.4,12.4-5
					c3.6-2.7,6.9-6.8,9.8-12.2c15.1-34.1,22.7-51.1,37.8-85.2c9.8,5.3,14.8,7.9,24.7,12.9c-14.8,35-22.2,52.5-36.9,87.5
					C924.5,2694.9,920.2,2701.2,915.5,2705.8z M964.3,2759.7c-11-5-16.5-7.6-27.4-12.9c18-44.9,35.9-89.8,53.9-134.6
					c10,4.8,15,7.2,25,11.8C998.7,2669.2,981.5,2714.5,964.3,2759.7z M1142.8,2862c-0.5,1.9-1.3,3.5-2.5,4.9
					c-1.2,1.4-2.7,2.5-4.4,3.3c-1.7,0.8-3.6,1.2-5.8,1.3c-2.2,0.1-4.3-0.2-6.5-0.9c-2.2-0.7-4.1-1.7-5.8-3c-1.7-1.3-3.1-2.8-4.2-4.4
					c-1.1-1.7-1.8-3.4-2.2-5.3c-0.4-1.9-0.3-3.8,0.2-5.7c0.5-1.9,1.4-3.5,2.7-4.9c1.3-1.4,2.7-2.5,4.4-3.3c1.7-0.8,3.6-1.2,5.7-1.3
					c2-0.1,4.1,0.2,6.3,0.8c2.2,0.7,4.1,1.7,5.8,3c1.7,1.3,3.2,2.8,4.3,4.4c1.1,1.7,1.8,3.4,2.2,5.4
					C1143.3,2858.2,1143.3,2860.1,1142.8,2862z M1451.5,2873.9c-0.1,1.8-0.6,3.4-1.5,5c-0.9,1.5-2,2.8-3.5,3.9
					c-1.5,1.1-3.1,1.8-4.9,2.4c-1.8,0.5-3.8,0.7-5.7,0.5c-16.3-1.4-24.5-2.3-40.8-4.2v0c-58.5-6.9-116.6-17.5-174-31.7c0,0,0,0,0,0
					c-1.1-0.3-2.2-0.6-3.3-0.8c0,0-0.1,0-0.1,0c-45.9-11.4-69.9-18.5-116.1-34.2c-10.2-3.5-18.4-7.9-24.4-13
					c-6.1-5.1-10.5-10.7-13.3-16.5c-2.8-5.8-4.3-11.8-4.3-17.9c0-6,0.8-11.9,2.6-17.4c1-3.2,2.3-6.3,3.7-9.3c1.5-3,3.1-5.8,4.9-8.5
					c1.8-2.6,3.6-5,5.5-7.2c1.9-2.2,3.8-4.1,5.6-5.8c8,8.1,12.1,12.2,20.3,20.2c-2.5,2.3-4.9,5.3-7.3,9c-2.4,3.7-4.3,7.8-5.6,12.1
					c-0.8,2.8-1.3,5.5-1.4,8.2c-0.1,2.7,0.4,5.2,1.7,7.7c1.2,2.5,3.2,4.8,6.1,7c2.8,2.2,6.7,4.3,11.6,6
					c27.1,9.2,40.7,13.5,68.2,21.3c6.8-28.6,10.2-42.9,17-71.5c10.8,3.1,16.1,4.5,26.9,7.4c-6.3,28.7-9.5,43.1-15.8,71.8
					c3.9,1.1,7,1.8,10,2.6c3,0.8,5.8,1.5,9.3,2.3c0.6,0.2,1.1,0.3,1.7,0.4c0.6,0.1,1.1,0.3,1.6,0.4c7,1.8,11.4,2.8,19.3,4.6
					c9.2-47.4,13.7-71.1,22.8-118.5c10.5,2.4,15.8,3.6,26.4,5.8c-4.5,25.7-6.7,38.6-11.2,64.3c1.4-2.8,3.6-5.2,6.3-7.4
					c2.8-2.2,6-4,9.6-5.3c3.6-1.3,7.7-2.2,12-2.5c4.4-0.4,9-0.1,13.7,0.8c20.1,3.8,30.1,5.5,50.2,8.6c1.9,0.3,3.6,0.9,5.2,1.8
					c1.6,0.9,2.9,2,4,3.4c1.1,1.3,1.9,2.8,2.5,4.4c0.6,1.6,0.8,3.3,0.6,5.1c-2.8,25.6-4.2,38.4-7,64.1c3.4,0.4,6.1,0.8,8.7,1.1
					c2.5,0.3,5,0.6,8.1,1c0.7,0.1,1.4,0.2,2,0.3c0.2,0,0.4,0,0.6,0.1c8.6,1,13.7,1.6,23.1,2.5c4-48.2,6-72.4,10-120.6
					c10.7,1.1,16,1.6,26.7,2.4c-3.5,53.1-5.2,79.6-8.7,132.7C1451.5,2873,1451.5,2873.4,1451.5,2873.9z M1791.8,2863.9
					c-0.4,1.8-1.2,3.5-2.3,5c-1.1,1.5-2.5,2.7-4.1,3.8c-1.7,1-3.6,1.7-5.9,2.1c-23.1,3.6-40.6,6-58,8c-17.4,2-34.7,3.4-57.3,5
					c-15.2,1.1-22.8,1.5-38.1,2.2c-2.3,0.1-4.3-0.2-6.2-0.9c-1.8-0.7-3.4-1.7-4.7-2.9c-1.3-1.2-2.4-2.7-3.1-4.3
					c-0.7-1.7-1.1-3.5-1.2-5.5c-0.8-25.5-1.3-38.2-2.1-63.8c-9.9,0.3-14.8,0.4-24.7,0.5c-3.3,0.1-6.5,0.7-9.5,1.9
					c-3,1.3-5.6,3-7.9,5.1c-2.2,2.1-4,4.6-5.3,7.4c-1.3,2.8-2,5.7-2,8.8c0,11.3,0.1,16.9,0.1,28.2c4.2,0.7,8.3,1.2,12.6,1.5
					c4.2,0.3,8.5,0.4,12.8,0.4c3.7-0.1,7.4-0.3,11.2-0.6c1.1,10.4,1.7,15.6,2.9,26.1c-2.4,0.2-4.7,0.4-6.9,0.5
					c-2.2,0.1-4.6,0.2-6.9,0.3c-7.4,0.1-14.9-0.2-22.3-1c-7.5-0.8-14.5-2.1-21.1-3.9c-3.4-0.7-6.1-2.3-8.3-4.7
					c-2.2-2.4-3.2-5.2-3.1-8.4c0.3-15.4,0.4-23.2,0.7-38.6c0.1-6.7,1.7-13.1,4.5-19c2.9-5.9,6.7-11.1,11.4-15.4
					c4.8-4.4,10.3-7.9,16.5-10.5c6.3-2.6,13-3.9,20.2-4.1c13.7-0.2,20.5-0.4,34.2-1c2.3-0.1,4.5,0.2,6.7,1c2.1,0.8,4,1.8,5.7,3.2
					c1.7,1.4,3,3,4.1,4.8c1.1,1.9,1.7,3.9,1.8,6.1c1.3,24.7,1.9,37.1,3.2,61.8c4-0.2,7.1-0.4,10.2-0.6c3-0.2,5.9-0.4,9.4-0.6
					c0.6,0,1.1-0.1,1.7-0.1c0.6-0.1,1.2-0.1,1.9-0.1c6.8-0.5,11.3-0.8,19.1-1.5c-0.8-11.9-1.3-17.8-2.1-29.7
					c-0.3-3.7,0.1-7.6,1-11.6c1-4,2.4-7.9,4.4-11.8c2-3.9,4.4-7.5,7.3-11c2.9-3.4,6.2-6.5,9.8-9.2c3.6-2.7,7.6-4.9,11.8-6.6
					c4.3-1.7,8.8-2.8,13.5-3.3c15.6-1.7,23.3-2.7,38.8-4.9c1.9-0.3,3.7-0.3,5.4,0.2c1.8,0.4,3.3,1.1,4.7,2.1c1.4,1,2.5,2.2,3.5,3.6
					c0.9,1.4,1.5,3,1.8,4.8c4.1,30.3,6.2,45.4,10.4,75.6C1792.4,2860.2,1792.3,2862.1,1791.8,2863.9z M2063.5,2791.9
					c-0.3,1.8-0.9,3.5-1.9,5.1c-1,1.6-2.2,3.1-3.7,4.3c-1.5,1.3-3.2,2.3-5.1,3c-7.4,2.7-13.1,4.8-18.7,6.7c-5.6,2-11.1,3.8-18.2,6.2
					c0,0,0,0,0,0c-0.8,0.3-1.6,0.5-2.5,0.8c0,0,0,0,0-0.1c-46.3,14.6-92.2,27.3-139.2,38.7c0,0.1,0,0.1,0,0.1
					c-16.4,3.7-24.6,5.4-41.1,8.6c-2,0.4-3.9,0.4-5.8,0.1c-1.9-0.4-3.6-1-5.1-1.9c-1.5-0.9-2.8-2.1-3.8-3.5c-1-1.5-1.6-3-1.9-4.8
					c-0.1-0.5-0.1-0.9-0.1-1.3c-8-52.5-12-78.7-20-131.2c10.6-1.9,15.9-3,26.5-5.1c8.1,47.6,12.1,71.4,20.2,119
					c4.5-0.9,8.1-1.7,11.5-2.4c3.4-0.7,6.7-1.4,10.7-2.3c1-0.2,1.8-0.4,2.7-0.6c0.4-0.1,0.9-0.2,1.3-0.3c12.6-2.8,20.2-4.6,33.9-8.1
					c-7.9-6.9-11.8-10.4-19.6-17.4c-3.2-3-5.8-6.1-7.6-9.4c-1.8-3.2-3.1-6.6-3.8-9.9c-0.8-4.4-0.7-8.8,0.4-13.3
					c1.1-4.5,3.2-8.8,6.1-12.8c2.9-4,6.7-7.6,11.3-10.8c4.6-3.1,9.9-5.5,16.1-7.2c11.2-3,16.7-4.5,27.8-7.7
					c5.5-1.6,10.9-2.3,16.2-2.1c5.3,0.2,10.2,1.2,14.6,3c4.4,1.9,8.3,4.5,11.6,8c3.2,3.4,5.5,7.6,6.9,12.6c1.8,6.6,1.2,14.1-2,22.5
					c-3.7,10.2-5.6,15.3-9.5,25.5c7.4-2.3,13-4,18.6-5.8c5.6-1.8,11.1-3.6,18.5-6.1c8.4-2.8,13.4-4.5,22.5-7.7
					c-13.5-46.1-20.3-69.2-33.8-115.3c10.3-3.7,15.4-5.5,25.7-9.4c15.8,50.3,23.6,75.5,39.3,125.9c0.2,0.3,0.4,0.6,0.5,1.1
					C2063.6,2788.4,2063.7,2790.1,2063.5,2791.9z M2097,2787c-15.4-46-30.7-92.1-46.1-138.1c10.2-4.1,15.3-6.2,25.4-10.5
					c16.2,45.7,32.4,91.4,48.5,137.1C2113.7,2780.2,2108.2,2782.5,2097,2787z M2180.7,2599.1c0-2,0.4-3.8,1-5.6c0.7-1.8,1.7-3.4,3-5
					c1.3-1.5,2.9-2.8,4.7-3.8c1.8-1,3.7-1.6,5.7-1.8c1.9-0.3,3.7-0.1,5.5,0.3c1.7,0.5,3.2,1.3,4.6,2.5c1.4,1.2,2.5,2.6,3.3,4.4
					c0.8,1.7,1.2,3.6,1.2,5.5c0,1.9-0.3,3.8-1,5.6c-0.7,1.8-1.7,3.5-3.1,5c-1.4,1.6-3,2.9-4.9,3.9c-1.9,1-3.8,1.6-5.7,1.8
					c-1.9,0.2-3.8,0.1-5.5-0.4c-1.7-0.5-3.2-1.3-4.6-2.5c-1.4-1.1-2.4-2.6-3.2-4.4C2181.1,2602.9,2180.7,2601,2180.7,2599.1z
					 M2303.5,2675.4c-1,3.3-2.9,6.1-5.6,8.5c-5.5,5.1-11.4,10-17.7,14.6c-6.3,4.6-12.9,8.8-19.6,12.5c-3.6,2-7.1,3.8-10.7,5.5
					c-3.5,1.7-7.1,3.3-10.7,4.7c-3.3,1.3-6.9,2.5-10.6,3.9c-3.7,1.3-7.2,2.3-10.6,2.9c-3.4,0.6-6.4,0.4-9-0.4
					c-2.7-0.8-4.6-2.8-5.9-5.9c-5.9-14-8.8-21.1-14.7-35.1c-2.6-6.1-3.7-12.6-3.4-19.3c0.3-6.7,1.7-13.2,4.4-19.5
					c2.6-6.3,6.3-12.1,11-17.5c4.7-5.4,10.4-9.9,17-13.6c12.5-6.9,18.7-10.5,31.1-17.8c2.2-1.3,4.4-2.1,6.7-2.5
					c2.3-0.4,4.4-0.3,6.5,0.1c2.1,0.4,4,1.3,5.7,2.6c1.7,1.3,3.1,3,4.2,5c12.5,24.9,18.8,37.4,31.3,62.2
					C2304.2,2669.1,2304.5,2672.1,2303.5,2675.4z M2386.2,2681.1c-3,8.4-7.8,16.6-14.4,24.5c-6.6,7.9-15.6,15.4-27,22.4
					c-4.6-9.2-7-13.7-11.6-22.9c7.2-4.4,12.9-9.2,17-14.2c4.1-5,7.1-10.2,8.8-15.6c1.7-5.4,2.4-10.8,2.2-16.4
					c-0.3-5.6-1.2-11.1-2.9-16.6c-1.7-5.5-3.7-11-6.3-16.5c-2.6-5.5-5.3-10.8-8.1-15.9c-3.8-7-7.7-13.7-11.7-20.1
					c-4-6.4-7.4-12.3-10.4-17.7c9.9-6.5,14.7-9.9,24.5-16.6c3.2,5.5,6.8,11.4,10.9,17.7c4.2,6.3,8.3,13.1,12.5,20.3
					c3.2,5.6,6.3,11.5,9.2,17.6c2.9,6.1,5.3,12.5,7.3,19.3c2.4,8.3,3.7,16.8,4,25.3C2390.4,2664.2,2389.1,2672.7,2386.2,2681.1z
					 M2412.8,2612.2c-24.4-41-48.9-82-73.3-123c9.3-6.7,13.9-10.1,23.1-17.1c25.2,40.5,50.3,80.9,75.5,121.4
					C2428,2601.1,2423,2604.8,2412.8,2612.2z M2549.9,2496.5c-0.4,1.9-1.1,3.8-2.2,5.6c-1,1.8-2.4,3.5-4,5
					c-30.3,27.3-45.7,40.3-77.1,65.2c-5.5-8.5-8.3-12.8-13.9-21.3c25.9-20.5,38.6-31.2,63.7-53.3c-5.5-6.8-10.9-12-16-15.8
					c-5.1-3.7-10.3-5.7-15.6-6.1c-6.2-0.5-13.6,1.4-21.9,5.8c-8.3,4.4-18.3,11.6-30.2,21.2c-5.7-8.4-8.5-12.6-14.2-20.9
					c7.6-6.2,14.8-11.7,21.5-16.3c6.7-4.6,13-8.4,19-11.3c6-2.9,11.7-4.9,17.2-6.2c5.5-1.2,10.9-1.7,16.1-1.3
					c5.1,0.4,10,1.5,14.7,3.3c4.7,1.8,9.3,4.4,13.8,7.8c4.5,3.3,9,7.4,13.4,12.1c4.4,4.7,9,10.1,13.5,16.1c1,1.4,1.7,3,2,4.8
					C2550.3,2492.7,2550.3,2494.6,2549.9,2496.5z M2606.6,2525.1c-2.4-3.1-3.6-4.6-6-7.7c1.7-1.6,2.6-2.4,4.3-4.1
					c-0.9-0.3-1.7-0.8-2.4-1.4c-0.7-0.6-1.3-1.3-1.9-2c-1.2-1.5-2.1-3.3-2.6-5.3c-0.5-2-0.7-4.1-0.4-6.4c0.3-2.2,1-4.5,2.2-6.9
					c1.2-2.4,2.9-4.6,5.1-6.7c4.9-4.8,7.4-7.2,12.3-12.1c2.5,3,3.7,4.5,6.2,7.5c-4.9,4.8-7.4,7.2-12.4,12c-2,2-3.1,3.8-3.2,5.7
					c-0.1,1.8,0.2,3.3,1.1,4.4c0.8,1,2,1.6,3.5,1.7c1.5,0.1,3.2-0.7,5.1-2.4c5.6-5.5,8.4-8.2,14-13.8c2.5,3,3.7,4.5,6.2,7.5
					C2625.3,2507.2,2619.1,2513.3,2606.6,2525.1z M2642.6,2408.1c-2.5,6.6-5.9,13.5-10.2,20.7c-4.3,7.1-9.4,14.6-15.3,22.4
					c-5.9,7.8-12.4,16.1-19.4,24.9c-7.8-6.2-11.7-9.3-19.5-15.6c4.3-4.9,8.3-9.9,12-14.8c3.7-5,7.1-9.6,10.1-13.9
					c-2.3-2.7-4.7-5.4-7.4-8c-2.7-2.7-5.5-5.3-8.5-7.8c-5.7-4.8-12-9.1-18.8-13.1s-13.9-7.3-21.5-10.2c-7.6-2.8-15.4-4.9-23.5-6.4
					c-8.1-1.5-16.5-2.1-25.1-1.9c1.8-11.4,2.6-17.2,4.2-28.6c10-0.3,19.9,0.3,29.5,1.8c9.7,1.6,18.9,3.9,27.8,6.9
					c8.9,3.1,17.3,6.8,25.2,11.3c7.9,4.4,15.3,9.3,22,14.6c2.1,1.7,4.2,3.4,6.1,5.1c1.9,1.7,3.9,3.5,5.7,5.3
					c1.1-5.1,1.2-10.1,0.2-14.9c-1-4.8-3.3-9.6-6.9-14.4c-24-27.2-36-40.8-60-68c8.3-8.8,12.3-13.3,20.5-22.4
					c24.9,27.1,37.4,40.7,62.4,67.8c5.3,6.9,9.1,13.6,11.4,20.1c2.3,6.4,3.4,12.9,3.2,19.4
					C2646.4,2394.9,2645.1,2401.5,2642.6,2408.1z M2687.2,2359c-32.3-33.7-64.6-67.4-97-101.2c8-9.3,11.9-14,19.8-23.5
					c33,33,65.9,66,98.9,99C2700.3,2343.7,2696,2348.8,2687.2,2359z M2228,2639.9c-3,1.7-5.7,3.8-7.9,6.4c-2.3,2.6-4,5.4-5.2,8.4
					c-1.2,3-1.9,6.1-2,9.3c-0.1,3.2,0.4,6.1,1.7,8.9c4.5,10.1,6.8,15.2,11.3,25.3c2.7-0.8,5.1-1.6,7.1-2.4c2-0.8,4-1.6,5.8-2.4
					c1.8-0.8,3.5-1.7,5.3-2.7c1.8-1,3.7-2.1,5.8-3.2c4.1-2.3,8-4.7,11.7-7.2c3.6-2.5,7.2-5.1,10.6-7.8c-8.6-18.1-13-27.2-21.6-45.3
					C2241.5,2632.4,2237,2635,2228,2639.9z M1953.7,2760.8c-1.1-0.8-2.4-1.3-3.8-1.7s-3.1-0.4-4.8-0.3c-1.7,0.1-3.4,0.4-5,0.9
					c-11.3,3.3-17,4.8-28.3,7.9c-1.8,0.5-3.4,1.1-5,2c-1.5,0.9-2.9,1.8-4,2.9c-1.1,1.1-1.9,2.2-2.5,3.4c-0.5,1.2-0.6,2.4-0.4,3.6
					c0.5,2.2,1.8,4.3,4.1,6.4c12.9,11.4,19.5,17.1,32.8,28.3c0.5-0.1,0.8-0.2,1.3-0.4c6.9-16.8,10.2-25.2,16.6-42
					c1.1-3.1,1.5-5.7,1-7.8C1955.5,2762.6,1954.8,2761.5,1953.7,2760.8z M1740.7,2801.7c-3.4,0.4-6,0.7-7.6,0.9
					c-1.6,0.2-2.6,0.3-2.9,0.3c-0.3,0-0.5,0.1-0.7,0.1c-2.9,0.4-5.8,1.3-8.5,2.9c-2.7,1.6-5.1,3.5-7.1,5.8c-2,2.3-3.6,4.8-4.7,7.6
					c-1.1,2.8-1.5,5.5-1.3,8.3c1.1,11.9,1.6,17.9,2.6,29.7c20.4-2.2,30.6-3.4,51-6.4c-2.4-20.4-3.7-30.6-6.1-51
					C1749.1,2800.7,1744.1,2801.3,1740.7,2801.7z M1320.8,2791.6c-4.8-0.9-9.6-1.2-14.2-0.9c-4.6,0.3-8.9,1.2-12.8,2.7
					c-3.9,1.6-7.2,3.9-10,6.9c-2.8,3-4.6,6.9-5.7,11.5c-1.6,9.3-2.4,14-4.1,23.3c31.1,6.5,46.7,9.3,78,14.1
					c2.6-20.4,3.9-30.6,6.5-51c-12.9-2.1-22.3-3.8-28.2-4.9C1324.2,2792.3,1321.1,2791.7,1320.8,2791.6z M1330.2,2793.3
					c-6-1.1-9.1-1.7-9.4-1.7c-4.8-0.9-9.6-1.2-14.2-0.9c-4.6,0.3-8.9,1.2-12.8,2.7c-3.9,1.6-7.2,3.9-10,6.9c-2.8,3-4.6,6.9-5.7,11.5
					c-1.6,9.3-2.4,14-4.1,23.3c31.1,6.5,46.7,9.3,78,14.1c2.6-20.4,3.9-30.6,6.5-51C1345.6,2796.1,1336.1,2794.4,1330.2,2793.3z
					 M1755.6,2799.8c-6.5,0.9-11.5,1.5-14.9,1.9c-3.4,0.4-6,0.7-7.6,0.9c-1.6,0.2-2.6,0.3-2.9,0.3c-0.3,0-0.5,0.1-0.7,0.1
					c-2.9,0.4-5.8,1.3-8.5,2.9c-2.7,1.6-5.1,3.5-7.1,5.8c-2,2.3-3.6,4.8-4.7,7.6c-1.1,2.8-1.5,5.5-1.3,8.3
					c1.1,11.9,1.6,17.9,2.6,29.7c20.4-2.2,30.6-3.4,51-6.4C1759.2,2830.4,1758,2820.3,1755.6,2799.8z M1955.8,2764
					c-0.3-1.4-1-2.5-2.1-3.3c-1.1-0.8-2.4-1.3-3.8-1.7s-3.1-0.4-4.8-0.3c-1.7,0.1-3.4,0.4-5,0.9c-11.3,3.3-17,4.8-28.3,7.9
					c-1.8,0.5-3.4,1.1-5,2c-1.5,0.9-2.9,1.8-4,2.9c-1.1,1.1-1.9,2.2-2.5,3.4c-0.5,1.2-0.6,2.4-0.4,3.6c0.5,2.2,1.8,4.3,4.1,6.4
					c12.9,11.4,19.5,17.1,32.8,28.3c0.5-0.1,0.8-0.2,1.3-0.4c6.9-16.8,10.2-25.2,16.6-42C1956,2768.6,1956.3,2766.1,1955.8,2764z
					 M2250.5,2627.4c-9,5.1-13.4,7.6-22.4,12.5c-3,1.7-5.7,3.8-7.9,6.4c-2.3,2.6-4,5.4-5.2,8.4c-1.2,3-1.9,6.1-2,9.3
					c-0.1,3.2,0.4,6.1,1.7,8.9c4.5,10.1,6.8,15.2,11.3,25.3c2.7-0.8,5.1-1.6,7.1-2.4c2-0.8,4-1.6,5.8-2.4c1.8-0.8,3.5-1.7,5.3-2.7
					c1.8-1,3.7-2.1,5.8-3.2c4.1-2.3,8-4.7,11.7-7.2c3.6-2.5,7.2-5.1,10.6-7.8C2263.4,2654.5,2259.1,2645.4,2250.5,2627.4z
					 M2250.5,2627.4c-9,5.1-13.4,7.6-22.4,12.5c-3,1.7-5.7,3.8-7.9,6.4c-2.3,2.6-4,5.4-5.2,8.4c-1.2,3-1.9,6.1-2,9.3
					c-0.1,3.2,0.4,6.1,1.7,8.9c4.5,10.1,6.8,15.2,11.3,25.3c2.7-0.8,5.1-1.6,7.1-2.4c2-0.8,4-1.6,5.8-2.4c1.8-0.8,3.5-1.7,5.3-2.7
					c1.8-1,3.7-2.1,5.8-3.2c4.1-2.3,8-4.7,11.7-7.2c3.6-2.5,7.2-5.1,10.6-7.8C2263.4,2654.5,2259.1,2645.4,2250.5,2627.4z
					 M1955.8,2764c-0.3-1.4-1-2.5-2.1-3.3c-1.1-0.8-2.4-1.3-3.8-1.7s-3.1-0.4-4.8-0.3c-1.7,0.1-3.4,0.4-5,0.9
					c-11.3,3.3-17,4.8-28.3,7.9c-1.8,0.5-3.4,1.1-5,2c-1.5,0.9-2.9,1.8-4,2.9c-1.1,1.1-1.9,2.2-2.5,3.4c-0.5,1.2-0.6,2.4-0.4,3.6
					c0.5,2.2,1.8,4.3,4.1,6.4c12.9,11.4,19.5,17.1,32.8,28.3c0.5-0.1,0.8-0.2,1.3-0.4c6.9-16.8,10.2-25.2,16.6-42
					C1956,2768.6,1956.3,2766.1,1955.8,2764z M1755.6,2799.8c-6.5,0.9-11.5,1.5-14.9,1.9c-3.4,0.4-6,0.7-7.6,0.9
					c-1.6,0.2-2.6,0.3-2.9,0.3c-0.3,0-0.5,0.1-0.7,0.1c-2.9,0.4-5.8,1.3-8.5,2.9c-2.7,1.6-5.1,3.5-7.1,5.8c-2,2.3-3.6,4.8-4.7,7.6
					c-1.1,2.8-1.5,5.5-1.3,8.3c1.1,11.9,1.6,17.9,2.6,29.7c20.4-2.2,30.6-3.4,51-6.4C1759.2,2830.4,1758,2820.3,1755.6,2799.8z
					 M1330.2,2793.3c-6-1.1-9.1-1.7-9.4-1.7c-4.8-0.9-9.6-1.2-14.2-0.9c-4.6,0.3-8.9,1.2-12.8,2.7c-3.9,1.6-7.2,3.9-10,6.9
					c-2.8,3-4.6,6.9-5.7,11.5c-1.6,9.3-2.4,14-4.1,23.3c31.1,6.5,46.7,9.3,78,14.1c2.6-20.4,3.9-30.6,6.5-51
					C1345.6,2796.1,1336.1,2794.4,1330.2,2793.3z M1330.2,2793.3c-6-1.1-9.1-1.7-9.4-1.7c-4.8-0.9-9.6-1.2-14.2-0.9
					c-4.6,0.3-8.9,1.2-12.8,2.7c-3.9,1.6-7.2,3.9-10,6.9c-2.8,3-4.6,6.9-5.7,11.5c-1.6,9.3-2.4,14-4.1,23.3
					c31.1,6.5,46.7,9.3,78,14.1c2.6-20.4,3.9-30.6,6.5-51C1345.6,2796.1,1336.1,2794.4,1330.2,2793.3z M1755.6,2799.8
					c-6.5,0.9-11.5,1.5-14.9,1.9c-3.4,0.4-6,0.7-7.6,0.9c-1.6,0.2-2.6,0.3-2.9,0.3c-0.3,0-0.5,0.1-0.7,0.1c-2.9,0.4-5.8,1.3-8.5,2.9
					c-2.7,1.6-5.1,3.5-7.1,5.8c-2,2.3-3.6,4.8-4.7,7.6c-1.1,2.8-1.5,5.5-1.3,8.3c1.1,11.9,1.6,17.9,2.6,29.7
					c20.4-2.2,30.6-3.4,51-6.4C1759.2,2830.4,1758,2820.3,1755.6,2799.8z M1955.8,2764c-0.3-1.4-1-2.5-2.1-3.3
					c-1.1-0.8-2.4-1.3-3.8-1.7s-3.1-0.4-4.8-0.3c-1.7,0.1-3.4,0.4-5,0.9c-11.3,3.3-17,4.8-28.3,7.9c-1.8,0.5-3.4,1.1-5,2
					c-1.5,0.9-2.9,1.8-4,2.9c-1.1,1.1-1.9,2.2-2.5,3.4c-0.5,1.2-0.6,2.4-0.4,3.6c0.5,2.2,1.8,4.3,4.1,6.4
					c12.9,11.4,19.5,17.1,32.8,28.3c0.5-0.1,0.8-0.2,1.3-0.4c6.9-16.8,10.2-25.2,16.6-42C1956,2768.6,1956.3,2766.1,1955.8,2764z
					 M2250.5,2627.4c-9,5.1-13.4,7.6-22.4,12.5c-3,1.7-5.7,3.8-7.9,6.4c-2.3,2.6-4,5.4-5.2,8.4c-1.2,3-1.9,6.1-2,9.3
					c-0.1,3.2,0.4,6.1,1.7,8.9c4.5,10.1,6.8,15.2,11.3,25.3c2.7-0.8,5.1-1.6,7.1-2.4c2-0.8,4-1.6,5.8-2.4c1.8-0.8,3.5-1.7,5.3-2.7
					c1.8-1,3.7-2.1,5.8-3.2c4.1-2.3,8-4.7,11.7-7.2c3.6-2.5,7.2-5.1,10.6-7.8C2263.4,2654.5,2259.1,2645.4,2250.5,2627.4z
					 M2250.5,2627.4c-9,5.1-13.4,7.6-22.4,12.5c-3,1.7-5.7,3.8-7.9,6.4c-2.3,2.6-4,5.4-5.2,8.4c-1.2,3-1.9,6.1-2,9.3
					c-0.1,3.2,0.4,6.1,1.7,8.9c4.5,10.1,6.8,15.2,11.3,25.3c2.7-0.8,5.1-1.6,7.1-2.4c2-0.8,4-1.6,5.8-2.4c1.8-0.8,3.5-1.7,5.3-2.7
					c1.8-1,3.7-2.1,5.8-3.2c4.1-2.3,8-4.7,11.7-7.2c3.6-2.5,7.2-5.1,10.6-7.8C2263.4,2654.5,2259.1,2645.4,2250.5,2627.4z
					 M1955.8,2764c-0.3-1.4-1-2.5-2.1-3.3c-1.1-0.8-2.4-1.3-3.8-1.7s-3.1-0.4-4.8-0.3c-1.7,0.1-3.4,0.4-5,0.9
					c-11.3,3.3-17,4.8-28.3,7.9c-1.8,0.5-3.4,1.1-5,2c-1.5,0.9-2.9,1.8-4,2.9c-1.1,1.1-1.9,2.2-2.5,3.4c-0.5,1.2-0.6,2.4-0.4,3.6
					c0.5,2.2,1.8,4.3,4.1,6.4c12.9,11.4,19.5,17.1,32.8,28.3c0.5-0.1,0.8-0.2,1.3-0.4c6.9-16.8,10.2-25.2,16.6-42
					C1956,2768.6,1956.3,2766.1,1955.8,2764z M1755.6,2799.8c-6.5,0.9-11.5,1.5-14.9,1.9c-3.4,0.4-6,0.7-7.6,0.9
					c-1.6,0.2-2.6,0.3-2.9,0.3c-0.3,0-0.5,0.1-0.7,0.1c-2.9,0.4-5.8,1.3-8.5,2.9c-2.7,1.6-5.1,3.5-7.1,5.8c-2,2.3-3.6,4.8-4.7,7.6
					c-1.1,2.8-1.5,5.5-1.3,8.3c1.1,11.9,1.6,17.9,2.6,29.7c20.4-2.2,30.6-3.4,51-6.4C1759.2,2830.4,1758,2820.3,1755.6,2799.8z
					 M1330.2,2793.3c-6-1.1-9.1-1.7-9.4-1.7c-4.8-0.9-9.6-1.2-14.2-0.9c-4.6,0.3-8.9,1.2-12.8,2.7c-3.9,1.6-7.2,3.9-10,6.9
					c-2.8,3-4.6,6.9-5.7,11.5c-1.6,9.3-2.4,14-4.1,23.3c31.1,6.5,46.7,9.3,78,14.1c2.6-20.4,3.9-30.6,6.5-51
					C1345.6,2796.1,1336.1,2794.4,1330.2,2793.3z M1330.2,2793.3c-6-1.1-9.1-1.7-9.4-1.7c-4.8-0.9-9.6-1.2-14.2-0.9
					c-4.6,0.3-8.9,1.2-12.8,2.7c-3.9,1.6-7.2,3.9-10,6.9c-2.8,3-4.6,6.9-5.7,11.5c-1.6,9.3-2.4,14-4.1,23.3
					c31.1,6.5,46.7,9.3,78,14.1c2.6-20.4,3.9-30.6,6.5-51C1345.6,2796.1,1336.1,2794.4,1330.2,2793.3z M1755.6,2799.8
					c-6.5,0.9-11.5,1.5-14.9,1.9c-3.4,0.4-6,0.7-7.6,0.9c-1.6,0.2-2.6,0.3-2.9,0.3c-0.3,0-0.5,0.1-0.7,0.1c-2.9,0.4-5.8,1.3-8.5,2.9
					c-2.7,1.6-5.1,3.5-7.1,5.8c-2,2.3-3.6,4.8-4.7,7.6c-1.1,2.8-1.5,5.5-1.3,8.3c1.1,11.9,1.6,17.9,2.6,29.7
					c20.4-2.2,30.6-3.4,51-6.4C1759.2,2830.4,1758,2820.3,1755.6,2799.8z M1955.8,2764c-0.3-1.4-1-2.5-2.1-3.3
					c-1.1-0.8-2.4-1.3-3.8-1.7s-3.1-0.4-4.8-0.3c-1.7,0.1-3.4,0.4-5,0.9c-11.3,3.3-17,4.8-28.3,7.9c-1.8,0.5-3.4,1.1-5,2
					c-1.5,0.9-2.9,1.8-4,2.9c-1.1,1.1-1.9,2.2-2.5,3.4c-0.5,1.2-0.6,2.4-0.4,3.6c0.5,2.2,1.8,4.3,4.1,6.4
					c12.9,11.4,19.5,17.1,32.8,28.3c0.5-0.1,0.8-0.2,1.3-0.4c6.9-16.8,10.2-25.2,16.6-42C1956,2768.6,1956.3,2766.1,1955.8,2764z
					 M2250.5,2627.4c-9,5.1-13.4,7.6-22.4,12.5c-3,1.7-5.7,3.8-7.9,6.4c-2.3,2.6-4,5.4-5.2,8.4c-1.2,3-1.9,6.1-2,9.3
					c-0.1,3.2,0.4,6.1,1.7,8.9c4.5,10.1,6.8,15.2,11.3,25.3c2.7-0.8,5.1-1.6,7.1-2.4c2-0.8,4-1.6,5.8-2.4c1.8-0.8,3.5-1.7,5.3-2.7
					c1.8-1,3.7-2.1,5.8-3.2c4.1-2.3,8-4.7,11.7-7.2c3.6-2.5,7.2-5.1,10.6-7.8C2263.4,2654.5,2259.1,2645.4,2250.5,2627.4z
					 M2250.5,2627.4c-9,5.1-13.4,7.6-22.4,12.5c-3,1.7-5.7,3.8-7.9,6.4c-2.3,2.6-4,5.4-5.2,8.4c-1.2,3-1.9,6.1-2,9.3
					c-0.1,3.2,0.4,6.1,1.7,8.9c4.5,10.1,6.8,15.2,11.3,25.3c2.7-0.8,5.1-1.6,7.1-2.4c2-0.8,4-1.6,5.8-2.4c1.8-0.8,3.5-1.7,5.3-2.7
					c1.8-1,3.7-2.1,5.8-3.2c4.1-2.3,8-4.7,11.7-7.2c3.6-2.5,7.2-5.1,10.6-7.8C2263.4,2654.5,2259.1,2645.4,2250.5,2627.4z
					 M1955.8,2764c-0.3-1.4-1-2.5-2.1-3.3c-1.1-0.8-2.4-1.3-3.8-1.7s-3.1-0.4-4.8-0.3c-1.7,0.1-3.4,0.4-5,0.9
					c-11.3,3.3-17,4.8-28.3,7.9c-1.8,0.5-3.4,1.1-5,2c-1.5,0.9-2.9,1.8-4,2.9c-1.1,1.1-1.9,2.2-2.5,3.4c-0.5,1.2-0.6,2.4-0.4,3.6
					c0.5,2.2,1.8,4.3,4.1,6.4c12.9,11.4,19.5,17.1,32.8,28.3c0.5-0.1,0.8-0.2,1.3-0.4c6.9-16.8,10.2-25.2,16.6-42
					C1956,2768.6,1956.3,2766.1,1955.8,2764z M1755.6,2799.8c-6.5,0.9-11.5,1.5-14.9,1.9c-3.4,0.4-6,0.7-7.6,0.9
					c-1.6,0.2-2.6,0.3-2.9,0.3c-0.3,0-0.5,0.1-0.7,0.1c-2.9,0.4-5.8,1.3-8.5,2.9c-2.7,1.6-5.1,3.5-7.1,5.8c-2,2.3-3.6,4.8-4.7,7.6
					c-1.1,2.8-1.5,5.5-1.3,8.3c1.1,11.9,1.6,17.9,2.6,29.7c20.4-2.2,30.6-3.4,51-6.4C1759.2,2830.4,1758,2820.3,1755.6,2799.8z
					 M1330.2,2793.3c-6-1.1-9.1-1.7-9.4-1.7c-4.8-0.9-9.6-1.2-14.2-0.9c-4.6,0.3-8.9,1.2-12.8,2.7c-3.9,1.6-7.2,3.9-10,6.9
					c-2.8,3-4.6,6.9-5.7,11.5c-1.6,9.3-2.4,14-4.1,23.3c31.1,6.5,46.7,9.3,78,14.1c2.6-20.4,3.9-30.6,6.5-51
					C1345.6,2796.1,1336.1,2794.4,1330.2,2793.3z M1330.2,2793.3c-6-1.1-9.1-1.7-9.4-1.7c-4.8-0.9-9.6-1.2-14.2-0.9
					c-4.6,0.3-8.9,1.2-12.8,2.7c-3.9,1.6-7.2,3.9-10,6.9c-2.8,3-4.6,6.9-5.7,11.5c-1.6,9.3-2.4,14-4.1,23.3
					c31.1,6.5,46.7,9.3,78,14.1c2.6-20.4,3.9-30.6,6.5-51C1345.6,2796.1,1336.1,2794.4,1330.2,2793.3z M1755.6,2799.8
					c-6.5,0.9-11.5,1.5-14.9,1.9c-3.4,0.4-6,0.7-7.6,0.9c-1.6,0.2-2.6,0.3-2.9,0.3c-0.3,0-0.5,0.1-0.7,0.1c-2.9,0.4-5.8,1.3-8.5,2.9
					c-2.7,1.6-5.1,3.5-7.1,5.8c-2,2.3-3.6,4.8-4.7,7.6c-1.1,2.8-1.5,5.5-1.3,8.3c1.1,11.9,1.6,17.9,2.6,29.7
					c20.4-2.2,30.6-3.4,51-6.4C1759.2,2830.4,1758,2820.3,1755.6,2799.8z M1955.8,2764c-0.3-1.4-1-2.5-2.1-3.3
					c-1.1-0.8-2.4-1.3-3.8-1.7s-3.1-0.4-4.8-0.3c-1.7,0.1-3.4,0.4-5,0.9c-11.3,3.3-17,4.8-28.3,7.9c-1.8,0.5-3.4,1.1-5,2
					c-1.5,0.9-2.9,1.8-4,2.9c-1.1,1.1-1.9,2.2-2.5,3.4c-0.5,1.2-0.6,2.4-0.4,3.6c0.5,2.2,1.8,4.3,4.1,6.4
					c12.9,11.4,19.5,17.1,32.8,28.3c0.5-0.1,0.8-0.2,1.3-0.4c6.9-16.8,10.2-25.2,16.6-42C1956,2768.6,1956.3,2766.1,1955.8,2764z
					 M2250.5,2627.4c-9,5.1-13.4,7.6-22.4,12.5c-3,1.7-5.7,3.8-7.9,6.4c-2.3,2.6-4,5.4-5.2,8.4c-1.2,3-1.9,6.1-2,9.3
					c-0.1,3.2,0.4,6.1,1.7,8.9c4.5,10.1,6.8,15.2,11.3,25.3c2.7-0.8,5.1-1.6,7.1-2.4c2-0.8,4-1.6,5.8-2.4c1.8-0.8,3.5-1.7,5.3-2.7
					c1.8-1,3.7-2.1,5.8-3.2c4.1-2.3,8-4.7,11.7-7.2c3.6-2.5,7.2-5.1,10.6-7.8C2263.4,2654.5,2259.1,2645.4,2250.5,2627.4z
					 M2250.5,2627.4c-9,5.1-13.4,7.6-22.4,12.5c-3,1.7-5.7,3.8-7.9,6.4c-2.3,2.6-4,5.4-5.2,8.4c-1.2,3-1.9,6.1-2,9.3
					c-0.1,3.2,0.4,6.1,1.7,8.9c4.5,10.1,6.8,15.2,11.3,25.3c2.7-0.8,5.1-1.6,7.1-2.4c2-0.8,4-1.6,5.8-2.4c1.8-0.8,3.5-1.7,5.3-2.7
					c1.8-1,3.7-2.1,5.8-3.2c4.1-2.3,8-4.7,11.7-7.2c3.6-2.5,7.2-5.1,10.6-7.8C2263.4,2654.5,2259.1,2645.4,2250.5,2627.4z
					 M1955.8,2764c-0.3-1.4-1-2.5-2.1-3.3c-1.1-0.8-2.4-1.3-3.8-1.7s-3.1-0.4-4.8-0.3c-1.7,0.1-3.4,0.4-5,0.9
					c-11.3,3.3-17,4.8-28.3,7.9c-1.8,0.5-3.4,1.1-5,2c-1.5,0.9-2.9,1.8-4,2.9c-1.1,1.1-1.9,2.2-2.5,3.4c-0.5,1.2-0.6,2.4-0.4,3.6
					c0.5,2.2,1.8,4.3,4.1,6.4c12.9,11.4,19.5,17.1,32.8,28.3c0.5-0.1,0.8-0.2,1.3-0.4c6.9-16.8,10.2-25.2,16.6-42
					C1956,2768.6,1956.3,2766.1,1955.8,2764z M1755.6,2799.8c-6.5,0.9-11.5,1.5-14.9,1.9c-3.4,0.4-6,0.7-7.6,0.9
					c-1.6,0.2-2.6,0.3-2.9,0.3c-0.3,0-0.5,0.1-0.7,0.1c-2.9,0.4-5.8,1.3-8.5,2.9c-2.7,1.6-5.1,3.5-7.1,5.8c-2,2.3-3.6,4.8-4.7,7.6
					c-1.1,2.8-1.5,5.5-1.3,8.3c1.1,11.9,1.6,17.9,2.6,29.7c20.4-2.2,30.6-3.4,51-6.4C1759.2,2830.4,1758,2820.3,1755.6,2799.8z
					 M1330.2,2793.3c-6-1.1-9.1-1.7-9.4-1.7c-4.8-0.9-9.6-1.2-14.2-0.9c-4.6,0.3-8.9,1.2-12.8,2.7c-3.9,1.6-7.2,3.9-10,6.9
					c-2.8,3-4.6,6.9-5.7,11.5c-1.6,9.3-2.4,14-4.1,23.3c31.1,6.5,46.7,9.3,78,14.1c2.6-20.4,3.9-30.6,6.5-51
					C1345.6,2796.1,1336.1,2794.4,1330.2,2793.3z M1755.6,2799.8c-6.5,0.9-11.5,1.5-14.9,1.9c-3.4,0.4-6,0.7-7.6,0.9
					c-1.6,0.2-2.6,0.3-2.9,0.3c-0.3,0-0.5,0.1-0.7,0.1c-2.9,0.4-5.8,1.3-8.5,2.9c-2.7,1.6-5.1,3.5-7.1,5.8c-2,2.3-3.6,4.8-4.7,7.6
					c-1.1,2.8-1.5,5.5-1.3,8.3c1.1,11.9,1.6,17.9,2.6,29.7c20.4-2.2,30.6-3.4,51-6.4C1759.2,2830.4,1758,2820.3,1755.6,2799.8z
					 M1955.8,2764c-0.3-1.4-1-2.5-2.1-3.3c-1.1-0.8-2.4-1.3-3.8-1.7s-3.1-0.4-4.8-0.3c-1.7,0.1-3.4,0.4-5,0.9
					c-11.3,3.3-17,4.8-28.3,7.9c-1.8,0.5-3.4,1.1-5,2c-1.5,0.9-2.9,1.8-4,2.9c-1.1,1.1-1.9,2.2-2.5,3.4c-0.5,1.2-0.6,2.4-0.4,3.6
					c0.5,2.2,1.8,4.3,4.1,6.4c12.9,11.4,19.5,17.1,32.8,28.3c0.5-0.1,0.8-0.2,1.3-0.4c6.9-16.8,10.2-25.2,16.6-42
					C1956,2768.6,1956.3,2766.1,1955.8,2764z M2250.5,2627.4c-9,5.1-13.4,7.6-22.4,12.5c-3,1.7-5.7,3.8-7.9,6.4
					c-2.3,2.6-4,5.4-5.2,8.4c-1.2,3-1.9,6.1-2,9.3c-0.1,3.2,0.4,6.1,1.7,8.9c4.5,10.1,6.8,15.2,11.3,25.3c2.7-0.8,5.1-1.6,7.1-2.4
					c2-0.8,4-1.6,5.8-2.4c1.8-0.8,3.5-1.7,5.3-2.7c1.8-1,3.7-2.1,5.8-3.2c4.1-2.3,8-4.7,11.7-7.2c3.6-2.5,7.2-5.1,10.6-7.8
					C2263.4,2654.5,2259.1,2645.4,2250.5,2627.4z M2250.5,2627.4c-9,5.1-13.4,7.6-22.4,12.5c-3,1.7-5.7,3.8-7.9,6.4
					c-2.3,2.6-4,5.4-5.2,8.4c-1.2,3-1.9,6.1-2,9.3c-0.1,3.2,0.4,6.1,1.7,8.9c4.5,10.1,6.8,15.2,11.3,25.3c2.7-0.8,5.1-1.6,7.1-2.4
					c2-0.8,4-1.6,5.8-2.4c1.8-0.8,3.5-1.7,5.3-2.7c1.8-1,3.7-2.1,5.8-3.2c4.1-2.3,8-4.7,11.7-7.2c3.6-2.5,7.2-5.1,10.6-7.8
					C2263.4,2654.5,2259.1,2645.4,2250.5,2627.4z M1955.8,2764c-0.3-1.4-1-2.5-2.1-3.3c-1.1-0.8-2.4-1.3-3.8-1.7s-3.1-0.4-4.8-0.3
					c-1.7,0.1-3.4,0.4-5,0.9c-11.3,3.3-17,4.8-28.3,7.9c-1.8,0.5-3.4,1.1-5,2c-1.5,0.9-2.9,1.8-4,2.9c-1.1,1.1-1.9,2.2-2.5,3.4
					c-0.5,1.2-0.6,2.4-0.4,3.6c0.5,2.2,1.8,4.3,4.1,6.4c12.9,11.4,19.5,17.1,32.8,28.3c0.5-0.1,0.8-0.2,1.3-0.4
					c6.9-16.8,10.2-25.2,16.6-42C1956,2768.6,1956.3,2766.1,1955.8,2764z M1755.6,2799.8c-6.5,0.9-11.5,1.5-14.9,1.9
					c-3.4,0.4-6,0.7-7.6,0.9c-1.6,0.2-2.6,0.3-2.9,0.3c-0.3,0-0.5,0.1-0.7,0.1c-2.9,0.4-5.8,1.3-8.5,2.9c-2.7,1.6-5.1,3.5-7.1,5.8
					c-2,2.3-3.6,4.8-4.7,7.6c-1.1,2.8-1.5,5.5-1.3,8.3c1.1,11.9,1.6,17.9,2.6,29.7c20.4-2.2,30.6-3.4,51-6.4
					C1759.2,2830.4,1758,2820.3,1755.6,2799.8z M1755.6,2799.8c-6.5,0.9-11.5,1.5-14.9,1.9c-3.4,0.4-6,0.7-7.6,0.9
					c-1.6,0.2-2.6,0.3-2.9,0.3c-0.3,0-0.5,0.1-0.7,0.1c-2.9,0.4-5.8,1.3-8.5,2.9c-2.7,1.6-5.1,3.5-7.1,5.8c-2,2.3-3.6,4.8-4.7,7.6
					c-1.1,2.8-1.5,5.5-1.3,8.3c1.1,11.9,1.6,17.9,2.6,29.7c20.4-2.2,30.6-3.4,51-6.4C1759.2,2830.4,1758,2820.3,1755.6,2799.8z
					 M1955.8,2764c-0.3-1.4-1-2.5-2.1-3.3c-1.1-0.8-2.4-1.3-3.8-1.7s-3.1-0.4-4.8-0.3c-1.7,0.1-3.4,0.4-5,0.9
					c-11.3,3.3-17,4.8-28.3,7.9c-1.8,0.5-3.4,1.1-5,2c-1.5,0.9-2.9,1.8-4,2.9c-1.1,1.1-1.9,2.2-2.5,3.4c-0.5,1.2-0.6,2.4-0.4,3.6
					c0.5,2.2,1.8,4.3,4.1,6.4c12.9,11.4,19.5,17.1,32.8,28.3c0.5-0.1,0.8-0.2,1.3-0.4c6.9-16.8,10.2-25.2,16.6-42
					C1956,2768.6,1956.3,2766.1,1955.8,2764z M2250.5,2627.4c-9,5.1-13.4,7.6-22.4,12.5c-3,1.7-5.7,3.8-7.9,6.4
					c-2.3,2.6-4,5.4-5.2,8.4c-1.2,3-1.9,6.1-2,9.3c-0.1,3.2,0.4,6.1,1.7,8.9c4.5,10.1,6.8,15.2,11.3,25.3c2.7-0.8,5.1-1.6,7.1-2.4
					c2-0.8,4-1.6,5.8-2.4c1.8-0.8,3.5-1.7,5.3-2.7c1.8-1,3.7-2.1,5.8-3.2c4.1-2.3,8-4.7,11.7-7.2c3.6-2.5,7.2-5.1,10.6-7.8
					C2263.4,2654.5,2259.1,2645.4,2250.5,2627.4z M2250.5,2627.4c-9,5.1-13.4,7.6-22.4,12.5c-3,1.7-5.7,3.8-7.9,6.4
					c-2.3,2.6-4,5.4-5.2,8.4c-1.2,3-1.9,6.1-2,9.3c-0.1,3.2,0.4,6.1,1.7,8.9c4.5,10.1,6.8,15.2,11.3,25.3c2.7-0.8,5.1-1.6,7.1-2.4
					c2-0.8,4-1.6,5.8-2.4c1.8-0.8,3.5-1.7,5.3-2.7c1.8-1,3.7-2.1,5.8-3.2c4.1-2.3,8-4.7,11.7-7.2c3.6-2.5,7.2-5.1,10.6-7.8
					C2263.4,2654.5,2259.1,2645.4,2250.5,2627.4z M1955.8,2764c-0.3-1.4-1-2.5-2.1-3.3c-1.1-0.8-2.4-1.3-3.8-1.7s-3.1-0.4-4.8-0.3
					c-1.7,0.1-3.4,0.4-5,0.9c-11.3,3.3-17,4.8-28.3,7.9c-1.8,0.5-3.4,1.1-5,2c-1.5,0.9-2.9,1.8-4,2.9c-1.1,1.1-1.9,2.2-2.5,3.4
					c-0.5,1.2-0.6,2.4-0.4,3.6c0.5,2.2,1.8,4.3,4.1,6.4c12.9,11.4,19.5,17.1,32.8,28.3c0.5-0.1,0.8-0.2,1.3-0.4
					c6.9-16.8,10.2-25.2,16.6-42C1956,2768.6,1956.3,2766.1,1955.8,2764z M1755.6,2799.8c-6.5,0.9-11.5,1.5-14.9,1.9
					c-3.4,0.4-6,0.7-7.6,0.9c-1.6,0.2-2.6,0.3-2.9,0.3c-0.3,0-0.5,0.1-0.7,0.1c-2.9,0.4-5.8,1.3-8.5,2.9c-2.7,1.6-5.1,3.5-7.1,5.8
					c-2,2.3-3.6,4.8-4.7,7.6c-1.1,2.8-1.5,5.5-1.3,8.3c1.1,11.9,1.6,17.9,2.6,29.7c20.4-2.2,30.6-3.4,51-6.4
					C1759.2,2830.4,1758,2820.3,1755.6,2799.8z M1755.6,2799.8c-6.5,0.9-11.5,1.5-14.9,1.9c-3.4,0.4-6,0.7-7.6,0.9
					c-1.6,0.2-2.6,0.3-2.9,0.3c-0.3,0-0.5,0.1-0.7,0.1c-2.9,0.4-5.8,1.3-8.5,2.9c-2.7,1.6-5.1,3.5-7.1,5.8c-2,2.3-3.6,4.8-4.7,7.6
					c-1.1,2.8-1.5,5.5-1.3,8.3c1.1,11.9,1.6,17.9,2.6,29.7c20.4-2.2,30.6-3.4,51-6.4C1759.2,2830.4,1758,2820.3,1755.6,2799.8z
					 M1955.8,2764c-0.3-1.4-1-2.5-2.1-3.3c-1.1-0.8-2.4-1.3-3.8-1.7s-3.1-0.4-4.8-0.3c-1.7,0.1-3.4,0.4-5,0.9
					c-11.3,3.3-17,4.8-28.3,7.9c-1.8,0.5-3.4,1.1-5,2c-1.5,0.9-2.9,1.8-4,2.9c-1.1,1.1-1.9,2.2-2.5,3.4c-0.5,1.2-0.6,2.4-0.4,3.6
					c0.5,2.2,1.8,4.3,4.1,6.4c12.9,11.4,19.5,17.1,32.8,28.3c0.5-0.1,0.8-0.2,1.3-0.4c6.9-16.8,10.2-25.2,16.6-42
					C1956,2768.6,1956.3,2766.1,1955.8,2764z M2250.5,2627.4c-9,5.1-13.4,7.6-22.4,12.5c-3,1.7-5.7,3.8-7.9,6.4
					c-2.3,2.6-4,5.4-5.2,8.4c-1.2,3-1.9,6.1-2,9.3c-0.1,3.2,0.4,6.1,1.7,8.9c4.5,10.1,6.8,15.2,11.3,25.3c2.7-0.8,5.1-1.6,7.1-2.4
					c2-0.8,4-1.6,5.8-2.4c1.8-0.8,3.5-1.7,5.3-2.7c1.8-1,3.7-2.1,5.8-3.2c4.1-2.3,8-4.7,11.7-7.2c3.6-2.5,7.2-5.1,10.6-7.8
					C2263.4,2654.5,2259.1,2645.4,2250.5,2627.4z M2250.5,2627.4c-9,5.1-13.4,7.6-22.4,12.5c-3,1.7-5.7,3.8-7.9,6.4
					c-2.3,2.6-4,5.4-5.2,8.4c-1.2,3-1.9,6.1-2,9.3c-0.1,3.2,0.4,6.1,1.7,8.9c4.5,10.1,6.8,15.2,11.3,25.3c2.7-0.8,5.1-1.6,7.1-2.4
					c2-0.8,4-1.6,5.8-2.4c1.8-0.8,3.5-1.7,5.3-2.7c1.8-1,3.7-2.1,5.8-3.2c4.1-2.3,8-4.7,11.7-7.2c3.6-2.5,7.2-5.1,10.6-7.8
					C2263.4,2654.5,2259.1,2645.4,2250.5,2627.4z M1955.8,2764c-0.3-1.4-1-2.5-2.1-3.3c-1.1-0.8-2.4-1.3-3.8-1.7s-3.1-0.4-4.8-0.3
					c-1.7,0.1-3.4,0.4-5,0.9c-11.3,3.3-17,4.8-28.3,7.9c-1.8,0.5-3.4,1.1-5,2c-1.5,0.9-2.9,1.8-4,2.9c-1.1,1.1-1.9,2.2-2.5,3.4
					c-0.5,1.2-0.6,2.4-0.4,3.6c0.5,2.2,1.8,4.3,4.1,6.4c12.9,11.4,19.5,17.1,32.8,28.3c0.5-0.1,0.8-0.2,1.3-0.4
					c6.9-16.8,10.2-25.2,16.6-42C1956,2768.6,1956.3,2766.1,1955.8,2764z M1755.6,2799.8c-6.5,0.9-11.5,1.5-14.9,1.9
					c-3.4,0.4-6,0.7-7.6,0.9c-1.6,0.2-2.6,0.3-2.9,0.3c-0.3,0-0.5,0.1-0.7,0.1c-2.9,0.4-5.8,1.3-8.5,2.9c-2.7,1.6-5.1,3.5-7.1,5.8
					c-2,2.3-3.6,4.8-4.7,7.6c-1.1,2.8-1.5,5.5-1.3,8.3c1.1,11.9,1.6,17.9,2.6,29.7c20.4-2.2,30.6-3.4,51-6.4
					C1759.2,2830.4,1758,2820.3,1755.6,2799.8z M2250.5,2627.4c-9,5.1-13.4,7.6-22.4,12.5c-3,1.7-5.7,3.8-7.9,6.4
					c-2.3,2.6-4,5.4-5.2,8.4c-1.2,3-1.9,6.1-2,9.3c-0.1,3.2,0.4,6.1,1.7,8.9c4.5,10.1,6.8,15.2,11.3,25.3c2.7-0.8,5.1-1.6,7.1-2.4
					c2-0.8,4-1.6,5.8-2.4c1.8-0.8,3.5-1.7,5.3-2.7c1.8-1,3.7-2.1,5.8-3.2c4.1-2.3,8-4.7,11.7-7.2c3.6-2.5,7.2-5.1,10.6-7.8
					C2263.4,2654.5,2259.1,2645.4,2250.5,2627.4z M2250.5,2627.4c-9,5.1-13.4,7.6-22.4,12.5c-3,1.7-5.7,3.8-7.9,6.4
					c-2.3,2.6-4,5.4-5.2,8.4c-1.2,3-1.9,6.1-2,9.3c-0.1,3.2,0.4,6.1,1.7,8.9c4.5,10.1,6.8,15.2,11.3,25.3c2.7-0.8,5.1-1.6,7.1-2.4
					c2-0.8,4-1.6,5.8-2.4c1.8-0.8,3.5-1.7,5.3-2.7c1.8-1,3.7-2.1,5.8-3.2c4.1-2.3,8-4.7,11.7-7.2c3.6-2.5,7.2-5.1,10.6-7.8
					C2263.4,2654.5,2259.1,2645.4,2250.5,2627.4z"/>
				<linearGradient id="SVGID_3_" gradientUnits="userSpaceOnUse" x1="696.17" y1="1403.3993" x2="2421.9526" y2="1403.3993">
					<stop  offset="0" style="stop-color:#4094D2"/>
					<stop  offset="1" style="stop-color:#0070C3"/>
				</linearGradient>
				<path class="st4" d="M2422,1308.9c0,480.9-386.3,870.8-862.9,870.8c-476.6,0-862.9-389.9-862.9-870.8
					c0-267.7,119.7-507.2,308.1-666.9c4.6-3.9,9.3-7.8,14-11.6l62.5-3.3c-4.1,3.8-8.1,7.6-12,11.5c-12,11.8-23.7,24-34.8,36.6
					c-3.5,4-7,8-10.5,12.1C918,811.6,854.4,972.9,854.4,1149.2c0,293.5,176.2,545.5,427.7,654.1c32.3,14,65.8,25.5,100.4,34.5
					c2.1,0.6,4.2,1.1,6.3,1.6c41,10.3,83.4,16.9,126.8,19.6c14.4,0.9,28.8,1.3,43.4,1.3c12.8,0,25.5-0.3,38.1-1
					c43.9-2.4,86.7-8.8,128.1-18.9c2.1-0.5,4.2-1,6.3-1.6c39.1-9.9,76.9-23.1,113.1-39.4c246.9-110.6,419.1-360.1,419.1-650.3
					c0-176-63.4-337.1-168.3-461.3c-3.4-4.1-6.9-8.1-10.5-12.1c-11.3-12.7-23-25.1-35.1-37c-4-3.9-8-7.7-12-11.5l62.5,3.3
					c4.7,3.8,9.3,7.7,13.9,11.6C2302.4,802,2422,1041.3,2422,1308.9z"/>
				<g>
					<g>
						<path d="M555,1450.7c-3.2-15.6-6.4-25.7-9.8-31.7c-5.7,3.8-14.4,5.8-18.6,6.5c-27.9,4.5-55.8,9-83.7,13.5
							c-5.8,1-8.5,7.3-7,15.7c1.2,6.9,4.6,11.2,6.5,13.1c5.1-4.1,13.2-6,17.5-6.9c9.5-1.8,14.3-2.7,23.8-4.4c0.4,2.1,0.6,3.1,1,5.2
							c3.3,23.8,19.4,61.5,49.8,54C562.1,1508.9,559.4,1471.8,555,1450.7z M527.8,1492.3c-20.8,5.3-34.1-14-36.8-32.1
							c-0.3-1.8-0.6-3.6-0.7-4.8c18.7-3.5,37.5-6.9,56.2-10.4c0.4,1.5,1.1,4.1,1.7,7C552.9,1477.1,544.2,1488.1,527.8,1492.3z"/>
						<path d="M562.7,1603c-1.8-5.7-5.4-8.9-7.3-10.4c-6.2,6-11.8,7.9-34.3,15.6c-25.5,8.8-40.1,1.2-43.7-11.3
							c-3.8-12.9,3.2-19.2,21.4-24.7c16.4-4.9,24.6-7.4,41-12.3c5.8-1.8,7.7-7.8,5.8-14.7c-1.5-5.5-4.3-8.8-6.9-11
							c-5.3,4.3-13,6.9-18.2,8.3c-12.1,3.4-18.1,5.1-30.1,8.6c-20.6,3.9-29.9,22.2-23.6,41.4c5.2,16,15.2,25.7,28.8,26.9
							c-0.2,0.1-0.3,0.1-0.5,0.1c-12.1,4.2-15.9,13-12.1,24.3c3,9.1,8.5,12.5,13.9,10.5c2-0.8,3.5-2,4.9-4.5
							c-2.2-0.7-3.3-2.9-3.8-4.3c-1.2-3.5,0.3-6,6.1-8.1c17.5-6.5,35.1-13,52.6-19.4C563,1615.8,564.8,1609.4,562.7,1603z"/>
						<path d="M612,1652.2c0.7-2.3,1.5-7.6-0.6-13c-2.2-5.8-7.1-8.8-12.6-6.6c-31.7,12.6-63.4,25.2-95.1,37.8
							c-3.6,11.8-0.8,29,5.2,43.7c10.5,25.7,37.7,34.4,61.7,22.5c17.7-8.8,32.5-27.6,24-48.2c-5.6-13.5-16.6-20.7-28.2-20.6
							c6.7-2.7,10.1-4.1,16.8-6.9C589.3,1658.4,601.9,1653.5,612,1652.2z M583.7,1688.4c4.1,9.7-2.4,18.4-22.2,27.6
							c-18.4,8.6-37.6,13.6-46.1-6.2c-2.8-6.6-3.8-14.9-2.5-19.3c10.8-4.6,16.2-6.8,27-11.4C556.6,1672.1,576.8,1671.7,583.7,1688.4
							z"/>
						<path d="M651.4,1731c-2.8-5.7-8.1-8.3-13.4-5.6c-27.3,14.2-54.6,28.3-81.9,42.5c-11.6,6-15.4,16.7-9.1,29.2
							c3.8,7.6,10.9,12.2,16.2,9.2c1.5-0.8,3.4-2.5,4.2-5.2c-2.3-0.1-4.2-2.3-5.3-4.4c-2.1-4.2-0.6-7.7,4.5-10.5
							c18.7-10.2,37.5-20.3,56.2-30.5c13.5-7.4,21.1-11.1,29.7-12.9C653.2,1740.6,653.9,1736,651.4,1731z"/>
						<path d="M644.5,1790.8c-2.6-4.7-6.7-6.7-8.7-7.6c-4.3,5.2-10.2,9.3-15.8,12.6c-16.1,9.5-32.2,19-48.3,28.5
							c-5.2,3-5.9,9.3-2.5,15.3c2.9,5.3,7.3,7.6,9.6,8.5c3.8-5.5,9.8-9.6,15.3-13c15.9-9.9,31.8-19.8,47.7-29.6
							C646.8,1802.4,647.6,1796.4,644.5,1790.8z M672.4,1775.1c-3.2-5.6-9.9-7.7-15.3-4.6c-5.2,3-6.8,10.1-3.6,15.8
							c3.1,5.6,9.9,7.7,15,4.5C673.8,1787.7,675.5,1780.6,672.4,1775.1z"/>
						<path d="M683.7,1855.6c-13.2-21.7-40.6-26-61.2-12.9c-21.9,13.9-28.3,41.9-12.9,63.6c9.9,13.9,22.7,21.8,34.4,17.9
							c5.9-2.1,7-4.8,6.4-7.5c-9.7,3.7-20.4-1.3-27.9-12.1c-11.5-16.5-1.7-35.5,13.7-45.1c18.7-11.6,33.9-12.3,41.1-1.4
							c4.2,6.4,4.7,13.3-2.9,18.8c-4.5,3.2-8.6,4.2-12.6,2.4c-0.7,3.4,0.8,7.7,3,10.9c4.9,7.2,12.8,8.7,19.6,3.6
							C693.9,1886.9,694.1,1872.6,683.7,1855.6z"/>
						<path d="M796.8,1951c-3.4-3.8-7.4-6.9-12.3-9.6c-32.4,13.9-65,27-98.1,39.2c-3.9,1.3-7.1,3.2-8.9,4.6c-4.2,3.4-3.8,7.9,1.3,14
							c3.2,3.9,5.9,5.7,8.6,7.3c0.1-1.4,0.9-2.8,2.5-4.2c1.7-1.4,3.8-2.6,5.8-3.6c9.1-4.1,13.7-6.2,22.8-10.5
							c11.3,13.2,17,19.6,28.8,32.1c-6.2,11-9.3,16.6-15.3,27.7c-2.6,4.3-1,9.5,3.5,14.1c4.5,4.6,8.5,5.5,11.3,5.5
							c0-3.6,1.6-7.9,2.9-10.4c15.8-31.9,32.3-63.3,49.5-94.4C801.7,1958.6,799.9,1954.4,796.8,1951z M752.4,2011
							c-9.9-10.7-14.8-16.1-24.4-27.2c19.2-9.3,38.2-18.8,57.1-28.6C774.1,1973.7,763.2,1992.3,752.4,2011z"/>
						<path d="M883.8,2043.2c3.9-4.7,2.8-10.4-1.7-14.2c-3.8-3.3-8.2-3.6-10.4-3.5c-3.9,8.5-10.4,16.8-15.6,22.9
							c-3.8,4.4-5.7,6.6-9.4,10.9c2.3-7.8-0.5-16-8.6-23.2c-19.4-17.5-43.7-5.3-59.7,10.7c-13.8,13.8-22.8,36.6-5.7,52.1
							c11.4,10.3,24.5,11.4,38.1,3.8c-8.3,11.1-9.5,20.8-1,28c6,5,13,5.8,16.6,1.4c1.1-1.4,2.2-3.9,2.4-6.3c-2,0.8-4-0.5-5-1.3
							c-2.9-2.4-2.8-5.9,1.1-10.5C844.5,2090.3,864.1,2066.7,883.8,2043.2z M783.7,2095.1c-9.7-7.9-2.7-20.8,9.9-34.4
							c16.9-18.2,30.9-23.8,41-14.6c10.9,9.9,4.3,21.4-3.9,31.2C820.6,2089.3,798.6,2107.5,783.7,2095.1z"/>
						<path d="M966.9,2135.6c-11.1-7.2-23.1-5.7-33.6,2.2c5.4-12.6,3.2-22.6-7.8-30.6c-11-8-22.8-6.9-33.9,0.8
							c8.3-11.3,7.7-20.3,0.1-26.3c-5.6-4.4-12.3-4.1-16.1,0.7c-1.4,1.7-2.1,3.7-2.4,6.3c2.1-1,4.4-0.4,5.7,0.7
							c2.8,2.2,2.5,5.6-1.3,10.4l-35.1,45.2c-4,5.1-2.8,11.3,2.3,15.3c5,3.9,9.3,3.9,11.6,3.8c1.9-8.3,5.5-13,19.9-32
							c16.9-22.4,31.3-26.5,39-20.8c8.8,6.4,5.4,16.1-5,30.8c-10.1,14.4-15.2,21.5-25.4,35.9c-3.5,5-1.8,10.7,3.4,14.3
							c4.3,3,8.1,3.2,11.6,2.9c1.3-6.4,5.7-13.7,8.8-18.3c4.4-6.4,6.5-9.6,10.9-16c15.2-21.6,29.9-25.7,37.7-20.5
							c9.1,5.9,4.2,17-4.4,30.4c-9.5,14.8-14.2,22.2-23.6,37.1c-3.3,5.1-1.2,10.9,4.3,14.3c4.4,2.8,8.5,2.9,11.8,2.4
							c1.2-6.4,5.1-13.9,8.1-18.6c6.7-11,10.1-16.5,16.8-27.4C982,2159,981.2,2144.9,966.9,2135.6z"/>
						<path d="M1016.1,2165.3c-4.3-2.5-8.6-1.9-10.8-1.5c-1.4,6.6-4.6,13.1-7.9,18.8c-9.5,16.4-19,32.9-28.5,49.3
							c-3,5.2-0.9,10.8,4.6,13.9c4.8,2.7,9.6,2.3,11.9,1.8c0.8-6.5,4.1-13.2,7.3-18.9c9.2-16.6,18.4-33.3,27.5-49.9
							C1023.1,2173.5,1021.2,2168.2,1016.1,2165.3z M1032.9,2137.4c-5.1-2.9-11.8-1-15,4.4c-3.1,5.3-1.3,11.9,3.9,14.9
							c5.1,2.9,11.8,1,14.7-4.3C1039.6,2147,1037.9,2140.3,1032.9,2137.4z"/>
						<path d="M1087.6,2202.6c-12.5-5.9-24.2-3.4-34.2,6.1c0.1-0.3,0.2-0.4,0.3-0.6c5.9-11.7,3.9-20.1-4.3-24.3
							c-6.7-3.5-12.5-1.8-15.2,3.2c-1.1,2.1-1.4,4-1.1,6.7c1.8-1.3,3.9-0.6,5-0.1c2.7,1.4,2.7,4.3-0.1,9.9
							c-8.9,17-17.9,33.9-26.8,50.9c-3.1,5.8-0.7,11.6,5.4,14.7c4.6,2.4,9.4,1.9,11.7,1.4c0.4-8.5,3.2-13.9,14.2-35.7
							c12.2-24.3,26.2-30.3,35.7-25.7c10.2,4.8,8.8,14.9,1.6,30.9c-7.4,16-11.1,24-18.6,40c-2.5,5.5,0.3,10.9,6.3,13.6
							c4.4,2,8.6,1.8,12,0.7c0-6.6,3.1-14.5,5.2-19.6c5.2-11.8,7.8-17.7,13.1-29.5C1107,2224.2,1104,2210.3,1087.6,2202.6z"/>
						<path d="M1141.4,2225.9c-4.6-1.8-8.8-0.7-10.8-0.1c-0.5,6.7-2.8,13.7-5.3,19.7c-7.2,17.6-14.5,35.2-21.7,52.8
							c-2.3,5.6,0.5,10.8,6.3,13.2c5.1,2,9.8,1,12,0.2c-0.1-6.5,2.3-13.6,4.8-19.7c6.9-17.7,13.8-35.5,20.7-53.2
							C1149.5,2233.1,1146.9,2228.1,1141.4,2225.9z M1154.4,2196c-5.5-2.2-11.8,0.6-14.2,6.4c-2.4,5.6,0.3,12,5.8,14.2
							c5.4,2.2,11.8-0.6,14-6.3C1162.3,2204.6,1159.8,2198.1,1154.4,2196z"/>
						<path d="M1200.2,2247.6c-15.9-5.3-31.9-4.1-37.7,11.6c-6.1,16.5,5.4,27.5,15.8,37.5c8.8,8.6,18.2,15.6,15.2,24.8
							c-2.4,7.6-11.2,8.7-21.2,5.3c-12.4-4.2-16.3-13.1-14.7-21.2c0.5-2.8,1.1-5.2,2.7-7.6c-9.9-5.3-15.3-0.6-17.4,5
							c-4,10.8,2.8,22.5,24.9,30.1c27.8,9.5,41.3-0.5,45-12.7c4.5-14.9-8.5-25.4-19.1-35.7c-8.8-8.4-16.8-16.1-13.5-25.5
							c2.5-7,10.2-7.4,17.2-5c8.1,2.7,12.3,8,11.7,14.4c0.4,2.6-0.7,6-1.8,8.5c1.7,0.9,3.2,1.4,5.1,1.8c6.1,1.2,9.7-1.9,11-6.1
							C1226.5,2262.1,1217,2253.3,1200.2,2247.6z"/>
						<path d="M1269.6,2271c-1.1-0.3-1.7-0.4-2.9-0.8c2.2-6.9,4.2-12.2,7.1-17.2c-1.1-1.7-3.6-5.1-8.6-6.5
							c-5.7-1.6-10.9,0.7-12.5,6.5c-1.4,5-2.1,7.4-3.5,12.4c-2.8-0.8-4.2-1.2-6.9-2c-2.5-0.7-4.8,0.2-5.9,3.1
							c-0.6,1.8-0.9,2.8-1.5,4.6c2.2,0.3,7.7,1.5,9.7,2.1c0.9,0.3,1.3,0.4,2.2,0.6c-5.3,18.6-10.6,37.2-15.8,55.8
							c-3.6,12.8,1.1,22.9,13.7,26.2c10,2.7,18,0.1,19.5-6c0.4-1.7,0.3-4.1-0.7-6.6c-1.5,1.7-5.3,1.6-8,0.9
							c-5.3-1.4-7.2-5.2-5.7-10.9c5.3-19.7,7.9-29.5,13.2-49.2c0.6-2.2,0.9-3.2,1.5-5.4c6,1.6,9,2.4,15.1,3.9
							c2.4,0.6,4.8-0.6,5.6-3.5c0.5-1.8,0.8-2.6,1.3-4.4C1284.6,2274.5,1271.2,2271.4,1269.6,2271z"/>
						<path d="M1341.4,2284.9c-10.3-2-18.7,2.6-25.1,14.1c2.3-12.5-1.9-19.6-10.6-21.5c-7.3-1.7-12.5,1.5-13.8,7.1
							c-0.6,2.3-0.3,4.3,0.6,6.7c1.4-1.7,3.6-1.6,4.8-1.3c2.9,0.7,3.8,3.5,2.4,9.6c-4.2,18.6-8.4,37.2-12.6,55.8
							c-1.5,6.6,2.9,11.7,8.8,12.9c5.3,1.1,9.8-0.5,11.8-1.6c-1.7-8.3-0.3-14.3,4.6-37.8c5.7-27.2,14.4-37.4,22.5-35.8
							c5.4,1.1,7.6,4.7,6.4,11.1c-0.8,4-1.9,6.7-5.2,10.4c1.3,2.2,4.1,3.7,7.8,4.2c6.6,1,13-3.7,14.3-11.9
							C1360.1,2295.2,1353,2287.1,1341.4,2284.9z"/>
						<path d="M1446.2,2374.4c-1.4,1.9-3.9,2.4-5.5,2.2c-3.9-0.4-5.7-3.4-5.1-9.5c1.1-12.4,1.7-18.6,2.8-31.1
							c3.4-21.2-9.6-38.4-30.8-40.4c-19.5-1.8-34,2.2-36.1,15.6c-1.3,8.1,3.2,16.2,12.5,17.5c3.9,0.6,8.1,0,10.7-2.2
							c-4.7-3.1-5.5-8.6-4.8-13.2c1.3-9.7,8.3-12,15.7-11c12.6,1.7,16,11.6,14,30.6c-0.2,1.7-0.3,2.5-0.5,4.2
							c-7.4-1-16.8-1.4-26.2-0.1c-15.6,2.1-30.9,8.3-33.3,23.4c-1.9,12.2,6,21.1,19.6,23.1c16.2,2.4,30-6,38-19.3
							c-1.5,17.2,4.2,24.6,15.2,25.7c8.7,0.9,14.9-3.4,15.4-9.1C1448,2379.2,1447.6,2376.6,1446.2,2374.4z M1390.5,2372.6
							c-8.1-0.6-10.4-7.1-9.5-13.3c1.1-7.7,6.9-12.6,14.9-15c6.4-1.9,15.8-1.9,23-0.7C1417,2360.8,1401.8,2373.5,1390.5,2372.6z"/>
						<path d="M1490.4,2305.6c-1.2-0.1-1.8-0.1-3-0.2c0.7-7.3,1.6-12.8,3.2-18.4c-1.4-1.4-4.6-4.3-9.8-4.7c-5.9-0.4-10.5,2.9-10.9,9
							c-0.3,5.1-0.5,7.7-0.8,12.9c-2.9-0.2-4.3-0.3-7.2-0.6c-2.6-0.2-4.7,1.1-5.1,4.2c-0.2,2-0.3,2.9-0.5,4.9c2.2-0.2,7.8,0,10,0.1
							c0.9,0.1,1.4,0.1,2.3,0.2c-1.2,19.4-2.4,38.7-3.6,58.1c-0.8,13.4,5.9,22.3,18.9,23.1c10.3,0.6,17.6-3.5,17.8-9.8
							c0.1-1.7-0.6-4.1-2.1-6.4c-1.1,2-4.8,2.7-7.6,2.5c-5.5-0.3-8.1-3.7-7.9-9.6c1-20.4,1.5-30.6,2.5-51.1c0.1-2.2,0.1-3.4,0.3-5.6
							c6.2,0.4,9.3,0.5,15.6,0.8c2.5,0.1,4.5-1.5,4.8-4.6c0.1-1.8,0.2-2.7,0.3-4.6C1505.8,2306.1,1492,2305.7,1490.4,2305.6z"/>
						<path d="M1544,2372.1c-0.3-19.1-0.5-38.3-0.8-57.5c-0.1-6.1-4.3-9.9-10.2-10c-4.9-0.1-8.4,2.5-10,3.8
							c2.1,6.5,2.5,13.9,2.5,20.5c-0.1,19.1-0.2,38.3-0.3,57.5c-0.1,6.1,4.5,10,10.8,10.1c5.5,0.1,9.4-2.6,11.2-4.1
							C1544.4,2386.3,1544,2378.8,1544,2372.1z M1533.8,2271.8c-5.9-0.1-10.7,4.9-10.7,11.2c-0.1,6.1,4.7,11.2,10.7,11.3
							c5.8,0.1,10.7-4.8,10.6-10.9C1544.3,2277.1,1539.5,2271.9,1533.8,2271.8z"/>
						<path d="M1645,2347.4c-2.4-22.6-19.3-44.4-43.7-43.5c-25.6,1-38.4,22.8-37.8,46.9c0.6,23.9,17.4,47,43.6,44.7
							C1631.8,2393.5,1647.6,2371.4,1645,2347.4z M1606.7,2388.6c-14.2,0.6-22-12.7-23.2-38.1c-1.1-25.5,5-39.1,18.2-39.7
							c13.2-0.6,21,12.4,23.2,37.9C1627,2374.1,1620.8,2388.1,1606.7,2388.6z"/>
						<path d="M1742.6,2357.4c-2.4-12.8-3.6-19.3-6.1-32.1c-4.3-22.7-14.7-32.9-32.6-30.5c-13.6,1.8-21.8,10.3-24.7,23.9
							c-0.1-0.3-0.1-0.4-0.1-0.7c-1.8-13.2-8.2-19.2-17.4-18.3c-7.5,0.7-11.3,5.3-10.7,11.1c0.3,2.4,1.1,4.2,2.9,6.3
							c0.8-2.1,2.9-2.7,4-2.8c3-0.3,4.6,2.1,5.5,8.4c2.3,19.3,4.7,38.5,7,57.8c0.8,6.6,6.1,10.2,12.8,9.5c5.1-0.6,8.8-3.6,10.4-5.3
							c-4.4-7.4-5.3-13.5-8.7-38.1c-3.8-27.3,4.3-40,14.6-41.4c11.2-1.5,15.8,7.9,19,25.4c3,17.6,4.5,26.4,7.6,44
							c1,6.1,6.4,9.1,13,8.1c4.8-0.7,8.1-3.2,10.3-5.9C1745.7,2371.3,1743.8,2362.9,1742.6,2357.4z"/>
						<path d="M1872.3,2306.8c-7.2-21.7-28.1-39.9-52.1-34.2c-25,6-32.8,30.3-27.1,53.7c5.6,23.3,26.8,42.9,52.2,35.5
							C1869.3,2354.8,1879.9,2329.8,1872.3,2306.8z M1843.4,2355c-13.7,3.4-24.3-8.2-30.8-32.9c-6.5-24.9-3.4-39.5,9.5-42.7
							c12.8-3.2,23.3,8.1,30.7,32.8C1860.3,2336.7,1857.2,2351.6,1843.4,2355z"/>
						<path d="M1918.5,2315.3c-6.5-17.8-12.9-35.5-19.4-53.3c6.6-2.2,9.9-3.3,16.5-5.5c2.5-0.9,3.8-3.1,2.8-6.1
							c-0.6-1.8-0.9-2.7-1.5-4.4c-1.5,0.7-13.5,5.1-15.1,5.7c-2.3,0.8-3.5,1.1-5.8,1.9c-0.3-0.8-0.4-1.3-0.8-2.1
							c-5.5-15.1-10.2-29,0.2-32.6c4.8-1.6,8.3-0.5,10.4,4.8c1,2.6,1.3,5.6,0.3,9.4c2,1.3,5.1,1.2,8.2,0.1c5.5-1.9,8.8-7.7,6.2-14.1
							c-3.6-9-13.8-10.9-27.1-6.4c-21.4,7.2-22.2,24-16.3,41.1c0.7,2.1,1.1,3.1,1.8,5.2c-2.6,0.8-3.9,1.2-6.4,2
							c-2.5,0.8-3.9,2.8-3.1,5.8c0.6,1.9,0.8,2.9,1.4,4.8c2-0.9,7.2-2.9,9.3-3.5c0.7-0.2,1-0.3,1.7-0.5
							c7.8,22.5,15.5,45.1,23.3,67.6c2,5.9,7.9,8.1,14,6.1c4.8-1.5,7.4-4.6,9-7.4C1923.9,2328.6,1920.5,2320.6,1918.5,2315.3z"/>
						<path d="M2062.4,2214c-15.1-27.2-42.4-46.2-73.3-32.3c-9.2,4.1-23.6,10.5-31,14.9c4.7,5,8.6,14.4,11.4,20.4
							c12.1,26.6,24.3,53.2,36.4,79.9c2.5,5.5,8.2,7.3,14.6,4.6c9.5-4,14.3-6.1,23.7-10.4C2078.5,2276.6,2078.4,2242.8,2062.4,2214z
							 M2039.9,2284.8c-6,2.7-9,4-15.1,6.6c-15.4-32.4-30.7-64.7-46.1-97.1c5.5-2.4,8.2-3.6,13.6-6c24-10.1,43.1,19,52.2,35.9
							C2054.2,2242.2,2065.1,2273.5,2039.9,2284.8z"/>
						<path d="M2165.4,2210.1c-1.1-6.2-3.9-7.4-6.5-7c1.7,9-3.2,18.6-14.4,25.2c-13.2,7.7-26.5,6.3-39.6-12.3
							c5.9-2.2,11-4.9,16.1-7.8c20.1-11.5,27.7-27.3,18-41.9c-9.5-14.2-26.1-14.1-41.9-4.9c-23.1,13.5-24.7,38.8-12.3,60.5
							c12.3,21.5,38.9,33.6,61.6,19.4C2159.6,2232.9,2167.6,2221.7,2165.4,2210.1z M2100.3,2167.7c5.8-3.3,13.3-4.2,20,6.4
							c10.2,16-0.4,25.9-11.9,32.3c-2.4,1.3-6.4,3.9-7.2,3.6C2094.7,2208,2089.2,2174.1,2100.3,2167.7z"/>
						<path d="M2242.6,2147.1c-8.3-10.4-12.5-15.7-20.8-26.1c-14.7-18.5-28.9-22.7-43.7-12c-11.3,8.1-14.6,19.6-10.7,33.2
							c-0.2-0.3-0.3-0.4-0.4-0.6c-7.9-11.1-16.6-13.4-24.3-8.4c-6.4,4.2-7.6,10.1-4.2,15c1.4,2,3,3.2,5.6,4.3
							c-0.3-2.3,1.3-3.7,2.3-4.4c2.5-1.6,5.1-0.2,9,5c11.3,16.3,22.6,32.6,33.9,48.9c3.9,5.6,10.4,6.4,16,2.6
							c4.3-2.9,6.2-7.4,6.8-9.6c-7.5-4.6-11.2-9.7-26-30.3c-16.4-22.9-15.3-38.2-6.7-44.3c9.3-6.6,17.9-0.4,29.1,14
							c11.1,14.5,16.7,21.7,27.8,36.2c3.8,5,10.1,5.2,15.5,1.2c3.9-2.9,5.7-6.7,6.4-10.3C2252.1,2158.1,2246.4,2151.5,2242.6,2147.1
							z"/>
						<path d="M2302.5,2116.5c-1.2-1.3-3.4-2.7-6.1-3.3c0.6,2.3-1.7,5.4-3.9,7.2c-4.3,3.6-8.6,2.9-12.6-1.7
							c-13.8-16-20.7-24-34.4-40c-1.5-1.8-2.3-2.6-3.8-4.4c4.9-4.1,7.3-6.1,12.1-10.2c1.9-1.7,2.3-4.3,0.3-6.7
							c-1.2-1.5-1.8-2.2-3.1-3.6c-1.1,1.2-11.6,10.6-12.9,11.7c-0.9,0.8-1.4,1.2-2.3,1.9c-4.7-5.9-8-10.7-10.6-16
							c-2.1-0.1-6.5,0-10.6,3.3c-4.7,3.8-5.8,9.4-1.7,14.2c3.4,4.1,5.1,6.1,8.5,10.2c-2.3,1.8-3.4,2.8-5.7,4.6
							c-2.1,1.7-2.7,4.1-0.8,6.6c1.2,1.6,1.8,2.4,3.1,4c1.5-1.6,5.8-5.4,7.5-6.8c0.7-0.6,1.1-0.9,1.8-1.5
							c12.9,15.4,25.7,30.7,38.6,46.1c8.9,10.6,20.2,12.6,30.4,4.1C2304.4,2129.5,2306.8,2121.3,2302.5,2116.5z"/>
						<path d="M2381.1,2041.2c-1.3-1.2-3.6-2.6-6.3-2.8c0.7,2.4-0.6,4.7-1.7,5.8c-2.8,2.9-6.5,2.4-11.1-1.9
							c-9.4-8.9-14.1-13.3-23.5-22.2c-16.3-16.1-35.9-17.4-52.5-1.2c-14.9,14.5-20,28.6-10.4,38.9c5.7,6.2,15.1,7.9,22.3,1.3
							c2.9-2.7,5.1-6.5,5.1-10c-5.5,1.8-10.5-1.2-13.8-4.6c-7.1-7.4-4.4-14.4,1.1-19.6c9.4-9,19.6-5.5,33.8,8.5
							c1.3,1.2,1.9,1.8,3.1,3.1c-5.6,5.3-11.9,12.6-16.9,21c-8.3,13.8-13,30-2.3,41.6c8.7,9.4,21,8.9,31.3-0.7
							c12.3-11.4,14.3-28,8.7-43c13.1,12.3,22.7,12.5,30.6,4.3C2385,2053.1,2385.5,2045.3,2381.1,2041.2z M2337.8,2082.2
							c-5.7,6.1-12.5,3.7-17-1c-5.6-5.8-5.8-13.7-2.6-21.6c2.5-6.4,8.6-13.9,14.2-19C2345.1,2053.4,2345.7,2073.8,2337.8,2082.2z"/>
						<path d="M2414.4,2004.2c-1.3-1.1-3.7-2.4-6.5-2.4c0.9,2.2-0.4,4.8-1.8,6.4c-2.9,3.3-6.7,2.9-11.4-1.1
							c-17.1-14.9-34.2-29.7-51.2-44.6c-12.3-10.7-18.9-16.9-24.2-24.5c-2.2,0.1-6.6,0.9-10.1,4.8c-3.9,4.4-4.1,10.3,0.6,14.5
							c24.3,21.9,48.5,43.7,72.8,65.6c10.3,9.3,21.5,9.7,30.2-0.2C2418.1,2016.7,2419.3,2008.4,2414.4,2004.2z"/>
						<path d="M2514.6,1879.1c-6.8-1.1-13.5-5-19.3-8.7c-25.7-16.4-51.4-32.7-77.1-49.1c-5.5-3.5-11.1-1.4-14.6,3.9
							c-2.9,4.5-2.7,9.1-2.3,11.4c6.8,1.8,13.4,5.6,19,9.3c9.9,6.5,14.8,9.8,24.7,16.4c-11.3,17.4-17.2,25.9-29.3,42.5
							c-14.4-10.6-21.6-15.8-36-26.4c-5.3-3.9-11-2.2-14.6,2.6c-3.1,4.2-3.4,8.8-3.1,11.2c6.7,2.2,13,6.5,18.3,10.6
							c24.3,18.4,48.6,36.9,72.8,55.3c5,3.8,11.1,2.3,15.3-3.3c3.5-4.7,3.8-9.9,3.6-12.4c-6.7-1.6-13.1-5.9-18.7-10
							c-11.6-8.5-17.3-12.7-28.9-21.2c12.2-16.8,18.1-25.3,29.6-42.9c17,11.2,25.6,16.8,42.6,28c5.3,3.5,11.3,1.5,15.1-4.5
							C2514.9,1886.9,2514.9,1881.6,2514.6,1879.1z"/>
						<path d="M2554.4,1781.4c-4.1-5.2-7.1-4.7-9.2-2.8c6,7.4,6.3,19.4-0.3,31.9c-7.8,14.8-20.3,21-41.1,11.1
							c4.1-5.4,7.2-11,10.3-16.5c8.4-14.8,14.1-39.8-4.8-49.6c-15.3-7.9-29.7,2.9-39.4,19.6c-13.5,23.1-2.5,50.1,19,63.3
							c22.5,13.8,51.9,7.9,64-16.9C2560.5,1806.2,2562.1,1791,2554.4,1781.4z M2497.6,1818.2c-6.1,1.5-28.3-26.6-21.7-39
							c3.4-6.4,9.7-11.5,20.8-5.5c17,9.1,12.4,24.5,5.4,37C2500.8,1813.3,2498.5,1818,2497.6,1818.2z"/>
						<path d="M2607,1673.4c-1.7-0.6-4.3-1-6.9-0.1c1.5,2.1,1.1,5,0.5,6.7c-1.6,4.2-5.2,5.3-11.1,2.9c-12.1-4.9-18.1-7.3-30.1-12.1
							c-22.6-9.8-40.8-0.1-50,22c-8.8,21.1-8.6,37.4,4.1,43.7c7.6,3.7,17.1,1.4,21.5-8.3c1.8-4,2.5-8.7,1.2-12.3
							c-4.5,4.2-10.4,3.4-14.7,1.4c-9.3-4.3-9.3-12.5-6-20.3c5.7-13.2,16.6-14.1,34.9-6.3c1.6,0.7,2.4,1,4.1,1.7
							c-3.4,7.8-6.7,18-8.4,28.6c-2.9,17.5-1.6,35.8,12.7,42.8c11.5,5.7,23-0.2,29.3-14.3c7.5-16.9,3.5-34.4-7.1-47.2
							c16.7,6.7,25.8,2.6,30.4-9.2C2614.9,1683.7,2612.6,1675.6,2607,1673.4z M2580.7,1734c-3.2,8.6-10.4,9.2-16.3,6.4
							c-7.3-3.4-10.4-11.3-10.2-20.6c0.1-7.6,3.1-17.7,6.6-25.4C2577.3,1701.7,2585.2,1722.1,2580.7,1734z"/>
						<path d="M2625.1,1620.6c-1.7-0.6-4.4-0.8-7,0.5c1.6,1.9,1.3,5.1,0.6,7.4c-1.5,4.7-5.3,6-11.2,4c-21.4-7.5-42.9-15-64.3-22.5
							c-15.5-5.4-23.9-8.8-31.6-14.2c-2,1.1-5.9,3.9-7.8,9.5c-2.1,6.3-0.1,12.3,5.8,14.5c30.7,11.4,61.5,22.8,92.2,34.3
							c13.1,4.9,23.8,0.3,28.4-13.8C2633.1,1631.6,2631.3,1622.6,2625.1,1620.6z"/>
						<path d="M2643.4,1556.4c-1.7-0.5-4.3-0.3-7,1c1.7,1.8,1.5,6.4,0.6,9.6c-1.7,6.3-5.8,8.6-11.8,6.9c-20.4-6-30.6-9-51-15
							c-2.2-0.6-3.4-1-5.6-1.6c2-7.2,2.9-10.8,4.8-18.1c0.8-2.9-0.4-5.7-3.4-6.7c-1.8-0.6-2.7-0.9-4.6-1.4c-0.3,2-4.2,18.1-4.7,20
							c-0.4,1.4-0.6,2-0.9,3.4c-7.2-2.5-12.6-4.9-17.7-8.2c-1.8,1.3-5.6,4.4-7.2,10.3c-1.9,6.8,0.1,12.9,6.2,14.7
							c5.1,1.6,7.7,2.4,12.8,4c-1,3.3-1.5,5-2.5,8.2c-0.9,3-0.1,5.7,2.9,6.9c1.9,0.7,2.9,1.1,4.8,1.8c0.4-2.5,2-9,2.7-11.5
							c0.3-1,0.5-1.6,0.8-2.6c19.3,6,38.6,12,57.8,18.1c13.3,4.1,24.1-1.5,28.3-16.6C2652.1,1567.6,2649.8,1558.1,2643.4,1556.4z"/>
						<path d="M2675.5,1436.9c-6.8,2.1-15.6,1.1-21.4,0.2c-13.4-2.1-20-3.1-33.4-5.2c-19.8-4.5-38.1,6.3-41.2,26.7
							c-2.4,14.9,1.6,27.1,12.1,35.6c-6-1.3-9-2-15-3.4c-15-3.6-25.7-6.6-33.9-11.6c-2,1.8-6.2,6.7-7.2,13.2
							c-0.9,5.9,1.3,10.9,7.5,12.4c35.7,8.7,71.4,17.4,107.1,26.1c6.7,1.7,12.2-3,13.9-10.7c1.5-6.6-0.1-11.9-1.2-14.2
							c-8.8,2.1-15.4,0-40-4.9c-17.1-3.4-37.5-15.2-35.4-33.3c1.5-12.8,13.6-16,32.2-12.6c18.2,3.3,27.2,5,45.4,8.3
							c6.3,1.1,11.2-4.1,12.5-12.1C2678.6,1445.2,2677.2,1440.3,2675.5,1436.9z"/>
					</g>
				</g>
			</g>
			<g>
				<g>
					<path class="st5" d="M1812.7,1236.5l-0.4-6.4l-6.3-110.5h-483.9l-6.5,110.5l-0.4,6.4l-31.9,542.6
						c32.2,14.4,65.6,26.3,100.2,35.6l30.3-578.2l0.4-6.4h285.6l0.3,6.4l30.4,580.4c39.2-10,76.9-23.4,113-39.8L1812.7,1236.5z
						 M1724.3,1818.4l-30.5-581.9h-273.5l-30.4,579.8c40.6,10.5,82.6,17.4,125.8,20.2v-65.6c0-22.4,18.4-40.7,40.7-40.7
						c11.2,0,21.4,4.6,28.8,12c7.4,7.4,12,17.5,12,28.8v66.2C1640.7,1834.9,1683.3,1828.5,1724.3,1818.4z M1581,1627.7
						c0,4.8-3.9,8.8-8.8,8.8h-31.7c-4.8,0-8.8-3.9-8.8-8.8v-59.1c0-4.8,3.9-8.8,8.8-8.8h31.7c4.8,0,8.8,3.9,8.8,8.8V1627.7z
						 M1581,1489.5c0,4.8-3.9,8.8-8.8,8.8h-31.7c-4.8,0-8.8-4-8.8-8.8v-49.2c0-4.8,3.9-8.8,8.8-8.8h31.7c4.8,0,8.8,3.9,8.8,8.8
						V1489.5z M1581,1354.2c0,4.8-3.9,8.8-8.8,8.8h-31.7c-4.8,0-8.8-3.9-8.8-8.8V1305c0-4.8,3.9-8.8,8.8-8.8h31.7
						c4.8,0,8.8,3.9,8.8,8.8V1354.2z"/>
					<rect x="1270.1" y="1029.8" class="st5" width="578.1" height="29.2"/>
					<rect x="1398.4" y="1002.7" class="st5" width="319.9" height="20.7"/>
					<polygon class="st5" points="1792.8,1065.3 1762,1113.4 1362.6,1113.4 1330.2,1065.3 					"/>
					<rect x="1433.9" y="738.4" class="st5" width="52.6" height="258.5"/>
					<rect x="1626.2" y="737.9" class="st5" width="52.6" height="258.5"/>
					<g>
						<path class="st5" d="M1492.8,737.9v258.5H1620V737.9H1492.8z M1555.6,788.4c13.3,0,24,10.8,24,24.1c0,13.3-10.8,24-24,24
							s-24-10.8-24-24C1531.5,799.2,1542.3,788.4,1555.6,788.4z M1581,933c0,4.8-3.9,8.8-8.8,8.8h-31.7c-4.8,0-8.8-4-8.8-8.8v-34.3
							c0-4.8,3.9-8.8,8.8-8.8h31.7c4.8,0,8.8,3.9,8.8,8.8V933z"/>
					</g>
					<g>
						<path class="st5" d="M1611.6,489.5l-14.4-14.4l-31.6-31.6c-5.1-5.1-13.4-5.1-18.5,0l-32.2,32.2l-13.8,13.8
							c-5.1,5.1-5.1,13.4,0,18.5l1.7,1.7h6.4v28.2h-6.4v169.6h107V537.9h-6.4v-28.2h6.4l1.7-1.7
							C1616.7,502.9,1616.7,494.6,1611.6,489.5z M1581,678.7h-49.3V547.9h6.4v124.4h36.6V547.9h6.3V678.7z M1588.6,537.9h-64.5
							v-28.2h64.5V537.9z"/>
					</g>
					<rect x="1492.8" y="713.9" class="st5" width="127.2" height="17.6"/>
					<rect x="1626.3" y="713.9" class="st5" width="64.8" height="17.6"/>
					<rect x="1421.8" y="713.9" class="st5" width="64.7" height="17.6"/>
					<rect x="1456" y="678.7" class="st5" width="36.6" height="28.8"/>
					<rect x="1620" y="678.7" class="st5" width="36.6" height="28.8"/>
				</g>
				<g>
					<path class="st6" d="M2108.8,681.3c-0.3,3-3.1,5.1-6,4.8l-7.4-0.8l-46-5.2L1623,631.9l358.5,69.1c2.9,0.6,4.9,3.4,4.3,6.3
						c-0.6,3-3.4,4.9-6.4,4.3l-347.2-66.9l266.4,71.6c2.9,0.8,4.6,3.7,3.8,6.7c-0.8,2.9-3.8,4.6-6.7,3.8l-279.7-75.1v-31.4
						l420.9,47.5l47.8,5.4l19.1,2.2C2107,675.6,2109.2,678.3,2108.8,681.3z"/>
					<path class="st6" d="M2181.5,637.6c-0.1,3-2.7,5.3-5.7,5.1l-61.6-3.2l-64.4-3.4l-50.5-2.7l-383.1-20.1v-10.9l368.9,19.3
						l52.7,2.8l62.5,3.3l76.1,4C2179.4,632,2181.7,634.6,2181.5,637.6z"/>
					<path class="st6" d="M2370.6,533.5c0.1,3-2.2,5.5-5.1,5.7l-364.1,19.1l-42.9,2.2l-59.4,3.1l-278.5,14.6l311.4,5.4l59.2,1
						l52.6,0.9l201.6,3.5c3,0.1,5.4,2.5,5.3,5.5c0,3-2.5,5.4-5.5,5.3l-185.7-3.2l-54.6-1l-56.4-1l-332.4-5.8v-21.4l265-13.9
						l62.4-3.3l40.8-2.2l380.5-19.9C2367.9,528.2,2370.5,530.5,2370.6,533.5z"/>
					<path class="st6" d="M2397.8,443.6l-471,74.6l-28.9,4.6l-60.6,9.6l-221.1,35v-11l202.3-32l63.6-10.1l27.1-4.3l486.9-77.1
						c3-0.5,5.7,1.6,6.2,4.5C2402.8,440.4,2400.8,443.2,2397.8,443.6z"/>
					<path class="st6" d="M1496.5,556.4v11l-214-33.9l-63.5-10.1l-29.1-4.6l-475-75.2c-3-0.4-5-3.2-4.5-6.2c0.5-3,3.2-5,6.2-4.5
						l490.9,77.8l27.2,4.3l66.4,10.5L1496.5,556.4z"/>
					<path class="st6" d="M1496.5,567.6V589l-322.4,5.6l-60.8,1.1l-54.6,1L867.5,600c-3,0.1-5.5-2.3-5.5-5.3c-0.1-3,2.3-5.5,5.3-5.5
						l207.2-3.6l52.6-0.9l63.6-1.1l301.4-5.2l-269.6-14.1l-63.2-3.3l-42.9-2.2l-369.1-19.3c-3-0.2-5.3-2.7-5.1-5.7
						c0.1-3,2.7-5.3,5.7-5.1l385.4,20.2l40.9,2.1l66.3,3.5L1496.5,567.6z"/>
					<path class="st6" d="M1496.5,602.5v10.9l-372.7,19.5l-55.2,2.9l-64.4,3.4l-67.4,3.5c-3,0.2-5.5-2.1-5.7-5.1
						c-0.2-3,2.1-5.5,5.1-5.7l81.9-4.3l62.5-3.3l57.4-3L1496.5,602.5z"/>
					<path class="st6" d="M1496.5,620.2v31.4l-279.7,75.1c-2.9,0.8-5.9-0.9-6.7-3.8c-0.8-2.9,1-5.9,3.9-6.7l266.4-71.6l-347.2,66.9
						c-2.9,0.6-5.8-1.3-6.3-4.3c-0.6-2.9,1.3-5.8,4.3-6.3l358.5-69.1l-415.5,46.9l-50.9,5.7l-13.4,1.5c-3,0.4-5.7-1.8-6-4.8
						c-0.3-3,1.8-5.7,4.8-6l25.1-2.8l52.8-6L1496.5,620.2z"/>
				</g>
			</g>
		</g>
	</g>
</g>
</svg>
