<?xml version="1.0" encoding="utf-8"?>
<!-- Generator: Adobe Illustrator 22.0.0, SVG Export Plug-In . SVG Version: 6.00 Build 0)  -->
<svg version="1.1" id="Layer_1" xmlns="http://www.w3.org/2000/svg" xmlns:xlink="http://www.w3.org/1999/xlink" x="0px" y="0px"
	 viewBox="0 0 1133.9 1133.9" style="enable-background:new 0 0 1133.9 1133.9;" xml:space="preserve">
<style type="text/css">
	.st0{fill:#C40D0D;}
	.st1{fill:#FFFFFF;}
</style>
<rect y="0" class="st0" width="1133.9" height="1133.9"/>
<path class="st1" d="M567,663c53,0,96-43,96-96h-80c-8.8,0-16-7.2-16-16s7.2-16,16-16h80v-32h-80c-8.8,0-16-7.2-16-16s7.2-16,16-16
	h80v-32.9h-80c-8.8,0-16-7.2-16-16s7.2-16,16-16l80,0.9c0-53-43-96-96-96s-96,43-96,96v160C471,620,513.1,663,567,663z M719,503
	c-13.3,0-24,10.7-24,23.1V567c0,73.3-62,132.4-136.3,127.7C492.6,690.5,439,628.1,439,561.9v-35.8c0-12.4-10.8-23.1-24-23.1
	s-24,10.7-24,23.1v32.1c0,89.7,64,169.6,152,181.7v35h-40c-18.2,0-32.8,15.2-32,33.6c0.4,8.2,7.8,14.4,16,14.4h160
	c8.2,0,15.6-6.2,16-14.4c0.8-18.4-13.8-33.6-32-33.6h-40v-33.8c85.7-11.7,152-85.3,152-174.2v-40.9C743,513.7,732.3,503,719,503z"/>
</svg>
